<?xml version="1.0" encoding="UTF-8"?>
<svg width="200px" height="43px" viewBox="0 0 200 43" version="1.1" xmlns="http://www.w3.org/2000/svg" xmlns:xlink="http://www.w3.org/1999/xlink">
    <!-- Generator: Sketch 64 (93537) - https://sketch.com -->
    <title>Nerves Hub Landscape</title>
    <desc>Created with Sketch.</desc>
    <g id="Symbols" stroke="none" stroke-width="1" fill="none" fill-rule="evenodd">
        <g id="Logo-/-NervesHub-Copy" fill="#FFFFFF" fill-rule="nonzero">
            <g id="Nerves-Hub-Landscape" transform="translate(0.000000, -0.000000)">
                <path d="M189.839888,17.4775281 L195.66573,17.4775281 C195.825843,17.4775281 195.918539,17.3848315 195.918539,17.2696629 L195.918539,15.0140449 C195.918539,14.8988764 195.825843,14.8061798 195.66573,14.8061798 L191.657303,14.8061798 C190.575843,14.8061798 189.837079,14.0702247 189.837079,12.9859551 L189.837079,7.11516854 C189.837079,6.03370787 190.573034,5.29494382 191.657303,5.29494382 L199.69382,5.29494382 L199.69382,8.63483146 L194.075843,8.63483146 C193.938202,8.63483146 193.845506,8.75 193.845506,8.88764045 L193.845506,11.1685393 C193.845506,11.261236 193.938202,11.3764045 194.075843,11.3764045 L198.081461,11.3764045 C199.162921,11.3764045 199.901685,12.1123596 199.901685,13.1966292 L199.901685,19.0224719 C199.901685,20.1039326 199.16573,20.8426966 198.081461,20.8426966 L189.837079,20.8426966 L189.837079,17.4775281 L189.839888,17.4775281 Z" id="Path"></path>
                <path d="M12.6797753,0 L2.52808989,0 C1.13202247,0 0,1.13202247 0,2.52808989 L0,40.4691011 C0,41.8651685 1.13202247,42.997191 2.52808989,42.997191 L10.991573,42.997191 C12.3876404,42.997191 13.5196629,41.8651685 13.5196629,40.4691011 L13.5196629,38.9494382 C13.5196629,37.5533708 12.3876404,36.4213483 10.991573,36.4213483 L9.10674157,36.4213483 C7.71067416,36.4213483 6.57865169,35.2893258 6.57865169,33.8932584 L6.57865169,9.10393258 C6.57865169,7.70786517 7.71067416,6.5758427 9.10674157,6.5758427 L10.8960674,6.5758427 C11.4297753,6.5758427 11.9466292,6.74438202 12.3792135,7.05617978 L35.8174157,24.0280899 C37.488764,25.238764 39.8286517,24.0449438 39.8286517,21.9803371 L39.8286517,20.9016854 C39.8286517,20.1039326 39.4522472,19.3539326 38.8117978,18.8764045 L14.1910112,0.502808989 C13.755618,0.176966292 13.2247191,0 12.6797753,0 Z" id="Path"></path>
                <path d="M40.3230337,42.997191 L50.4747191,42.997191 C51.8707865,42.997191 53.002809,41.8651685 53.002809,40.4691011 L53.002809,2.52808989 C53.002809,1.13202247 51.8707865,0 50.4747191,0 L42.011236,0 C40.6151685,0 39.4831461,1.13202247 39.4831461,2.52808989 L39.4831461,4.04775281 C39.4831461,5.44382022 40.6151685,6.5758427 42.011236,6.5758427 L43.8960674,6.5758427 C45.2921348,6.5758427 46.4241573,7.70786517 46.4241573,9.10393258 L46.4241573,33.8904494 C46.4241573,35.2865169 45.2921348,36.4185393 43.8960674,36.4185393 L42.1067416,36.4185393 C41.5730337,36.4185393 41.0561798,36.25 40.6235955,35.9382022 L17.1882022,18.9691011 C15.5168539,17.758427 13.1769663,18.9522472 13.1769663,21.0168539 L13.1769663,22.0955056 C13.1769663,22.8932584 13.5533708,23.6432584 14.1938202,24.1207865 L38.8117978,42.494382 C39.247191,42.8230337 39.7780899,42.997191 40.3230337,42.997191 Z" id="Path"></path>
                <polygon id="Path" points="70.9438202 12.2949438 70.9438202 20.8370787 67.258427 20.8370787 67.258427 5.29494382 70.9438202 5.29494382 75.5955056 13.8595506 75.5955056 5.29494382 79.2808989 5.29494382 79.2808989 20.8370787 75.4803371 20.8370787"></polygon>
                <polygon id="Path" points="93.4831461 5.29494382 103.63764 5.29494382 103.63764 8.63483146 97.4662921 8.63483146 97.4662921 11.3511236 102.808989 11.3511236 102.808989 14.6657303 97.4662921 14.6657303 97.4662921 17.4747191 103.63764 17.4747191 103.63764 20.8370787 93.4831461 20.8370787"></polygon>
                <path d="M127.053371,5.29494382 C127.997191,5.29494382 128.803371,6.05617978 128.803371,7.04494382 L128.803371,14.1601124 C128.803371,15.1039326 127.997191,15.9101124 127.053371,15.9101124 L126.938202,15.9101124 L128.848315,20.8370787 L124.932584,20.8370787 L122.997191,15.9101124 L121.292135,15.9101124 L121.292135,20.8370787 L117.286517,20.8370787 L117.286517,5.29494382 L127.053371,5.29494382 Z M124.820225,8.86516854 C124.820225,8.75 124.705056,8.63483146 124.61236,8.63483146 L121.297753,8.63483146 L121.297753,12.7808989 L124.61236,12.7808989 C124.705056,12.7808989 124.820225,12.6657303 124.820225,12.5730337 L124.820225,8.86516854 Z" id="Shape"></path>
                <polygon id="Path" points="153.668539 5.29494382 149.039326 20.8370787 145.171348 20.8370787 140.657303 5.29494382 144.941011 5.29494382 147.106742 15.1741573 149.707865 5.29494382"></polygon>
                <polygon id="Path" points="166.353933 5.29494382 176.508427 5.29494382 176.508427 8.63483146 170.337079 8.63483146 170.337079 11.3511236 175.679775 11.3511236 175.679775 14.6657303 170.337079 14.6657303 170.337079 17.4747191 176.508427 17.4747191 176.508427 20.8370787 166.353933 20.8370787"></polygon>
                <polygon id="Path" points="79.0730337 42.997191 75.0674157 42.997191 75.0674157 36.8258427 71.2668539 36.8258427 71.2668539 42.997191 67.261236 42.997191 67.261236 27.4550562 71.2668539 27.4550562 71.2668539 33.3960674 75.0674157 33.3960674 75.0674157 27.4550562 79.0730337 27.4550562"></polygon>
                <path d="M97.0561798,27.4550562 L97.0561798,39.4297753 C97.0561798,39.5449438 97.1713483,39.6376404 97.2640449,39.6376404 L100.188202,39.6376404 C100.325843,39.6376404 100.441011,39.5449438 100.441011,39.4297753 L100.441011,27.4550562 L104.446629,27.4550562 L104.446629,41.2247191 C104.446629,42.238764 103.662921,42.997191 102.696629,42.997191 L94.8230337,42.997191 C93.8792135,42.997191 93.0505618,42.2359551 93.0505618,41.2247191 L93.0505618,27.4550562 L97.0561798,27.4550562 Z" id="Path"></path>
                <path d="M118.424157,42.997191 L118.424157,27.4550562 L128.002809,27.4550562 C129.269663,27.4550562 130.075843,28.261236 130.075843,29.4129213 L130.075843,32.8651685 C130.075843,33.9241573 129.384831,34.9382022 127.957865,35.2837079 C129.384831,35.6292135 130.191011,36.5955056 130.191011,37.6320225 L130.191011,41.0168539 C130.191011,42.2359551 129.384831,42.997191 128.117978,42.997191 L118.424157,42.997191 L118.424157,42.997191 Z M126.230337,30.7949438 C126.230337,30.6797753 126.160112,30.5421348 126,30.5421348 L122.407303,30.5421348 L122.407303,33.7668539 L126,33.7668539 C126.160112,33.7668539 126.230337,33.6516854 126.230337,33.5140449 L126.230337,30.7949438 Z M126.230337,36.8735955 C126.230337,36.758427 126.160112,36.6207865 126,36.6207865 L122.407303,36.6207865 L122.407303,40.0505618 L126,40.0505618 C126.160112,40.0505618 126.230337,39.9353933 126.230337,39.8202247 L126.230337,36.8735955 Z" id="Shape"></path>
            </g>
        </g>
    </g>
</svg>