<?xml version="1.0" encoding="UTF-8"?>
<svg width="200px" height="43px" viewBox="0 0 200 43" version="1.1" xmlns="http://www.w3.org/2000/svg" xmlns:xlink="http://www.w3.org/1999/xlink">
    <!-- Generator: Sketch 63.1 (92452) - https://sketch.com -->
    <title>Logo / NervesHub Copy</title>
    <desc>Created with Sketch.</desc>
    <g id="Symbols" stroke="none" stroke-width="1" fill="none" fill-rule="evenodd">
        <g id="Layout-/-Footer" transform="translate(-120.000000, -91.000000)" fill="#FFFFFF">
            <g id="Group-7">
                <g id="Logo-/-Nerves-White" transform="translate(120.000000, 91.000000)">
                    <g id="Nerves-Landscape">
                        <g id="Group" transform="translate(0.000000, 0.000000)" fill-rule="nonzero">
                            <path d="M12.6312845,0.00279220779 L2.51730648,0.00279220779 C1.1271939,0.00279220779 0,1.12805195 0,2.51577922 L0,40.2440909 C0,41.6318182 1.1271939,42.7570779 2.51730648,42.7570779 L10.9474862,42.7570779 C12.3375988,42.7570779 13.4647927,41.6318182 13.4647927,40.2440909 L13.4647927,38.7335065 C13.4647927,37.3457792 12.3375988,36.2205195 10.9474862,36.2205195 L9.06789735,36.2205195 C7.67778477,36.2205195 6.55059087,35.0952597 6.55059087,33.7075325 L6.55059087,9.05792208 C6.55059087,7.67019481 7.67778477,6.54493506 9.06789735,6.54493506 L10.8495909,6.54493506 C11.3810223,6.54493506 11.8956716,6.71246753 12.3264107,7.0224026 L35.6730299,23.8985065 C37.3372491,25.1019481 39.6671561,23.9152597 39.6671561,21.862987 L39.6671561,20.7907792 C39.6671561,19.9977922 39.2923572,19.2494805 38.6546395,18.7748052 L14.1360744,0.502597403 C13.7025383,0.178701299 13.1739039,0.00279220779 12.6312845,0.00279220779 Z" id="Path"></path>
                            <path d="M40.1678204,42.7598701 L50.2790015,42.7598701 C51.669114,42.7598701 52.796308,41.6346104 52.796308,40.2468831 L52.796308,2.51857143 C52.796308,1.13084416 51.669114,0.00558441558 50.2790015,0.00558441558 L41.8488218,0.00558441558 C40.4587092,0.00558441558 39.3315153,1.13084416 39.3315153,2.51857143 L39.3315153,4.02915584 C39.3315153,5.41688312 40.4587092,6.54214286 41.8488218,6.54214286 L43.7284106,6.54214286 C45.1185232,6.54214286 46.2457171,7.6674026 46.2457171,9.05512987 L46.2457171,33.7047403 C46.2457171,35.0924675 45.1185232,36.2177273 43.7284106,36.2177273 L41.946717,36.2177273 C41.4152856,36.2177273 40.9006363,36.0501948 40.4698972,35.7402597 L17.1204811,18.8669481 C15.4562618,17.6635065 13.1263548,18.8501948 13.1263548,20.9024675 L13.1263548,21.9746753 C13.1263548,22.7676623 13.5011538,23.515974 14.1388714,23.9906494 L38.6602336,42.2628571 C39.0965667,42.5867532 39.622404,42.7598701 40.1678204,42.7598701 Z" id="Path"></path>
                            <path d="M12.7375708,0 L2.66834487,0 C1.2810293,0 0.159429411,1.11967532 0.159429411,2.50461039 L0.159429411,40.0793506 C0.159429411,41.4614935 1.2810293,42.583961 2.66834487,42.583961 L11.0621635,42.583961 C12.4466821,42.583961 13.5710789,41.4642857 13.5710789,40.0793506 L13.5710789,38.5743506 C13.5710789,37.1922078 12.4494791,36.0697403 11.0621635,36.0697403 L9.19096567,36.0697403 C7.8064471,36.0697403 6.68205021,34.9500649 6.68205021,33.5651299 L6.68205021,9.01603896 C6.68205021,7.6338961 7.80365009,6.51142857 9.19096567,6.51142857 L10.9642682,6.51142857 C11.4929026,6.51142857 12.0075519,6.67896104 12.435494,6.9861039 L35.6870149,23.7924026 C37.3456402,24.9902597 39.6671561,23.8091558 39.6671561,21.7652597 L39.6671561,20.6958442 C39.6671561,19.9056494 39.2923572,19.1629221 38.6602336,18.6882468 L14.2367667,0.497012987 C13.8032305,0.173116883 13.2773932,0 12.7375708,0 Z" id="Path"></path>
                            <path d="M40.1594294,42.5811688 L50.2286553,42.5811688 C51.6131739,42.5811688 52.7375708,41.4614935 52.7375708,40.0765584 L52.7375708,2.50461039 C52.7375708,1.12246753 51.6159709,0 50.2286553,0 L41.8348367,0 C40.4503182,0 39.3259213,1.11967532 39.3259213,2.50461039 L39.3259213,4.00961039 C39.3259213,5.39175325 40.4475212,6.51422078 41.8348367,6.51422078 L43.7060345,6.51422078 C45.0905531,6.51422078 46.21495,7.6338961 46.21495,9.01883117 L46.21495,33.5651299 C46.21495,34.9472727 45.0933501,36.0697403 43.7060345,36.0697403 L41.932732,36.0697403 C41.4040976,36.0697403 40.8894483,35.9022078 40.4615062,35.5950649 L17.2071883,18.7831818 C15.548563,17.5853247 13.2270471,18.7664286 13.2270471,20.8103247 L13.2270471,21.8797403 C13.2270471,22.6699351 13.601846,23.4126623 14.2339697,23.8873377 L38.6546395,42.0841558 C39.0937697,42.4080519 39.619607,42.5811688 40.1594294,42.5811688 Z" id="Path"></path>
                        </g>
                        <g id="Group" transform="translate(66.960352, 13.163265)" fill-rule="nonzero">
                            <polygon id="Path" points="3.76617522 7.1552739 3.76617522 15.5853061 0.0759422935 15.5853061 0.0759422935 0.249409237 3.76617522 0.249409237 8.42396923 8.70161117 8.42396923 0.249409237 12.1142022 0.249409237 12.1142022 15.5880773 8.30864945 15.5880773"></polygon>
                            <polygon id="Path" points="26.3435378 0.249409237 36.5141798 0.249409237 36.5141798 3.54438238 30.3319146 3.54438238 30.3319146 6.22691729 35.6816273 6.22691729 35.6816273 9.49972073 30.3319146 9.49972073 30.3319146 12.2709345 36.5141798 12.2709345 36.5141798 15.5880773 26.3435378 15.5880773 26.3435378 0.249409237"></polygon>
                            <path d="M59.9690978,0.249409237 C60.9141575,0.249409237 61.7213959,1.00040816 61.7213959,1.9758754 L61.7213959,8.99813104 C61.7213959,9.92925886 60.9141575,10.7245972 59.9690978,10.7245972 L59.853778,10.7245972 L61.7692114,15.5880773 L57.8483389,15.5880773 L55.9104041,10.7245972 L54.2031088,10.7245972 L54.2031088,15.5880773 L50.189418,15.5880773 L50.189418,0.249409237 L59.9690978,0.249409237 Z M57.7330192,3.77162191 C57.7330192,3.65800215 57.6176994,3.54438238 57.524881,3.54438238 L54.2031088,3.54438238 L54.2031088,7.63469388 L57.524881,7.63469388 C57.6176994,7.63469388 57.7330192,7.52107411 57.7330192,7.42962406 L57.7330192,3.77162191 Z" id="Shape"></path>
                            <polygon id="Path" points="86.6304682 0.249409237 81.9951756 15.5880773 78.119306 15.5880773 73.5993332 0.249409237 77.8886664 0.249409237 80.0572408 9.99853921 82.6645929 0.249409237"></polygon>
                            <polygon id="Path" points="99.3381453 0.249409237 109.508787 0.249409237 109.508787 3.54438238 103.326522 3.54438238 103.326522 6.22691729 108.676235 6.22691729 108.676235 9.49972073 103.326522 9.49972073 103.326522 12.2709345 109.508787 12.2709345 109.508787 15.5880773 99.3381453 15.5880773"></polygon>
                            <path d="M122.860568,12.2709345 L128.696873,12.2709345 C128.857196,12.2709345 128.950014,12.1794844 128.950014,12.0658647 L128.950014,9.83780881 C128.950014,9.72418904 128.857196,9.63273899 128.696873,9.63273899 L124.683183,9.63273899 C123.600302,9.63273899 122.860568,8.90668099 122.860568,7.83699248 L122.860568,2.04238453 C122.860568,0.97546724 123.597489,0.246638024 124.683183,0.246638024 L132.733066,0.246638024 L132.733066,3.54161117 L127.104898,3.54161117 C126.967077,3.54161117 126.874258,3.65523093 126.874258,3.79102041 L126.874258,6.04124597 C126.874258,6.13269603 126.967077,6.24631579 127.104898,6.24631579 L131.118589,6.24631579 C132.20147,6.24631579 132.941204,6.97237379 132.941204,8.0420623 L132.941204,13.7923308 C132.941204,14.8592481 132.204282,15.5880773 131.118589,15.5880773 L122.860568,15.5880773 L122.860568,12.2709345 Z" id="Path"></path>
                        </g>
                    </g>
                </g>
            </g>
        </g>
    </g>
</svg>