<svg width="80px" height="80px" viewBox="0 0 80 80" version="1.1"
  xmlns="http://www.w3.org/2000/svg"
  xmlns:xlink="http://www.w3.org/1999/xlink">
  <g stroke="none" stroke-width="1" fill="none" fill-rule="evenodd">
    <g transform="translate(-15.000000, -15.000000)" fill-rule="nonzero">
      <g transform="translate(15.000000, 15.000000)">
        <path d="M79.8617303,39.9220273 L79.8617303,41.2318129 C79.8149466,42.3546199 78.9728414,43.2902924 77.8500344,43.4775828 L73.1248882,44.1791813 C71.6278121,44.3664717 70.3644983,43.1968811 70.4582215,41.6998051 C70.5050051,41.0916179 70.5050051,40.5302144 70.5050051,39.9220273 C70.5050051,39.8752437 70.5050051,39.8752437 70.5050051,39.8283041 C70.4582215,23.1265497 56.6414574,9.51267057 39.939703,9.51267057 C30.2554924,9.51267057 21.4447322,14.0973099 15.8773248,21.208577 L19.4328804,24.7641326 C20.0876952,25.4189474 20.2749856,26.3546199 19.9942839,27.1967251 C19.7135821,28.0388304 19.0586114,28.6002339 18.1697225,28.7407407 C18.1697225,28.7407407 3.15202266,30.8929435 2.68434235,30.9394152 C1.93564839,31.3138402 -0.216242446,30.2378168 0.0176756823,28.3195322 L2.26313377,12.8809357 C2.35685697,11.9920468 2.9650441,11.2436647 3.80714937,11.0097466 C4.64925463,10.6822612 5.58492714,10.9160234 6.19311428,11.5711501 L9.18726633,14.5185185 C16.4855119,5.76998051 27.6354535,-7.10542736e-15 39.939547,-7.10542736e-15 C61.928163,-7.10542736e-15 79.8617303,18.0272904 79.8617303,39.9220273 Z" id="Path" fill="#3A91AB"></path>
        <path d="M79.8617303,51.0565302 L77.6162722,66.4951267 C77.522549,67.3840156 76.9143618,68.1323977 76.0722566,68.3663158 C75.3238745,68.6473294 74.2944788,68.5068226 73.6862917,67.8049123 L70.9262137,65.0448343 C63.6279681,73.9803509 52.3839915,79.8440546 39.939703,79.8440546 C18.3256679,79.8440546 0.532295565,62.3781676 0.0176756823,40.9043275 C0.0176756823,40.4366472 0.0176756823,39.3606238 0.064459308,38.0974659 C0.111242934,36.9746589 0.953348197,36.0389864 2.07615521,35.8520078 L6.80130141,35.197037 C7.50289985,35.1033138 8.20481019,35.337232 8.71927412,35.8052242 C9.23389401,36.3198441 9.51475171,37.0215984 9.42118445,37.7231969 C9.32746126,38.9395712 9.37440083,39.5946979 9.37440083,39.9221832 C9.37440083,56.6705653 23.191009,70.33154 39.939703,70.33154 C49.7641084,70.33154 58.6685919,65.6063938 64.1893716,58.3549318 L60.4465256,54.6122417 C59.7917108,53.957271 59.6044203,53.0214425 59.8851221,52.1793372 C60.1658238,51.337232 60.8677342,50.7290448 61.7566231,50.6353216 C62.6922956,50.4951267 76.7273833,48.4831189 77.1952195,48.4366472 C78.7390792,48.2025731 80.0488648,49.6062378 79.8617303,51.0565302 Z" id="Path" fill="#3A91AB"></path>
        <path d="M79.8617303,39.9220273 L79.8617303,41.2318129 C79.8149466,42.3546199 78.9728414,43.2902924 77.8500344,43.4775828 L73.1248882,44.1791813 C71.6278121,44.3664717 70.3644983,43.1968811 70.4582215,41.6998051 C70.5050051,41.0916179 70.5050051,40.5302144 70.5050051,39.9220273 C70.5050051,39.8752437 70.5050051,39.8752437 70.5050051,39.8283041 C70.4582215,23.1265497 56.6414574,9.51267057 39.939703,9.51267057 L39.939703,-7.10542736e-15 C61.928163,-7.10542736e-15 79.8617303,18.0272904 79.8617303,39.9220273 Z" id="Path" fill="#42A7C6"></path>
        <path d="M79.8617303,51.0565302 L77.6162722,66.4951267 C77.522549,67.3840156 76.9143618,68.1323977 76.0722566,68.3663158 C75.3238745,68.6473294 74.2944788,68.5068226 73.6862917,67.8049123 L70.9262137,65.0448343 C63.6279681,73.9803509 52.3839915,79.8440546 39.939703,79.8440546 L39.939703,70.331384 C49.7641084,70.331384 58.6685919,65.6062378 64.1893716,58.3547758 L60.4465256,54.6120858 C59.7917108,53.957115 59.6044203,53.0212865 59.8851221,52.1791813 C60.1658238,51.337076 60.8677342,50.7288889 61.7566231,50.6351657 C62.6922956,50.4949708 76.7273833,48.482963 77.1952195,48.4364912 C78.7390792,48.2025731 80.0488648,49.6062378 79.8617303,51.0565302 Z" id="Path" fill="#42A7C6"></path>
      </g>
    </g>
  </g>
</svg>
