<svg width="110px" height="110px" viewBox="0 0 110 110" version="1.1"
  xmlns="http://www.w3.org/2000/svg"
  xmlns:xlink="http://www.w3.org/1999/xlink">
  <g stroke="none" stroke-width="1" fill="none" fill-rule="evenodd">
    <g transform="translate(8.000000, 0.000000)" fill-rule="nonzero">
      <path d="M49.2918642,50.7129267 L92.5708762,39.8432639 C93.4130885,39.6228837 94,38.8665634 94,38.0016319 C94,37.1367004 93.4130885,36.3803802 92.5708762,36.16 L49.2918642,25.2828318 C47.787549,24.9057227 46.212451,24.9057227 44.7081358,25.2828318 L1.42912376,36.165629 C0.586911527,36.3860092 0,37.1423295 0,38.007261 C0,38.8721925 0.586911527,39.6285127 1.42912376,39.8488929 L44.7081358,50.7185558 C46.2126853,51.0957109 47.7882584,51.093776 49.2918642,50.7129267 Z" id="Shape" fill="#42A7C6"></path>
      <path d="M49.2918642,37.7170559 L92.5708762,26.8430739 C93.4130885,26.6226061 94,25.8659854 94,25.0007102 C94,24.135435 93.4130885,23.3788142 92.5708762,23.1583464 L49.2918642,12.2843645 C47.7877865,11.9052118 46.2122135,11.9052118 44.7081358,12.2843645 L1.42912376,23.1583464 C0.586911527,23.3788142 0,24.135435 0,25.0007102 C0,25.8659854 0.586911527,26.6226061 1.42912376,26.8430739 L44.7081358,37.7170559 C46.212451,38.0943147 47.787549,38.0943147 49.2918642,37.7170559 Z" id="Shape" fill="#3A91AB"></path>
      <path d="M49.2918642,25.7170404 L92.5708762,14.8424644 C93.4130885,14.6219845 94,13.8653225 94,13 C94,12.1346774 93.4130885,11.3780155 92.5708762,11.1575355 L49.2918642,0.282959523 C47.787549,-0.0943198411 46.212451,-0.0943198411 44.7081358,0.282959523 L1.42912376,11.1575355 C0.586911527,11.3780155 0,12.1346774 0,13 C0,13.8653225 0.586911527,14.6219845 1.42912376,14.8424644 L44.7081358,25.7170404 C46.212451,26.0943199 47.787549,26.0943199 49.2918642,25.7170404 Z" id="Shape" fill="#42A7C6"></path>
      <path d="M77.7764688,74.0470591 L71.0752927,71.8070592 C70.5026503,69.5424327 69.6021566,67.3736383 68.4023517,65.3694125 L71.5647045,59.0258835 C71.9014581,58.3429233 71.7734389,57.5220947 71.2447045,56.9741189 L68.0258811,53.7552955 C67.4779053,53.2265611 66.6570767,53.0985419 65.9741165,53.4352955 L59.6305875,56.5976483 C57.6263617,55.3978434 55.4575673,54.4973497 53.1929408,53.9247073 L50.9529409,47.2235312 C50.720783,46.4942055 50.0430308,45.999218 49.2776469,46.0000009 L44.7223531,46.0000009 C43.9569692,45.999218 43.279217,46.4942055 43.0470591,47.2235312 L40.8070592,53.9247073 C38.5424327,54.4973497 36.3736383,55.3978434 34.3694125,56.5976483 L28.0258835,53.4352955 C27.3429233,53.0985419 26.5220947,53.2265611 25.9741189,53.7552955 L22.7552955,56.9741189 C22.2265611,57.5220947 22.0985419,58.3429233 22.4352955,59.0258835 L25.5976483,65.3694125 C24.3978434,67.3736383 23.4973497,69.5424327 22.9247073,71.8070592 L16.2235312,74.0470591 C15.4942056,74.279217 14.9992181,74.9569692 15.0000009,75.7223531 L15.0000009,80.2776469 C14.9992181,81.0430308 15.4942056,81.720783 16.2235312,81.9529409 L22.9247073,84.1929408 C23.4973497,86.4575673 24.3978434,88.6263617 25.5976483,90.6305875 L22.4352955,96.9741165 C22.0985419,97.6570767 22.2265611,98.4779053 22.7552955,99.0258811 L25.9741189,102.244704 C26.5220947,102.773439 27.3429233,102.901458 28.0258835,102.564704 L34.3694125,99.4023517 C36.3736383,100.602157 38.5424327,101.50265 40.8070592,102.075293 L43.0470591,108.776469 C43.279217,109.505795 43.9569692,110.000782 44.7223531,110.000001 L49.2776469,110.000001 C50.0430308,110.000782 50.720783,109.505795 50.9529409,108.776469 L53.1929408,102.075293 C55.4575673,101.50265 57.6263617,100.602157 59.6305875,99.4023517 L65.9741165,102.564704 C66.6570767,102.901458 67.4779053,102.773439 68.0258811,102.244704 L71.2447045,99.0258811 C71.7734389,98.4779053 71.9014581,97.6570767 71.5647045,96.9741165 L68.4023517,90.6305875 C69.6021566,88.6263617 70.5026503,86.4575673 71.0752927,84.1929408 L77.7764688,81.9529409 C78.5057945,81.720783 79.000782,81.0430308 79.0000009,80.2776469 L79.0000009,75.7223531 C79.000782,74.9569692 78.5057945,74.279217 77.7764688,74.0470591 Z M47,83.6470585 C43.8812158,83.6470585 41.3529415,81.1187842 41.3529415,78 C41.3529415,74.8812158 43.8812158,72.3529415 47,72.3529415 C50.1187842,72.3529415 52.6470585,74.8812158 52.6470585,78 C52.6470585,81.1187842 50.1187842,83.6470585 47,83.6470585 Z" id="Shape" fill="#3A91AB"></path>
      <path d="M47,61 C37.6111593,61 30,68.6111593 30,78 C30,87.3888407 37.6111593,95 47,95 C56.3888407,95 64,87.3888407 64,78 C64,68.6111593 56.3888407,61 47,61 Z M47,83.6666667 C43.8703865,83.6666667 41.3333333,81.1296135 41.3333333,78 C41.3333333,74.8703865 43.8703865,72.3333333 47,72.3333333 C50.1296135,72.3333333 52.6666667,74.8703865 52.6666667,78 C52.6666667,81.1296135 50.1296135,83.6666667 47,83.6666667 Z" id="Shape" fill="#42A7C6"></path>
      <path d="M37.6291262,65.673883 C36.7971419,65.6744911 36.0627255,65.1280195 35.8205875,64.3281672 C35.5784493,63.5283151 35.8856117,62.6634439 36.5769911,62.1983766 C37.8835013,61.3194061 39.2941099,60.607792 40.776087,60.0800453 C41.7598513,59.7309557 42.8389693,60.2493514 43.1863643,61.2379145 C43.5337593,62.2264777 43.01788,63.3108597 42.0341157,63.6599493 C40.8493233,64.0813958 39.7216819,64.6501987 38.6774835,65.3530958 C38.3672546,65.5617771 38.0024462,65.6734048 37.6291262,65.673883 Z" id="Shape" fill="#25677B"></path>
      <path d="M47.0737864,96.9629306 C40.4839159,96.9642884 34.3696916,93.5144687 30.9401634,87.8598769 C27.5106352,82.2052849 27.2616137,75.1634112 30.2830695,69.2784624 C30.5928258,68.6759329 31.1989377,68.2852319 31.8730888,68.2535325 C32.5472398,68.2218333 33.1870103,68.5539516 33.5514049,69.1247817 C33.9157996,69.695612 33.9494581,70.4184312 33.6397017,71.0209608 C32.5302519,73.1712819 31.9547702,75.5593279 31.9623301,77.9814634 C31.96345,86.1494365 38.3941206,92.8532346 46.5169226,93.1542281 C54.6397246,93.4552213 61.5442733,87.2455644 62.1440478,79.0998577 C62.7438222,70.9541512 56.8239241,63.7909859 48.7454913,62.8874037 C48.0641659,62.8273188 47.4683832,62.4018349 47.1878753,61.7750176 C46.9073672,61.1482004 46.9859567,60.4179757 47.3933401,59.8659159 C47.8007236,59.3138562 48.4732563,59.0262085 49.1516117,59.1138888 C59.123989,60.2165873 66.4987847,68.9607944 65.9461731,79.0269992 C65.3935617,89.0932041 57.1063554,96.9691943 47.0737864,96.9629306 L47.0737864,96.9629306 Z" id="Shape" fill="#25677B"></path>
    </g>
  </g>
</svg>
