<?xml version="1.0" encoding="UTF-8"?>
<svg width="1200pt" height="1200pt" version="1.1" viewBox="0 0 1200 1200" xmlns="http://www.w3.org/2000/svg">
 <path d="m600 0c-159.13 0-311.74 63.215-424.27 175.73-112.52 112.52-175.73 265.14-175.73 424.27s63.215 311.74 175.73 424.27c112.52 112.52 265.14 175.73 424.27 175.73 105.32 0 208.79-27.723 300-80.383 91.211-52.664 166.95-128.41 219.62-219.62 52.66-91.211 80.383-194.68 80.383-300 0-159.13-63.215-311.74-175.73-424.27-112.52-112.52-265.14-175.73-424.27-175.73zm153.48 612-283.08 282.96c-3.1523 3.2344-7.4805 5.0547-12 5.0391-4.5039-0.039062-8.8164-1.8477-12-5.0391-3.1641-3.1914-4.9414-7.5039-4.9414-12 0-4.4961 1.7773-8.8086 4.9414-12l271.08-270.96-270.96-270.96c-3.1641-3.1914-4.9414-7.5039-4.9414-12 0-4.4961 1.7773-8.8086 4.9414-12 3.1602-3.2227 7.4844-5.043 12-5.043s8.8398 1.8203 12 5.043l283.08 282.96c3.1484 3.207 4.9023 7.5312 4.8789 12.023-0.019531 4.4961-1.8203 8.8008-5 11.977z" fill="#5fa4c2"/>
</svg>
