<?xml version="1.0" encoding="UTF-8"?>
<svg width="1200pt" height="1200pt" version="1.1" viewBox="0 0 1200 1200" xmlns="http://www.w3.org/2000/svg">
 <g fill="#fff">
  <path d="m1136.9 729.66c0-4.2734-2.2812-8.2422-6-10.379l-312.36-180.32v-492.04c0-4.2852-2.2812-8.2578-6-10.391-0.55078-0.32422-1.1641-0.50391-1.7539-0.71875l-59.258-34.199c-3.7305-2.1484-8.293-2.1484-12 0l-669.73 386.66c-0.23828 0.10937-0.49219 0.16797-0.71875 0.28906-3.7188 2.1484-6 6.1094-6 10.391v566.98c0 4.2617 2.2578 8.207 5.9414 10.355l379.36 222.06c0.011719 0 0.023438 0.011719 0.023438 0.011719 0.011719 0.011719 0.023438 0.011719 0.035156 0.023437 0.625 0.34766 1.2852 0.5625 1.9453 0.80469 0.32422 0.12109 0.625 0.30078 0.96094 0.38281 1.0078 0.26562 2.0508 0.40625 3.0977 0.40625 1.0312 0 2.0742-0.14453 3.0859-0.39453 1.0078-0.26562 1.9922-0.67188 2.9141-1.2109l670.45-387.1c3.7188-2.1484 6-6.1094 6-10.391v-69.574c0-0.27734-0.097657-0.55078-0.10938-0.82813 0.019532-0.26562 0.11328-0.52734 0.11328-0.81641zm-988.84-288.73 646.48-373.23v470.86l-646.45 373.23zm306.42 663.6-293.87-172.01 645.82-372.85 294.5 170.02zm291.06-1078.7 36.254 20.93-646.34 373.16-36.254-20.93zm-658.45 394.01 36.707 21.191-0.023438 490.84c0 1.1875 0.21484 2.3281 0.53906 3.4336 0.69531 3.2891 2.6758 6.2031 5.6523 7.9336l312.49 182.05v41.762l-355.37-208.01zm1025.8 374.11-646.45 373.23v-41.867l646.45-373.22z"/>
  <path d="m360.77 909.67c0-4.2852-2.2812-8.2578-6-10.391l-35.219-20.34c-3.707-2.1367-8.293-2.1367-12 0l-68.172 39.359c-3.7188 2.1484-6 6.1094-6 10.391 0 4.2852 2.2812 8.2578 6 10.391l35.219 20.316c1.8594 1.0664 3.9258 1.6094 6 1.6094 2.0742 0 4.1406-0.53906 6-1.6094l68.172-39.336c3.7188-2.1484 6-6.1055 6-10.391zm-80.16 25.488-11.219-6.4688 44.172-25.5 11.219 6.4805z"/>
  <path d="m360.78 868.98 35.219 20.34c1.8477 1.0664 3.9258 1.6094 6 1.6094s4.1523-0.53906 6-1.6094l68.195-39.359c3.7188-2.1484 6-6.1094 6-10.391 0-4.2852-2.2812-8.2578-6-10.391l-35.219-20.34c-3.707-2.1367-8.293-2.1367-12 0l-68.195 39.359c-3.7188 2.1484-6 6.1094-6 10.391s2.2891 8.2422 6 10.391zm74.195-35.906 11.219 6.4922-44.195 25.512-11.219-6.4922z"/>
  <path d="m482.2 798.9 35.207 20.316c1.8477 1.0664 3.9258 1.6094 6 1.6094 2.0742 0 4.1523-0.53906 6-1.6094l68.195-39.359c3.7188-2.1484 6-6.1094 6-10.391 0-4.2852-2.2812-8.2578-6-10.391l-35.195-20.316c-3.707-2.1367-8.2695-2.1367-12 0l-68.207 39.359c-3.7188 2.1484-6 6.1094-6 10.391 0 4.2852 2.2812 8.2461 6 10.391zm74.195-35.902 11.195 6.4688-44.195 25.512-11.207-6.4688z"/>
  <path d="m603.61 728.8 35.195 20.34c1.8477 1.0664 3.9258 1.6094 6 1.6094 2.0742 0 4.1523-0.53906 6-1.6094l68.172-39.359c3.7188-2.1484 6-6.1094 6-10.391 0-4.2734-2.2812-8.2422-6-10.391l-35.195-20.34c-3.707-2.1367-8.293-2.1367-12 0l-68.172 39.359c-3.7188 2.1484-6 6.1094-6 10.391s2.2773 8.2422 6 10.391zm74.16-35.895 11.207 6.4805-44.184 25.5-11.207-6.4805z"/>
  <path d="m793.18 598.57-68.172 39.359c-3.7188 2.1484-6 6.1094-6 10.391 0 4.2852 2.2812 8.2578 6 10.391l35.219 20.316c1.8594 1.0664 3.9258 1.6094 6 1.6094 2.0742 0 4.1523-0.53906 6-1.6094l68.172-39.359c3.7188-2.1484 6-6.1094 6-10.391 0-4.2852-2.2812-8.2578-6-10.391l-35.219-20.316c-3.7305-2.1445-8.3047-2.1328-12 0zm-26.953 56.223-11.219-6.4688 44.172-25.512 11.219 6.4688z"/>
  <path d="m451.31 961.93c0-4.2852-2.2812-8.2578-6-10.391l-35.195-20.316c-3.707-2.1367-8.293-2.1367-12 0l-68.172 39.359c-3.7188 2.1484-6 6.1094-6 10.391 0 4.2852 2.2812 8.2578 6 10.391l35.195 20.316c1.8477 1.0664 3.9258 1.6094 6 1.6094s4.1523-0.53906 6-1.6094l68.172-39.359c3.7188-2.1367 6-6.0977 6-10.391zm-80.16 25.512-11.195-6.4688 44.172-25.512 11.195 6.4688z"/>
  <path d="m566.73 881.44-35.195-20.316c-3.707-2.1367-8.293-2.1367-12 0l-68.184 39.359c-3.7188 2.1484-6 6.1094-6 10.391 0 4.2852 2.2812 8.2578 6 10.391l35.207 20.316c1.8477 1.0664 3.9258 1.6094 6 1.6094s4.1523-0.53906 6-1.6094l68.172-39.359c3.7188-2.1484 6-6.1094 6-10.391 0-4.2852-2.2891-8.2422-6-10.391zm-74.172 35.902-11.207-6.4688 44.184-25.512 11.195 6.4688z"/>
  <path d="m607.95 871.51c1.8477 1.0664 3.9258 1.6094 6 1.6094 2.0742 0 4.1406-0.53906 6-1.6094l68.207-39.359c3.7188-2.1484 6-6.1094 6-10.391 0-4.2852-2.2812-8.2578-6-10.391l-35.207-20.34c-3.707-2.1367-8.293-2.1367-12 0l-68.199 39.367c-3.7188 2.1484-6 6.1094-6 10.391 0 4.2852 2.2812 8.2578 6 10.391zm39-56.242 11.207 6.4688-44.207 25.523-11.195-6.4688z"/>
  <path d="m729.36 801.41c1.8477 1.0664 3.9258 1.6094 6 1.6094s4.1523-0.53906 6-1.6094l68.172-39.359c3.7188-2.1484 6-6.1094 6-10.391 0-4.2852-2.2812-8.2578-6-10.391l-35.195-20.316c-3.707-2.1367-8.293-2.1367-12 0l-68.172 39.359c-3.7188 2.1484-6 6.1094-6 10.391 0 4.2852 2.2812 8.2578 6 10.391zm38.977-56.219 11.195 6.4688-44.172 25.512-11.195-6.4688z"/>
  <path d="m809.55 700.6c0 4.2734 2.2812 8.2578 6 10.391l35.207 20.34c1.8477 1.0664 3.9258 1.6094 6 1.6094s4.1523-0.53906 6-1.6094l68.172-39.359c3.7188-2.1484 6-6.1094 6-10.391 0-4.2852-2.2812-8.2578-6-10.391l-35.195-20.316c-3.707-2.1367-8.2695-2.1367-12 0l-68.184 39.336c-3.7188 2.1328-6 6.0938-6 10.391zm80.184-25.488 11.195 6.4688-44.172 25.5-11.207-6.4688z"/>
  <path d="m535.87 1003.8-35.195-20.34c-3.707-2.1367-8.293-2.1367-12 0l-68.172 39.371c-3.7188 2.1484-6 6.1094-6 10.391 0 4.2852 2.2812 8.2578 6 10.391l35.195 20.328c1.8477 1.0664 3.9258 1.6094 6 1.6094s4.1523-0.53906 6-1.6094l68.172-39.359c3.7188-2.1484 6-6.1094 6-10.391 0-4.2695-2.2773-8.2305-6-10.391zm-74.16 35.902-11.207-6.4688 44.184-25.512 11.207 6.4805z"/>
  <path d="m657.29 933.73-35.207-20.316c-3.707-2.1367-8.293-2.1367-12 0l-68.195 39.371c-3.7188 2.1484-6 6.1094-6 10.391 0 4.2852 2.2812 8.2578 6 10.391l35.195 20.305c1.8594 1.0664 3.9258 1.6094 6 1.6094s4.1406-0.53906 6-1.6094l68.207-39.359c3.7188-2.1484 6-6.1094 6-10.391s-2.2812-8.2539-6-10.391zm-74.195 35.906-11.195-6.457 44.195-25.523 11.207 6.4688z"/>
  <path d="m778.7 863.63-35.195-20.316c-3.707-2.1367-8.293-2.1367-12 0l-68.195 39.371c-3.7188 2.1484-6 6.1094-6 10.391 0 4.2852 2.2812 8.2578 6 10.391l35.195 20.328c1.8477 1.0664 3.9258 1.6094 6 1.6094 2.0742 0 4.1523-0.53906 6-1.6094l68.195-39.383c3.7188-2.1484 6-6.1094 6-10.391 0-4.2852-2.293-8.2539-6-10.391zm-74.195 35.914-11.207-6.4688 44.207-25.523 11.195 6.4688z"/>
  <path d="m900.1 793.55-35.195-20.316c-3.707-2.1367-8.2695-2.1367-12 0l-68.195 39.336c-3.7188 2.1484-6 6.1094-6 10.391 0 4.2734 2.2812 8.2422 6 10.391l35.195 20.34c1.8477 1.0664 3.9258 1.6094 6 1.6094 2.0742 0 4.1523-0.53906 6-1.6094l68.195-39.359c3.7188-2.1484 6-6.1094 6-10.391s-2.293-8.2422-6-10.391zm-74.199 35.895-11.195-6.4688 44.195-25.5 11.195 6.4688z"/>
  <path d="m900.12 752.89c0 4.2852 2.2812 8.2578 6 10.391l35.195 20.305c1.8594 1.0664 3.9258 1.6094 6 1.6094 2.0742 0 4.1406-0.53906 6-1.6094l68.184-39.336c3.7188-2.1484 6-6.1094 6-10.391 0-4.2734-2.2812-8.2578-6-10.391l-35.207-20.34c-3.707-2.1367-8.293-2.1367-12 0l-68.172 39.371c-3.7227 2.1484-6 6.1094-6 10.391zm80.16-25.512 11.207 6.4688-44.184 25.5-11.195-6.457z"/>
  <path d="m373.87 386.07c-3.707-2.1484-8.293-2.1484-12 0l-168.3 97.164c-3.7188 2.1484-6 6.1094-6 10.391v126.97c0 4.2852 2.2812 8.2578 6 10.391 1.8477 1.0664 3.9258 1.6094 6 1.6094 2.0742 0 4.1523-0.53906 6-1.6094l168.3-97.164c3.7188-2.1484 6-6.1094 6-10.391v-126.97c0-4.2852-2.2773-8.2461-6-10.395zm-18 130.43-144.3 83.305v-99.254l144.3-83.305z"/>
  <path d="m709.14 302.03-272.71 157.45c-5.7461 3.3125-7.7148 10.656-4.3906 16.391 2.2305 3.8516 6.2539 6 10.402 6 2.0391 0 4.1055-0.51562 5.9883-1.6094l272.71-157.44c5.7461-3.3125 7.7148-10.656 4.3906-16.391-3.3242-5.7578-10.68-7.7031-16.391-4.4023z"/>
  <path d="m442.44 428.9c2.0391 0 4.1055-0.51562 5.9883-1.6094l108.66-62.734c5.7461-3.3125 7.7148-10.656 4.3906-16.391-3.3125-5.7461-10.68-7.7148-16.391-4.3906l-108.66 62.734c-5.7461 3.3125-7.7148 10.656-4.3906 16.391 2.2188 3.8555 6.25 6 10.402 6z"/>
  <path d="m442.44 375.94c2.0391 0 4.1055-0.51562 5.9883-1.6094l213.05-123c5.7461-3.3125 7.7148-10.656 4.3906-16.391-3.3242-5.7461-10.691-7.7031-16.391-4.3906l-213.05 123c-5.7461 3.3125-7.7148 10.656-4.3906 16.391 2.2188 3.8398 6.25 6 10.402 6z"/>
  <path d="m373.87 563.68c-3.707-2.1484-8.293-2.1484-12 0l-168.3 97.176c-3.7188 2.1484-6 6.1094-6 10.391v126.96c0 4.2852 2.2812 8.2578 6 10.391 1.8477 1.0664 3.9258 1.6094 6 1.6094 2.0742 0 4.1523-0.53906 6-1.6094l168.3-97.176c3.7188-2.1484 6-6.1094 6-10.391v-126.96c0-4.2812-2.2773-8.2422-6-10.391zm-18 130.44-144.3 83.305v-99.254l144.3-83.316z"/>
  <path d="m709.14 479.63-272.7 157.44c-5.7461 3.3125-7.7148 10.656-4.3906 16.391 2.2305 3.8516 6.2539 6 10.402 6 2.0391 0 4.1055-0.51562 5.9883-1.6094l272.7-157.44c5.7461-3.3125 7.7148-10.656 4.3906-16.391-3.3242-5.7422-10.68-7.7109-16.391-4.3867z"/>
  <path d="m432.04 600.5c2.2305 3.8516 6.2539 6 10.402 6 2.0391 0 4.1055-0.51562 5.9883-1.6094l108.66-62.734c5.7461-3.3125 7.7148-10.656 4.3906-16.391-3.3242-5.7344-10.68-7.7031-16.391-4.3906l-108.66 62.734c-5.7344 3.3242-7.7031 10.656-4.3906 16.391z"/>
  <path d="m442.45 553.52c2.0391 0 4.1055-0.51563 5.9883-1.6094l213.04-123c5.7461-3.3125 7.7148-10.656 4.3906-16.391-3.3242-5.7461-10.691-7.7148-16.391-4.3906l-213.04 123c-5.7461 3.3125-7.7148 10.656-4.3906 16.391 2.2188 3.8516 6.25 6 10.402 6z"/>
 </g>
</svg>
