<?xml version="1.0" encoding="UTF-8"?>
<svg width="128pt" height="128pt" version="1.1" viewBox="0 0 128 128" xmlns="http://www.w3.org/2000/svg">
 <path d="m100 20h-16v-4c0-2.2109-1.7891-4-4-4s-4 1.7891-4 4v4h-28v-4c0-2.2109-1.7891-4-4-4s-4 1.7891-4 4v4h-12c-6.6289 0-12 5.3711-12 12v72c0 6.6289 5.3711 12 12 12h72c6.6289 0 12-5.3711 12-12v-72c0-6.6289-5.3711-12-12-12zm4 28h-80v-16c0-2.2109 1.7891-4 4-4h12v4c0 2.2109 1.7891 4 4 4s4-1.7891 4-4v-4h28v4c0 2.2109 1.7891 4 4 4s4-1.7891 4-4v-4c23.719 0.44141 19.68-4 20 20z" fill="#33637e"/>
</svg>
