<?xml version="1.0" encoding="UTF-8"?>
<svg width="1200pt" height="1200pt" version="1.1" viewBox="0 0 1200 1200" xmlns="http://www.w3.org/2000/svg">
 <g fill="#5fa4c2">
  <path d="m372.56 363.91c-30.574 0-55.961 25.211-55.961 55.785v360.51c0 30.574 25.387 55.961 55.961 55.961h454.82c30.574 0 55.961-25.387 55.961-55.961v-266.02c0-30.574-25.387-55.785-55.961-55.785h-171.54c-12.402 0-23.863-6.1445-30.855-16.387l-28.242-41.145c-15.766-23.09-41.949-36.961-69.902-36.961zm0 47.242h154.28c12.402 0 24.035 5.9688 31.031 16.211l28.066 41.316c15.766 23.086 41.949 36.785 69.906 36.785h171.54c5.0469 0 8.7148 3.668 8.7148 8.7148v266.02c0 5.0469-3.668 8.7148-8.7148 8.7148h-454.82c-5.0469 0-8.7148-3.668-8.7148-8.7148v-360.51c0-5.0469 3.668-8.543 8.7148-8.543z"/>
  <path d="m827.46 481.93h-171.61c-20.18 0-39.055-9.9648-50.438-26.629l-28.129-41.191v-0.003906c-11.379-16.664-30.258-26.633-50.438-26.633h-154.32c-8.5508 0-16.754 3.3984-22.801 9.4453-6.0508 6.0508-9.4453 14.254-9.4453 22.805v360.56c0 8.5508 3.3945 16.754 9.4453 22.805 6.0469 6.0469 14.25 9.4453 22.801 9.4453h454.93c8.5508 0 16.754-3.3984 22.801-9.4453 6.0508-6.0508 9.4453-14.254 9.4453-22.805v-266.1c0-8.5508-3.3945-16.754-9.4453-22.805-6.0469-6.0469-14.25-9.4453-22.801-9.4453z"/>
 </g>
</svg>
