<?xml version="1.0" encoding="UTF-8"?>
<svg width="1200pt" height="1200pt" version="1.1" viewBox="0 0 1200 1200" xmlns="http://www.w3.org/2000/svg">
 <g fill="#fff">
  <path d="m1100 787.5c-16.566 0.027344-32.449 6.6211-44.164 18.336-11.715 11.715-18.309 27.598-18.336 44.164v150c-0.027344 9.9375-3.9844 19.461-11.012 26.488-7.0273 7.0273-16.551 10.984-26.488 11.012h-800c-9.9375-0.027344-19.461-3.9844-26.488-11.012-7.0273-7.0273-10.984-16.551-11.012-26.488v-150c0-22.328-11.914-42.961-31.25-54.125-19.336-11.168-43.164-11.168-62.5 0-19.336 11.164-31.25 31.797-31.25 54.125v150c0.054688 43.082 17.191 84.383 47.652 114.85 30.465 30.461 71.766 47.598 114.85 47.652h800c43.082-0.054688 84.383-17.191 114.85-47.652 30.461-30.465 47.598-71.766 47.652-114.85v-150c-0.027344-16.566-6.6211-32.449-18.336-44.164-11.715-11.715-27.598-18.309-44.164-18.336z"/>
  <path d="m600 37.5c-16.566 0.027344-32.449 6.6211-44.164 18.336-11.715 11.715-18.309 27.598-18.336 44.164v566.55l-197.5-164.55c-12.738-10.59-29.156-15.695-45.656-14.199-16.496 1.5-31.727 9.4844-42.344 22.199-10.59 12.738-15.695 29.156-14.199 45.656 1.5 16.496 9.4844 31.727 22.199 42.344l300 250c3.1484 2.2344 6.4961 4.1758 10 5.8008 2.2852 1.5312 4.6758 2.9023 7.1484 4.0977 14.566 6.1328 30.988 6.1328 45.551 0 2.4141-1.2031 4.7539-2.5547 7-4.0469 3.5039-1.6289 6.8477-3.5703 10-5.8008l300-250c13.23-11.004 21.336-26.977 22.41-44.148 1.0742-17.176-4.9766-34.031-16.73-46.598-11.758-12.566-28.172-19.73-45.379-19.805-14.613 0.027344-28.762 5.1562-40 14.5l-197.5 164.55v-566.55c-0.027344-16.566-6.6211-32.449-18.336-44.164-11.715-11.715-27.598-18.309-44.164-18.336z"/>
 </g>
</svg>
