<svg width="30" height="39" viewBox="0 0 30 39" fill="none"
  xmlns="http://www.w3.org/2000/svg">
  <g>
    <path fill="#42A7C6" d="M14.89 -7.62939e-06C14.89 0.259992 14.96 0.530001 14.99 0.790001C15.2215 3.96656 16.0599 7.06924 17.46 9.92999C18.2964 11.548 19.3347 13.0534 20.55 14.41C21.8815 15.8432 23.2973 17.1956 24.79 18.46C26.1267 19.5632 27.3374 20.8108 28.4 22.18C29.3351 23.552 29.885 25.1497 29.9922 26.8066C30.0995 28.4635 29.7603 30.1189 29.01 31.6C28.0574 33.2834 26.6551 34.6684 24.96 35.6C22.9917 36.7018 20.8285 37.4116 18.59 37.69C16.8827 37.9776 15.1484 38.0715 13.42 37.97C10.4767 37.8631 7.59811 37.0758 5.01001 35.67C3.39923 34.7788 2.05877 33.4694 1.13 31.88C0.457531 30.6155 0.076201 29.2166 0.0139142 27.7858C-0.0483727 26.3549 0.209974 24.9282 0.770018 23.61C1.34481 22.3737 2.15294 21.2599 3.15002 20.33C4.51002 19.01 5.91001 17.74 7.29001 16.44C9.8791 14.1021 11.8858 11.1913 13.15 7.93999C13.9072 5.89016 14.4043 3.75352 14.63 1.58001C14.68 1.06001 14.74 0.580012 14.8 0.0200119L14.89 -7.62939e-06ZM3.77002 22.79C3.64002 22.86 3.47001 22.89 3.39001 23C2.96821 23.4525 2.58675 23.941 2.25 24.46C1.49462 25.6955 1.24059 27.1732 1.54001 28.59C1.92614 30.2494 2.8859 31.7192 4.25 32.74C5.56462 33.7854 7.05916 34.5818 8.66 35.09C10.4258 35.6713 12.2628 36.0077 14.12 36.09C15.6133 36.1658 17.1103 36.0651 18.58 35.79C20.1174 35.5268 21.6135 35.0629 23.03 34.41C24.6509 33.6932 26.0747 32.5954 27.18 31.21C28.0156 30.1937 28.4841 28.9254 28.51 27.61C28.5179 26.3874 28.1705 25.1888 27.51 24.16C27.289 23.6855 26.916 23.2984 26.45 23.06C26.4051 22.9692 26.3479 22.8851 26.28 22.81C25.6137 21.9869 24.7598 21.3354 23.79 20.91C21.3388 19.7852 18.6859 19.1661 15.99 19.09C13.5632 18.9633 11.1323 19.2473 8.80002 19.93C7.41228 20.2544 6.10333 20.8528 4.95001 21.69C4.53527 22.033 4.14126 22.4003 3.77002 22.79Z" />
    <path fill="#3F9EBB" d="M26.42 23.03C26.886 23.2684 27.2591 23.6555 27.48 24.13C28.1406 25.1588 28.488 26.3574 28.48 27.58C28.4541 28.8954 27.9856 30.1637 27.15 31.18C26.0447 32.5654 24.6209 33.6632 23 34.38C21.5835 35.0329 20.0874 35.4968 18.55 35.76C17.0803 36.0351 15.5833 36.1358 14.09 36.06C12.2329 35.9777 10.3958 35.6413 8.63002 35.06C7.02917 34.5518 5.53464 33.7553 4.22001 32.71C2.85592 31.6892 1.89616 30.2194 1.51002 28.56C1.21061 27.1432 1.46463 25.6655 2.22001 24.43C2.55677 23.911 2.93823 23.4225 3.36003 22.97C3.44003 22.86 3.61003 22.83 3.74003 22.76C3.6225 23.0991 3.6102 23.4658 3.70479 23.812C3.79937 24.1582 3.99641 24.4678 4.27003 24.7C4.82649 25.2237 5.46492 25.6527 6.16002 25.97C8.98451 27.2482 12.0607 27.8737 15.16 27.8C15.91 27.8 16.66 27.75 17.41 27.8C18.31 27.87 18.63 28.41 18.41 29.29C18.1439 30.1659 17.7203 30.986 17.16 31.71C16.7 32.36 16.22 33 15.7 33.71C15.92 33.64 16.08 33.61 16.23 33.55C17.7157 32.9378 19.0525 32.0136 20.15 30.84C21.1277 29.9199 21.8011 28.7232 22.08 27.41C22.0917 27.3215 22.1342 27.2398 22.2 27.1795C22.2658 27.1192 22.3508 27.0839 22.44 27.08C23.3178 26.9013 24.1551 26.5623 24.91 26.08C25.4541 25.7992 25.8942 25.3517 26.1659 24.803C26.4376 24.2542 26.5266 23.633 26.42 23.03Z" />
  </g>
</svg>
