<?xml version="1.0" encoding="UTF-8"?>
<svg width="1200pt" height="1200pt" version="1.1" viewBox="0 0 1200 1200" xmlns="http://www.w3.org/2000/svg">
 <g fill="#318eab">
  <path d="m145.2 408c0-61.441 59.281-111.48 132-111.48s132 50.039 132 111.48c-0.17578 16.871-4.7227 33.41-13.199 48h74.879v-92.039c0-3.7031 2.2656-7.0273 5.7148-8.3789 3.4453-1.3555 7.3672-0.45703 9.8867 2.2578 15.605 17.633 37.895 27.91 61.441 28.32 51.602 0 93.48-51.238 93.48-114.24-0.003906-63-41.402-114.12-93.121-114.12-23.527 0.37891-45.816 10.609-61.441 28.199-2.5156 2.7148-6.4414 3.6133-9.8867 2.2578-3.4453-1.3516-5.7148-4.6758-5.7148-8.3789v-110.88h-336c-13.527 0.0625-26.488 5.4492-36.078 14.992-9.5859 9.543-15.035 22.48-15.16 36.008v336h74.52c-8.5195-14.578-13.109-31.117-13.32-48z"/>
  <path d="m660 271.92c0 72.84-50.039 132-111.48 132-21.395-0.0625-42.191-7.0508-59.281-19.922v72h114.24c3.918-0.019531 7.3984 2.5 8.6055 6.2305 1.207 3.7266-0.13672 7.8086-3.3242 10.09-23.5 15.715-37.941 41.824-38.762 70.078 0 51.602 51.238 93.602 114.12 93.602 62.879 0 114.24-42 114.24-93.602-0.80859-28.285-15.305-54.418-38.879-70.078-3.1875-2.2812-4.5352-6.3633-3.3281-10.09 1.207-3.7305 4.6875-6.25 8.6094-6.2305h111.96l-0.003906-336c0-13.652-5.4219-26.746-15.078-36.402-9.6523-9.6523-22.746-15.078-36.402-15.078h-336v90.84c16.98-12.918 37.707-19.953 59.043-20.039 61.438 0.48047 111.72 59.758 111.72 132.6z"/>
  <path d="m881.04 650.76c23.727 9.4297 43.012 27.473 54 50.52 12.605 28.379 11.68 60.941-2.5195 88.559-14.875 30.32-39.938 54.445-70.801 68.16-66.238 30.48-141 9.9609-166.8-45.961h0.003906c-10.414-23.246-11.613-49.578-3.3633-73.68l-82.199 37.922 46.559 100.92 0.003906-0.003906c1.5625 3.3281 0.94141 7.2695-1.5625 9.9609-2.5469 2.6289-6.4219 3.4805-9.8398 2.1602-22.469-9.8008-48.156-8.9648-69.938 2.2773-21.785 11.242-37.352 31.691-42.383 55.684-6.7969 28.656-3.8164 58.766 8.4688 85.531 12.285 26.77 33.172 48.66 59.332 62.188 22.816 11.727 49.699 12.562 73.199 2.2812 20.797-10.023 36.551-28.164 43.562-50.16 1.2266-3.457 4.3828-5.8555 8.0391-6.1211 3.5156 0.015625 6.7031 2.0781 8.1602 5.2812l38.758 81.719 305.04-140.76c12.582-5.6055 22.395-16.023 27.238-28.918 4.7852-12.797 4.2227-26.98-1.5586-39.359l-141.24-305.16z"/>
  <path d="m135.24 861.96h336v-69.961c-16.82 12.438-37.16 19.203-58.078 19.32-61.559 0-111.48-59.281-111.48-132s49.922-132 111.48-132c20.918 0.11719 41.258 6.8828 58.078 19.32v-92.16h-92.039c-3.4961 0.074219-6.7188-1.8867-8.2617-5.0273-1.5469-3.1367-1.1289-6.8867 1.0625-9.6133 12.297-14.5 19.168-32.828 19.441-51.84 0-51.602-51.121-93.48-114.12-93.48s-114.12 41.641-114.12 93.48c0.14844 19.066 6.9375 37.48 19.199 52.078 2.168 2.6953 2.5977 6.3867 1.1172 9.5078-1.4844 3.1172-4.6211 5.1133-8.0742 5.1328h-91.441v336c0.0625 13.57 5.4805 26.566 15.078 36.164 9.5938 9.5938 22.59 15.016 36.16 15.078z"/>
 </g>
</svg>
