<?xml version="1.0" encoding="UTF-8"?>
<svg width="128pt" height="128pt" version="1.1" viewBox="0 0 128 128" xmlns="http://www.w3.org/2000/svg">
 <path d="m106.24 12.801h-84.477c-4.9922 0-8.9609 3.9688-8.9609 8.9609v24.574c0 1.4062 1.1523 2.5586 2.5586 2.5586s2.5586-1.1523 2.5586-2.5586l0.003906-24.574c0-2.1758 1.6641-3.8398 3.8398-3.8398h84.48c2.1758 0 3.8398 1.6641 3.8398 3.8398v84.48c0 2.1758-1.6641 3.8398-3.8398 3.8398l-84.48-0.003906c-2.1758 0-3.8398-1.6641-3.8398-3.8398v-35.84c0-2.1758 1.6641-3.8398 3.8398-3.8398h59.777l-19.332 19.328c-1.0234 1.0234-1.0234 2.5586 0 3.5859 0.51172 0.51172 1.1523 0.76953 1.793 0.76953s1.2812-0.25781 1.793-0.76953l23.68-23.68c1.0234-1.0234 1.0234-2.5586 0-3.5859l-23.68-23.68c-1.0234-1.0234-2.5586-1.0234-3.5859 0-1.0234 1.0234-1.0234 2.5586 0 3.5859l19.328 19.328h-59.773c-4.9922 0-8.9609 3.9688-8.9609 8.9609v35.84c0 4.9922 3.9688 8.9609 8.9609 8.9609h84.48c4.9922 0 8.9609-3.9688 8.9609-8.9609l-0.003906-84.48c0-4.9922-3.9688-8.9609-8.9609-8.9609z" fill="#33637e"/>
</svg>
