<?xml version="1.0" encoding="UTF-8"?>
<svg width="1200pt" height="1200pt" version="1.1" viewBox="0 0 1200 1200" xmlns="http://www.w3.org/2000/svg">
 <path d="m597.51 7.4688c-325.88 0-590.04 264.17-590.04 590.04 0 325.87 264.17 590.04 590.04 590.04 325.87 0 590.04-264.17 590.04-590.04-0.003907-325.88-264.17-590.04-590.04-590.04zm-39.289 216.12h93.988v265.6h-93.988zm46.996 734.09c-191.46 0-347.23-155.77-347.23-347.23 0-127.3 69.512-244.23 181.42-305.16l44.941 82.547c-81.648 44.461-132.38 129.76-132.38 222.62 0 139.64 113.61 253.25 253.25 253.25 139.64 0 253.25-113.61 253.25-253.25 0-92.859-50.723-178.15-132.38-222.61l44.941-82.551c111.9 60.922 181.42 177.85 181.42 305.15 0.003906 191.47-155.77 347.24-347.23 347.24z" fill="#5fa4c2"/>
</svg>
