<svg width="30" height="29" viewBox="0 0 30 29" fill="none"
  xmlns="http://www.w3.org/2000/svg">
  <path fill="#42A7C6" d="M15 0.0390625C6.7125 0.0390625 0 6.63906 0 14.7791C0 21.2928 4.2975 26.8166 10.2563 28.7641C11.0063 28.9028 11.2812 28.4466 11.2812 28.0553C11.2812 27.7053 11.2687 26.7778 11.2625 25.5491C7.09 26.4378 6.21 23.5716 6.21 23.5716C5.5275 21.8703 4.54125 21.4153 4.54125 21.4153C3.1825 20.5016 4.64625 20.5203 4.64625 20.5203C6.1525 20.6228 6.94375 22.0391 6.94375 22.0391C8.28125 24.2928 10.455 23.6416 11.3125 23.2653C11.4475 22.3116 11.8337 21.6628 12.2625 21.2941C8.93125 20.9253 5.43 19.6578 5.43 14.0103C5.43 12.4016 6.01125 11.0866 6.97375 10.0553C6.805 9.68281 6.29875 8.18406 7.105 6.15406C7.105 6.15406 8.36125 5.75906 11.23 7.66531C12.43 7.33781 13.705 7.17531 14.98 7.16781C16.255 7.17531 17.53 7.33781 18.73 7.66531C21.58 5.75906 22.8363 6.15406 22.8363 6.15406C23.6425 8.18406 23.1362 9.68281 22.9862 10.0553C23.9425 11.0866 24.5238 12.4016 24.5238 14.0103C24.5238 19.6728 21.0175 20.9191 17.68 21.2816C18.205 21.7241 18.6925 22.6278 18.6925 24.0091C18.6925 25.9816 18.6737 27.5666 18.6737 28.0453C18.6737 28.4316 18.9362 28.8928 19.705 28.7453C25.7062 26.8103 30 21.2828 30 14.7791C30 6.63906 23.2837 0.0390625 15 0.0390625Z" />
</svg>
