<?xml version="1.0" encoding="UTF-8"?>
<svg width="128pt" height="128pt" version="1.1" viewBox="0 0 128 128" xmlns="http://www.w3.org/2000/svg">
 <path d="m76.801 53.762c0-17.645-14.355-32-32-32s-32 14.352-32 32c0 5.1953 1.2734 10.332 3.6875 14.91l-1.1172 11.727c-0.070313 0.76172 0.19922 1.5117 0.73828 2.0547 0.53906 0.53906 1.2969 0.80859 2.0547 0.73828l11.727-1.1172c4.5781 2.4141 9.7148 3.6875 14.91 3.6875 17.645 0 32-14.355 32-32zm-32 16.637c-1.4141 0-2.5586-1.1445-2.5586-2.5586 0-1.4141 1.1445-2.5586 2.5586-2.5586 1.4141 0 2.5586 1.1445 2.5586 2.5586 0 1.4141-1.1445 2.5586-2.5586 2.5586zm2.5586-13.121v2.8828c0 1.4141-1.1484 2.5586-2.5586 2.5586-1.4141 0-2.5586-1.1484-2.5586-2.5586v-5.1211c0-1.4141 1.1484-2.5586 2.5586-2.5586 2.8242 0 5.1211-2.2969 5.1211-5.1211s-2.2969-5.1211-5.1211-5.1211-5.1211 2.2969-5.1211 5.1211c0 1.4141-1.1484 2.5586-2.5586 2.5586-1.4141 0-2.5586-1.1484-2.5586-2.5586 0-5.6445 4.5938-10.238 10.238-10.238s10.238 4.5938 10.238 10.238c0 4.7617-3.2656 8.7773-7.6797 9.918zm64.152 31.875 1.1172 11.727c0.070313 0.76172-0.19922 1.5117-0.73828 2.0547-0.53906 0.53906-1.293 0.80859-2.0547 0.73828l-11.727-1.1172c-4.5781 2.4102-9.7148 3.6836-14.91 3.6836-11.984 0-22.688-6.6289-28.168-16.801 15.523-4.4414 26.891-18.727 26.891-35.676 0-3.9648-0.62891-7.7812-1.7773-11.363 1.0117-0.097657 2.0273-0.16016 3.0547-0.16016 17.645 0 32 14.355 32 32 0 5.1953-1.2734 10.332-3.6875 14.914z" fill="#5fa4c2"/>
</svg>
