<svg width="99px" height="100px" viewBox="0 0 99 100" version="1.1"
  xmlns="http://www.w3.org/2000/svg"
  xmlns:xlink="http://www.w3.org/1999/xlink">
  <g stroke="none" stroke-width="1" fill="none" fill-rule="evenodd">
    <g transform="translate(-6.000000, -5.000000)" fill-rule="nonzero">
      <g transform="translate(6.000000, 5.000000)">
        <polygon id="Shape" fill="#3A91AB" points="65.5150352 14.6719197 32.7575176 28.4645587 0 14.6719197 10.3444792 10.3099976 18.3614507 6.94804189 25.8956797 3.77573492 39.6193555 3.77573492 47.1535845 6.94804189 55.1705559 10.3099976"></polygon>
        <polygon id="Shape" fill="#3A91AB" points="98.2725528 57.7739166 97.9622184 57.8946021 65.5150352 71.5665555 32.7575176 57.7739166 43.1019968 53.4119945 51.1189682 50.0500387 58.6531973 46.8777318 72.3768731 46.8777318 79.9111021 50.0500387 87.9280735 53.4119945"></polygon>
        <polygon id="Shape" fill="#3A91AB" points="65.5150352 71.5665555 65.5150352 99.9966327 0 72.4113547 0 44.8260767 0.310334377 44.1019632 32.7575176 57.7739166"></polygon>
        <polygon id="Shape" fill="#42A7C6" points="32.7575176 28.4645587 32.7575176 57.7739166 0.310334377 44.1019632 0 43.9812776 0 14.6719197"></polygon>
        <polygon id="Shape" fill="#3A91AB" points="65.5150352 14.6719197 65.5150352 46.8777318 58.6531973 46.8777318 51.1189682 50.0500387 43.1019968 53.4119945 32.7575176 57.7739166 32.7575176 28.4645587"></polygon>
        <path d="M39.6538371,7.75835943 C39.6538371,9.65484729 36.5677341,11.2065192 32.7575176,11.2065192 C28.9473011,11.2065192 25.8611981,9.65484729 25.8611981,7.75835943 C25.9594282,6.8256641 26.5334594,6.01027892 27.3783884,5.60325959 C29.022792,4.69704138 30.8808939,4.2503823 32.7575176,4.31019968 C34.6341413,4.2503823 36.4922432,4.69704138 38.1366468,5.60325959 C38.9815758,6.01027892 39.5556069,6.8256641 39.6538371,7.75835943 Z" id="Shape" fill="#84B5CB"></path>
        <path d="M24.1371182,14.6546789 C24.1371182,16.5511668 21.0510153,18.1028387 17.2407987,18.1028387 C13.4305822,18.1028387 10.3444792,16.5511668 10.3444792,14.6546789 C10.4427094,13.7219836 11.0167405,12.9065984 11.8616695,12.4995791 C13.5060732,11.5933609 15.364175,11.1467018 17.2407987,11.2065192 C19.1174224,11.1467018 20.9755243,11.5933609 22.6199279,12.4995791 C23.4648569,12.9065984 24.0388881,13.7219836 24.1371182,14.6546789 L24.1371182,14.6546789 Z" id="Shape" fill="#84B5CB"></path>
        <path d="M39.6538371,21.5509984 C39.6538371,23.4474863 36.5677341,24.9991582 32.7575176,24.9991582 C28.9473011,24.9991582 25.8611981,23.4474863 25.8611981,21.5509984 C25.9594282,20.6183031 26.5334594,19.802918 27.3783884,19.3958986 C29.022792,18.4896803 30.8808939,18.0430214 32.7575176,18.1028387 C34.6341413,18.0430214 36.4922432,18.4896803 38.1366468,19.3958986 C38.9815758,19.802918 39.5556069,20.6183031 39.6538371,21.5509984 Z" id="Shape" fill="#84B5CB"></path>
        <path d="M55.1705559,14.6546789 C55.1705559,16.5511668 52.084453,18.1028387 48.2742365,18.1028387 C44.4640199,18.1028387 41.377917,16.5511668 41.377917,14.6546789 C41.4761471,13.7219836 42.0501783,12.9065984 42.8951072,12.4995791 C44.5395108,11.5933609 46.3976128,11.1467018 48.2742365,11.2065192 C50.1508602,11.1467018 52.0089621,11.5933609 53.6533657,12.4995791 C54.4982946,12.9065984 55.0723258,13.7219836 55.1705559,14.6546789 Z" id="Shape" fill="#84B5CB"></path>
        <polygon id="Shape" fill="#42A7C6" points="98.2725528 58.6187157 98.2725528 86.2039937 65.5150352 99.9966327 65.5150352 71.5665555 97.9622184 57.8946021"></polygon>
        <path d="M58.6187157,91.3762617 C58.381328,91.3776119 58.1463247,91.3288487 57.9290837,91.2331347 L19.9993265,74.8043775 C19.4190566,74.5697873 19.0114998,74.0391431 18.93453,73.4179979 C18.85756,72.7968526 19.1232678,72.1827798 19.6287271,71.8136503 C20.1341866,71.4445209 20.7999968,71.3783196 21.368246,71.640691 L59.2980032,88.0711722 C60.0455968,88.3963428 60.4632436,89.2007102 60.2991163,89.9992678 C60.1349893,90.7978255 59.4339558,91.3722712 58.6187157,91.3762617 L58.6187157,91.3762617 Z" id="Shape" fill="#42A7C6"></path>
        <path d="M12.0685591,71.2044999 C11.831284,71.2047626 11.5965084,71.1560466 11.3789272,71.0614001 L6.20668754,68.8200963 C5.64185734,68.5737146 5.25137583,68.044715 5.18233359,67.4323668 C5.11329136,66.8200187 5.37617758,66.2173521 5.87196554,65.8513856 C6.36775352,65.4854193 7.02112124,65.4117521 7.58595144,65.6581338 L12.7581911,67.8994377 C13.5075399,68.2253967 13.9251266,69.0326357 13.7582106,69.8325807 C13.5912946,70.6325258 12.8857324,71.2054093 12.0685591,71.2044999 L12.0685591,71.2044999 Z" id="Shape" fill="#42A7C6"></path>
        <path d="M39.6538371,3.44815975 L39.6538371,7.75835943 C39.6538371,9.65484729 36.5677341,11.2065192 32.7575176,11.2065192 C28.9473011,11.2065192 25.8611981,9.65484729 25.8611981,7.75835943 L25.8611981,3.44815975 C25.8611981,1.55167189 28.9473011,0 32.7575176,0 C36.5677341,0 39.6538371,1.55167189 39.6538371,3.44815975 Z" id="Shape" fill="#25677B"></path>
        <path d="M55.1705559,10.3444792 L55.1705559,14.6546789 C55.1705559,16.5511668 52.084453,18.1028387 48.2742365,18.1028387 C44.4640199,18.1028387 41.377917,16.5511668 41.377917,14.6546789 L41.377917,10.3444792 C41.377917,8.44799138 44.4640199,6.89631949 48.2742365,6.89631949 C52.084453,6.89631949 55.1705559,8.44799138 55.1705559,10.3444792 Z" id="Shape" fill="#25677B"></path>
        <path d="M24.1371182,10.3444792 L24.1371182,14.6546789 C24.1371182,16.5511668 21.0510153,18.1028387 17.2407987,18.1028387 C13.4305822,18.1028387 10.3444792,16.5511668 10.3444792,14.6546789 L10.3444792,10.3444792 C10.3444792,8.44799138 13.4305822,6.89631949 17.2407987,6.89631949 C21.0510153,6.89631949 24.1371182,8.44799138 24.1371182,10.3444792 Z" id="Shape" fill="#25677B"></path>
        <path d="M39.6538371,17.2407987 L39.6538371,21.5509984 C39.6538371,23.4474863 36.5677341,24.9991582 32.7575176,24.9991582 C28.9473011,24.9991582 25.8611981,23.4474863 25.8611981,21.5509984 L25.8611981,17.2407987 C25.8611981,15.3443109 28.9473011,13.792639 32.7575176,13.792639 C36.5677341,13.792639 39.6538371,15.3443109 39.6538371,17.2407987 Z" id="Shape" fill="#25677B"></path>
        <path d="M39.6538371,3.44815975 C39.5556069,4.38085508 38.9815758,5.19624026 38.1366468,5.60325959 C36.4922432,6.5094778 34.6341413,6.95613688 32.7575176,6.89631949 C30.8808939,6.95613688 29.022792,6.5094778 27.3783884,5.60325959 C26.5334594,5.19624026 25.9594282,4.38085508 25.8611981,3.44815975 C25.8611981,1.55167189 28.9473011,0 32.7575176,0 C36.5677341,0 39.6538371,1.55167189 39.6538371,3.44815975 Z" id="Shape" fill="#42A7C6"></path>
        <path d="M24.1371182,10.3444792 C24.0388881,11.2771746 23.4648569,12.0925598 22.6199279,12.4995791 C20.9755243,13.4057973 19.1174224,13.8524564 17.2407987,13.792639 C15.364175,13.8524564 13.5060732,13.4057973 11.8616695,12.4995791 C11.0167405,12.0925598 10.4427094,11.2771746 10.3444792,10.3444792 C10.3444792,8.44799138 13.4305822,6.89631949 17.2407987,6.89631949 C21.0510153,6.89631949 24.1371182,8.44799138 24.1371182,10.3444792 Z" id="Shape" fill="#42A7C6"></path>
        <path d="M39.6538371,17.2407987 C39.5556069,18.173494 38.9815758,18.9888792 38.1366468,19.3958986 C36.4922432,20.3021169 34.6341413,20.7487758 32.7575176,20.6889585 C30.8808939,20.7487758 29.022792,20.3021169 27.3783884,19.3958986 C26.5334594,18.9888792 25.9594282,18.173494 25.8611981,17.2407987 C25.8611981,15.3443109 28.9473011,13.792639 32.7575176,13.792639 C36.5677341,13.792639 39.6538371,15.3443109 39.6538371,17.2407987 Z" id="Shape" fill="#42A7C6"></path>
        <path d="M55.1705559,10.3444792 C55.0723258,11.2771746 54.4982946,12.0925598 53.6533657,12.4995791 C52.0089621,13.4057973 50.1508602,13.8524564 48.2742365,13.792639 C46.3976128,13.8524564 44.5395108,13.4057973 42.8951072,12.4995791 C42.0501783,12.0925598 41.4761471,11.2771746 41.377917,10.3444792 C41.377917,8.44799138 44.4640199,6.89631949 48.2742365,6.89631949 C52.084453,6.89631949 55.1705559,8.44799138 55.1705559,10.3444792 Z" id="Shape" fill="#42A7C6"></path>
        <path d="M72.4113547,45.6881166 L72.4113547,49.9983163 C72.4113547,51.8948042 69.3252517,53.4464761 65.5150352,53.4464761 C61.7048187,53.4464761 58.6187157,51.8948042 58.6187157,49.9983163 L58.6187157,45.6881166 C58.6187157,43.7916288 61.7048187,42.2399569 65.5150352,42.2399569 C69.3252517,42.2399569 72.4113547,43.7916288 72.4113547,45.6881166 Z" id="Shape" fill="#25677B"></path>
        <path d="M87.9280735,52.5844361 L87.9280735,56.8946358 C87.9280735,58.7911237 84.8419706,60.3427956 81.031754,60.3427956 C77.2215375,60.3427956 74.1354346,58.7911237 74.1354346,56.8946358 L74.1354346,52.5844361 C74.1354346,50.6879483 77.2215375,49.1362764 81.031754,49.1362764 C84.8419706,49.1362764 87.9280735,50.6879483 87.9280735,52.5844361 Z" id="Shape" fill="#25677B"></path>
        <path d="M56.8946358,52.5844361 L56.8946358,56.8946358 C56.8946358,58.7911237 53.8085328,60.3427956 49.9983163,60.3427956 C46.1880998,60.3427956 43.1019968,58.7911237 43.1019968,56.8946358 L43.1019968,52.5844361 C43.1019968,50.6879483 46.1880998,49.1362764 49.9983163,49.1362764 C53.8085328,49.1362764 56.8946358,50.6879483 56.8946358,52.5844361 Z" id="Shape" fill="#25677B"></path>
        <path d="M72.4113547,59.4807556 L72.4113547,63.7909553 C72.4113547,65.6874432 69.3252517,67.2391151 65.5150352,67.2391151 C61.7048187,67.2391151 58.6187157,65.6874432 58.6187157,63.7909553 L58.6187157,59.4807556 C58.6187157,57.5842678 61.7048187,56.0325959 65.5150352,56.0325959 C69.3252517,56.0325959 72.4113547,57.5842678 72.4113547,59.4807556 Z" id="Shape" fill="#25677B"></path>
        <g id="Group" transform="translate(43.101997, 42.145671)" fill="#42A7C6">
          <path d="M29.3093578,3.54244536 C29.2111277,4.47514068 28.6370965,5.29052581 27.7921676,5.69754521 C24.4132755,7.42151233 20.4128012,7.42151233 17.0339091,5.69754521 C16.1889802,5.29052581 15.614949,4.47514068 15.5167189,3.54244536 C15.5167189,1.6459575 18.6028218,0.0942856181 22.4130384,0.0942856181 C26.2232549,0.0942856181 29.3093578,1.6459575 29.3093578,3.54244536 L29.3093578,3.54244536 Z" id="Shape"></path>
          <path d="M13.792639,10.4387649 C13.6944088,11.3714602 13.1203777,12.1868453 12.2754487,12.5938647 C10.6310451,13.500083 8.7729432,13.9467419 6.89631949,13.8869246 C5.01969579,13.9467419 3.16159388,13.500083 1.51719029,12.5938647 C0.672261327,12.1868453 0.0982301404,11.3714602 -5.45522254e-15,10.4387649 C-5.45522254e-15,8.542277 3.08610297,6.99060511 6.89631949,6.99060511 C10.706536,6.99060511 13.792639,8.542277 13.792639,10.4387649 Z" id="Shape"></path>
          <path d="M29.3093578,17.3350844 C29.2111277,18.2677797 28.6370965,19.0831648 27.7921676,19.4901842 C24.4132755,21.2141513 20.4128012,21.2141513 17.0339091,19.4901842 C16.1889802,19.0831648 15.614949,18.2677797 15.5167189,17.3350844 C15.5167189,15.4385965 18.6028218,13.8869246 22.4130384,13.8869246 C26.2232549,13.8869246 29.3093578,15.4385965 29.3093578,17.3350844 L29.3093578,17.3350844 Z" id="Shape"></path>
          <path d="M44.8260767,10.4387649 C44.7278466,11.3714602 44.1538154,12.1868453 43.3088864,12.5938647 C39.9299943,14.3178318 35.9295201,14.3178318 32.550628,12.5938647 C31.705699,12.1868453 31.1316679,11.3714602 31.0334377,10.4387649 C31.0334377,8.542277 34.1195407,6.99060511 37.9297572,6.99060511 C41.7399737,6.99060511 44.8260767,8.542277 44.8260767,10.4387649 L44.8260767,10.4387649 Z" id="Shape"></path>
        </g>
      </g>
    </g>
  </g>
</svg>
