<svg width="100px" height="110px" viewBox="0 0 100 110" version="1.1"
  xmlns="http://www.w3.org/2000/svg"
  xmlns:xlink="http://www.w3.org/1999/xlink">
  <g stroke="none" stroke-width="1" fill="none" fill-rule="evenodd">
    <g transform="translate(-5.000000, 0.000000)" fill-rule="nonzero">
      <g transform="translate(5.000000, 0.000000)">
        <path d="M98.9531332,36.6267773 L95.2580688,34.4910156 C95.0739486,34.384668 94.9851074,34.1691797 95.036395,33.9627148 C95.429528,32.3730859 95.6393993,30.7108398 95.6393993,28.9993945 C95.6393993,27.2879492 95.4297426,25.625918 95.036395,24.0362891 C94.985322,23.8298242 95.0741632,23.6143359 95.2580688,23.5079883 L98.9533478,21.3720117 C99.8187984,20.8718555 100.11515,19.7639062 99.6155795,18.8976562 L96.0848928,12.7750391 C95.585322,11.9085742 94.4786696,11.611875 93.6134336,12.1120312 L89.9149357,14.2499414 C89.7308156,14.3565039 89.4999143,14.3255664 89.34691,14.1779687 C86.9655795,11.8797852 84.0316739,10.1522266 80.7645066,9.21292969 C80.5602147,9.1540625 80.41794,8.96929687 80.41794,8.75660156 L80.41794,4.48464844 C80.41794,3.48412109 79.6078542,2.67330078 78.608498,2.67330078 L71.5471246,2.67330078 C70.547983,2.67330078 69.7378971,3.48433594 69.7378971,4.48464844 L69.7378971,8.75638672 C69.7378971,8.96929687 69.5956224,9.1540625 69.3913306,9.21271484 C66.1241632,10.1520117 63.1902576,11.8795703 60.8089272,14.1777539 C60.6559229,14.3255664 60.4250216,14.3562891 60.2409014,14.2497266 L56.5424036,12.1118164 C55.6769529,11.6116602 54.5705151,11.9083594 54.0707297,12.7748242 L50.5396139,18.8976562 C50.040043,19.7641211 50.3366096,20.8718555 51.2018456,21.3722266 L54.8971246,23.5079883 C55.0812448,23.6143359 55.170086,23.8298242 55.119013,24.0362891 C54.7256654,25.625918 54.5160087,27.2881641 54.5160087,28.9993945 C54.5160087,30.7108398 54.7256654,32.3728711 55.119013,33.9627148 C55.170086,34.1691797 55.0812448,34.384668 54.8971246,34.4910156 L51.2018456,36.6267773 C50.3366096,37.1269336 50.040043,38.2348828 50.5396139,39.1013477 L54.0703005,45.2239648 C54.5698714,46.0904297 55.6765237,46.3871289 56.5419744,45.8869727 L60.2404722,43.7490625 C60.4245924,43.6425 60.6554937,43.6734375 60.808498,43.8210352 C63.1898284,46.1192187 66.123734,47.8467773 69.3909014,48.7860742 C69.5951933,48.8447266 69.7374679,49.029707 69.7374679,49.2424023 L69.7374679,53.5141406 C69.7374679,54.514668 70.5475538,55.3254883 71.5466954,55.3254883 L78.6080688,55.3254883 C79.607425,55.3254883 80.4175108,54.5144531 80.4175108,53.5141406 L80.4175108,49.2424023 C80.4175108,49.0294922 80.5597855,48.8447266 80.764292,48.7860742 C84.0312448,47.8467773 86.9653649,46.1192187 89.3464808,43.8210352 C89.4994851,43.6732227 89.7303864,43.6425 89.9145066,43.7490625 L93.6130044,45.8869727 C94.4782405,46.3871289 95.5848928,46.0902148 96.0844636,45.2239648 L99.6151503,39.1013477 C100.11515,38.2348828 99.8185838,37.1271484 98.9531332,36.6267773 L98.9531332,36.6267773 Z M75.0775967,41.1500977 C68.374807,41.1500977 62.941116,35.7100391 62.941116,28.9993945 C62.941116,22.28875 68.374807,16.8486914 75.0775967,16.8486914 C81.7803864,16.8486914 87.2138628,22.28875 87.2138628,28.9993945 C87.2138628,35.7100391 81.7803864,41.1500977 75.0775967,41.1500977 L75.0775967,41.1500977 Z" id="Shape" fill="#42A7C6"></path>
        <path d="M57.7797426,39.1013477 C57.2801718,38.2348828 57.5767383,37.1271484 58.4419744,36.6267773 L62.1372533,34.4910156 C62.3213735,34.384668 62.4102147,34.1691797 62.3591417,33.9627148 C61.9657941,32.3730859 61.7561375,30.7108398 61.7561375,28.9993945 C61.7561375,27.2879492 61.9657941,25.625918 62.3591417,24.0362891 C62.4102147,23.8298242 62.3213735,23.6143359 62.1372533,23.5079883 L58.4419744,21.3722266 C57.5767383,20.8718555 57.2801718,19.7641211 57.7797426,18.8976563 L60.4258799,14.3088086 C60.3619314,14.3019336 60.2988413,14.283457 60.2404722,14.2497266 L56.5419744,12.1118164 C55.6765237,11.6116602 54.570086,11.9083594 54.0703005,12.7748242 L50.5396139,18.8976563 C50.040043,19.7641211 50.3366096,20.8718555 51.2018456,21.3722266 L54.8971246,23.5079883 C55.0812448,23.6143359 55.170086,23.8298242 55.119013,24.0362891 C54.7256654,25.625918 54.5160087,27.2881641 54.5160087,28.9993945 C54.5160087,30.7108398 54.7256654,32.3728711 55.119013,33.9627148 C55.170086,34.1691797 55.0812448,34.384668 54.8971246,34.4910156 L51.2018456,36.6267773 C50.3366096,37.1269336 50.040043,38.2348828 50.5396139,39.1013477 L54.0703005,45.2239648 C54.5698714,46.0904297 55.6765237,46.3871289 56.5419744,45.8869727 L60.2404722,43.7490625 C60.2988413,43.715332 60.362146,43.6968555 60.4258799,43.6899805 L57.7797426,39.1013477 Z" id="Path" fill="#3A91AB"></path>
        <path d="M44.9140774,21.1704883 L42.6102147,19.8386719 C42.4954078,19.7722852 42.440043,19.6380078 42.4720173,19.5093164 C42.7170817,18.5182422 42.8477684,17.4818359 42.8477684,16.414707 C42.8477684,15.3475781 42.7168671,14.3111719 42.4718027,13.3200977 C42.4398284,13.1914062 42.4951933,13.0571289 42.6100001,12.9907422 L44.9138628,11.6589258 C45.4535623,11.3469727 45.6383263,10.65625 45.3267383,10.1161328 L43.1252362,6.29857422 C42.8136482,5.75845703 42.123734,5.57326172 41.584249,5.88521484 L39.2782405,7.21810547 C39.1634336,7.28449219 39.0194422,7.26537109 38.9239486,7.17320312 C37.4391847,5.74019531 35.6097855,4.66318359 33.5726611,4.07751953 C33.4451933,4.04078125 33.3565666,3.925625 33.3565666,3.79285156 L33.3565666,1.12943359 C33.3565666,0.505742187 32.8514164,-2.13162821e-14 32.2284551,-2.13162821e-14 L27.8256654,-2.13162821e-14 C27.202704,-2.13162821e-14 26.6975538,0.505742187 26.6975538,1.12943359 L26.6975538,3.79285156 C26.6975538,3.925625 26.6089272,4.04078125 26.4814593,4.07751953 C24.4443349,4.66318359 22.6149357,5.74041016 21.1301718,7.17320312 C21.0346782,7.26537109 20.8906868,7.28449219 20.7758799,7.21810547 L18.470086,5.88521484 C17.9303864,5.57326172 17.2404722,5.75845703 16.9290988,6.29857422 L14.7275967,10.1161328 C14.4160087,10.65625 14.6009872,11.3471875 15.1404722,11.6589258 L17.4443349,12.9907422 C17.5591417,13.0571289 17.6145066,13.1914062 17.5827469,13.3200977 C17.3374679,14.3111719 17.2067812,15.3475781 17.2067812,16.414707 C17.2067812,17.4818359 17.3374679,18.5180273 17.5827469,19.5093164 C17.6145066,19.6380078 17.5591417,19.7722852 17.4443349,19.8386719 L15.1404722,21.1704883 C14.6009872,21.4824414 14.4160087,22.1731641 14.7275967,22.7132812 L16.9290988,26.5308398 C17.2404722,27.070957 17.930601,27.2561523 18.470086,26.9441992 L20.7760945,25.6113086 C20.8909014,25.5449219 21.0348928,25.564043 21.1303864,25.6562109 C22.6151503,27.0892187 24.4445495,28.1662305 26.4816739,28.7518945 C26.6091417,28.788418 26.6977684,28.9037891 26.6977684,29.0365625 L26.6977684,31.6999805 C26.6977684,32.3236719 27.2029186,32.8294141 27.8258799,32.8294141 L32.2286696,32.8294141 C32.851631,32.8294141 33.3567812,32.3236719 33.3567812,31.6999805 L33.3567812,29.0365625 C33.3567812,28.9037891 33.4454078,28.7886328 33.5728757,28.7518945 C35.6100001,28.1662305 37.4393993,27.0892187 38.9241632,25.6562109 C39.0196568,25.564043 39.1636482,25.5449219 39.2784551,25.6113086 L41.5844636,26.9441992 C42.1239486,27.2561523 42.8138628,27.070957 43.1254508,26.5308398 L45.3269529,22.7132812 C45.6385409,22.1731641 45.4537769,21.4824414 44.9140774,21.1704883 Z M30.0273821,22.8645312 C26.4694422,22.8645312 23.585322,19.9768164 23.585322,16.4149219 C23.585322,12.8528125 26.4696568,9.9653125 30.0273821,9.9653125 C33.5851074,9.9653125 36.4694422,12.8530273 36.4694422,16.4149219 C36.4694422,19.9768164 33.5851074,22.8645312 30.0273821,22.8645312 Z" id="Shape" fill="#42A7C6"></path>
        <path d="M19.6833907,22.7134961 C19.3718027,22.1731641 19.5567812,21.4826563 20.0962662,21.1707031 L22.4001289,19.8388867 C22.5149357,19.7725 22.5703005,19.6382227 22.5385409,19.5095313 C22.2932619,18.5182422 22.1625752,17.4818359 22.1625752,16.4149219 C22.1625752,15.347793 22.2932619,14.3116016 22.5385409,13.3203125 C22.5703005,13.1916211 22.5149357,13.0573438 22.4001289,12.990957 L20.0962662,11.6591406 C19.5567812,11.3471875 19.3718027,10.6564648 19.6833907,10.1163477 L21.6557083,6.69625 C21.4767383,6.8509375 21.3007726,7.00927734 21.130601,7.17341797 C21.0351074,7.26558594 20.891116,7.28470703 20.7763091,7.21832031 L18.470086,5.88521484 C17.9303864,5.57326172 17.2404722,5.75845703 16.9290988,6.29857422 L14.7275967,10.1161328 C14.4160087,10.65625 14.6009872,11.3471875 15.1404722,11.6589258 L17.4443349,12.9907422 C17.5591417,13.0571289 17.6145066,13.1914063 17.5827469,13.3200977 C17.3374679,14.3111719 17.2067812,15.3475781 17.2067812,16.414707 C17.2067812,17.4818359 17.3374679,18.5180273 17.5827469,19.5093164 C17.6145066,19.6380078 17.5591417,19.7722852 17.4443349,19.8386719 L15.1404722,21.1704883 C14.6009872,21.4824414 14.4160087,22.1731641 14.7275967,22.7132813 L16.9290988,26.5308398 C17.2404722,27.070957 17.930601,27.2561523 18.470086,26.9441992 L20.7760945,25.6113086 C20.8909014,25.5449219 21.0348928,25.564043 21.1303864,25.6562109 C21.3005581,25.8205664 21.4765237,25.9786914 21.6554937,26.1333789 L19.6833907,22.7134961 Z" id="Path" fill="#3A91AB"></path>
        <path d="M66.5825323,84.4118945 L61.5260945,81.4891602 C61.2741632,81.3434961 61.152704,81.0487305 61.2226611,80.7662109 C61.7608585,78.590918 62.0477684,76.3161523 62.0477684,73.9743555 C62.0477684,71.6325586 61.7606439,69.3580078 61.2226611,67.1827148 C61.152704,66.9001953 61.2743778,66.6054297 61.5260945,66.4597656 L66.5827469,63.5368164 C67.7668671,62.8523242 68.1726611,61.3363867 67.4889701,60.1508789 L62.657425,51.7726172 C61.973734,50.5868945 60.4595709,50.1808398 59.2752362,50.865332 L54.2140774,53.7908594 C53.962146,53.9365234 53.6460516,53.8944141 53.4366096,53.6922461 C50.1780259,50.5471484 46.1630044,48.1834375 41.6924036,46.8980273 C41.4127898,46.8176758 41.21794,46.5648047 41.21794,46.2734766 L41.21794,40.4282227 C41.21794,39.0592383 40.1093563,37.9493555 38.7419744,37.9493555 L29.0790988,37.9493555 C27.7117169,37.9493555 26.6031332,39.0590234 26.6031332,40.4282227 L26.6031332,46.2734766 C26.6031332,46.5648047 26.408498,46.8176758 26.1286696,46.8980273 C21.6578542,48.1834375 17.6430473,50.5473633 14.3844636,53.6922461 C14.1750216,53.8944141 13.8589272,53.9365234 13.6069958,53.7908594 L8.54583703,50.865332 C7.36171686,50.1808398 5.84733917,50.5871094 5.16364819,51.7726172 L0.332103122,60.1508789 C-0.351587865,61.3363867 0.0542061262,62.8525391 1.2383263,63.5370313 L6.29476407,66.4597656 C6.5466954,66.6054297 6.66815462,66.9001953 6.59841213,67.1827148 C6.06021471,69.3582227 5.77330484,71.6325586 5.77330484,73.9743555 C5.77330484,76.3161523 6.06021471,78.5907031 6.59841213,80.7662109 C6.66836922,81.0487305 6.5466954,81.3434961 6.29476407,81.4891602 L1.2383263,84.4118945 C0.0542061262,85.0963867 -0.351587865,86.6123242 0.332103122,87.7980469 L5.16364819,96.1763086 C5.84733917,97.3618164 7.36150226,97.7680859 8.54583703,97.0835938 L13.6069958,94.1580664 C13.8589272,94.0124023 14.1750216,94.0545117 14.3844636,94.2566797 C17.6430473,97.4017773 21.6578542,99.7654883 26.1286696,101.050898 C26.408498,101.13125 26.6031332,101.384121 26.6031332,101.675449 L26.6031332,107.520703 C26.6031332,108.889688 27.7117169,109.99957 29.0790988,109.99957 L38.7419744,109.99957 C40.1093563,109.99957 41.21794,108.889902 41.21794,107.520703 L41.21794,101.675449 C41.21794,101.384121 41.4125752,101.13125 41.6924036,101.050898 C46.163219,99.7654883 50.1780259,97.4015625 53.4366096,94.2566797 C53.6460516,94.0545117 53.9619314,94.0124023 54.2140774,94.1580664 L59.2752362,97.0835938 C60.4593563,97.7680859 61.973734,97.3618164 62.657425,96.1763086 L67.4889701,87.7980469 C68.1726611,86.6125391 67.7668671,85.0966016 66.5825323,84.4118945 Z M34.0235194,85.040957 C27.9187984,85.040957 22.970086,80.0864453 22.970086,73.9745703 C22.970086,67.8626953 27.9187984,62.9081836 34.0235194,62.9081836 C40.1280259,62.9081836 45.0769529,67.8626953 45.0769529,73.9745703 C45.0769529,80.0862305 40.1282405,85.040957 34.0235194,85.040957 L34.0235194,85.040957 Z" id="Shape" fill="#42A7C6"></path>
        <path d="M8.23575119,87.7980469 C7.5520602,86.6123242 7.95785419,85.0963867 9.14197437,84.4118945 L14.1984121,81.4891602 C14.4503435,81.3434961 14.5718027,81.0487305 14.5020602,80.7662109 C13.9638628,78.590918 13.6769529,76.3161523 13.6769529,73.9743555 C13.6769529,71.6325586 13.9638628,69.3580078 14.5020602,67.1827148 C14.5720173,66.9001953 14.4503435,66.6054297 14.1984121,66.4597656 L9.14197437,63.5370313 C7.95785419,62.8525391 7.5520602,61.3363867 8.23575119,60.1508789 L12.3293134,53.0520117 L8.54605162,50.8651172 C7.36193145,50.180625 5.84755377,50.5868945 5.16386278,51.7724023 L0.332317714,60.1506641 C-0.351373273,61.3361719 0.0544207185,62.8523242 1.23854089,63.5368164 L6.29497866,66.4595508 C6.54690999,66.6052148 6.66836922,66.8999805 6.59862673,67.1825 C6.0604293,69.3580078 5.77351943,71.6323438 5.77351943,73.9741406 C5.77351943,76.3159375 6.0604293,78.5904883 6.59862673,80.7659961 C6.66858381,81.0485156 6.54690999,81.3432813 6.29497866,81.4889453 L1.23854089,84.4116797 C0.0544207185,85.0961719 -0.351373273,86.6121094 0.332317714,87.797832 L5.16386278,96.1760938 C5.84755377,97.3616016 7.36171686,97.7678711 8.54605162,97.0833789 L12.3293134,94.8964844 L8.23575119,87.7980469 Z" id="Path" fill="#3A91AB"></path>
        <path d="M33.9106439,57.3473828 C24.7385409,57.3473828 17.3029186,64.7917188 17.3029186,73.9745703 C17.3029186,83.1574219 24.7383263,90.6017578 33.9106439,90.6017578 C43.0827469,90.6017578 50.5183692,83.1576367 50.5183692,73.9745703 C50.5183692,64.7915039 43.0829615,57.3473828 33.9106439,57.3473828 Z M33.9106439,84.0500977 C28.352704,84.0500977 23.84691,79.5392383 23.84691,73.9745703 C23.84691,68.4099023 28.3524894,63.899043 33.9106439,63.899043 C39.4687984,63.899043 43.9743778,68.4099023 43.9743778,73.9745703 C43.9743778,79.5392383 39.4687984,84.0500977 33.9106439,84.0500977 Z" id="Shape" fill="#3A91AB"></path>
        <path d="M23.9878971,75.6479883 C23.89691,75.1033594 23.8471246,74.5447656 23.8471246,73.9743555 C23.8471246,73.4039453 23.89691,72.8453516 23.9878971,72.3007227 C24.7162233,65.0063477 30.1531332,59.1017969 37.2112877,57.6767383 C36.1445495,57.46125 35.041116,57.347168 33.9108585,57.347168 C24.7387555,57.347168 17.3031332,64.7915039 17.3031332,73.9743555 C17.3031332,83.157207 24.7385409,90.601543 33.9108585,90.601543 C35.041116,90.601543 36.1445495,90.4874609 37.2112877,90.2719727 C30.1531332,88.8471289 24.7160087,82.9425781 23.9878971,75.6479883 Z" id="Path" fill="#25677B"></path>
        <path d="M31.6533478,31.7001953 L31.6533478,29.7367383 C31.6533478,29.3515234 31.3436911,29.037207 30.9591417,29.0335547 C27.6846782,29.0019727 26.4816739,28.7523242 26.4816739,28.7523242 C26.6091417,28.7888477 26.6977684,28.9042187 26.6977684,29.0369922 L26.6977684,31.7004102 C26.6977684,32.3241016 27.2029186,32.8298437 27.8258799,32.8298437 L32.2286696,32.8298437 C32.3245924,32.8298437 32.4160087,32.8141602 32.5050645,32.7916016 C32.0164379,32.6674219 31.6533478,32.2278516 31.6533478,31.7001953 L31.6533478,31.7001953 Z" id="Path" fill="#3A91AB"></path>
        <path d="M76.9775967,53.5143555 L76.9775967,50.3194141 C76.9775967,49.7283789 76.5054937,49.2436914 75.9151503,49.2333789 C72.2072104,49.1680664 69.3909014,48.7865039 69.3909014,48.7865039 C69.5951933,48.8451562 69.7374679,49.0301367 69.7374679,49.242832 L69.7374679,53.5145703 C69.7374679,54.5148828 70.5475538,55.325918 71.5466954,55.325918 L78.6080688,55.325918 C78.6383263,55.325918 78.6675108,55.3229102 78.6973392,55.3214062 C77.740043,55.2743555 76.9775967,54.4845898 76.9775967,53.5143555 L76.9775967,53.5143555 Z" id="Path" fill="#3A91AB"></path>
        <path d="M29.0793134,37.9491406 C27.7119314,37.9491406 26.6033478,39.0590234 26.6033478,40.4280078 L26.6033478,46.2732617 C26.6033478,46.5645898 26.4087126,46.8174609 26.1288842,46.8978125 C26.1288842,46.8978125 28.8057083,46.3742383 33.2366096,46.2857227 C33.9409014,46.2717578 34.5065666,45.6976953 34.5065666,44.9923633 L34.5065666,40.427793 C34.5065666,39.0588086 35.6151503,37.9489258 36.9825323,37.9489258 L29.0793134,37.9489258 L29.0793134,37.9491406 Z" id="Path" fill="#3A91AB"></path>
        <path d="M34.5065666,107.521133 L34.5065666,103.615059 C34.5065666,102.549004 33.6595709,101.679102 32.5954078,101.643867 C28.7554937,101.516465 26.1288842,101.051113 26.1288842,101.051113 C26.4087126,101.131465 26.6033478,101.384336 26.6033478,101.675664 L26.6033478,107.520918 C26.6033478,108.889902 27.7117169,109.999785 29.0793134,109.999785 L36.9825323,109.999785 C35.6151503,110 34.5065666,108.890332 34.5065666,107.521133 Z" id="Path" fill="#3A91AB"></path>
      </g>
    </g>
  </g>
</svg>
