<?xml version="1.0" encoding="UTF-8"?>
<svg width="1200pt" height="1200pt" version="1.1" viewBox="0 0 1200 1200" xmlns="http://www.w3.org/2000/svg">
 <path d="m954 439.2h-66v-122.4c-1.1992-158.4-129.6-286.8-288-286.8s-286.8 128.4-286.8 286.8v121.2h-66c-39.602 0-72 32.398-72 72v234c0 235.2 190.8 426 426 426s424.8-190.8 424.8-426v-232.8c0-39.598-32.398-72-72-72zm-495.6-122.4c0-78 63.602-141.6 141.6-141.6s141.6 63.602 141.6 141.6v121.2h-283.2zm318 406.8-166.8 166.8c-10.801 10.801-26.398 16.801-40.801 16.801-14.398 0-28.801-6-40.801-16.801l-104.4-104.4c-22.801-22.801-22.801-58.801 0-80.398 22.801-22.801 58.801-22.801 80.398 0l63.602 63.602 126-126c22.801-22.801 58.801-22.801 80.398 0 24 22.797 24 58.797 2.3984 80.398z" fill="#318eab"/>
</svg>
