<?xml version="1.0" encoding="UTF-8"?>
<svg width="1200pt" height="1200pt" version="1.1" viewBox="0 0 1200 1200" xmlns="http://www.w3.org/2000/svg">
 <g fill="#5fa4c2">
  <path d="m600 239.63c-86.855 0-157.52 70.668-157.52 157.51 0 46.332 20.387 90.145 55.895 120.23 1.1523 0.96094 2.2578 1.9688 3.3008 3 38.785 34.402 62.676 82.379 67.285 133.36h62.062c4.6211-51 28.5-98.965 67.285-133.36 1.0547-1.0312 2.1602-2.0391 3.3008-3 35.508-30.086 55.895-73.883 55.895-120.23 0.023438-86.844-70.645-157.51-157.5-157.51z"/>
  <path d="m1128 72h-1056c-39.758 0-72 32.242-72 72v684c0 39.758 32.242 72 72 72h168v300l300-300h588c39.758 0 72-32.242 72-72v-684c0-39.758-32.242-72-72-72zm-387.84 490.88h0.16797c-35.184 29.785-53.785 74.723-49.992 120.64h0.30078v29.844h-0.58984c0.34766 3.3477 0.58984 6.7188 0.58984 10.078 0 50.066-61.691 80.559-90.637 80.559s-90.637-30.492-90.637-80.555c0-3.3594 0.25391-6.7305 0.61328-10.078h-0.30078v-29.848c3.793-45.91-14.809-90.852-49.992-120.64h0.16797c-47.039-39.84-76.992-99.254-76.992-165.73-0.011719-119.92 97.211-217.15 217.14-217.15s217.15 97.234 217.15 217.15c0 66.48-29.953 125.89-76.992 165.73z"/>
 </g>
</svg>
