<?xml version="1.0" encoding="UTF-8"?>
<svg width="100px" height="92px" viewBox="0 0 100 92" version="1.1" xmlns="http://www.w3.org/2000/svg" xmlns:xlink="http://www.w3.org/1999/xlink">
    <!-- Generator: Sketch 63.1 (92452) - https://sketch.com -->
    <title>✏ Icon</title>
    <desc>Created with Sketch.</desc>
    <g id="01---Nerves-Website" stroke="none" stroke-width="1" fill="none" fill-rule="evenodd">
        <g id="02---Nerves-Hub" transform="translate(-765.000000, -1825.000000)">
            <g id="About-Section" transform="translate(80.000000, 1551.000000)">
                <g id="Component-/-Card-About" transform="translate(640.000000, 220.000000)">
                    <g id="Icon-/-Extensible" transform="translate(40.000000, 45.000000)">
                        <g id="api" transform="translate(5.000000, 9.000000)">
                            <path d="M72.5344828,56.8965517 C68.9671209,66.2412429 60.002466,72.4146397 50,72.4146397 C39.997534,72.4146397 31.0328791,66.2412429 27.4655172,56.8965517 L22.4137931,51.7241379 L15.3793103,56.2068966 L9.31034483,58.7068966 C8.57158934,59.0250279 8.22581871,59.8779288 8.53448276,60.6206897 L13,71.4482759 C13.312345,72.1928838 14.1663097,72.5467791 14.9137931,72.2413793 L22.4310345,69.137931 C24.6730636,72.336905 27.4561984,75.1200398 30.6551724,77.362069 L27.5517241,84.862069 C27.3969995,85.2204145 27.3940122,85.626149 27.5434438,85.9867338 C27.6928753,86.3473186 27.9819829,86.6320048 28.3448276,86.7758621 L39.1551724,91.2586207 C39.5158476,91.4150478 39.9244403,91.4190343 40.2880991,91.2696745 C40.6517578,91.1203147 40.9395972,90.8302934 41.0862069,90.4655172 L44.1896552,82.9655172 C48.0335507,83.6494043 51.9684957,83.643566 55.8103448,82.9482759 L58.9310345,90.4655172 C59.0767486,90.8268526 59.3616036,91.1144417 59.7215305,91.2636005 C60.0814576,91.4127595 60.4862372,91.410965 60.8448276,91.2586207 L71.6551724,86.7758621 C72.0180171,86.6320048 72.3071247,86.3473186 72.4565562,85.9867338 C72.6059878,85.626149 72.6030005,85.2204145 72.4482759,84.862069 L69.3448276,77.3448276 C72.5471474,75.1136981 75.3311203,72.3355614 77.5689655,69.137931 L85.0689655,72.2413793 C85.4296407,72.3978064 85.8382334,72.4017929 86.2018922,72.2524331 C86.5655509,72.1030733 86.8533903,71.8130521 87,71.4482759 L91.4827586,60.637931 C91.6352166,60.2768433 91.6372117,59.8698329 91.488301,59.5072679 C91.3393905,59.1447029 91.0518979,58.8565893 90.6896552,58.7068966 L86.2586207,56.862069 L86.2413793,56.862069 L79.3103448,51.7241379 L72.5344828,56.8965517 Z" id="Shape" fill="#A22926" fill-rule="nonzero"></path>
                            <path d="M100,42.2413793 C99.9945793,50.3329612 93.4364095,56.891131 85.3448276,56.8965517 L20.6896552,56.8965517 C9.26307414,56.8965517 0,47.6334776 0,36.2068966 C0,24.7803155 9.26307414,15.5172414 20.6896552,15.5172414 C21.2241379,15.5172414 21.7413793,15.5344828 22.2586207,15.5862069 C25.8081636,6.21454616 34.7797931,0.0114002414 44.8011278,-0.000103689158 C54.8224624,-0.0115756724 63.8082903,6.17098467 67.3793103,15.5344828 C67.6206897,15.5172414 67.862069,15.5172414 68.1034483,15.5172414 C75.7758821,15.5163039 82.6154719,20.3523774 85.1724138,27.5862069 L85.3448276,27.5862069 C93.4364095,27.5916276 99.9945793,34.1497974 100,42.2413793 Z" id="Shape" fill="#BF5C4F" fill-rule="nonzero"></path>
                            <path d="M9.94913793,46.5517269 C9.42870547,46.5526602 8.93588681,46.3176948 8.60896552,45.9127586 C5.62198062,42.2152228 4.50031331,37.349925 5.56695255,32.7178486 C6.63359179,28.0857724 9.77015245,24.2010269 14.0734483,22.1822414 C14.9345364,21.7754074 15.9623902,22.1436533 16.3692241,23.0047414 C16.776058,23.8658295 16.4078122,24.8936833 15.5467241,25.3005172 C11.3314164,27.3000091 8.63792009,31.5414395 8.62068966,36.2068966 C8.61009755,38.9518262 9.55278791,41.6152967 11.2877586,43.7424138 C11.7059546,44.2587343 11.7902475,44.969415 11.5044357,45.5692371 C11.2186238,46.169059 10.6135735,46.5512714 9.94913793,46.5517269 Z" id="Shape" fill="#ECF0F1" fill-rule="nonzero"></path>
                            <g id="Group" transform="translate(25.862069, 24.137931)" fill="#A22926" fill-rule="nonzero">
                                <path d="M1.72413793,24.1387931 C1.16998362,24.1380053 0.649898966,23.8712209 0.325984138,23.4215914 C0.00206913793,22.9719619 -0.0862893103,22.3941602 0.0884482759,21.8682759 L6.985,1.17862069 C7.28628086,0.27525431 8.26284052,-0.212832586 9.1662069,0.0884482759 C10.0695733,0.389729138 10.5576602,1.36628879 10.2563793,2.26965517 L3.35982759,22.9593103 C3.12534069,23.6635819 2.46641983,24.1387931 1.72413793,24.1387931 L1.72413793,24.1387931 Z" id="Shape"></path>
                                <path d="M15.5172414,24.1387931 C14.7749595,24.1387931 14.1160386,23.6635819 13.8815517,22.9593103 L6.985,2.26965517 C6.68371914,1.36628879 7.17180603,0.389729138 8.07517241,0.0884482759 C8.97853879,-0.212832586 9.95509845,0.27525431 10.2563793,1.17862069 L17.152931,21.8682759 C17.3276686,22.3941602 17.2393102,22.9719619 16.9153952,23.4215914 C16.5914803,23.8712209 16.0713957,24.1380053 15.5172414,24.1387931 L15.5172414,24.1387931 Z" id="Shape"></path>
                                <path d="M12.637931,15.5172414 L4.60344828,15.5172414 C3.65123328,15.5172414 2.87931034,14.7453184 2.87931034,13.7931034 C2.87931034,12.8408884 3.65123328,12.0689655 4.60344828,12.0689655 L12.637931,12.0689655 C13.590146,12.0689655 14.362069,12.8408884 14.362069,13.7931034 C14.362069,14.7453184 13.590146,15.5172414 12.637931,15.5172414 Z" id="Shape"></path>
                                <path d="M20.6896552,24.137931 C19.7374402,24.137931 18.9655172,23.3660081 18.9655172,22.4137931 L18.9655172,1.72413793 C18.9655172,0.771922931 19.7374402,0 20.6896552,0 C21.6418702,0 22.4137931,0.771922931 22.4137931,1.72413793 L22.4137931,22.4137931 C22.4137931,23.3660081 21.6418702,24.137931 20.6896552,24.137931 Z" id="Shape"></path>
                                <path d="M27.5862069,13.7931034 L20.6896552,13.7931034 C19.7374402,13.7931034 18.9655172,13.0211805 18.9655172,12.0689655 L18.9655172,1.72413793 C18.9655172,0.771922931 19.7374402,0 20.6896552,0 L27.5862069,0 C31.3950672,0 34.4827586,3.08769138 34.4827586,6.89655172 C34.4827586,10.7054121 31.3950672,13.7931034 27.5862069,13.7931034 Z M22.4137931,10.3448276 L27.5862069,10.3448276 C29.4906371,10.3448276 31.0344828,8.8009819 31.0344828,6.89655172 C31.0344828,4.99212155 29.4906371,3.44827586 27.5862069,3.44827586 L22.4137931,3.44827586 L22.4137931,10.3448276 Z" id="Shape"></path>
                                <path d="M41.3793103,24.137931 C40.4270953,24.137931 39.6551724,23.3660081 39.6551724,22.4137931 L39.6551724,1.72413793 C39.6551724,0.771922931 40.4270953,0 41.3793103,0 C42.3315253,0 43.1034483,0.771922931 43.1034483,1.72413793 L43.1034483,22.4137931 C43.1034483,23.3660081 42.3315253,24.137931 41.3793103,24.137931 Z" id="Shape"></path>
                                <path d="M46.5517241,3.44827586 L36.2068966,3.44827586 C35.2546816,3.44827586 34.4827586,2.67635293 34.4827586,1.72413793 C34.4827586,0.771922931 35.2546816,0 36.2068966,0 L46.5517241,0 C47.5039391,0 48.2758621,0.771922931 48.2758621,1.72413793 C48.2758621,2.67635293 47.5039391,3.44827586 46.5517241,3.44827586 Z" id="Shape"></path>
                                <path d="M46.5517241,24.137931 L36.2068966,24.137931 C35.2546816,24.137931 34.4827586,23.3660081 34.4827586,22.4137931 C34.4827586,21.4615781 35.2546816,20.6896552 36.2068966,20.6896552 L46.5517241,20.6896552 C47.5039391,20.6896552 48.2758621,21.4615781 48.2758621,22.4137931 C48.2758621,23.3660081 47.5039391,24.137931 46.5517241,24.137931 Z" id="Shape"></path>
                            </g>
                            <path d="M31.0344828,18.9663793 C30.4803284,18.9655916 29.9602438,18.6988071 29.636329,18.2491776 C29.312414,17.7995481 29.2240555,17.2217464 29.3987931,16.6958621 C33.1963793,5.3037931 42.7010345,5.17240851 43.1034483,5.17240851 C44.0556633,5.1700809 44.8294774,5.94011252 44.8318156,6.89232759 C44.8341433,7.84454266 44.0641116,8.61835671 43.1118966,8.62068966 C42.7775862,8.62568966 35.652069,8.84034483 32.6701724,17.7868966 C32.4356855,18.4911681 31.7767647,18.9663793 31.0344828,18.9663793 Z" id="Shape" fill="#ECF0F1" fill-rule="nonzero"></path>
                        </g>
                    </g>
                </g>
            </g>
        </g>
    </g>
</svg>