<?xml version="1.0" encoding="UTF-8"?>
<svg width="110px" height="110px" viewBox="0 0 110 110" version="1.1" xmlns="http://www.w3.org/2000/svg" xmlns:xlink="http://www.w3.org/1999/xlink">
    <!-- Generator: Sketch 63.1 (92452) - https://sketch.com -->
    <title>Icon / Algoritghm</title>
    <desc>Created with Sketch.</desc>
    <g id="Icon-/-Algoritghm" stroke="none" stroke-width="1" fill="none" fill-rule="evenodd">
        <g id="algorithm" fill-rule="nonzero">
            <path d="M110,11.3794141 L110,106.206934 C109.99377,108.299297 108.299297,109.993984 106.206934,110 L3.79306641,110 C1.70070312,109.99377 0.00623046875,108.299297 0,106.206934 L0,11.3794141 L110,11.3794141 Z" id="Path" fill="#BF5C4F"></path>
            <path d="M110,3.79306641 L110,15.1724805 L0,15.1724805 L0,3.79306641 C0.006015625,1.70070313 1.70070312,0.006015625 3.79306641,0 L106.206934,0 C108.299297,0.006015625 109.993984,1.70070313 110,3.79306641 Z" id="Path" fill="#A22926"></path>
            <path d="M7.58613281,9.48277344 C7.08339844,9.47912109 6.60107422,9.28232422 6.23949219,8.93277344 C6.07212891,8.74822266 5.93742188,8.53660156 5.84117188,8.30671875 C5.63857422,7.84738281 5.63857422,7.32423828 5.84117188,6.86490234 C5.92818359,6.63072266 6.06396484,6.41759766 6.23949219,6.23970703 C6.32908203,6.15785156 6.42382812,6.08179687 6.52287109,6.01197266 C6.62900391,5.94 6.74416016,5.88220703 6.86554687,5.84074219 C6.97275391,5.78617187 7.08769531,5.74814453 7.20628906,5.72773437 C7.57582031,5.65017578 7.96039062,5.68970703 8.30650391,5.84074219 C8.53875,5.93248047 8.75123047,6.06804687 8.93255859,6.23992187 C9.66603516,6.98779297 9.66603516,8.18511719 8.93255859,8.93298828 C8.83802734,9.00882812 8.74177734,9.08488281 8.62876953,9.15986328 C8.53208984,9.23527344 8.42294922,9.29306641 8.30650391,9.33109375 C8.07876953,9.42820312 7.8340625,9.47976562 7.58613281,9.48277344 Z" id="Path" fill="#FFFFFF"></path>
            <path d="M15.1724805,9.48277344 C14.6703906,9.47525391 14.1895703,9.27888672 13.8258398,8.93277344 C13.6584766,8.74822266 13.5237695,8.53660156 13.4275195,8.30671875 C13.3304102,8.07876953 13.2788477,7.8340625 13.2758398,7.58613281 C13.2788477,7.08318359 13.4758594,6.60085937 13.8258398,6.23949219 C14.3683203,5.6925 15.1881641,5.52792969 15.8997266,5.82333984 C16.6112891,6.11875 17.073418,6.81548828 17.068939,7.58591797 C17.0613867,8.08800781 16.8650195,8.56861328 16.5189063,8.93255859 C16.1571094,9.28167969 15.675,9.47847656 15.1724805,9.48277344 Z" id="Path" fill="#FFFFFF"></path>
            <path d="M22.7586133,9.48277344 C22.2541602,9.48771484 21.7688281,9.28941406 21.4121875,8.93277344 C21.0555469,8.57613281 20.8572461,8.09080078 20.8621875,7.58634766 C20.8688477,7.08404297 21.0652148,6.60300781 21.4121875,6.23970703 C21.8661523,5.8059375 22.5001562,5.61558594 23.1180469,5.72773437 C23.2439453,5.74513672 23.3659766,5.78337891 23.4791992,5.84074219 C23.5999414,5.88242187 23.7144531,5.94 23.8199414,6.01197266 C23.9196289,6.08179687 24.0150195,6.15785156 24.1052539,6.23970703 C24.8387305,6.98757812 24.8387305,8.18490234 24.1052539,8.93255859 C24.0150195,9.01398437 23.9198437,9.08982422 23.8199414,9.15943359 C23.7144531,9.23140625 23.5999414,9.28898438 23.4791992,9.33066406 C23.3657617,9.3878125 23.2437305,9.42626953 23.1180469,9.44453125 C22.9994531,9.46644531 22.8791406,9.47933594 22.7586133,9.48277344 Z" id="Path" fill="#FFFFFF"></path>
            <g id="Group" transform="translate(39.746094, 5.585938)" fill="#E6E7E8">
                <path d="M28.5297461,3.89683594 L1.97806641,3.89683594 C0.930703125,3.89683594 0.0814257812,3.04777344 0.0814257812,2.00019531 C0.0814257812,0.952617188 0.930488281,0.103554688 1.97806641,0.103554688 L28.5297461,0.103554688 C29.5771094,0.103554688 30.4263867,0.952617188 30.4263867,2.00019531 C30.4263867,3.04777344 29.5771094,3.89683594 28.5297461,3.89683594 Z" id="Path"></path>
                <path d="M62.6677734,3.89683594 L60.7711328,3.89683594 C59.7237695,3.89683594 58.8744922,3.04777344 58.8744922,2.00019531 C58.8744922,0.952617188 59.7235547,0.103554688 60.7711328,0.103554688 L62.6677734,0.103554688 C63.7151367,0.103554688 64.5644141,0.952617188 64.5644141,2.00019531 C64.5644141,3.04777344 63.7151367,3.89683594 62.6677734,3.89683594 Z" id="Path"></path>
                <path d="M53.185,3.89683594 L51.2883594,3.89683594 C50.2409961,3.89683594 49.3917188,3.04777344 49.3917188,2.00019531 C49.3917188,0.952617188 50.2407813,0.103554688 51.2883594,0.103554688 L53.185,0.103554688 C54.2323633,0.103554688 55.0816406,0.952617188 55.0816406,2.00019531 C55.0816406,3.04777344 54.2323633,3.89683594 53.185,3.89683594 Z" id="Path"></path>
            </g>
            <g id="Group" transform="translate(16.972656, 24.492188)" fill="#D3D3D3">
                <path d="M32.3376367,5.85255859 L19.8470508,5.85255859 L14.7131445,0.718652344 C13.9712891,-0.0139648437 12.7769727,-0.0103125 12.0398437,0.72703125 C11.3025,1.464375 11.2988477,2.65847656 12.0314648,3.40033203 L14.4836914,5.85255859 L1.99289062,5.85255859 C0.945527344,5.85255859 0.09625,6.70162109 0.09625,7.74919922 C0.09625,8.79677734 0.9453125,9.64583984 1.99289062,9.64583984 L14.4834766,9.64583984 L12.03125,12.0980664 C11.547207,12.5760938 11.3562109,13.2769141 11.5310937,13.9343359 C11.7057617,14.5917578 12.2194531,15.1054492 12.876875,15.2801172 C13.5345117,15.4547852 14.2351172,15.2637891 14.7131445,14.7797461 L19.8472656,9.64583984 L32.3378516,9.64583984 C33.3852148,9.64583984 34.2344922,8.79677734 34.2344922,7.74919922 C34.2344922,6.70162109 33.3852148,5.85255859 32.3376367,5.85255859 Z" id="Path"></path>
                <path d="M85.4412109,5.85255859 L58.8893164,5.85255859 C57.8419531,5.85255859 56.9926758,6.70162109 56.9926758,7.74919922 C56.9926758,8.79677734 57.8417383,9.64583984 58.8893164,9.64583984 L83.5445703,9.64583984 L83.5445703,32.4044531 L48.2953711,32.4044531 L50.7475977,29.9522266 C51.2316406,29.4741992 51.4226367,28.7733789 51.2477539,28.115957 C51.0730859,27.4585352 50.5593945,26.9448438 49.9019727,26.7701758 C49.2443359,26.5955078 48.5437305,26.7865039 48.0657031,27.2705469 L42.931582,32.4044531 L34.2340625,32.4044531 C33.1866992,32.4044531 32.3374219,33.2535156 32.3374219,34.3010937 C32.3374219,35.3486719 33.1864844,36.1977344 34.2340625,36.1977344 L42.931582,36.1977344 L48.0654883,41.3316406 C48.8073437,42.0642578 50.0016602,42.0606055 50.7387891,41.3232617 C51.475918,40.585918 51.4797852,39.3918164 50.747168,38.6499609 L48.2949414,36.1977344 L85.4412109,36.1977344 C85.9441602,36.1979492 86.4266992,35.9981445 86.7824805,35.6423633 C87.1382617,35.286582 87.3378517,34.8042578 87.3378517,34.3010938 L87.3378517,7.74919922 C87.3378517,7.24625 87.1382617,6.76371094 86.7824805,6.40792969 C86.4266992,6.05236328 85.9441602,5.85255859 85.4412109,5.85255859 Z" id="Path"></path>
                <path d="M74.0617969,66.5422656 L65.3642773,66.5422656 L60.2303711,61.4083594 C59.4885156,60.6757422 58.2941992,60.6793945 57.5570703,61.4167383 C56.8199414,62.154082 56.8160742,63.3481836 57.5486914,64.0900391 L60.000918,66.5422656 L28.5445703,66.5422656 C27.497207,66.5422656 26.6479297,67.3913281 26.6479297,68.4389062 C26.6479297,69.4864844 27.4969922,70.3355469 28.5445703,70.3355469 L60.0007031,70.3355469 L57.5484766,72.7877734 C57.0644336,73.2658008 56.8734375,73.9666211 57.0483203,74.624043 C57.2229883,75.2814648 57.7366797,75.7951562 58.3941016,75.9698242 C59.0517383,76.1444922 59.7523438,75.9534961 60.2303711,75.4694531 L65.3644922,70.3355469 L74.0620117,70.3355469 C75.109375,70.3355469 75.9586523,69.4864844 75.9586523,68.4389062 C75.9586523,67.3913281 75.1091602,66.5422656 74.0617969,66.5422656 Z" id="Path"></path>
                <path d="M23.4106641,48.1325195 L20.9584375,50.5847461 L20.9584375,39.9908008 C20.9584375,38.9434375 20.109375,38.0941602 19.0617969,38.0941602 C18.0142188,38.0941602 17.1651563,38.9432227 17.1651563,39.9908008 L17.1651563,50.5847461 L14.7129297,48.1325195 C13.9710742,47.3999023 12.7767578,47.4037695 12.0396289,48.1408984 C11.3022852,48.8782422 11.2986328,50.0723438 12.03125,50.8141992 L17.1651563,55.9483203 L17.1651563,64.6458398 C17.1651563,65.6932031 16.117793,68.4389063 17.1651563,68.4389063 C18.8989453,67.7524805 20.2717969,66.3796289 20.9582227,64.6458398 L20.9582227,55.9483203 L26.0921289,50.8144141 C26.8247461,50.0725586 26.8210937,48.8782422 26.08375,48.1411133 C25.3468359,47.4035547 24.1525195,47.3999023 23.4106641,48.1325195 Z" id="Path"></path>
            </g>
            <g id="Group" transform="translate(7.519531, 24.492188)">
                <circle id="Oval" fill="#A22926" cx="7.65294922" cy="7.74919922" r="7.58613281"></circle>
                <circle id="Oval" fill="#874239" cx="87.3079883" cy="68.4389063" r="7.58613281"></circle>
            </g>
            <path d="M47.4138672,24.6552539 L77.7586133,24.6552539 C78.8059766,24.6552539 79.6552539,25.5043164 79.6552539,26.5518945 L79.6552539,37.9313086 C79.6552539,38.9786719 78.8061914,39.8279492 77.7586133,39.8279492 L47.4138672,39.8279492 C46.3665039,39.8279492 45.5172266,38.9788867 45.5172266,37.9313086 L45.5172266,26.5518945 C45.5172266,25.5043164 46.3662891,24.6552539 47.4138672,24.6552539 Z" id="Path" fill="#5E2C22"></path>
            <path d="M20.8619727,51.2069336 L51.2067188,51.2069336 C52.254082,51.2069336 53.1033594,52.0559961 53.1033594,53.1035742 L53.1033594,64.4829883 C53.1033594,65.5303516 52.2542969,66.3796289 51.2067188,66.3796289 L20.8619727,66.3796289 C19.8146094,66.3796289 18.965332,65.5305664 18.965332,64.4829883 L18.965332,53.1035742 C18.965332,52.0559961 19.8146094,51.2069336 20.8619727,51.2069336 Z" id="Path" fill="#A22926"></path>
            <polygon id="Path" fill="#5E2C22" points="45.5172266 100.517227 18.9655469 100.517227 26.5516797 85.3447461 53.1033594 85.3447461"></polygon>
        </g>
    </g>
</svg>