<?xml version="1.0" encoding="UTF-8"?>
<svg width="432px" height="461px" viewBox="0 0 432 461" version="1.1" xmlns="http://www.w3.org/2000/svg" xmlns:xlink="http://www.w3.org/1999/xlink">
    <!-- Generator: Sketch 64 (93537) - https://sketch.com -->
    <title>app_development_SVG</title>
    <desc>Created with Sketch.</desc>
    <defs>
        <linearGradient x1="49.6689957%" y1="74.9963732%" x2="49.6689957%" y2="18.3572408%" id="linearGradient-1">
            <stop stop-color="#FFFFFF" stop-opacity="0" offset="21%"></stop>
            <stop stop-color="#FFFFFF" stop-opacity="0.2" offset="100%"></stop>
        </linearGradient>
        <linearGradient x1="50%" y1="0%" x2="50%" y2="100%" id="linearGradient-2">
            <stop stop-color="#77D3E5" offset="0%"></stop>
            <stop stop-color="#42A7C6" offset="100%"></stop>
        </linearGradient>
        <linearGradient x1="50.6572141%" y1="19.5668839%" x2="50.6572141%" y2="59.767201%" id="linearGradient-3">
            <stop stop-color="#E9EAF2" stop-opacity="0.8" offset="0%"></stop>
            <stop stop-color="#E9EAF2" stop-opacity="0" offset="100%"></stop>
        </linearGradient>
        <linearGradient x1="50%" y1="0%" x2="50%" y2="100%" id="linearGradient-4">
            <stop stop-color="#77D3E5" offset="0%"></stop>
            <stop stop-color="#42A7C6" offset="100%"></stop>
        </linearGradient>
        <linearGradient x1="50%" y1="0%" x2="50%" y2="100%" id="linearGradient-5">
            <stop stop-color="#77D3E5" offset="0%"></stop>
            <stop stop-color="#42A7C6" offset="100%"></stop>
        </linearGradient>
    </defs>
    <g id="01---Nerves-Website" stroke="none" stroke-width="1" fill="none" fill-rule="evenodd">
        <g id="09---Platform" transform="translate(-828.000000, -148.000000)">
            <g id="app_development_SVG" transform="translate(828.000000, 148.000000)">
                <g id="Laptop" transform="translate(6.000000, 27.000000)">
                    <path d="M408.558758,327.693036 L178.45,194.636561 C175.220177,192.793673 172.606874,187.76259 172.606874,183.459448 L172.606874,5.18772824 C172.606874,0.87537155 175.220177,-1.10573248 178.45,0.764798301 L408.558758,133.821274 C411.788581,135.664161 414.402269,140.695244 414.402269,144.998386 L414.402269,323.270106 C414.438692,327.582463 411.825388,329.563567 408.558758,327.693036 Z" id="Path" fill="#B1B4C4" fill-rule="nonzero"></path>
                    <polygon id="Path" fill="#B1B4C4" fill-rule="nonzero" points="409.782594 329.535924 412.331486 328.061614 411.227273 320.496561"></polygon>
                    <path d="M172.192794,1.84288747 L174.704878,0.387006369 L178.311973,2.45104034 C178.311973,2.45104034 174.465632,3.03154989 174.373614,3.01312102 C174.281596,2.99469214 172.192794,1.84288747 172.192794,1.84288747 Z" id="Path" fill="#B1B4C4" fill-rule="nonzero"></path>
                    <path d="M406.488359,328.955414 L176.342794,195.862081 C173.112971,194.019193 170.490466,188.98811 170.490466,184.675754 L170.490466,6.45010616 C170.490466,2.13774947 173.112971,0.156645435 176.342794,2.02717622 L406.488359,135.083652 C409.718182,136.926539 412.331486,141.957622 412.331486,146.269979 L412.331486,324.495626 C412.331486,328.798769 409.718182,330.798301 406.488359,328.955414 Z" id="Path" fill="#E4E7F2" fill-rule="nonzero"></path>
                    <path d="M406.083481,329.148917 L175.937916,196.092442 C172.708093,194.249554 170.085588,189.218471 170.085588,184.906115 L170.085588,6.6343949 C170.085588,2.33125265 172.708093,0.35014862 175.937916,2.21146497 L406.083481,135.267941 C409.304102,137.110828 411.926608,142.141911 411.926608,146.454268 L411.926608,324.725987 C411.926608,329.038344 409.304102,331.019448 406.083481,329.148917 Z" id="Path" fill="#D6D8E5" fill-rule="nonzero"></path>
                    <path d="M408.761197,318.303524 L172.993348,182.012781 L173.131375,7.37154989 C173.131375,5.58394904 174.382816,4.85600849 175.891907,5.74980892 L406.037472,138.806285 C407.676134,139.893556 408.700926,141.696252 408.798004,143.662293 L408.761197,318.303524 Z" id="Path" fill="#FFFFFF" fill-rule="nonzero"></path>
                    <path d="M408.687583,318.312739 L172.993348,182.021996 L173.066962,7.37154989 C173.066962,5.58394904 174.318404,4.85600849 175.827494,5.74980892 L405.97306,138.806285 C407.610612,139.894594 408.635056,141.696677 408.733592,143.662293 L408.687583,318.312739 Z" id="Path" fill="url(#linearGradient-1)" fill-rule="nonzero" opacity="0.5"></path>
                    <path d="M232.50122,432.737622 L2.3556541,299.681146 C-0.874168514,297.838259 -0.469290466,294.557919 3.27583149,292.401741 L157.451552,203.261274 C161.132262,201.11431 166.818958,200.874735 170.039579,202.745265 L400.194346,335.801741 C403.414967,337.644628 403.010089,340.924968 399.274169,343.081146 L245.089246,432.221614 C241.362528,434.368577 235.72184,434.608153 232.50122,432.737622 Z" id="Path" fill="#D6D8E5" fill-rule="nonzero" opacity="0.4"></path>
                    <path d="M237.525388,429.715287 L7.36141907,296.704883 C4.13159645,294.861996 4.5364745,291.581656 8.28159645,289.425478 L162.457317,200.294225 C166.138027,198.138047 171.824723,197.898471 175.054545,199.769002 L405.200111,332.825478 C408.429933,334.668365 408.025055,337.948705 404.279933,340.104883 L250.122616,429.199278 C246.395898,431.346242 240.755211,431.585817 237.525388,429.715287 Z" id="Path" fill="#B1B4C4" fill-rule="nonzero"></path>
                    <polygon id="Path" fill="#B1B4C4" fill-rule="nonzero" points="5.19900222 293.654904 5.19900222 289.30569 10.0759424 291.351295"></polygon>
                    <polygon id="Path" fill="#B1B4C4" fill-rule="nonzero" points="407.380931 336.032102 407.380931 331.784246 403.773836 333.028195 406.166297 336.54811"></polygon>
                    <path d="M237.525388,426.057155 L7.36141907,293.019108 C4.13159645,291.176221 4.5364745,287.895881 8.28159645,285.739703 L162.457317,196.599236 C166.138027,194.443057 171.824723,194.212696 175.054545,196.083227 L405.200111,329.139703 C408.429933,330.98259 408.025055,334.26293 404.279933,336.419108 L250.122616,425.531932 C246.395898,427.68811 240.755211,427.927686 237.525388,426.057155 Z" id="Path" fill="#E4E7F2" fill-rule="nonzero"></path>
                    <path d="M237.525388,425.495074 L7.36141907,292.438599 C4.13159645,290.595711 4.5364745,287.306157 8.28159645,285.159193 L162.457317,196.018726 C166.138027,193.862548 171.824723,193.632187 175.054545,195.493503 L405.200111,328.559193 C408.429933,330.402081 408.025055,333.68242 404.279933,335.838599 L250.122616,424.969851 C246.395898,427.12603 240.755211,427.356391 237.525388,425.495074 Z" id="Path" fill="#D6D8E5" fill-rule="nonzero"></path>
                    <path d="M158.187694,226.085435 L147.476829,219.893333 C146.556652,219.386539 146.713082,218.501953 147.716075,217.921444 L157.948448,212.005775 C158.997145,211.421352 160.260605,211.37006 161.353104,211.867558 L172.073171,218.05966 C172.947339,218.566454 172.836918,219.45104 171.824723,220.03155 L161.601552,225.947219 C160.549597,226.531806 159.283345,226.583073 158.187694,226.085435 Z" id="Path" fill="#2B303F" fill-rule="nonzero"></path>
                    <path d="M173.361419,234.85758 L162.641353,228.656263 C161.767184,228.158684 161.877605,227.274098 162.8898,226.684374 L173.112971,220.777919 C174.164926,220.193332 175.431179,220.142065 176.526829,220.639703 L187.237694,226.831805 C188.157871,227.338599 188.001441,228.223185 186.998448,228.803694 L176.766075,234.710149 C175.720115,235.301953 174.454492,235.356758 173.361419,234.85758 Z" id="Path" fill="#2B303F" fill-rule="nonzero"></path>
                    <path d="M188.700776,243.731083 L177.989911,237.529766 C177.069734,237.022972 177.226164,236.138386 178.229157,235.557877 L188.46153,229.651423 C189.50749,229.059618 190.773113,229.004813 191.866186,229.503992 L202.586253,235.705308 C203.50643,236.202887 203.35,237.087473 202.337805,237.677197 L192.114634,243.583652 C191.062537,244.165463 189.798988,244.22003 188.700776,243.731083 L188.700776,243.731083 Z" id="Path" fill="#2B303F" fill-rule="nonzero"></path>
                    <path d="M203.699667,252.392654 L192.979601,246.200552 C192.105432,245.693758 192.215854,244.809172 193.228049,244.228662 L203.45122,238.312994 C204.503175,237.728406 205.769427,237.67714 206.865078,238.174777 L217.585144,244.366879 C218.459313,244.873673 218.348891,245.758259 217.336696,246.338769 L207.113525,252.254437 C206.06157,252.839025 204.795318,252.890291 203.699667,252.392654 Z" id="Path" fill="#2B303F" fill-rule="nonzero"></path>
                    <path d="M218.873392,261.164798 L208.153326,254.972696 C207.233149,254.465902 207.389579,253.581316 208.401774,253.000807 L218.624945,247.085138 C219.6769,246.500551 220.943152,246.449284 222.038803,246.946921 L232.749667,253.139023 C233.623836,253.645817 233.513415,254.530403 232.50122,255.110913 L222.278049,261.026582 C221.229351,261.611005 219.965891,261.662296 218.873392,261.164798 L218.873392,261.164798 Z" id="Path" fill="#2B303F" fill-rule="nonzero"></path>
                    <path d="M234.037916,269.983015 L223.327051,263.790913 C222.452882,263.284119 222.554102,262.399533 223.566297,261.819023 L233.789468,255.903355 C234.841423,255.318767 236.107675,255.267501 237.203326,255.765138 L247.923392,261.95724 C248.797561,262.464034 248.68714,263.34862 247.674945,263.92913 L237.451774,269.844798 C236.399819,270.429385 235.133566,270.480652 234.037916,269.983015 L234.037916,269.983015 Z" id="Path" fill="#2B303F" fill-rule="nonzero"></path>
                    <path d="M249.211641,278.709087 L238.491574,272.516985 C237.617406,272.010191 237.727827,271.125605 238.740022,270.545096 L248.963193,264.629427 C250.015148,264.04484 251.2814,263.993573 252.377051,264.49121 L263.087916,270.683312 C263.962084,271.190106 263.851663,272.074692 262.84867,272.655202 L252.616297,278.561656 C251.570337,279.15346 250.304714,279.208265 249.211641,278.709087 Z" id="Path" fill="#2B303F" fill-rule="nonzero"></path>
                    <path d="M264.376164,287.490446 L253.665299,281.28913 C252.791131,280.782335 252.901552,279.906964 253.904545,279.31724 L264.136918,273.410786 C265.182878,272.818981 266.448501,272.764176 267.541574,273.263355 L278.261641,279.464671 C279.181818,279.971465 279.025388,280.846837 278.013193,281.436561 L267.771619,287.3338 C266.728729,287.922537 265.468693,287.980668 264.376164,287.490446 Z" id="Path" fill="#2B303F" fill-rule="nonzero"></path>
                    <path d="M279.549889,296.244161 L268.829823,290.052059 C267.955654,289.545265 268.066075,288.660679 269.078271,288.08017 L279.301441,282.173715 C280.350672,281.581769 281.619071,281.526992 282.715299,282.026285 L293.426164,288.227601 C294.300333,288.72518 294.189911,289.609766 293.186918,290.19949 L282.963747,296.105945 C281.911792,296.690532 280.64554,296.741799 279.549889,296.244161 L279.549889,296.244161 Z" id="Path" fill="#2B303F" fill-rule="nonzero"></path>
                    <path d="M294.714412,304.997877 L284.003548,298.805775 C283.129379,298.298981 283.2398,297.414395 284.242794,296.833885 L294.456763,290.936645 C295.50546,290.352223 296.76892,290.300931 297.861419,290.798429 L308.581486,296.990531 C309.455654,297.497325 309.345233,298.381911 308.333038,298.96242 L298.137472,304.878089 C297.080122,305.459838 295.809738,305.504294 294.714412,304.997877 L294.714412,304.997877 Z" id="Path" fill="#2B303F" fill-rule="nonzero"></path>
                    <path d="M309.888137,313.78845 L299.168071,307.596348 C298.293902,307.089554 298.404324,306.204968 299.416519,305.624459 L309.63969,299.70879 C310.691645,299.124203 311.957897,299.072936 313.053548,299.570573 L323.773614,305.762675 C324.647783,306.269469 324.537361,307.154055 323.525166,307.734565 L313.301996,313.650234 C312.250041,314.234821 310.983788,314.286087 309.888137,313.78845 Z" id="Path" fill="#2B303F" fill-rule="nonzero"></path>
                    <path d="M325.061863,322.560594 L314.341796,316.368493 C313.467627,315.861699 313.578049,314.977113 314.590244,314.396603 L324.822616,308.480934 C325.874571,307.896347 327.140824,307.84508 328.236475,308.342718 L338.947339,314.53482 C339.867517,315.041614 339.711086,315.9262 338.698891,316.506709 L328.503326,322.422378 C327.444904,323.019209 326.164617,323.070628 325.061863,322.560594 Z" id="Path" fill="#2B303F" fill-rule="nonzero"></path>
                    <path d="M340.226386,331.332739 L329.515521,325.131423 C328.595344,324.624628 328.742572,323.749257 329.754767,323.159533 L339.977938,317.253079 C341.028417,316.665526 342.294702,316.61084 343.391796,317.105648 L354.111863,323.306964 C354.986031,323.813758 354.87561,324.68913 353.863415,325.278854 L343.640244,331.185308 C342.591013,331.777254 341.322614,331.832031 340.226386,331.332739 Z" id="Path" fill="#2B303F" fill-rule="nonzero"></path>
                    <path d="M362.706319,344.325096 L344.680044,333.903567 C343.805876,333.396773 343.916297,332.512187 344.928492,331.931677 L355.18847,326.025223 C356.237701,325.433276 357.5061,325.378499 358.602328,325.877792 L376.582594,336.326964 C377.456763,336.833758 377.346341,337.718344 376.343348,338.298854 L366.110976,344.214522 C365.05785,344.790075 363.794475,344.831106 362.706319,344.325096 Z" id="Path" fill="#2B303F" fill-rule="nonzero"></path>
                    <path d="M165.990798,247.591932 L155.270732,241.418259 C154.350554,240.911465 154.506984,240.026879 155.51918,239.446369 L165.74235,233.530701 C166.794305,232.946113 168.060558,232.894847 169.156208,233.392484 L179.867073,239.575372 C180.741242,240.082166 180.63082,240.966752 179.627827,241.547261 L169.395455,247.46293 C168.345279,248.044392 167.08185,248.092263 165.990798,247.591932 Z" id="Path" fill="#2B303F" fill-rule="nonzero"></path>
                    <path d="M181.182927,256.382505 L170.472062,250.190403 C169.597894,249.683609 169.708315,248.799023 170.711308,248.218514 L180.943681,242.339703 C181.992378,241.75528 183.255838,241.703988 184.348337,242.201486 L195.077605,248.35673 C195.951774,248.863524 195.841353,249.74811 194.829157,250.32862 L184.605987,256.244289 C183.551592,256.831954 182.281149,256.883252 181.182927,256.382505 Z" id="Path" fill="#2B303F" fill-rule="nonzero"></path>
                    <path d="M196.384257,265.163864 L185.664191,258.971762 C184.744013,258.464968 184.900443,257.580382 185.912639,256.999873 L196.135809,251.084204 C197.187764,250.499617 198.454017,250.44835 199.549667,250.945987 L210.260532,257.138089 C211.134701,257.644883 211.024279,258.529469 210.021286,259.109979 L199.788914,265.025648 C198.740216,265.61007 197.476756,265.661362 196.384257,265.163864 Z" id="Path" fill="#2B303F" fill-rule="nonzero"></path>
                    <path d="M211.576386,273.954437 L200.856319,267.753121 C199.982151,267.255541 200.092572,266.370955 201.104767,265.781231 L211.327938,259.847134 C212.378417,259.259581 213.644702,259.204895 214.741796,259.699703 L225.443459,265.928662 C226.317627,266.435456 226.207206,267.310828 225.195011,267.900552 L214.97184,273.807006 C213.92747,274.392774 212.667469,274.447483 211.576386,273.954437 Z" id="Path" fill="#2B303F" fill-rule="nonzero"></path>
                    <path d="M226.648891,282.671295 L215.938027,276.433121 C215.063858,275.926327 215.174279,275.050955 216.177273,274.461231 L226.409645,268.554777 C227.455606,267.962973 228.721228,267.908168 229.814302,268.407346 L240.534368,274.608662 C241.454545,275.106242 241.298115,275.990828 240.28592,276.580552 L230.044346,282.523864 C228.998749,283.105294 227.740822,283.159913 226.648891,282.671295 Z" id="Path" fill="#2B303F" fill-rule="nonzero"></path>
                    <path d="M241.850222,291.452654 L231.130155,285.260552 C230.255987,284.753758 230.366408,283.869172 231.378603,283.288662 L241.601774,277.354565 C242.653729,276.769978 243.919981,276.718711 245.015632,277.216348 L255.726497,283.40845 C256.600665,283.915244 256.490244,284.79983 255.487251,285.38034 L245.254878,291.296008 C244.209141,291.886366 242.945614,291.9445 241.850222,291.452654 Z" id="Path" fill="#2B303F" fill-rule="nonzero"></path>
                    <path d="M257.04235,300.234013 L246.322284,294.041911 C245.448115,293.535117 245.558537,292.650531 246.570732,292.070021 L256.793902,286.163567 C257.843134,285.57162 259.111532,285.516843 260.207761,286.016136 L270.927827,292.217452 C271.801996,292.715032 271.691574,293.599618 270.679379,294.189342 L260.456208,300.095796 C259.404253,300.680383 258.138001,300.73165 257.04235,300.234013 L257.04235,300.234013 Z" id="Path" fill="#2B303F" fill-rule="nonzero"></path>
                    <path d="M272.234479,309.024586 L261.523614,302.832484 C260.649446,302.32569 260.759867,301.441104 261.772062,300.860594 L271.995233,294.944926 C273.04393,294.360503 274.30739,294.309211 275.399889,294.806709 L286.119956,300.998811 C286.994124,301.505605 286.883703,302.390191 285.871508,302.970701 L275.648337,308.886369 C274.596382,309.470957 273.33013,309.522223 272.234479,309.024586 Z" id="Path" fill="#2B303F" fill-rule="nonzero"></path>
                    <path d="M287.435809,317.805945 L276.715743,311.613843 C275.795565,311.107049 275.951996,310.222463 276.964191,309.641953 L287.187361,303.726285 C288.239316,303.141697 289.505569,303.090431 290.60122,303.588068 L301.312084,309.78017 C302.186253,310.286964 302.085033,311.17155 301.072838,311.752059 L290.849667,317.667728 C289.797712,318.252315 288.53146,318.303582 287.435809,317.805945 Z" id="Path" fill="#2B303F" fill-rule="nonzero"></path>
                    <path d="M302.627938,326.596518 L291.917073,320.395202 C291.042905,319.897622 291.153326,319.013036 292.156319,318.423312 L302.388692,312.516858 C303.437138,311.93381 304.698554,311.879187 305.793348,312.369427 L316.54102,318.570743 C317.415188,319.077537 317.304767,319.962123 316.292572,320.542633 L306.069401,326.449087 C305.012906,327.050381 303.731856,327.105261 302.627938,326.596518 Z" id="Path" fill="#2B303F" fill-rule="nonzero"></path>
                    <path d="M317.829268,335.40552 L307.109202,329.213418 C306.235033,328.706624 306.345455,327.822038 307.35765,327.241529 L317.58082,321.32586 C318.632775,320.741273 319.899028,320.690006 320.994678,321.187643 L331.705543,327.379745 C332.579712,327.886539 332.46929,328.771125 331.466297,329.351635 L321.233925,335.267304 C320.185227,335.851726 318.921767,335.903018 317.829268,335.40552 Z" id="Path" fill="#2B303F" fill-rule="nonzero"></path>
                    <path d="M333.021397,344.16845 L322.310532,337.967134 C321.436364,337.46034 321.537583,336.584968 322.549778,335.995244 L332.772949,330.08879 C333.823428,329.501237 335.089713,329.446551 336.186807,329.941359 L346.906874,336.142675 C347.781042,336.649469 347.670621,337.524841 346.658426,338.114565 L336.435255,344.021019 C335.386024,344.612966 334.117625,344.667743 333.021397,344.16845 Z" id="Path" fill="#2B303F" fill-rule="nonzero"></path>
                    <path d="M150.789468,238.810573 L132.772395,228.389045 C131.898226,227.882251 132.008647,227.006879 133.011641,226.417155 L143.244013,220.510701 C144.289974,219.918897 145.555596,219.864092 146.64867,220.36327 L164.711752,230.784798 C165.58592,231.291592 165.475499,232.176178 164.463304,232.756688 L154.203326,238.653928 C153.154324,239.244451 151.888005,239.302556 150.789468,238.810573 Z" id="Path" fill="#2B303F" fill-rule="nonzero"></path>
                    <path d="M361.970177,344.887176 L351.259313,338.695074 C350.259596,338.183189 349.075215,338.183189 348.075499,338.695074 L337.272616,344.942463 C336.352439,345.449257 336.352439,346.269342 337.272616,346.78535 L338.128381,347.28293 C338.938137,347.743652 338.928936,348.50845 338.128381,348.978386 L326.662971,355.575924 C325.742794,356.091932 325.742794,356.912017 326.662971,357.418811 L333.481486,361.36259 C334.479069,361.869842 335.658515,361.869842 336.656098,361.36259 L347.348559,355.188917 L349.556984,353.90811 L351.148891,352.986667 L352.75,352.065223 L361.951774,346.748493 C362.844346,346.214055 362.844346,345.39397 361.970177,344.887176 Z" id="Path" fill="#2B303F" fill-rule="nonzero"></path>
                    <path d="M99.4343681,260.123567 L88.7235033,253.931465 C87.8033259,253.424671 87.9597561,252.540085 88.9627494,251.959575 L99.195122,246.025478 C100.24382,245.441055 101.507279,245.389763 102.599778,245.887261 L113.319845,252.079363 C114.194013,252.586157 114.083592,253.470743 113.071397,254.051253 L102.848226,259.966921 C101.799224,260.557444 100.532905,260.61555 99.4343681,260.123567 Z" id="Path" fill="#2B303F" fill-rule="nonzero"></path>
                    <path d="M114.562084,268.868068 L103.85122,262.675966 C102.931042,262.169172 103.087472,261.284586 104.090466,260.704076 L114.322838,254.788408 C115.371536,254.203985 116.634996,254.152693 117.727494,254.650191 L128.447561,260.842293 C129.321729,261.349087 129.211308,262.233673 128.199113,262.814183 L117.975942,268.729851 C116.923987,269.314439 115.657735,269.365705 114.562084,268.868068 Z" id="Path" fill="#2B303F" fill-rule="nonzero"></path>
                    <path d="M129.6898,277.612569 L118.978936,271.420467 C118.058758,270.913673 118.205987,270.029087 119.218182,269.448577 L129.441353,263.532909 C130.493308,262.948322 131.75956,262.897055 132.855211,263.394692 L143.547672,269.586794 C144.42184,270.093588 144.311419,270.978174 143.299224,271.558684 L133.076053,277.474352 C132.031441,278.049767 130.777714,278.10094 129.6898,277.612569 Z" id="Path" fill="#2B303F" fill-rule="nonzero"></path>
                    <path d="M258.514634,352.092866 L247.794568,345.89155 C246.87439,345.39397 247.03082,344.509384 248.043016,343.91966 L258.266186,338.013206 C259.316666,337.425653 260.58295,337.370967 261.680044,337.865775 L272.372506,344.067091 C273.292683,344.573885 273.136253,345.449257 272.124058,346.038981 L261.91929,351.991507 C260.865887,352.56854 259.600409,352.606214 258.514634,352.092866 Z" id="Path" fill="#2B303F" fill-rule="nonzero"></path>
                    <path d="M273.633149,360.837367 L262.922284,354.645265 C262.002106,354.138471 262.158537,353.253885 263.16153,352.673376 L273.393902,346.757707 C274.4426,346.173284 275.70606,346.121992 276.798559,346.61949 L287.518625,352.811592 C288.438803,353.318386 288.282373,354.202972 287.270177,354.783482 L277.047007,360.699151 C275.995052,361.283738 274.728799,361.335005 273.633149,360.837367 L273.633149,360.837367 Z" id="Path" fill="#2B303F" fill-rule="nonzero"></path>
                    <path d="M288.760865,369.581868 L278.05,363.389766 C277.175831,362.882972 277.286253,361.998386 278.289246,361.417877 L288.521619,355.502208 C289.570316,354.917785 290.833776,354.866493 291.926275,355.363992 L302.646341,361.556093 C303.566519,362.062887 303.410089,362.947473 302.397894,363.527983 L292.174723,369.443652 C291.122768,370.028239 289.856515,370.079506 288.760865,369.581868 Z" id="Path" fill="#2B303F" fill-rule="nonzero"></path>
                    <path d="M303.888581,378.326369 L293.177716,372.134268 C292.303548,371.627473 292.413969,370.742887 293.416962,370.162378 L303.658537,364.246709 C304.707234,363.662286 305.970694,363.610995 307.063193,364.108493 L317.783259,370.300594 C318.703437,370.807389 318.547007,371.691975 317.534812,372.272484 L307.339246,378.188153 C306.277553,378.785115 304.994497,378.836508 303.888581,378.326369 L303.888581,378.326369 Z" id="Path" fill="#2B303F" fill-rule="nonzero"></path>
                    <path d="M148.709867,288.614607 L134.09745,280.164968 C133.223282,279.658174 133.333703,278.773588 134.345898,278.193079 L144.569069,272.27741 C145.621024,271.692823 146.887276,271.641556 147.982927,272.139193 L162.595344,280.588832 C163.515521,281.095626 163.359091,281.970998 162.346896,282.560722 L152.123725,288.467176 C151.074494,289.059123 149.806095,289.1139 148.709867,288.614607 L148.709867,288.614607 Z" id="Path" fill="#2B303F" fill-rule="nonzero"></path>
                    <path d="M243.386918,343.348365 L228.774501,334.898726 C227.854324,334.391932 228.010754,333.507346 229.013747,332.926837 L239.24612,327.011168 C240.294817,326.426745 241.558277,326.375453 242.650776,326.872951 L257.263193,335.32259 C258.137361,335.829384 258.02694,336.704756 257.023947,337.29448 L246.791574,343.200934 C245.745614,343.792738 244.479991,343.847543 243.386918,343.348365 L243.386918,343.348365 Z" id="Path" fill="#2B303F" fill-rule="nonzero"></path>
                    <path d="M224.35765,332.346327 L153.126718,291.176221 C152.25255,290.669427 152.362971,289.784841 153.365965,289.204331 L163.598337,283.288662 C164.647035,282.70424 165.910494,282.652948 167.002993,283.150446 L238.243126,324.348195 C239.117295,324.854989 239.006874,325.739575 237.994678,326.320085 L227.771508,332.235754 C226.715135,332.811469 225.448967,332.85248 224.35765,332.346327 L224.35765,332.346327 Z" id="Path" fill="#2B303F" fill-rule="nonzero"></path>
                    <path d="M155.408758,258.483397 L144.697894,252.291295 C143.823725,251.784501 143.934146,250.899915 144.946341,250.319406 L155.169512,244.403737 C156.21821,243.819314 157.48167,243.768022 158.574169,244.26552 L169.312639,250.457622 C170.232816,250.964416 170.076386,251.849002 169.064191,252.429512 L158.84102,258.34518 C157.784188,258.935934 156.509549,258.987264 155.408758,258.483397 Z" id="Path" fill="#2B303F" fill-rule="nonzero"></path>
                    <path d="M170.56408,267.218684 L159.853215,261.017367 C158.979047,260.510573 159.089468,259.635202 160.092461,259.045478 L170.324834,253.139023 C171.372052,252.551635 172.635544,252.496923 173.72949,252.991592 L184.449557,259.192909 C185.369734,259.699703 185.213304,260.575074 184.201109,261.164798 L173.977938,267.071253 C172.928707,267.663199 171.660308,267.717976 170.56408,267.218684 Z" id="Path" fill="#2B303F" fill-rule="nonzero"></path>
                    <path d="M185.719401,276.000042 L174.999335,269.807941 C174.079157,269.301146 174.235588,268.416561 175.247783,267.836051 L185.470953,261.920382 C186.522908,261.335795 187.789161,261.284528 188.884812,261.782166 L199.595676,267.974268 C200.515854,268.481062 200.368625,269.365648 199.35643,269.946157 L189.133259,275.861826 C188.081304,276.446413 186.815052,276.49768 185.719401,276.000042 Z" id="Path" fill="#2B303F" fill-rule="nonzero"></path>
                    <path d="M200.874723,284.726115 L190.154656,278.534013 C189.234479,278.027219 189.390909,277.142633 190.403104,276.562123 L200.59867,270.683312 C201.650625,270.098725 202.916877,270.047458 204.012528,270.545096 L214.723392,276.737197 C215.64357,277.243992 215.48714,278.128577 214.484146,278.709087 L204.279379,284.624756 C203.22478,285.19736 201.961429,285.234971 200.874723,284.726115 Z" id="Path" fill="#2B303F" fill-rule="nonzero"></path>
                    <path d="M216.020843,293.525902 L205.309978,287.3338 C204.3898,286.827006 204.546231,285.94242 205.549224,285.361911 L215.781596,279.446242 C216.830294,278.861819 218.093754,278.810527 219.186253,279.308025 L229.906319,285.500127 C230.826497,286.006921 230.670067,286.891507 229.657871,287.472017 L219.434701,293.387686 C218.382746,293.972273 217.116493,294.02354 216.020843,293.525902 Z" id="Path" fill="#2B303F" fill-rule="nonzero"></path>
                    <path d="M231.176164,302.288832 L220.465299,296.087516 C219.545122,295.580722 219.69235,294.70535 220.704545,294.115626 L230.964523,288.209172 C232.013755,287.617226 233.282153,287.562448 234.378381,288.061741 L245.098448,294.263057 C245.972616,294.769851 245.862195,295.645223 244.85,296.234947 L234.626829,302.141401 C233.567921,302.745832 232.282638,302.800747 231.176164,302.288832 Z" id="Path" fill="#2B303F" fill-rule="nonzero"></path>
                    <path d="M246.331486,311.042548 L235.611419,304.850446 C234.737251,304.343652 234.847672,303.459066 235.859867,302.878556 L246.083038,296.962887 C247.134993,296.3783 248.401245,296.327034 249.496896,296.824671 L260.207761,303.016773 C261.127938,303.523567 260.971508,304.408153 259.968514,304.988662 L249.736142,310.904331 C248.687444,311.488754 247.423985,311.540046 246.331486,311.042548 L246.331486,311.042548 Z" id="Path" fill="#2B303F" fill-rule="nonzero"></path>
                    <path d="M261.486807,319.805478 L250.766741,313.613376 C249.892572,313.106582 250.002993,312.221996 251.015188,311.641486 L261.238359,305.725817 C262.290314,305.14123 263.556567,305.089964 264.652217,305.587601 L275.363082,311.779703 C276.237251,312.286497 276.126829,313.171083 275.114634,313.751592 L264.891463,319.667261 C263.842766,320.251684 262.579306,320.302976 261.486807,319.805478 Z" id="Path" fill="#2B303F" fill-rule="nonzero"></path>
                    <path d="M276.632927,328.568408 L265.931264,322.376306 C265.057095,321.869512 265.167517,320.984926 266.17051,320.404416 L276.402882,314.488747 C277.45158,313.904325 278.71504,313.853033 279.807539,314.350531 L290.527605,320.542633 C291.401774,321.049427 291.291353,321.934013 290.279157,322.514522 L280.055987,328.430191 C279.001592,329.017856 277.731149,329.069154 276.632927,328.568408 L276.632927,328.568408 Z" id="Path" fill="#2B303F" fill-rule="nonzero"></path>
                    <path d="M291.788248,337.331338 L281.068182,331.130021 C280.194013,330.623227 280.304435,329.747856 281.31663,329.158132 L291.5398,323.251677 C292.589032,322.659731 293.85743,322.604954 294.953659,323.104246 L305.673725,329.305563 C306.547894,329.803142 306.437472,330.687728 305.425277,331.277452 L295.202106,337.183907 C294.151627,337.771459 292.885342,337.826145 291.788248,337.331338 Z" id="Path" fill="#2B303F" fill-rule="nonzero"></path>
                    <path d="M306.94357,346.085053 L296.223503,339.892951 C295.349335,339.386157 295.459756,338.501571 296.471951,337.921062 L306.695122,332.005393 C307.747077,331.420806 309.013329,331.369539 310.10898,331.867176 L320.819845,338.059278 C321.740022,338.566072 321.583592,339.450658 320.580599,340.031168 L310.348226,345.946837 C309.299529,346.531259 308.036069,346.582551 306.94357,346.085053 Z" id="Path" fill="#2B303F" fill-rule="nonzero"></path>
                    <path d="M322.062084,354.847983 L311.35122,348.655881 C310.477051,348.149087 310.587472,347.264501 311.599667,346.683992 L321.822838,340.768323 C322.871536,340.1839 324.134996,340.132608 325.227494,340.630106 L335.947561,346.822208 C336.821729,347.329002 336.711308,348.213588 335.699113,348.794098 L325.503548,354.755839 C324.436862,355.334942 323.15815,355.369179 322.062084,354.847983 L322.062084,354.847983 Z" id="Path" fill="#2B303F" fill-rule="nonzero"></path>
                    <path d="M140.262639,249.711253 L118.095565,236.903185 C117.175388,236.396391 117.331818,235.511805 118.344013,234.931295 L128.567184,229.015626 C129.619139,228.431039 130.885392,228.379773 131.981042,228.87741 L154.138914,241.685478 C155.059091,242.192272 154.902661,243.076858 153.899667,243.657367 L143.667295,249.573036 C142.618597,250.157459 141.355138,250.208751 140.262639,249.711253 L140.262639,249.711253 Z" id="Path" fill="#2B303F" fill-rule="nonzero"></path>
                    <path d="M133.186475,262.611465 L122.47561,256.437792 C121.601441,255.930998 121.702661,255.055626 122.714856,254.465902 L132.938027,248.559448 C133.987258,247.967502 135.255657,247.912724 136.351885,248.412017 L147.071951,254.613333 C147.94612,255.110913 147.835698,255.995499 146.823503,256.585223 L136.600333,262.491677 C135.545431,263.070346 134.279237,263.114775 133.186475,262.611465 L133.186475,262.611465 Z" id="Path" fill="#2B303F" fill-rule="nonzero"></path>
                    <path d="M148.341796,271.392824 L137.621729,265.200722 C136.747561,264.693928 136.857982,263.809342 137.870177,263.228832 L148.093348,257.313163 C149.145303,256.728576 150.411556,256.67731 151.507206,257.174947 L162.218071,263.367049 C163.138248,263.873843 162.981818,264.758429 161.978825,265.338938 L151.746452,271.254607 C150.697755,271.83903 149.434295,271.890322 148.341796,271.392824 Z" id="Path" fill="#2B303F" fill-rule="nonzero"></path>
                    <path d="M163.487916,280.118896 L152.749446,273.954437 C151.829268,273.447643 151.985698,272.572272 152.997894,271.982548 L163.221064,266.076093 C164.271544,265.488541 165.537829,265.433855 166.634922,265.928662 L177.354989,272.129979 C178.275166,272.636773 178.118736,273.512144 177.106541,274.101868 L166.88337,280.008323 C165.833094,280.582254 164.573211,280.623282 163.487916,280.118896 Z" id="Path" fill="#2B303F" fill-rule="nonzero"></path>
                    <path d="M178.634035,288.909469 L167.923171,282.717367 C167.002993,282.210573 167.159424,281.325987 168.171619,280.745478 L178.394789,274.829809 C179.443487,274.245386 180.706947,274.194094 181.799446,274.691592 L192.519512,280.883694 C193.393681,281.390488 193.283259,282.275074 192.271064,282.855584 L182.047894,288.771253 C180.995939,289.35584 179.729686,289.407106 178.634035,288.909469 L178.634035,288.909469 Z" id="Path" fill="#2B303F" fill-rule="nonzero"></path>
                    <path d="M193.789357,297.672399 L183.115299,291.480297 C182.241131,290.973503 182.351552,290.088917 183.363747,289.508408 L193.586918,283.592739 C194.638873,283.008152 195.905125,282.956885 197.000776,283.454522 L207.711641,289.646624 C208.585809,290.153418 208.48459,291.038004 207.472395,291.618514 L197.249224,297.524968 C196.187906,298.132547 194.898383,298.187496 193.789357,297.672399 Z" id="Path" fill="#2B303F" fill-rule="nonzero"></path>
                    <path d="M208.935477,306.426115 L198.224612,300.234013 C197.350443,299.727219 197.460865,298.842633 198.463858,298.262123 L208.696231,292.346454 C209.744928,291.762032 211.008388,291.71074 212.100887,292.208238 L222.820953,298.40034 C223.695122,298.907134 223.584701,299.79172 222.572506,300.372229 L212.349335,306.287898 C211.29738,306.872485 210.031127,306.923752 208.935477,306.426115 Z" id="Path" fill="#2B303F" fill-rule="nonzero"></path>
                    <path d="M224.090798,315.189045 L213.370732,308.996943 C212.496563,308.490149 212.606984,307.605563 213.61918,307.025053 L223.84235,301.109384 C224.894305,300.524797 226.160558,300.47353 227.256208,300.971168 L237.967073,307.16327 C238.841242,307.670064 238.73082,308.55465 237.727827,309.135159 L227.504656,315.050828 C226.452701,315.635415 225.186449,315.686682 224.090798,315.189045 L224.090798,315.189045 Z" id="Path" fill="#2B303F" fill-rule="nonzero"></path>
                    <path d="M239.24612,323.951975 L228.535255,317.750658 C227.661086,317.243864 227.771508,316.368493 228.774501,315.778769 L239.006874,309.872314 C240.052834,309.28051 241.318457,309.225705 242.41153,309.724883 L253.131596,315.9262 C254.005765,316.423779 253.895344,317.308365 252.883149,317.898089 L242.659978,323.804544 C241.609498,324.392096 240.343214,324.446782 239.24612,323.951975 Z" id="Path" fill="#2B303F" fill-rule="nonzero"></path>
                    <path d="M254.392239,332.70569 L243.672173,326.513588 C242.798004,326.006794 242.908426,325.122208 243.920621,324.541699 L254.143792,318.62603 C255.195747,318.041443 256.461999,317.990176 257.55765,318.487813 L268.268514,324.679915 C269.142683,325.186709 269.032262,326.071295 268.029268,326.651805 L257.796896,332.567473 C256.748198,333.151896 255.484738,333.203188 254.392239,332.70569 L254.392239,332.70569 Z" id="Path" fill="#2B303F" fill-rule="nonzero"></path>
                    <path d="M269.538359,341.46862 L258.827494,335.267304 C257.953326,334.769724 258.063747,333.885138 259.066741,333.295414 L269.299113,327.38896 C270.346331,326.801572 271.609824,326.746859 272.703769,327.241529 L283.414634,333.442845 C284.288803,333.949639 284.178381,334.825011 283.166186,335.414735 L272.943016,341.321189 C271.896213,341.910041 270.632017,341.964784 269.538359,341.46862 Z" id="Path" fill="#2B303F" fill-rule="nonzero"></path>
                    <path d="M284.693681,350.222335 L273.973614,344.030234 C273.099446,343.523439 273.209867,342.638854 274.222062,342.058344 L284.445233,336.142675 C285.497188,335.558088 286.76344,335.506821 287.859091,336.004459 L298.569956,342.196561 C299.444124,342.703355 299.333703,343.587941 298.33071,344.16845 L288.098337,350.084119 C287.049639,350.668542 285.78618,350.719833 284.693681,350.222335 Z" id="Path" fill="#2B303F" fill-rule="nonzero"></path>
                    <path d="M318.593016,369.830658 L289.147339,352.793163 C288.273171,352.286369 288.37439,351.401783 289.386585,350.821274 L299.609756,344.905605 C300.661711,344.321018 301.927964,344.269751 303.023614,344.767389 L332.46929,361.804883 C333.343459,362.302463 333.233038,363.187049 332.220843,363.776773 L321.997672,369.683227 C320.949632,370.267713 319.68753,370.322366 318.593016,369.830658 Z" id="Path" fill="#2B303F" fill-rule="nonzero"></path>
                    <path d="M118.040355,253.876178 L103.427938,245.426539 C102.507761,244.919745 102.664191,244.035159 103.667184,243.45465 L113.899557,237.548195 C114.945517,236.956391 116.21114,236.901586 117.304213,237.400764 L131.91663,245.850403 C132.790798,246.357197 132.680377,247.241783 131.677384,247.822293 L121.463415,253.737962 C120.409847,254.328568 119.137989,254.379923 118.040355,253.876178 Z" id="Path" fill="#2B303F" fill-rule="nonzero"></path>
                    <path d="M377.926053,335.525308 L162.751774,211.130403 C161.831596,210.632824 161.988027,209.748238 163.000222,209.158514 L168.116408,206.209894 C169.163626,205.622506 170.427119,205.567793 171.521064,206.062463 L386.695344,330.457367 C387.569512,330.964161 387.459091,331.839533 386.446896,332.429257 L381.339911,335.40552 C380.28501,335.984189 379.018816,336.028618 377.926053,335.525308 Z" id="Path" fill="#2B303F" fill-rule="nonzero"></path>
                    <path d="M244.629157,349.669469 C244.321903,350.339797 243.796265,350.885654 243.13847,351.217495 L183.934257,385.44913 C181.913122,386.574162 179.479092,386.673298 177.373392,385.716348 L76.1538803,327.213885 C75.7212896,326.988984 75.3727469,326.630267 75.1600887,326.191083 C74.7920177,325.269639 75.3073171,324.246837 76.6507761,323.472824 L135.864191,289.231975 C137.885326,288.106942 140.319356,288.007806 142.425055,288.964756 L243.644568,347.467219 C244.492628,347.835348 244.919812,348.790837 244.629157,349.669469 Z" id="Path" fill="#B1B4C4" fill-rule="nonzero"></path>
                    <path d="M244.629157,349.669469 C244.321903,350.339797 243.796265,350.885654 243.13847,351.217495 L183.934257,385.44913 C181.913122,386.574162 179.479092,386.673298 177.373392,385.716348 L76.1538803,327.213885 C75.7212896,326.988984 75.3727469,326.630267 75.1600887,326.191083 C75.4737771,325.527463 75.9979065,324.986413 76.6507761,324.652272 L135.864191,290.420637 C137.884258,289.294093 140.317625,289.191566 142.425055,290.144204 L243.644568,348.655881 C244.074286,348.87729 244.420017,349.233203 244.629157,349.669469 L244.629157,349.669469 Z" id="Path" fill="#C3C6D1" fill-rule="nonzero"></path>
                    <path d="M394.305211,326.089724 L179.130931,201.69482 C178.170222,200.983282 177.600741,199.859826 177.594235,198.66327 L177.594235,196.129299 C177.594235,194.959066 178.302772,194.424628 179.17694,194.931423 L394.35122,319.326327 C395.329017,320.024166 395.916704,321.146413 395.933925,322.348662 L395.933925,324.882633 C395.887916,326.062081 395.179379,326.596518 394.305211,326.089724 Z" id="Path" fill="#2B303F" fill-rule="nonzero"></path>
                    <path d="M211.640798,189.411975 L190.384701,177.147558 C187.725388,175.608747 185.562971,171.471465 185.562971,167.933121 L185.562971,145.10896 C185.562971,141.552187 187.725388,139.921231 190.384701,141.423185 L211.640798,153.724459 C214.309313,155.26327 216.462528,159.400552 216.462528,162.938896 L216.462528,185.763057 C216.425721,189.31983 214.272506,190.950786 211.640798,189.411975 Z" id="Path" fill="#E9EAF2" fill-rule="nonzero"></path>
                    <path d="M211.557982,137.138471 L190.338692,124.874055 C187.679379,123.335244 185.516962,117.041783 185.516962,113.964161 L185.516962,87.3160085 C185.516962,83.7592357 187.679379,82.1282803 190.338692,83.6302335 L211.557982,95.8946497 C214.226497,97.4334607 216.379712,101.570743 216.379712,105.109087 L216.379712,131.75724 C216.379712,134.890149 214.226497,138.677282 211.557982,137.138471 Z" id="Path" fill="#E9EAF2" fill-rule="nonzero"></path>
                    <path d="M201.06796,119.336178 C196.752328,116.839066 193.237251,110.739108 193.237251,105.744883 C193.237251,100.750658 196.752328,98.7142675 201.06796,101.21138 C205.383592,103.708493 208.907871,109.80845 208.907871,114.802675 C208.907871,119.7969 205.392794,121.833291 201.06796,119.336178 Z M201.06796,103.533418 C197.856541,101.690531 195.243237,103.192484 195.243237,106.905902 C195.456186,111.022355 197.62077,114.789051 201.06796,117.041783 C204.288581,118.884671 206.901885,117.391932 206.901885,113.678514 C206.689739,109.557036 204.521196,105.785977 201.06796,103.533418 L201.06796,103.533418 Z" id="Shape" fill="#42A7C6" fill-rule="nonzero"></path>
                    <polygon id="Path" fill="#42A7C6" fill-rule="nonzero" points="203.221175 115.641189 199.66929 109.983524 199.66929 105.274947 201.675277 106.435966 201.675277 110.094098 204.546231 114.655244"></polygon>
                    <path d="M211.530377,80.773758 L190.311086,68.5093418 C187.651774,66.9613163 185.489357,60.0320594 185.489357,56.9452229 L185.489357,32.4163907 C185.489357,29.3387686 187.651774,28.0856051 190.311086,29.6520594 L211.530377,41.92569 C214.378148,43.7806629 216.169821,46.8861648 216.352106,50.2831847 L216.352106,74.8212314 C216.352106,77.8712102 214.198891,82.312569 211.530377,80.773758 Z" id="Path" fill="#E9EAF2" fill-rule="nonzero"></path>
                    <path d="M200.920732,51.3704883 C199.641685,50.6333333 198.611086,51.2322718 198.611086,52.7157962 C198.697242,54.3446672 199.555556,55.8342302 200.920732,56.7240764 C202.199778,57.4612314 203.239579,56.862293 203.239579,55.387983 C203.146894,53.7562691 202.2864,52.2654285 200.920732,51.3704883 L200.920732,51.3704883 Z M207.095122,52.2919321 L205.254767,51.2230573 C204.956475,51.0193575 204.741,50.7153154 204.64745,50.3661146 L204.168958,48.4218684 C204.068713,48.073366 203.850814,47.7704928 203.552439,47.5649257 L198.307428,44.5333758 C198.049778,44.3859448 197.782927,44.4504459 197.700111,44.6900212 L197.221619,46.0721868 C197.173361,46.1852789 197.075396,46.2695197 196.956463,46.3001961 C196.83753,46.3308725 196.711114,46.3045063 196.614302,46.2288323 L194.773947,45.1599575 C193.927384,44.6623779 193.237251,45.0678132 193.237251,46.0814013 L193.237251,54.1163907 C193.296435,55.20101 193.866849,56.1929114 194.773947,56.7885775 L207.122727,63.9297665 C207.96929,64.4181316 208.668625,64.0219108 208.668625,63.0083227 L208.668625,54.94569 C208.601063,53.8517871 208.01656,52.855739 207.095122,52.2642887 L207.095122,52.2919321 Z M200.920732,58.5393206 C198.646863,57.0497583 197.215604,54.5664067 197.065188,51.8496391 C197.065188,49.3801699 198.795122,48.3850106 200.920732,49.6197452 C203.200155,51.1040402 204.633193,53.5904778 204.776275,56.3094268 C204.776275,58.7420382 203.055543,59.7464119 200.920732,58.5116773 L200.920732,58.5393206 Z M206.552217,55.0101911 C206.238051,54.8055632 206.039886,54.4634301 206.018514,54.0887473 C206.018514,53.7385987 206.257761,53.6003822 206.552217,53.7754565 C206.869893,53.9780228 207.071676,54.3204996 207.095122,54.6969002 C207.095122,55.0194055 206.855876,55.1576221 206.552217,54.9825478 L206.552217,55.0101911 Z" id="Shape" fill="#42A7C6" fill-rule="nonzero"></path>
                    <path d="M207.619623,167.103822 C207.619623,171.259533 201.113969,176.659193 201.113969,176.659193 C201.113969,176.659193 194.599113,163.758981 194.599113,159.575626 C194.599113,155.392272 197.516075,153.733673 201.113969,155.806921 C204.956089,158.319522 207.37236,162.515315 207.619623,167.103822 L207.619623,167.103822 Z" id="Path" fill="#42A7C6" fill-rule="nonzero"></path>
                    <ellipse id="Oval" fill="#E9EAF2" fill-rule="nonzero" transform="translate(201.113660, 163.056778) rotate(-30.000000) translate(-201.113660, -163.056778) " cx="201.11366" cy="163.056778" rx="3.4794691" ry="6.02417192"></ellipse>
                    <path d="M361.749335,222.989384 L233.28337,148.711805 C231.111752,147.467856 229.363415,144.104586 229.363415,141.220467 L229.363415,54.7614013 C229.363415,51.8772824 231.111752,50.5504034 233.28337,51.8035669 L361.749335,126.071932 C363.911752,127.325096 365.660089,130.679151 365.660089,133.572484 L365.660089,220.022335 C365.660089,222.915669 363.911752,224.242548 361.749335,222.989384 Z" id="Path" fill="#E9EAF2" fill-rule="nonzero"></path>
                    <path d="M346.906874,160.137707 L247.334479,102.575117 C244.923614,101.174522 242.963636,97.4334607 242.963636,94.2176221 L242.963636,87.7030149 C242.963636,84.4779618 244.923614,83.0036518 247.334479,84.3950318 L346.906874,141.957622 C349.317738,143.349002 351.268514,147.090064 351.268514,150.315117 L351.268514,156.829724 C351.268514,160.054777 349.317738,161.529087 346.906874,160.137707 Z" id="Path" fill="#FFFFFF" fill-rule="nonzero"></path>
                    <path d="M292.754435,158.119745 L247.334479,131.858599 C244.923614,130.467219 242.963636,126.726157 242.963636,123.501104 L242.963636,117.023355 C242.963636,113.798301 244.923614,112.323992 247.334479,113.715372 L292.754435,139.976518 C295.165299,141.367898 297.116075,145.10896 297.116075,148.334013 L297.116075,154.802548 C297.116075,158.027601 295.165299,159.511125 292.754435,158.119745 Z" id="Path" fill="url(#linearGradient-2)" fill-rule="nonzero"></path>
                    <path d="M388.186031,242.007983 C388.186031,242.007983 339.757095,252.69673 300.603548,209.149299 C261.45,165.601868 229.510643,171.185817 229.510643,171.185817 L229.510643,198.368408 L388.186031,290.098132 L388.186031,242.007983 Z" id="Path" fill="url(#linearGradient-3)" fill-rule="nonzero"></path>
                    <path d="M388.186031,242.007983 C388.186031,242.007983 339.757095,252.69673 300.603548,209.149299 C261.45,165.601868 229.510643,171.185817 229.510643,171.185817" id="Path" stroke="#CCCEDD" stroke-width="1.06"></path>
                </g>
                <g id="Men_12" transform="translate(214.000000, 0.000000)" fill-rule="nonzero">
                    <path d="M21.3348,41.1111111 C19.9190789,43.658906 18.1980864,46.0222437 16.2104,48.1481481 C15.6584,48.7962963 11.3988,47.1574074 12.2912,46.6944444 C13.1836,46.2314815 15.9712,42.3240741 17.3696,39.712963 C18.5395126,36.5956586 19.5346773,33.4147313 20.3504,30.1851852 C21.2244,26.9907407 21.9788,22.3055556 22.6228,20.1018519 C22.9590997,18.4391017 24.2343924,17.1302145 25.8796,16.7592593 C27.416,16.3981481 28.4096,16.8240741 28.1244,18.6944444 C27.6,21.9537037 25.0884,34.6759259 21.3348,41.1111111 Z" id="_Контур_" fill="#FFCEA9"></path>
                    <path d="M23.7728,90.9722222 C22.4572,92.0555556 20.5068,91.0648148 20.4056,91.1666667 C18.855348,92.6124383 17.230852,93.9754198 15.5388,95.25 C14.7108,95.8981481 13.432,96.7685185 13.6988,98.0277778 C14.1128,100.259259 17.6732,99.5740741 19.0164,98.8888889 C20.3596,98.2037037 21.4636,97.037037 22.6964,96.2777778 C23.6164,95.7037037 24.5364,95.4166667 24.6376,94.2592593 C24.7204,93.5648148 24.012,90.9444444 23.7728,90.9722222 Z" id="Path" fill="#38226D"></path>
                    <path d="M24.6192,93.7962963 C24.4444,94.8981481 23.5612,95.2037037 22.6596,95.7685185 C21.3716,96.5740741 20.2308,97.7407407 18.8876,98.4259259 C17.5444,99.1111111 14.5544,99.6851852 13.6804,98.0833333 C14.1496,100.240741 17.6548,99.5648148 18.9796,98.8888889 C20.3044,98.212963 21.4268,97.037037 22.6596,96.2777778 C23.5796,95.7037037 24.4996,95.4166667 24.6008,94.2592593 C24.6193996,94.105696 24.6255533,93.9508641 24.6192,93.7962963 L24.6192,93.7962963 Z" id="Path" fill="#9C73FF"></path>
                    <path d="M10.3776,83.2037037 C9.062,84.287037 6.7528,83.1111111 6.6516,83.2037037 C5.28117036,84.6082531 3.82801124,85.92854 2.3,87.1574074 C1.472,87.8148148 0.1932,88.6851852 0.46,89.9351852 C0.874,92.1759259 4.4344,91.4907407 5.7868,90.8055556 C7.1392,90.1203704 8.2248,88.9537037 9.4668,88.1851852 C10.3868,87.6203704 11.3068,87.3240741 11.408,86.1759259 C11.4816,85.4814815 10.6168,83.1759259 10.3776,83.2037037 Z" id="Path" fill="#38226D"></path>
                    <path d="M11.362,85.8703704 C11.1872,86.9722222 10.304,87.2777778 9.4024,87.8425926 C8.1144,88.6481481 6.9736,89.8148148 5.6304,90.5 C4.2872,91.1851852 1.288,91.7592593 0.4232,90.1574074 C0.8924,92.3148148 4.3884,91.6388889 5.7224,90.962963 C7.0564,90.287037 8.1604,89.1111111 9.4024,88.3425926 C10.3224,87.7777778 11.2424,87.4907407 11.3436,86.3333333 C11.3621996,86.17977 11.3683533,86.0249382 11.362,85.8703704 Z" id="Path" fill="#9C73FF"></path>
                    <path d="M41.4,48.3703704 C42.8628,57.5740741 38.8056,61.0092593 33.5248,62.962963 C29.7344,64.3703704 24.3248,66.537037 24.3248,66.537037 C24.3248,66.537037 24.3984,68.5555556 24.4352,73.0833333 C24.4352,77.0740741 23.9568,91.6018519 23.9568,91.6018519 C22.6865502,92.25939 21.1790498,92.25939 19.9088,91.6018519 C19.9088,91.6018519 17.7836,80.4444444 17.3328,75.4074074 C16.7164,68.5833333 15.6768,64.1111111 16.0264,62.6388889 C16.33,61.3425926 23.7452,57.6759259 26.1004,55.712963 L10.5616,60.9537037 C10.8708338,62.6487608 11.0217586,64.3692263 11.0124,66.0925926 C10.8744,71.5092593 10.5708,83.2407407 10.5708,83.2407407 C10.5708,83.2407407 8.4456,84.787037 6.624,83.2407407 C6.624,83.2407407 2.714,60.0277778 3.1924,56.9537037 C3.6432,54.037037 17.3328,48.0740741 19.7524,46.0185185 C20.6025622,45.3230795 21.7060845,45.0235458 22.7884,45.1944444 L41.4,48.3703704 Z" id="_Контур_2" fill="#42A7C6"></path>
                    <g id="_Группа_" transform="translate(0.920000, 38.888889)">
                        <g id="_Группа_2">
                            <path d="M3.2568,13.3148148 L13.6988,7.25 C13.8827448,7.13851727 14.1128552,7.13851727 14.2968,7.25 L32.6048,17.8888889 L21.8684,24.1296296 L3.2568,13.3148148 Z" id="_Контур_3" fill="#F4F4F4"></path>
                            <path d="M22.356,21.8981481 L23.1564,22.3611111 C23.2208,22.3611111 23.2116,22.462963 23.1564,22.5092593 L22.3928,22.9537037 C22.3140537,22.9905811 22.2231463,22.9905811 22.1444,22.9537037 L21.344,22.4907407 C21.2796,22.4907407 21.2888,22.3888889 21.344,22.3425926 L22.1076,21.8981481 C22.1863463,21.8612707 22.2772537,21.8612707 22.356,21.8981481 L22.356,21.8981481 Z" id="Path" fill="#3A2C6D"></path>
                            <path d="M21.2336,21.2962963 L22.0248,21.75 C22.0892,21.75 22.08,21.8611111 22.0248,21.8981481 L21.2704,22.3425926 C21.1894245,22.383844 21.0937755,22.383844 21.0128,22.3425926 L20.2216,21.8796296 C20.1572,21.8796296 20.1664,21.7777778 20.2216,21.7314815 L20.976,21.2962963 C21.0557017,21.2499841 21.1538983,21.2499841 21.2336,21.2962963 L21.2336,21.2962963 Z" id="Path" fill="#3A2C6D"></path>
                            <path d="M20.0928,20.5833333 L20.884,21.0462963 C20.9484,21.0462963 20.9484,21.1481481 20.884,21.1944444 L20.1296,21.6296296 C20.0486245,21.6708811 19.9529755,21.6708811 19.872,21.6296296 L19.0808,21.1666667 C19.0164,21.1666667 19.0256,21.0648148 19.0808,21.0185185 L19.8352,20.5740741 C19.9176333,20.5357035 20.0132964,20.5391421 20.0928,20.5833333 L20.0928,20.5833333 Z" id="Path" fill="#3A2C6D"></path>
                            <path d="M18.9796,19.9351852 L19.7708,20.3981481 C19.8352,20.3981481 19.8352,20.5 19.7708,20.5462963 L19.0164,20.9907407 C18.9345187,21.027977 18.8406813,21.027977 18.7588,20.9907407 L17.9676,20.5277778 C17.9032,20.5277778 17.9124,20.4259259 17.9676,20.3796296 L18.722,19.9351852 C18.8038813,19.897949 18.8977187,19.897949 18.9796,19.9351852 L18.9796,19.9351852 Z" id="Path" fill="#3A2C6D"></path>
                            <path d="M17.848,19.2777778 L18.6484,19.7407407 C18.7128,19.7407407 18.7036,19.8518519 18.6484,19.8888889 L17.8848,20.3333333 C17.8070497,20.3744923 17.7141503,20.3744923 17.6364,20.3333333 L16.836,19.8703704 C16.7716,19.8703704 16.7808,19.7685185 16.836,19.7222222 L17.5996,19.287037 C17.6758267,19.2429483 17.7687417,19.2394848 17.848,19.2777778 Z" id="Path" fill="#3A2C6D"></path>
                            <path d="M16.7256,18.6296296 L17.526,19.0925926 C17.5904,19.0925926 17.5812,19.1944444 17.526,19.2407407 L16.7624,19.6759259 C16.6846497,19.7170849 16.5917503,19.7170849 16.514,19.6759259 L15.7136,19.212963 C15.6492,19.212963 15.6584,19.1111111 15.7136,19.0740741 L16.4772,18.6296296 C16.5549503,18.5884707 16.6478497,18.5884707 16.7256,18.6296296 L16.7256,18.6296296 Z" id="Path" fill="#3A2C6D"></path>
                            <path d="M15.64,17.9722222 L16.4312,18.4351852 C16.4956,18.4351852 16.4864,18.537037 16.4312,18.5833333 L15.6768,19.0277778 C15.5949187,19.065014 15.5010813,19.065014 15.4192,19.0277778 L14.628,18.5648148 C14.5636,18.5648148 14.5636,18.462963 14.628,18.4166667 L15.3824,17.9722222 C15.4642813,17.934986 15.5581187,17.934986 15.64,17.9722222 L15.64,17.9722222 Z" id="Path" fill="#3A2C6D"></path>
                            <path d="M14.4716,17.3148148 L15.272,17.7777778 C15.3364,17.7777778 15.3272,17.8888889 15.272,17.9259259 L14.5084,18.3703704 C14.4306497,18.4115293 14.3377503,18.4115293 14.26,18.3703704 L13.4596,17.9074074 C13.3952,17.9074074 13.4044,17.8055556 13.4596,17.7592593 L14.2232,17.3240741 C14.2994267,17.2799853 14.3923417,17.2765219 14.4716,17.3148148 L14.4716,17.3148148 Z" id="Path" fill="#3A2C6D"></path>
                            <path d="M13.3492,16.6666667 L14.1404,17.1296296 C14.2048,17.1296296 14.1956,17.2314815 14.1404,17.2777778 L13.386,17.712963 C13.3050245,17.7542144 13.2093755,17.7542144 13.1284,17.712963 L12.3372,17.25 C12.2728,17.25 12.282,17.1481481 12.3372,17.1111111 L13.0916,16.6666667 C13.1725755,16.6254152 13.2682245,16.6254152 13.3492,16.6666667 L13.3492,16.6666667 Z" id="Path" fill="#3A2C6D"></path>
                            <path d="M12.2176,16.0092593 L13.018,16.4722222 C13.0824,16.4722222 13.0732,16.5740741 13.018,16.6203704 L12.2544,17.0648148 C12.1756537,17.1016922 12.0847463,17.1016922 12.006,17.0648148 L11.2056,16.6018519 C11.1412,16.6018519 11.1504,16.5 11.2056,16.4537037 L11.9692,16.0092593 C12.0469503,15.9681003 12.1398497,15.9681003 12.2176,16.0092593 Z" id="Path" fill="#3A2C6D"></path>
                            <path d="M11.0952,15.3518519 L11.8864,15.8148148 C11.9508,15.8148148 11.9508,15.9166667 11.8864,15.962963 L11.132,16.4074074 C11.0510245,16.4486588 10.9553755,16.4486588 10.8744,16.4074074 L10.0832,15.9444444 C10.0188,15.9444444 10.028,15.8425926 10.0832,15.7962963 L10.8376,15.3611111 C10.9171036,15.3169198 11.0127667,15.3134813 11.0952,15.3518519 L11.0952,15.3518519 Z" id="Path" fill="#3A2C6D"></path>
                            <path d="M9.9728,14.7037037 L10.764,15.1666667 C10.8284,15.1666667 10.8192,15.2685185 10.764,15.3148148 L10.0004,15.75 C9.92264965,15.7911589 9.82975035,15.7911589 9.752,15.75 L8.9516,15.287037 C8.8872,15.287037 8.8964,15.1851852 8.9516,15.1388889 L9.7152,14.7037037 C9.79617545,14.6624523 9.89182455,14.6624523 9.9728,14.7037037 Z" id="Path" fill="#3A2C6D"></path>
                            <path d="M8.8412,14.0462963 L9.6416,14.5092593 C9.706,14.5092593 9.6968,14.6111111 9.6416,14.6574074 L8.878,15.0925926 C8.80024965,15.1337515 8.70735035,15.1337515 8.6296,15.0925926 L7.8292,14.6296296 C7.7648,14.6296296 7.774,14.5185185 7.8292,14.4814815 L8.5928,14.037037 C8.67205834,13.9987441 8.7649733,14.0022076 8.8412,14.0462963 L8.8412,14.0462963 Z" id="Path" fill="#3A2C6D"></path>
                            <path d="M7.176,13.0740741 L8.51,13.8518519 C8.5744,13.8518519 8.5652,13.9537037 8.51,14 L7.7556,14.4444444 C7.67371871,14.4816807 7.57988129,14.4816807 7.498,14.4444444 L6.164,13.6666667 C6.0996,13.6666667 6.0996,13.5648148 6.164,13.5185185 L6.9184,13.0740741 C7.00028129,13.0368379 7.09411871,13.0368379 7.176,13.0740741 L7.176,13.0740741 Z" id="Path" fill="#3A2C6D"></path>
                            <path d="M21.7764,20.2962963 L22.5768,20.7592593 C22.6412,20.7592593 22.632,20.8611111 22.5768,20.9074074 L21.8132,21.3425926 C21.7368899,21.3892533 21.6411101,21.3892533 21.5648,21.3425926 L20.7644,20.8888889 C20.7,20.8888889 20.7092,20.7777778 20.7644,20.7407407 L21.528,20.2962963 C21.6057503,20.2551374 21.6986497,20.2551374 21.7764,20.2962963 L21.7764,20.2962963 Z" id="Path" fill="#3A2C6D"></path>
                            <path d="M20.654,19.6388889 L21.4452,20.1018519 C21.5096,20.1018519 21.5004,20.2037037 21.4452,20.25 L20.6908,20.6944444 C20.6089187,20.7316807 20.5150813,20.7316807 20.4332,20.6944444 L19.642,20.2314815 C19.5776,20.2314815 19.5776,20.1296296 19.642,20.0833333 L20.3964,19.6388889 C20.4773755,19.5976374 20.5730245,19.5976374 20.654,19.6388889 L20.654,19.6388889 Z" id="Path" fill="#3A2C6D"></path>
                            <path d="M19.5224,18.9814815 L20.3136,19.4444444 C20.3872,19.4444444 20.378,19.5462963 20.3136,19.5925926 L19.5592,20.037037 C19.4773187,20.0742732 19.3834813,20.0742732 19.3016,20.037037 L18.5104,19.5740741 C18.446,19.5740741 18.4552,19.4722222 18.5104,19.4259259 L19.2648,18.9814815 C19.3466813,18.9442453 19.4405187,18.9442453 19.5224,18.9814815 Z" id="Path" fill="#3A2C6D"></path>
                            <path d="M18.4,18.3240741 L19.2004,18.787037 C19.2648,18.787037 19.2556,18.8981481 19.2004,18.9351852 L18.4368,19.3796296 C18.3590497,19.4207886 18.2661503,19.4207886 18.1884,19.3796296 L17.388,18.9166667 C17.3236,18.9166667 17.3328,18.8148148 17.388,18.7685185 L18.1516,18.3333333 C18.2278267,18.2892446 18.3207417,18.2857811 18.4,18.3240741 L18.4,18.3240741 Z" id="Path" fill="#3A2C6D"></path>
                            <path d="M17.2776,17.6759259 L18.0688,18.1388889 C18.1332,18.1388889 18.124,18.2407407 18.0688,18.287037 L17.3144,18.7314815 C17.2325187,18.7687177 17.1386813,18.7687177 17.0568,18.7314815 L16.2656,18.2685185 C16.2012,18.2685185 16.2012,18.1666667 16.2656,18.1203704 L17.02,17.6759259 C17.1018813,17.6386897 17.1957187,17.6386897 17.2776,17.6759259 L17.2776,17.6759259 Z" id="Path" fill="#3A2C6D"></path>
                            <path d="M16.146,17.0185185 L16.9464,17.4814815 C17.0108,17.4814815 17.0016,17.5925926 16.9464,17.6296296 L16.1828,18.0740741 C16.1050497,18.115233 16.0121503,18.115233 15.9344,18.0740741 L15.134,17.6111111 C15.0696,17.6111111 15.0788,17.5092593 15.134,17.462963 L15.8976,17.0277778 C15.9738267,16.983689 16.0667417,16.9802256 16.146,17.0185185 L16.146,17.0185185 Z" id="Path" fill="#3A2C6D"></path>
                            <path d="M15.0144,16.3703704 L15.8148,16.8333333 C15.8792,16.8333333 15.87,16.9351852 15.8148,16.9722222 L15.0512,17.4166667 C14.9734497,17.4578256 14.8805503,17.4578256 14.8028,17.4166667 L14.0024,16.9537037 C13.938,16.9537037 13.9472,16.8518519 14.0024,16.8055556 L14.766,16.3703704 C14.8437503,16.3292114 14.9366497,16.3292114 15.0144,16.3703704 L15.0144,16.3703704 Z" id="Path" fill="#3A2C6D"></path>
                            <path d="M13.892,15.7407407 L14.6832,16.2037037 C14.7476,16.2037037 14.7384,16.3055556 14.6832,16.3518519 L13.9288,16.787037 C13.8478245,16.8282885 13.7521755,16.8282885 13.6712,16.787037 L12.88,16.3240741 C12.8156,16.3240741 12.8248,16.2222222 12.88,16.1851852 L13.6344,15.7407407 C13.7153755,15.6994893 13.8110245,15.6994893 13.892,15.7407407 L13.892,15.7407407 Z" id="Path" fill="#3A2C6D"></path>
                            <path d="M12.7604,15.0555556 L13.5608,15.5185185 C13.6252,15.5185185 13.616,15.6203704 13.5608,15.6666667 L12.7972,16.1018519 C12.7194497,16.1430108 12.6265503,16.1430108 12.5488,16.1018519 L11.7484,15.6388889 C11.684,15.6388889 11.6932,15.5277778 11.7484,15.4907407 L12.512,15.0462963 C12.5912583,15.0080034 12.6841733,15.0114668 12.7604,15.0555556 L12.7604,15.0555556 Z" id="Path" fill="#3A2C6D"></path>
                            <path d="M11.638,14.3981481 L12.4292,14.8611111 C12.4936,14.8611111 12.4844,14.962963 12.4292,15.0092593 L11.6656,15.4537037 C11.5868537,15.4905811 11.4959463,15.4905811 11.4172,15.4537037 L10.6168,14.9907407 C10.5524,14.9907407 10.5616,14.8888889 10.6168,14.8425926 L11.3804,14.3981481 C11.4622813,14.3609119 11.5561187,14.3609119 11.638,14.3981481 L11.638,14.3981481 Z" id="Path" fill="#3A2C6D"></path>
                            <path d="M10.5064,13.7407407 L11.2976,14.2037037 C11.362,14.2037037 11.362,14.3055556 11.2976,14.3518519 L10.5432,14.7962963 C10.4622245,14.8375477 10.3665755,14.8375477 10.2856,14.7962963 L9.4944,14.3333333 C9.43,14.3333333 9.4392,14.2314815 9.4944,14.1851852 L10.2488,13.7407407 C10.3306813,13.7035045 10.4245187,13.7035045 10.5064,13.7407407 L10.5064,13.7407407 Z" id="Path" fill="#3A2C6D"></path>
                            <path d="M9.3748,13.0925926 L10.1752,13.5462963 C10.2396,13.5462963 10.2304,13.6574074 10.1752,13.6944444 L9.4116,14.1388889 C9.33384965,14.1800478 9.24095035,14.1800478 9.1632,14.1388889 L8.3628,13.6759259 C8.2984,13.6759259 8.3076,13.5740741 8.3628,13.5277778 L9.1264,13.0925926 C9.20271015,13.0459319 9.29848985,13.0459319 9.3748,13.0925926 Z" id="Path" fill="#3A2C6D"></path>
                            <path d="M22.908,20.9537037 L24.242,21.7314815 C24.3064,21.7314815 24.3064,21.8333333 24.242,21.8796296 L23.4876,22.3148148 C23.4066245,22.3560663 23.3109755,22.3560663 23.23,22.3148148 L21.896,21.537037 C21.8316,21.537037 21.8408,21.4351852 21.896,21.3888889 L22.6504,20.9537037 C22.7313755,20.9124523 22.8270245,20.9124523 22.908,20.9537037 L22.908,20.9537037 Z" id="Path" fill="#3A2C6D"></path>
                            <path d="M7.2312,13.037037 L8.0224,13.5 C8.0979913,13.5365801 8.1860087,13.5365801 8.2616,13.5 L9.062,13.0277778 C9.09084686,13.0170013 9.10998828,12.9893015 9.10998828,12.9583333 C9.10998828,12.9273651 9.09084686,12.8996654 9.062,12.8888889 L8.9976,12.8888889 C8.9424,12.8888889 8.9424,12.8055556 8.9976,12.7685185 L9.844,12.2777778 C9.9176,12.2777778 9.9176,12.1759259 9.844,12.1388889 L9.338,11.8425926 C9.2624087,11.8060125 9.1743913,11.8060125 9.0988,11.8425926 L8.3076,12.3055556 L8.142,12.3981481 L8.0224,12.4722222 L7.9028,12.537037 L7.222,12.9351852 C7.19755123,12.9661614 7.20160191,13.0110058 7.2312,13.037037 L7.2312,13.037037 Z" id="Path" fill="#3A2C6D"></path>
                            <path d="M26.68,19.3611111 L27.4804,19.8240741 C27.5448,19.8240741 27.5356,19.9259259 27.4804,19.9722222 L26.7168,20.4074074 C26.6404899,20.4540681 26.5447101,20.4540681 26.4684,20.4074074 L25.668,19.9537037 C25.6036,19.9074074 25.6128,19.8425926 25.668,19.8055556 L26.4316,19.3611111 C26.5093503,19.3199522 26.6022497,19.3199522 26.68,19.3611111 Z" id="Path" fill="#3A2C6D"></path>
                            <path d="M25.5944,18.7037037 L26.3948,19.1666667 C26.4592,19.1666667 26.45,19.2777778 26.3948,19.3148148 L25.6312,19.7592593 C25.5534497,19.8004182 25.4605503,19.8004182 25.3828,19.7592593 L24.5824,19.2962963 C24.518,19.2962963 24.5272,19.1944444 24.5824,19.1481481 L25.346,18.712963 C25.4222267,18.6688742 25.5151417,18.6654108 25.5944,18.7037037 L25.5944,18.7037037 Z" id="Path" fill="#3A2C6D"></path>
                            <path d="M24.472,18.0555556 L25.2724,18.5185185 C25.3368,18.5185185 25.3276,18.6203704 25.2724,18.6666667 L24.5088,19.1018519 C24.4310497,19.1430108 24.3381503,19.1430108 24.2604,19.1018519 L23.46,18.6388889 C23.3956,18.6388889 23.4048,18.5277778 23.46,18.4907407 L24.2236,18.0462963 C24.3028583,18.0080034 24.3957733,18.0114668 24.472,18.0555556 Z" id="Path" fill="#3A2C6D"></path>
                            <path d="M14.9132,12.5 L15.7044,12.962963 C15.7688,12.962963 15.7596,13.0648148 15.7044,13.1111111 L14.95,13.5462963 C14.8690245,13.5875477 14.7733755,13.5875477 14.6924,13.5462963 L13.9012,13.0833333 C13.8276,13.0833333 13.8368,12.9814815 13.9012,12.9351852 L14.6556,12.5 C14.7365755,12.4587486 14.8322245,12.4587486 14.9132,12.5 L14.9132,12.5 Z" id="Path" fill="#3A2C6D"></path>
                            <path d="M13.8,11.8425926 L14.6004,12.3055556 C14.6648,12.3055556 14.6556,12.4074074 14.6004,12.4537037 L13.8368,12.8981481 C13.7580537,12.9350256 13.6671463,12.9350256 13.5884,12.8981481 L12.788,12.4351852 C12.7236,12.4351852 12.7328,12.3333333 12.788,12.287037 L13.5516,11.8425926 C13.6303463,11.8057152 13.7212537,11.8057152 13.8,11.8425926 Z" id="Path" fill="#3A2C6D"></path>
                            <path d="M12.6592,11.1944444 L13.4596,11.6574074 C13.524,11.6574074 13.5148,11.7592593 13.4596,11.8055556 L12.696,12.2407407 C12.6182497,12.2818997 12.5253503,12.2818997 12.4476,12.2407407 L11.6472,11.7777778 C11.5828,11.7777778 11.592,11.6759259 11.6472,11.6388889 L12.4108,11.1944444 C12.4885503,11.1532855 12.5814497,11.1532855 12.6592,11.1944444 L12.6592,11.1944444 Z" id="Path" fill="#3A2C6D"></path>
                            <path d="M11.5368,10.537037 L12.3372,11 C12.4016,11 12.3924,11.1018519 12.3372,11.1481481 L11.5736,11.5925926 C11.4948537,11.62947 11.4039463,11.62947 11.3252,11.5925926 L10.5248,11.1296296 C10.4604,11.1296296 10.4696,11.0277778 10.5248,10.9814815 L11.2884,10.537037 C11.3671463,10.5001596 11.4580537,10.5001596 11.5368,10.537037 Z" id="Path" fill="#3A2C6D"></path>
                            <path d="M23.0644,17.2314815 L24.15,17.8611111 C24.2144,17.8611111 24.2052,17.9722222 24.15,18.0092593 L23.3864,18.4537037 C23.3086497,18.4948626 23.2157503,18.4948626 23.138,18.4537037 L22.08,17.8333333 C22.0156,17.8333333 22.0156,17.7314815 22.08,17.6851852 L22.8344,17.2407407 C22.9071104,17.208344 22.9893508,17.2050332 23.0644,17.2314815 Z" id="Path" fill="#3A2C6D"></path>
                            <path d="M16.0356,13.1481481 L17.1212,13.7777778 C17.1856,13.7777778 17.1764,13.8796296 17.1212,13.9259259 L16.3576,14.3703704 C16.2788537,14.4072478 16.1879463,14.4072478 16.1092,14.3703704 L15.0236,13.7407407 C14.9592,13.7407407 14.9592,13.6388889 15.0236,13.5925926 L15.778,13.1481481 C15.8598813,13.1109119 15.9537187,13.1109119 16.0356,13.1481481 L16.0356,13.1481481 Z" id="Path" fill="#3A2C6D"></path>
                            <path d="M17.48,13.9722222 L22.77,17.0462963 C22.8344,17.0462963 22.8252,17.1481481 22.77,17.1944444 L22.0156,17.6296296 C21.9346245,17.6708811 21.8389755,17.6708811 21.758,17.6296296 L16.468,14.5555556 C16.4036,14.5555556 16.4128,14.4537037 16.468,14.4166667 L17.2316,13.9722222 C17.3093503,13.9310633 17.4022497,13.9310633 17.48,13.9722222 L17.48,13.9722222 Z" id="Path" fill="#3A2C6D"></path>
                            <path d="M22.5676,19.4444444 L23.3588,19.9074074 C23.4232,19.9074074 23.414,20.0092593 23.3588,20.0555556 L22.6044,20.5 C22.5225187,20.5372362 22.4286813,20.5372362 22.3468,20.5 L21.5556,20.037037 C21.4912,20.037037 21.4912,19.9351852 21.5556,19.8888889 L22.31,19.4444444 C22.3918813,19.4072082 22.4857187,19.4072082 22.5676,19.4444444 L22.5676,19.4444444 Z" id="Path" fill="#3A2C6D"></path>
                            <path d="M21.436,18.8240741 L22.2364,19.287037 C22.3008,19.287037 22.2916,19.3981481 22.2364,19.4351852 L21.4728,19.8796296 C21.3950497,19.9207886 21.3021503,19.9207886 21.2244,19.8796296 L20.424,19.4166667 C20.3596,19.4166667 20.3688,19.3148148 20.424,19.2685185 L21.1876,18.8333333 C21.2638267,18.7892446 21.3567417,18.7857811 21.436,18.8240741 L21.436,18.8240741 Z" id="Path" fill="#3A2C6D"></path>
                            <path d="M20.3136,18.1759259 L21.114,18.6388889 C21.1784,18.6388889 21.1692,18.7407407 21.114,18.787037 L20.3504,19.2222222 C20.2694245,19.2634737 20.1737755,19.2634737 20.0928,19.2222222 L19.3016,18.7592593 C19.2372,18.712963 19.2464,18.6481481 19.3016,18.6111111 L20.0652,18.1666667 C20.1444583,18.1283737 20.2373733,18.1318372 20.3136,18.1759259 Z" id="Path" fill="#3A2C6D"></path>
                            <path d="M19.1912,17.5185185 L19.9824,17.9814815 C20.0468,17.9814815 20.0376,18.0833333 19.9824,18.1296296 L19.228,18.5740741 C19.1461187,18.6113103 19.0522813,18.6113103 18.9704,18.5740741 L18.1792,18.1111111 C18.1148,18.1111111 18.124,18.0092593 18.1792,17.962963 L18.9336,17.5185185 C19.0154813,17.4812823 19.1093187,17.4812823 19.1912,17.5185185 L19.1912,17.5185185 Z" id="Path" fill="#3A2C6D"></path>
                            <path d="M18.0596,16.8703704 L18.86,17.3333333 C18.9244,17.3333333 18.9152,17.4351852 18.86,17.4814815 L18.0964,17.9166667 C18.0186497,17.9578256 17.9257503,17.9578256 17.848,17.9166667 L17.0476,17.4537037 C16.9832,17.4537037 16.9924,17.3518519 17.0476,17.3055556 L17.8112,16.8703704 C17.8889503,16.8292114 17.9818497,16.8292114 18.0596,16.8703704 L18.0596,16.8703704 Z" id="Path" fill="#3A2C6D"></path>
                            <path d="M16.9372,16.212963 L17.7376,16.6759259 C17.802,16.6759259 17.7928,16.7777778 17.7376,16.8240741 L16.974,17.2685185 C16.8952537,17.3053959 16.8043463,17.3053959 16.7256,17.2685185 L15.9252,16.8055556 C15.8608,16.8055556 15.87,16.7037037 15.9252,16.6574074 L16.6888,16.212963 C16.7675463,16.1760855 16.8584537,16.1760855 16.9372,16.212963 Z" id="Path" fill="#3A2C6D"></path>
                            <path d="M15.8148,15.5555556 L16.606,16.0185185 C16.6704,16.0185185 16.6704,16.1296296 16.606,16.1666667 L15.8516,16.6111111 C15.7706245,16.6523626 15.6749755,16.6523626 15.594,16.6111111 L14.8028,16.1481481 C14.7384,16.1481481 14.7476,16.0462963 14.8028,16 L15.5572,15.5648148 C15.6367036,15.5206235 15.7323667,15.517185 15.8148,15.5555556 L15.8148,15.5555556 Z" id="Path" fill="#3A2C6D"></path>
                            <path d="M14.72,14.9074074 L15.5112,15.3703704 C15.5756,15.3703704 15.5664,15.4722222 15.5112,15.5185185 L14.7568,15.9537037 C14.6770983,16.0000159 14.5789017,16.0000159 14.4992,15.9537037 L13.708,15.5 C13.6436,15.5 13.6436,15.3888889 13.708,15.3518519 L14.4624,14.9074074 C14.5433755,14.866156 14.6390245,14.866156 14.72,14.9074074 Z" id="Path" fill="#3A2C6D"></path>
                            <path d="M13.5608,14.25 L14.3612,14.712963 C14.4256,14.712963 14.4164,14.8148148 14.3612,14.8611111 L13.5976,15.3055556 C13.5188537,15.342433 13.4279463,15.342433 13.3492,15.3055556 L12.5488,14.8425926 C12.4844,14.8425926 12.4936,14.7407407 12.5488,14.6944444 L13.3124,14.25 C13.3911463,14.2131226 13.4820537,14.2131226 13.5608,14.25 L13.5608,14.25 Z" id="Path" fill="#3A2C6D"></path>
                            <path d="M12.4384,13.6018519 L13.2296,14.0648148 C13.3032,14.0648148 13.294,14.1666667 13.2296,14.2037037 L12.466,14.6481481 C12.3850245,14.6893996 12.2893755,14.6893996 12.2084,14.6481481 L11.4172,14.1851852 C11.3528,14.1851852 11.362,14.0833333 11.4172,14.037037 L12.1716,13.6018519 C12.2550508,13.5574052 12.3549492,13.5574052 12.4384,13.6018519 L12.4384,13.6018519 Z" id="Path" fill="#3A2C6D"></path>
                            <path d="M11.316,12.962963 L12.1072,13.4259259 C12.1716,13.4259259 12.1624,13.5277778 12.1072,13.5740741 L11.3528,14.0185185 C11.2709187,14.0557547 11.1770813,14.0557547 11.0952,14.0185185 L10.304,13.5555556 C10.2396,13.5555556 10.2488,13.4537037 10.304,13.4074074 L11.04,12.962963 C11.125874,12.9151768 11.230126,12.9151768 11.316,12.962963 Z" id="Path" fill="#3A2C6D"></path>
                            <path d="M10.1844,12.287037 L10.9848,12.75 C11.0492,12.75 11.04,12.8611111 10.9848,12.8981481 L10.2212,13.3425926 C10.1434497,13.3837515 10.0505503,13.3837515 9.9728,13.3425926 L9.1724,12.8796296 C9.108,12.8796296 9.1172,12.7777778 9.1724,12.7314815 L9.936,12.2962963 C10.0122267,12.2522076 10.1051417,12.2487441 10.1844,12.287037 Z" id="Path" fill="#3A2C6D"></path>
                            <path d="M23.69,20.1388889 L25.3368,21.0648148 C25.4012,21.0648148 25.392,21.1666667 25.3368,21.212963 L24.5732,21.6574074 C24.4944537,21.6942848 24.4035463,21.6942848 24.3248,21.6574074 L22.678,20.7314815 C22.6136,20.7314815 22.6228,20.6296296 22.678,20.5833333 L23.4324,20.1481481 C23.5119036,20.1039569 23.6075667,20.1005183 23.69,20.1388889 Z" id="Path" fill="#3A2C6D"></path>
                            <path d="M24.2144,19.1759259 L25.0056,19.6388889 C25.0792,19.6388889 25.07,19.7407407 25.0056,19.7777778 L24.2512,20.2222222 C24.1702245,20.2634737 24.0745755,20.2634737 23.9936,20.2222222 L23.2024,19.7592593 C23.138,19.7592593 23.1472,19.6574074 23.2024,19.6111111 L23.9568,19.1759259 C24.0377755,19.1346745 24.1334245,19.1346745 24.2144,19.1759259 L24.2144,19.1759259 Z" id="Path" fill="#3A2C6D"></path>
                            <path d="M23.092,18.5185185 L23.8832,18.9814815 C23.9476,18.9814815 23.9384,19.0833333 23.8832,19.1296296 L23.1288,19.5740741 C23.0469187,19.6113103 22.9530813,19.6113103 22.8712,19.5740741 L22.08,19.1111111 C22.0156,19.1111111 22.0248,19.0092593 22.08,18.962963 L22.8344,18.5185185 C22.9153755,18.4772671 23.0110245,18.4772671 23.092,18.5185185 L23.092,18.5185185 Z" id="Path" fill="#3A2C6D"></path>
                            <path d="M21.9604,17.8611111 L22.7608,18.3240741 C22.8252,18.3240741 22.816,18.4351852 22.7608,18.4722222 L21.9972,18.9166667 C21.9194497,18.9578256 21.8265503,18.9578256 21.7488,18.9166667 L20.9484,18.4537037 C20.884,18.4537037 20.8932,18.3518519 20.9484,18.3055556 L21.712,17.8703704 C21.7882267,17.8262816 21.8811417,17.8228182 21.9604,17.8611111 L21.9604,17.8611111 Z" id="Path" fill="#3A2C6D"></path>
                            <path d="M20.838,17.212963 L21.6384,17.6759259 C21.7028,17.6759259 21.6936,17.7777778 21.6384,17.8240741 L20.8748,18.2592593 C20.7984899,18.3059199 20.7027101,18.3059199 20.6264,18.2592593 L19.826,17.8055556 C19.7616,17.7592593 19.7708,17.6944444 19.826,17.6574074 L20.5896,17.212963 C20.6673503,17.171804 20.7602497,17.171804 20.838,17.212963 L20.838,17.212963 Z" id="Path" fill="#3A2C6D"></path>
                            <path d="M19.7156,16.5555556 L20.5068,17.0185185 C20.5712,17.0185185 20.5712,17.1203704 20.5068,17.1666667 L19.7524,17.6111111 C19.6705187,17.6483473 19.5766813,17.6483473 19.4948,17.6111111 L18.7036,17.1481481 C18.6392,17.1481481 18.6484,17.0462963 18.7036,17 L19.458,16.5555556 C19.5398813,16.5183193 19.6337187,16.5183193 19.7156,16.5555556 L19.7156,16.5555556 Z" id="Path" fill="#3A2C6D"></path>
                            <path d="M18.5932,15.9074074 L19.3844,16.3703704 C19.4488,16.3703704 19.4396,16.4722222 19.3844,16.5092593 L18.63,16.9537037 C18.5490245,16.9949551 18.4533755,16.9949551 18.3724,16.9537037 L17.5812,16.4907407 C17.5168,16.4907407 17.5168,16.3888889 17.5812,16.3425926 L18.3356,15.9074074 C18.4165755,15.866156 18.5122245,15.866156 18.5932,15.9074074 Z" id="Path" fill="#3A2C6D"></path>
                            <path d="M17.48,15.25 L18.2804,15.712963 C18.3448,15.712963 18.3356,15.8148148 18.2804,15.8611111 L17.5168,16.3055556 C17.4380537,16.342433 17.3471463,16.342433 17.2684,16.3055556 L16.468,15.8425926 C16.4036,15.8425926 16.4128,15.7407407 16.468,15.6944444 L17.2316,15.25 C17.3103463,15.2131226 17.4012537,15.2131226 17.48,15.25 Z" id="Path" fill="#3A2C6D"></path>
                            <path d="M16.3392,14.5925926 L17.1396,15.0555556 C17.204,15.0555556 17.1948,15.1666667 17.1396,15.2037037 L16.376,15.6481481 C16.2982497,15.6893071 16.2053503,15.6893071 16.1276,15.6481481 L15.3272,15.1851852 C15.2628,15.1851852 15.272,15.0833333 15.3272,15.037037 L16.0908,14.6018519 C16.1670267,14.5577631 16.2599417,14.5542997 16.3392,14.5925926 Z" id="Path" fill="#3A2C6D"></path>
                            <path d="M15.2168,13.9444444 L16.008,14.4074074 C16.0724,14.4074074 16.0632,14.5092593 16.008,14.5555556 L15.2536,14.9907407 C15.1726245,15.0319922 15.0769755,15.0319922 14.996,14.9907407 L14.2048,14.5277778 C14.1404,14.5277778 14.1496,14.4166667 14.2048,14.3796296 L14.9592,13.9351852 C15.0416333,13.8968146 15.1372964,13.9002532 15.2168,13.9444444 L15.2168,13.9444444 Z" id="Path" fill="#3A2C6D"></path>
                            <path d="M14.0944,13.287037 L14.8856,13.75 C14.95,13.75 14.9408,13.8518519 14.8856,13.8981481 L14.1312,14.3425926 C14.0493187,14.3798288 13.9554813,14.3798288 13.8736,14.3425926 L13.0824,13.8796296 C13.0088,13.8796296 13.018,13.7777778 13.0824,13.7314815 L13.8368,13.287037 C13.9186813,13.2498008 14.0125187,13.2498008 14.0944,13.287037 L14.0944,13.287037 Z" id="Path" fill="#3A2C6D"></path>
                            <path d="M12.9628,12.6388889 L13.7632,13.1018519 C13.8276,13.1018519 13.8184,13.2037037 13.7632,13.25 L12.9996,13.6851852 C12.9218497,13.7263441 12.8289503,13.7263441 12.7512,13.6851852 L11.9508,13.2222222 C11.8864,13.2222222 11.8956,13.1203704 11.9508,13.0833333 L12.7144,12.6388889 C12.7921503,12.5977299 12.8850497,12.5977299 12.9628,12.6388889 L12.9628,12.6388889 Z" id="Path" fill="#3A2C6D"></path>
                            <path d="M10.4512,11.1759259 L12.6408,12.4444444 C12.7052,12.4444444 12.696,12.5462963 12.6408,12.5925926 L11.8772,13.037037 C11.7953187,13.0742732 11.7014813,13.0742732 11.6196,13.037037 L9.4392,11.7592593 C9.3748,11.7592593 9.3748,11.6574074 9.4392,11.6203704 L10.1936,11.1759259 C10.2745755,11.1346745 10.3702245,11.1346745 10.4512,11.1759259 L10.4512,11.1759259 Z" id="Path" fill="#3A2C6D"></path>
                            <path d="M25.3368,19.8240741 L26.4224,20.4537037 C26.4868,20.4537037 26.4776,20.5648148 26.4224,20.6018519 L25.668,21.0462963 C25.5870245,21.0875477 25.4913755,21.0875477 25.4104,21.0462963 L24.3248,20.4166667 C24.2604,20.4166667 24.2696,20.3148148 24.3248,20.2685185 L25.0884,19.8240741 C25.1671463,19.7871966 25.2580537,19.7871966 25.3368,19.8240741 L25.3368,19.8240741 Z" id="Path" fill="#3A2C6D"></path>
                            <path d="M6.0444,13.7314815 L22.0156,22.9907407 C22.08,22.9907407 22.08,23.0925926 22.0156,23.1388889 L21.6384,23.3518519 C21.5606497,23.3930108 21.4677503,23.3930108 21.39,23.3518519 L5.4096,14.0925926 C5.3452,14.0925926 5.3544,13.9907407 5.4096,13.9444444 L5.7868,13.7222222 C5.86999799,13.6879029 5.96384657,13.6912762 6.0444,13.7314815 L6.0444,13.7314815 Z" id="Path" fill="#3A2C6D"></path>
                            <polygon id="_Контур_4" fill="#BFBFBF" points="24.7388 14.1481481 24.6284 14.2037037 21.8684 15.8148148 16.9648 12.962963 16.8636 12.8981481 19.7248 11.2407407"></polygon>
                            <polygon id="_Контур_5" fill="#E5E5E5" points="24.6284 14.2037037 21.8684 15.8148148 16.9648 12.962963 19.7248 11.3611111"></polygon>
                            <path d="M32.6048337,17.8888889 L32.6048337,18.1388889 C32.6077389,18.500501 32.418221,18.8360597 32.108,19.0185185 L22.3744,24.6666667 C22.0651846,24.8508626 21.6808154,24.8508626 21.3716,24.6666667 L3.7628,14.4814815 C3.43579636,14.2919281 3.24074566,13.9350062 3.2568,13.5555556 L3.2568,13.3055556 L21.8684,24.1203704 L32.6048337,17.8888889 Z" id="_Контур_6" fill="#E5E5E5"></path>
                            <path d="M21.5924,24.2777778 C21.2555008,24.4113439 20.8766164,24.3841064 20.562,24.2037037 L3.082,14.0185185 C2.77281592,13.8395753 2.55998615,13.5301743 2.5024,13.1759259 L0.5796,1.65740741 C0.575056097,1.59267326 0.575056097,1.52769711 0.5796,1.46296296 C0.578519736,1.14159769 0.708168823,0.833788844 0.9384,0.611111111 L19.1544,11.1944444 C19.3763633,11.3316172 19.5301508,11.5570547 19.5776,11.8148148 L21.5924,24.2777778 Z" id="_Контур_7" fill="#F4F4F4"></path>
                            <path d="M21.8684,24.1296296 L21.7488,24.2037037 L21.5924,24.2777778 L19.5132,11.8148148 C19.4657508,11.5570547 19.3119633,11.3316172 19.09,11.1944444 L0.92,0.611111111 C0.987189515,0.534508659 1.06839982,0.471636811 1.1592,0.425925926 L19.412,11.0277778 C19.6374621,11.1630224 19.7947933,11.3887477 19.8444,11.6481481 L21.8684,24.1296296 Z" id="_Контур_8" fill="#E5E5E5"></path>
                        </g>
                    </g>
                    <path d="M36.0272,13.7314815 C36.0272,13.7314815 35.7972,18.1111111 35.8984,18.5 C35.9996,18.8888889 37.8948,20.1759259 38.4468,20.6388889 C38.9988,21.1018519 35.4384,24.6388889 33.7088,25.4351852 C31.9792,26.2314815 26.4776,24.1296296 26.3488,21.4074074 C26.22,18.6851852 27.2688,16.4166667 28.1336,16.2962963 C28.9984,16.1759259 36.0272,13.7314815 36.0272,13.7314815 Z" id="_Контур_9" fill="#FFCEA9"></path>
                    <path d="M36.5056,19.2592593 C36.5056,19.2592593 33.35,24 28.9432,24.4444444 C27.554,23.0648148 27.4252,18.1574074 29.348,16.5925926 C29.348,16.5925926 27.5816,15.1481481 26.3672,15.4351852 C25.0518661,16.2174466 24.0692191,17.4602604 23.6072,18.9259259 C22.4787281,22.1978036 21.9518622,25.6491966 22.0524,29.1111111 C22.126,33.7407407 22.0524,45.5092593 22.0524,45.5092593 C22.5754287,48.3176389 24.2660712,50.7671715 26.6984,52.2407407 C29.8835973,54.0592105 33.6392716,54.5826275 37.1956,53.7037037 C39.4312,53.1759259 40.2592,51.9259259 41.032,50.287037 C40.8296,47.037037 39.5508,40.3240741 40.112,36.2222222 C40.6732,32.1203704 41.5104,29.0648148 41.7312,25.7592593 C41.952,22.4537037 41.2988,22.5092593 39.6428,21.3240741 C38.6480705,20.5603326 37.5995837,19.8702487 36.5056,19.2592593 Z" id="_Контур_10" fill="#F4F4F4"></path>
                    <path d="M31.4456,57.0277778 C32.2377357,56.4970015 33.0645461,56.0206114 33.9204,55.6018519 C34.7183231,55.3456975 35.4438262,54.9012424 36.0364,54.3055556 C36.8092,53.5462963 38.0788,50.6574074 38.9896,47.8240741 C39.8960527,44.646681 40.2539146,41.3362773 40.0476,38.037037 C39.6704,34.0833333 38.2536,28.5555556 37.8948,26.287037 C37.536,24.0185185 38.2628,23.1018519 39.3208,22.2685185 C40.5536,21.287037 42.2556,21.7222222 43.1664,24.9074074 C44.339293,29.314188 45.0181896,33.8392961 45.1904,38.3981481 C45.2279145,41.7847305 44.7087794,45.1542505 43.654,48.3703704 C42.7161115,51.125423 41.4495213,53.7557578 39.882,56.2037037 C39.4496,56.9351852 39.3024,57.5925926 38.64,59.0925926 C38.0039343,60.5998437 37.0123767,61.9283175 35.7512,62.962963 C34.6472,63.7592593 34.1228,63.8888889 33.856,63.7222222 C33.5892,63.5555556 33.5984,63.1759259 34.0676,62.7962963 C34.8508332,62.1765814 35.5176015,61.4208514 36.0364,60.5648148 C36.0364,60.5648148 35.0704,61.5462963 34.4356,62.0833333 C33.8769682,62.5584497 33.2582511,62.9569792 32.5956,63.2685185 C31.9516,63.5555556 31.05,63 31.51,62.5648148 C31.97,62.1296296 32.43,61.9074074 33.35,61.1018519 C33.8450524,60.6792507 34.2868685,60.1972745 34.6656,59.6666667 C34.0182679,60.1683544 33.3322283,60.6173073 32.614,61.0092593 C32.0592665,61.3470106 31.4223265,61.5232973 30.774,61.5185185 C30.4336,61.5185185 30.0196,61.0185185 30.6636,60.5925926 C31.5488604,60.1100151 32.3735291,59.5225007 33.12,58.8425926 C33.8284,58.1388889 34.224,57.537037 34.04,57.5277778 C33.856,57.5185185 33.4512,57.9537037 32.6232,58.2222222 C31.7952,58.4907407 30.9028,58.2222222 30.7832,57.787037 C30.6636,57.3518519 30.6728,57.4074074 31.4456,57.0277778 Z" id="_Контур_11" fill="#FFCEA9"></path>
                    <path d="M26.1648,7.19444444 L26.1648,7.19444444 C26.6892,3.7962963 29.1272,1.22222222 32.6048,1.41666667 C35.4812207,1.56391 37.94203,3.54544202 38.7158933,6.33753843 C39.4897566,9.12963484 38.4033715,12.1070209 36.018,13.7314815 C35.8946782,14.2477647 35.7125388,14.7479907 35.4752,15.2222222 C34.2516,16.6666667 30.5256,17.5925926 29.44,17.4074074 C28.140324,17.288612 27.0453538,16.3812796 26.68,15.1203704 C25.5208,12.4537037 25.8796,8.87962963 26.1648,7.19444444 Z" id="_Контур_12" fill="#FFCEA9"></path>
                    <path d="M36.0272,13.7314815 L36.0272,13.7314815 L35.7052,10.7592593 C35.7052,10.7592593 38.1156,4.48148148 32.4208,5.68518519 C28.6672,6.48148148 27.7196,6.83333333 26.5788,4.2962963 C25.438,1.75925926 29.44,-0.527777778 34.2516,0.111111111 C37.6707272,0.466925167 40.2472907,3.40234969 40.1764,6.86111111 C40.0568,8.73148148 39.56,12.5092593 36.0272,13.7314815 Z" id="Path" fill="#252525"></path>
                    <path d="M45.77,30.7685185 C45.77,30.7685185 42.6604,33.8796296 38.9896,32.9814815 C38.4652,32.6203704 37.1956,25.3518519 37.1956,25.3518519 C37.1956,25.3518519 37.1956,21.3240741 40.2684,21.4259259 C43.3412,21.5277778 45.77,30.7685185 45.77,30.7685185 Z" id="Path" fill="#EDEDED"></path>
                    <path d="M22.31,24.7314815 C21.4403838,24.6999806 20.6164285,24.3317879 20.01,23.7037037 C20.1388,22.0740741 22.2088,15.8888889 26.3672,15.4351852 C25.2360073,16.2336849 24.3397342,17.3244571 23.7728,18.5925926 C23.1256727,20.5970226 22.6365575,22.6496775 22.31,24.7314815 L22.31,24.7314815 Z" id="Path" fill="#EDEDED"></path>
                </g>
                <path d="M423.297825,286.943578 L346.711345,242.500811 C341.897181,239.735811 338,232.224228 338,225.781778 L338,104.665561 C338,98.213894 341.897181,95.2645606 346.711345,98.047994 L423.297825,142.499977 C428.102819,145.264977 432,152.776561 432,159.219011 L432,280.353661 C432,286.805328 428.102819,289.736228 423.297825,286.943578 Z" id="Path" fill="#1E2023" fill-rule="nonzero"></path>
                <polygon id="Path" fill="#211B49" fill-rule="nonzero" points="426 289 429 287.644231 426.975524 284"></polygon>
                <path d="M339,98.2124105 C339.706825,97.7352684 340.449173,97.3295728 341.218487,97 L343,101 L339,98.2124105 Z" id="Path" fill="#211B49" fill-rule="nonzero"></path>
                <path d="M421.297825,287.949423 L344.702175,243.478555 C339.897181,240.713526 336,233.201867 336,226.759351 L336,105.669555 C336,99.2178223 339.897181,96.2592422 344.702175,99.0519206 L421.297825,143.504356 C426.102819,146.269384 430,153.771827 430,160.214342 L430,281.331789 C430,287.774305 426.102819,290.742101 421.297825,287.949423 Z" id="Path" fill="#24272A" fill-rule="nonzero"></path>
                <polygon id="Path" fill="#42A7C6" fill-rule="nonzero" opacity="0.521995908" points="358 124 344 115.999298 344 111 358 119.000702"></polygon>
                <polygon id="Path" fill="#42A7C6" fill-rule="nonzero" points="420 160 361 125.991343 361 121 420 154.999532"></polygon>
                <polygon id="Path" fill="#42A7C6" fill-rule="nonzero" opacity="0.521995908" points="358 140 344 131.999298 344 127 358 135.000702"></polygon>
                <polygon id="Path" fill="#42A7C6" fill-rule="nonzero" points="400 165 361 142.090909 361 137 400 159.909091"></polygon>
                <polygon id="Path" fill="#42A7C6" fill-rule="nonzero" opacity="0.521995908" points="358 148 344 140.002809 344 135 358 142.997191"></polygon>
                <polygon id="Path" fill="#2E5B74" fill-rule="nonzero" points="410 178 361 149.999724 361 145 410 173.000276"></polygon>
                <polygon id="Path" fill="#42A7C6" fill-rule="nonzero" opacity="0.521995908" points="358 156 344 147.999298 344 143 358 151.000702"></polygon>
                <polygon id="Path" fill="#42A7C6" fill-rule="nonzero" points="395 178 361 158.102421 361 153 395 172.897579"></polygon>
                <polygon id="Path" fill="#42A7C6" fill-rule="nonzero" opacity="0.521995908" points="358 132 344 123.999298 344 119 358 127.000702"></polygon>
                <polygon id="Path" fill="#42484D" fill-rule="nonzero" points="391 151 361 133.998342 361 129 391 145.992537"></polygon>
                <polygon id="Path" fill="#42A7C6" fill-rule="nonzero" opacity="0.521995908" points="358 165 344 156.999298 344 152 358 160.000702"></polygon>
                <polygon id="Path" fill="#42484D" fill-rule="nonzero" points="378 176 361 166 361 161 378 171"></polygon>
                <polygon id="Path" fill="#42A7C6" fill-rule="nonzero" opacity="0.521995908" points="358 181 344 173.002809 344 168 358 176.00632"></polygon>
                <polygon id="Path" fill="#42484D" fill-rule="nonzero" points="416 214 361 182.069 361 177 416 208.931"></polygon>
                <polygon id="Path" fill="#42A7C6" fill-rule="nonzero" opacity="0.521995908" points="358 189 344 180.999298 344 176 358 184.000702"></polygon>
                <polygon id="Path" fill="#2E5B74" fill-rule="nonzero" points="378 200 361 190.173065 361 185 378 194.826935"></polygon>
                <polygon id="Path" fill="#42A7C6" fill-rule="nonzero" opacity="0.521995908" points="358 197 344 188.999298 344 184 358 192.000702"></polygon>
                <polygon id="Path" fill="#42484D" fill-rule="nonzero" points="410 227 361 198.99198 361 194 410 221.998894"></polygon>
                <polygon id="Path" fill="#42A7C6" fill-rule="nonzero" opacity="0.521995908" points="358 173 344 164.999298 344 160 358 168.000702"></polygon>
                <polygon id="Path" fill="#42A7C6" fill-rule="nonzero" points="407 201 361 174.078482 361 169 407 195.921518"></polygon>
                <polygon id="Path" fill="#42A7C6" fill-rule="nonzero" opacity="0.521995908" points="358 205 344 196.999298 344 192 358 200.000702"></polygon>
                <polygon id="Path" fill="#2E5B74" fill-rule="nonzero" points="367 210 361 206.291845 361 201 367 204.708155"></polygon>
                <polygon id="Path" fill="#42A7C6" fill-rule="nonzero" opacity="0.521995908" points="358 221 344 213.002809 344 208 358 216.00632"></polygon>
                <polygon id="Path" fill="#2E5B74" fill-rule="nonzero" points="372 229 361 222.219048 361 217 372 223.780952"></polygon>
                <polygon id="Path" fill="#42A7C6" fill-rule="nonzero" opacity="0.521995908" points="358 229 344 220.999298 344 216 358 224.000702"></polygon>
                <polygon id="Path" fill="#42484D" fill-rule="nonzero" points="391 248 361 231.000415 361 226 391 242.999585"></polygon>
                <polygon id="Path" fill="#42A7C6" fill-rule="nonzero" opacity="0.521995908" points="358 237 344 228.999298 344 224 358 232.000702"></polygon>
                <polygon id="Path" fill="#33647E" fill-rule="nonzero" points="408 266 361 238.99886 361 234 408 261.00114"></polygon>
                <polygon id="Path" fill="#42A7C6" fill-rule="nonzero" opacity="0.521995908" points="358 213 344 204.999298 344 200 358 208.000702"></polygon>
                <polygon id="Path" fill="#42A7C6" fill-rule="nonzero" points="420 249 361 214.999298 361 210 420 243.991579"></polygon>
                <path d="M33.1520346,195.218545 L24.7721411,190.92505 L7.21295653,201.016598 C3.23434484,203.310132 0,201.456957 0,196.860715 L0,177.760166 C0.275324895,172.691147 2.95445725,168.056839 7.21295653,165.283342 L111.787043,104.981752 C115.765655,102.688218 119,104.550568 119,109.137635 L119,128.302404 C118.724675,133.371423 116.045543,138.005731 111.787043,140.779227 L41.4767972,181.27386" id="Path" fill="#B1B4C4" fill-rule="nonzero"></path>
                <polygon id="Path" fill="#B1B4C4" fill-rule="nonzero" points="116.85209 104 121 105.587591 117.488746 109 115 105.231752"></polygon>
                <polygon id="Path" fill="#B1B4C4" fill-rule="nonzero" points="33 195.451064 36.9911894 197 37 193.680851 33.4669604 193"></polygon>
                <path d="M6.95842823,203.958562 C7.1239116,204.316075 2.17887927,202.250441 2.00366159,201.972374 C1.82844391,201.694308 8,198 8,198 L6.95842823,203.958562 Z" id="Path" fill="#B1B4C4" fill-rule="nonzero"></path>
                <path d="M45.5007333,183.259179 L115.789271,142.735304 C120.043136,139.958552 122.72038,135.325883 123,130.25795 L123,111.129067 C123,106.541804 119.766654,104.706899 115.789271,106.963832 L11.2107294,167.267982 C6.95575916,170.04369 4.27816234,174.676969 4,179.745336 L4,198.87422 C4,203.461482 7.2333462,205.296387 11.2107294,203.030279 L28.7644925,192.938302 L37.1785411,197.241154 L45.5007333,183.259179 Z" id="Path" fill="#E9EAF2" fill-rule="nonzero"></path>
                <polygon id="Path" fill="url(#linearGradient-4)" fill-rule="nonzero" points="114 122.716482 13 181 13 174.29277 114 116"></polygon>
                <polygon id="Path" fill="url(#linearGradient-5)" fill-rule="nonzero" points="79 154.734694 13 193 13 186.265306 79 148"></polygon>
            </g>
        </g>
    </g>
</svg>