<svg width="250" height="75" viewBox="0 0 250 75" fill="none" xmlns="http://www.w3.org/2000/svg">
<path d="M113.881 59.9992L132.002 10.0283H120.248L108.424 45.1982L96.4594 10.0283H84.2854L102.476 59.9992H113.881ZM151.169 61.1673C160.313 61.1673 166.402 56.3211 169.435 46.6289H159.054C157.868 50.0032 155.292 51.122 151.324 51.122C149.005 51.122 146.995 50.4082 145.294 48.9806C143.594 47.553 142.692 45.775 142.589 43.6465H169.335C169.489 43.1793 169.567 41.9593 169.567 39.9866C169.567 33.757 167.853 28.8902 164.426 25.386C160.999 21.8819 156.297 20.1298 150.319 20.1298C145.114 20.1298 140.618 22.0246 136.83 25.8143C133.042 29.604 131.148 34.5098 131.148 40.5317C131.148 46.8132 133.094 51.8229 136.984 55.5606C140.875 59.2984 145.603 61.1673 151.169 61.1673ZM142.821 36.0153C142.975 34.354 143.722 32.8485 145.062 31.4988C146.402 30.149 148.206 29.4742 150.473 29.4742C152.999 29.4742 154.892 30.1231 156.155 31.4209C157.418 32.7188 158.1 34.2502 158.203 36.0153H142.821ZM189.005 59.9992V43.1014C189.005 39.5194 189.842 36.8718 191.517 35.1587C193.192 33.4455 195.343 32.589 197.972 32.589C199.363 32.589 200.6 32.7188 201.682 32.9783V21.2978C200.806 21.0383 199.775 20.9085 198.59 20.9085C196.683 20.9085 194.776 21.3497 192.87 22.2323C190.963 23.1148 189.546 24.5424 188.618 26.5151V21.2978H177.255V59.9992H189.005ZM226.346 74.8724L250 21.2978H237.554L229.051 42.0112L219.698 21.2978H206.557L222.713 54.7819L213.978 74.8724H226.346Z" fill="black"/>
<path d="M40.1253 60.2644L34.5341 70.1981L28.9429 60.2644H40.1253ZM51.3078 40.397L45.6069 50.3307H22.8035L17.1026 40.397H51.3078ZM23.0227 30.4633L17.4315 40.397L11.8403 30.4633H23.0227ZM63.1481 19.8674L57.4843 29.8011H23.0227L28.7663 19.8674H63.1481ZM34.2052 9.93369L28.5043 19.8674H5.70087L0 9.93369H34.2052ZM74.3305 0L68.587 9.93369H34.2052L39.9488 0H74.3305Z" fill="#F5A800"/>
</svg>
