<?xml version="1.0" encoding="UTF-8"?>
<svg width="110px" height="110px" viewBox="0 0 110 110" version="1.1" xmlns="http://www.w3.org/2000/svg" xmlns:xlink="http://www.w3.org/1999/xlink">
    <!-- Generator: Sketch 63.1 (92452) - https://sketch.com -->
    <title>Icon / Cloud Computing</title>
    <desc>Created with Sketch.</desc>
    <g id="Icon-/-Cloud-Computing" stroke="none" stroke-width="1" fill="none" fill-rule="evenodd">
        <g id="cloud-computing" transform="translate(7.000000, 0.000000)" fill-rule="nonzero">
            <path d="M93.8498968,38.740692 C93.8816832,48.6277009 86.5971373,57.1131898 76.9073486,58.4794616 C76.5666198,58.5264586 79.0020752,58.5037995 47.4200439,58.6003112 C39.9030304,58.6246491 30.4574585,58.6540221 18.5890199,58.6935525 C8.85139471,58.7236785 0.903854316,50.825653 0.872714429,41.0863494 C0.843429512,31.7171478 8.14559926,24.0364837 17.3184204,23.4120941 C18.2659149,23.3474731 19.0480804,22.6517487 19.2612458,21.7260742 C22.1649933,9.08805842 33.6499023,-0.313034004 47.2362518,0.00755308984 C58.5482788,0.269393867 68.5250854,7.26524348 72.6784515,17.7380371 C72.9998779,18.5487367 73.7828826,19.0732575 74.654007,19.0959166 C85.1779938,19.3678285 93.8162231,27.9850768 93.8498968,38.740692 Z" id="Path" fill="#BF5C4F"></path>
            <path d="M93.8498968,38.740692 C93.8816832,48.6277009 86.5971373,57.1131898 76.9073486,58.4794616 C76.5666198,58.5264586 79.0020752,58.5037995 47.4200439,58.6003112 L47.2362518,0.00755308984 C58.5482788,0.269393867 68.5250854,7.26524348 72.6784515,17.7380371 C72.9998779,18.5487367 73.7828826,19.0732575 74.654007,19.0959166 C85.1779938,19.3678285 93.8162231,27.9850768 93.8498968,38.740692 Z" id="Path" fill="#A22926"></path>
            <path d="M88.5592651,83.3249665 C92.28714,81.9729614 94.9525453,78.3911133 94.9391175,74.2024993 C94.9231721,68.8733674 90.5725861,64.5479583 85.2409362,64.564743 C81.0523224,64.5781707 77.487259,67.2662354 76.1587524,71.0025024 L56.5626527,71.0646058 C55.5782318,68.3538818 53.4163665,66.2054443 50.6997681,65.2386475 L50.6326294,43.777771 C56.2429046,42.3099518 60.3878784,37.1881104 60.368576,31.1246491 C60.3459166,23.9382935 54.4796753,18.108139 47.2924805,18.1306671 C40.1061248,18.1534577 34.2759704,24.019699 34.2986297,31.2068939 C34.3179321,37.2703551 38.4947967,42.3653411 44.1151429,43.7987518 L44.1822816,65.2587891 C41.4723968,66.2423706 39.3239593,68.405075 38.3571624,71.1216735 L18.7602233,71.1829377 C17.4082184,67.4550628 13.8263703,64.7896575 9.63775635,64.8030853 C4.30610662,64.8198699 -0.016784668,69.1721345 -9.71440554e-05,74.5012664 C0.0134277344,78.6898804 2.70065297,82.2549438 6.43775945,83.5834504 L6.46209717,91.2397767 C2.7342223,92.5917816 0.0679778516,96.1744691 0.0814055859,100.363083 C0.0981902539,105.692215 4.44877619,110.016785 9.77958674,110.000097 C15.1112367,109.983215 19.4341278,105.630951 19.4173431,100.301819 C19.4039154,96.1132049 16.7158509,92.5481414 12.9795836,91.2196351 L12.9552459,83.5633088 C15.6659699,82.5814056 17.8144074,80.4195404 18.7812043,77.7012633 L38.377304,77.6391602 C39.3608856,80.3515625 41.5227508,82.5 44.2401887,83.4651185 L44.2636872,91.1206055 C40.5358123,92.4734497 37.8704071,96.0552979 37.8838348,100.243912 C37.9006195,105.573044 42.2503662,109.898453 47.5820159,109.881668 C52.9128265,109.864883 57.2357178,105.512619 57.2189331,100.183487 C57.2055054,95.994873 54.5182799,92.4289704 50.7811737,91.1004639 L50.7576751,83.4441375 C53.4675599,82.4630737 55.6159974,80.3012085 56.5827943,77.5820923 L76.178894,77.5199889 C77.1633148,80.2332306 79.32518,82.3808287 82.0417787,83.3459473 L82.0661164,91.0022736 C78.3382415,92.3542787 75.6728363,95.9361266 75.6854248,100.124741 C75.7022095,105.454712 80.0527954,109.779282 85.383606,109.762497 C90.7152557,109.745712 95.038147,105.393448 95.0214594,100.064316 C95.0079346,95.8748626 92.3198699,92.3097991 88.5836029,90.9812926 L88.5592651,83.3249665 Z M9.75944514,103.482527 C8.02139293,103.487549 6.60476695,102.077637 6.5988788,100.342102 C6.59385676,98.6040496 8.00125133,97.1874237 9.73930354,97.18237 C11.477356,97.1765137 12.8939819,98.583908 12.8998701,100.32196 C12.9048919,102.058334 11.4974976,103.476639 9.75944514,103.482527 Z M9.67803955,77.6207152 C7.93998713,77.6265716 6.52336115,76.2183381 6.51747321,74.4802856 C6.51245117,72.744751 7.91984553,71.3264466 9.65789795,71.3205537 C11.3959504,71.3146973 12.8125763,72.7246094 12.8184643,74.4609832 C12.8234863,76.1990356 11.416092,77.6148224 9.67803955,77.6207152 Z M40.8160859,31.1859131 C40.8052064,27.5923158 43.7198639,24.659195 47.3134613,24.6482494 C50.9070588,24.6365356 53.8401793,27.5520326 53.8511249,31.1447907 C53.8628387,34.738388 50.947342,37.6715088 47.3545836,37.6832887 C43.7609863,37.6941681 40.8278655,34.7795104 40.8160859,31.1859131 Z M47.5610352,103.363361 C45.8229827,103.369217 44.4063568,101.959305 44.4013031,100.222931 C44.3954468,98.4857178 45.8028411,97.0690918 47.5408936,97.0631988 C49.278946,97.0573424 50.695572,98.4655762 50.7014601,100.203629 C50.7064819,101.939163 49.2990876,103.357468 47.5610352,103.363361 Z M47.4796296,77.5015442 C45.7415771,77.5074006 44.3249512,76.0991668 44.3198973,74.3611146 C44.3140412,72.6255797 45.7214355,71.2072754 47.459488,71.2013824 C49.1975404,71.195526 50.6141664,72.6054381 50.6200592,74.3418122 C50.6259155,76.0798646 49.217682,77.4964906 47.4796296,77.5015442 Z M85.3626252,103.24419 C83.6245728,103.250046 82.208786,101.840134 82.2028932,100.104599 C82.1970368,98.3665465 83.6052703,96.9499205 85.3433228,96.9440326 C87.0813752,96.9390106 88.4971618,98.3464049 88.5030548,100.084457 C88.5089111,101.819992 87.1006774,103.239136 85.3626252,103.24419 L85.3626252,103.24419 Z M85.2820588,77.3832075 C83.5440063,77.3882293 82.1273804,75.980835 82.1214922,74.2427825 C82.1164704,72.5072479 83.5238647,71.0881041 85.2619172,71.0822162 C86.9999694,71.0771942 88.4165954,72.4871063 88.4216492,74.2226409 C88.4275055,75.9606934 87.0192718,77.3773193 85.2820588,77.3832075 Z" id="Shape" fill="#A22926"></path>
            <path d="M88.5836029,90.9812926 L88.5592651,83.3249665 C92.28714,81.9729614 94.9525453,78.3911133 94.9391175,74.2024993 C94.9231721,68.8733674 90.5725861,64.5479583 85.2409362,64.564743 C81.0523224,64.5781707 77.487259,67.2662354 76.1587524,71.0025024 L56.5626527,71.0646058 C55.5782318,68.3538818 53.4163665,66.2054443 50.6997681,65.2386475 L50.6326294,43.777771 C56.2571715,42.3191832 60.3878784,37.1981812 60.368576,31.1246491 C60.3459166,23.9382935 54.4796753,18.108139 47.2924805,18.1307325 L47.3134613,24.6482848 C50.9070588,24.6365356 53.8401793,27.5520326 53.8510895,31.1447907 C53.8628387,34.738388 50.947342,37.6715088 47.3545836,37.6832582 L47.459488,71.2014007 C49.1975404,71.195526 50.6141664,72.6054381 50.6200408,74.3418122 C50.6250763,76.0798646 49.217682,77.4956512 47.4796296,77.5015259 L47.5408936,97.0632171 C49.278946,97.0573424 50.695572,98.4655762 50.7014466,100.203629 C50.7064819,101.939163 49.2990876,103.357468 47.5610352,103.363342 L47.5820159,109.880829 C52.9128265,109.864044 57.2357178,105.51178 57.2189331,100.182648 C57.2055054,95.9940339 54.5182799,92.4289704 50.7811737,91.1004639 L50.7568359,83.4441375 C53.4675599,82.4622346 55.6159974,80.3003693 56.5827943,77.5820923 L76.178894,77.5199889 C77.1633148,80.2323913 79.32518,82.3808288 82.0417787,83.3459473 L82.0661164,91.0014342 C78.3374023,92.3542787 75.6719971,95.9361266 75.6854248,100.124741 C75.7022095,105.453873 80.0519562,109.779282 85.383606,109.762497 C90.7152557,109.745712 95.0373078,105.393448 95.0214063,100.064316 C95.0079346,95.8748626 92.3198699,92.3097991 88.5836029,90.9812926 L88.5836029,90.9812926 Z M85.3626252,103.24419 C83.6245728,103.250046 82.208786,101.840134 82.2028932,100.104599 C82.1970368,98.3665465 83.6052703,96.9499205 85.3433228,96.9440326 C87.0813752,96.9390106 88.4971618,98.3464049 88.5030548,100.084457 C88.5089111,101.819992 87.1006774,103.239136 85.3626252,103.24419 L85.3626252,103.24419 Z M85.2820588,77.3832075 C83.5440063,77.3882293 82.1273804,75.980835 82.1214922,74.2427825 C82.1164704,72.5072479 83.5238647,71.0881041 85.2619172,71.0822162 C86.9999694,71.0771942 88.4165954,72.4871063 88.4216492,74.2226409 C88.4275055,75.9606934 87.0192718,77.3773193 85.2820588,77.3832075 Z" id="Shape" fill="#5E2C22"></path>
        </g>
    </g>
</svg>