<?xml version="1.0" encoding="UTF-8"?>
<svg width="139px" height="164px" viewBox="0 0 139 164" version="1.1" xmlns="http://www.w3.org/2000/svg" xmlns:xlink="http://www.w3.org/1999/xlink">
    <!-- Generator: Sketch 64 (93537) - https://sketch.com -->
    <title>Icon / Platinum</title>
    <desc>Created with Sketch.</desc>
    <g id="01---Nerves-Website" stroke="none" stroke-width="1" fill="none" fill-rule="evenodd">
        <g id="10---Sponsors" transform="translate(-485.000000, -907.000000)">
            <g id="Group" transform="translate(413.000000, 899.000000)">
                <g id="Icon-/-Gold" transform="translate(51.000000, 0.000000)">
                    <g id="medal" transform="translate(21.272727, 8.181818)">
                        <polygon id="Path" fill="#41889E" fill-rule="nonzero" points="35.9079545 70.7113636 0.189204545 138.006818 32.625 135.010227 48.3238636 163.554545 84.0426136 96.2590909"></polygon>
                        <g id="Group" transform="translate(29.403409, 70.632102)" fill="#42A7C6" fill-rule="nonzero">
                            <path d="M10.5954545,73.3269886 C11.5977273,71.1741477 10.5494318,68.6019886 8.45284091,67.4872159 L6.39715909,66.3928977 C4.34147727,65.221875 3.55909091,62.6190341 4.67897727,60.5122159 C5.81420455,58.3696023 8.48352273,57.5514205 10.6261364,58.6866477 L16.4352273,61.7701705 C18.2301136,62.7213068 20.4801136,62.0309659 21.4056818,60.2258523 L21.5488636,59.9497159 C22.6125,58.246875 21.9835227,55.996875 20.2142045,55.0610795 L2.83806818,45.8411932 C0.721022727,44.7161932 -0.317045455,42.1542614 0.669886364,39.9963068 C1.75909091,37.7002841 4.51022727,36.7951705 6.72443182,37.9713068 L22.8426136,46.5264205 C24.6375,47.4775568 26.8875,46.7872159 27.8386364,44.9923295 L27.9306818,44.7571023 L27.95625,44.7059659 C28.9840909,42.8241477 28.2630682,40.4616477 26.3659091,39.4542614 L17.325,34.6576705 C15.2079545,33.5326705 14.1698864,30.9707386 15.1721591,28.7872159 C16.2511364,26.5167614 19.0125,25.5860795 21.2267045,26.7622159 L31.2136364,32.0650568 C33.0801136,33.0571023 35.3096591,32.2286932 36.2761364,30.346875 C36.2914773,30.3213068 36.2914773,30.3213068 36.3017045,30.2957386 C36.3170455,30.2701705 36.3170455,30.2701705 36.3272727,30.2446023 C37.3448864,28.3883523 36.7823864,26.0769886 34.9107955,25.0900568 L24.1363636,19.3730114 C22.0448864,18.2633523 21.0068182,15.7014205 21.99375,13.5434659 C23.0829545,11.2474432 25.8340909,10.3423295 28.0482955,11.5184659 L54.6289773,25.6269886 L18.9102273,92.9224432 L9.06647727,75.0298295 C9.70056818,74.6002841 10.2528409,74.0684659 10.5954545,73.3269886 Z" id="Path"></path>
                            <polygon id="Path" points="73.3193182 0.0792613636 109.038068 67.3747159 76.6022727 64.378125 60.9034091 92.9224432 25.1846591 25.6269886"></polygon>
                        </g>
                        <path d="M98.6318182,143.959091 C97.6295455,141.80625 98.6778409,139.234091 100.774432,138.119318 L102.830114,137.025 C104.885795,135.853977 105.668182,133.251136 104.548295,131.144318 C103.413068,129.001705 100.74375,128.183523 98.6011364,129.31875 L92.7920455,132.402273 C90.9971591,133.353409 88.7471591,132.663068 87.8215909,130.857955 L87.6784091,130.581818 C86.6147727,128.878977 87.24375,126.628977 89.0130682,125.693182 L106.394318,116.468182 C108.511364,115.343182 109.549432,112.78125 108.5625,110.623295 C107.473295,108.327273 104.722159,107.422159 102.507955,108.598295 L86.3897727,117.153409 C84.5948864,118.104545 82.3448864,117.414205 81.39375,115.619318 L81.3017045,115.384091 L81.2761364,115.332955 C80.2482955,113.451136 80.9693182,111.088636 82.8664773,110.08125 L91.9073864,105.284659 C94.0244318,104.159659 95.0625,101.597727 94.0602273,99.4142045 C92.98125,97.14375 90.2198864,96.2130682 88.0056818,97.3892045 L78.0085227,102.702273 C76.1420455,103.694318 73.9125,102.865909 72.9460227,100.984091 C72.9306818,100.958523 72.9306818,100.958523 72.9204545,100.932955 C72.9051136,100.907386 72.9051136,100.907386 72.8948864,100.881818 C71.8772727,99.0255682 72.4397727,96.7142045 74.3113636,95.7272727 L85.0857955,90.0102273 C87.1772727,88.9005682 88.2153409,86.3386364 87.2284091,84.1806818 C86.1392045,81.8846591 83.3880682,80.9795455 81.1738636,82.1556818 L54.5931818,96.2642045 L90.3119318,163.559659 L100.155682,145.667045 C99.5267045,145.232386 98.9744318,144.700568 98.6318182,143.959091 Z" id="Path" fill="#41889E" fill-rule="nonzero"></path>
                        <circle id="Oval" fill="#FFCC5B" fill-rule="nonzero" cx="69.3153409" cy="59.68125" r="59.68125"></circle>
                        <path d="M77.4102273,52.8340909 L39.5897727,52.8340909 C36.6494318,52.8340909 34.2357955,50.4204545 34.2357955,47.4801136 L34.2767045,47.1119318 L34.2767045,47.0301136 C34.2357955,43.9261364 36.7670455,41.3897727 39.8761364,41.3897727 L66.0886364,41.3897727 C69.5607955,41.3897727 72.6289773,38.8176136 72.8335227,35.3403409 C72.9971591,31.7045455 70.0977273,28.6363636 66.4568182,28.6363636 L38.6897727,28.6363636 C35.6267045,28.6363636 33.3357955,26.0642045 33.3767045,22.9960227 C33.3767045,22.9551136 33.3767045,22.9551136 33.3767045,22.9142045 C33.3767045,22.8732955 33.3767045,22.8732955 33.3767045,22.8323864 C33.3357955,19.7693182 35.6215909,17.1920455 38.6897727,17.1920455 L67.7454545,17.1920455 C71.1767045,17.1920455 74.2448864,14.6198864 74.4494318,11.1835227 C74.6130682,7.50681818 71.7136364,4.47954545 68.0727273,4.47954545 L46.7948864,4.47954545 C25.0977273,13.4232955 9.80795455,34.7573864 9.80795455,59.68125 C9.80795455,84.6051136 25.0977273,105.934091 46.8,114.867614 L73.8153409,114.867614 C77.2465909,114.867614 80.3147727,112.295455 80.5193182,108.859091 C80.6829545,105.182386 77.7835227,102.160227 74.1426136,102.160227 L43.4096591,102.155114 C39.7840909,102.155114 36.8642045,99.1227273 37.0585227,95.4511364 C37.2375,92.0147727 40.3261364,89.4323864 43.7676136,89.4323864 L55.6823864,89.4323864 C59.1085227,89.3352273 61.875,86.5278409 61.875,83.0761364 C61.875,79.5630682 59.0164773,76.6994318 55.4982955,76.6994318 L37.4369318,76.6994318 C34.4965909,76.6994318 32.0829545,74.2909091 32.1238636,71.3454545 L32.1238636,70.8954545 C31.9193182,67.9960227 34.2511364,65.5414773 37.1505682,65.5414773 L77.0420455,65.5414773 C80.5142045,65.5414773 83.5823864,62.9693182 83.7869318,59.5329545 C83.9505682,55.8613636 81.0460227,52.8340909 77.4102273,52.8340909 Z" id="Path" fill="#FDBC4B" fill-rule="nonzero"></path>
                        <path d="M69.3153409,102.277841 C45.8232955,102.277841 26.7136364,83.1630682 26.7136364,59.6761364 C26.7136364,36.1892045 45.8232955,17.0795455 69.3153409,17.0795455 C92.8073864,17.0795455 111.917045,36.1943182 111.917045,59.68125 C111.917045,83.1681818 92.8073864,102.277841 69.3153409,102.277841 Z" id="Path" fill="#FFDB70" fill-rule="nonzero"></path>
                        <path d="M111.917045,59.68125 C111.917045,37.0176136 94.1113636,18.4806818 71.7596591,17.2022727 L67.7914773,17.2022727 C65.1732955,17.2022727 62.8363636,19.1659091 62.6778409,21.7840909 C62.5551136,24.5863636 64.7642045,26.8977273 67.5409091,26.8977273 L90.9818182,26.9028409 C93.7482955,26.9028409 95.9727273,29.2142045 95.8244318,32.0164773 C95.6863636,34.6397727 93.3340909,36.6085227 90.7056818,36.6085227 L81.61875,36.6085227 C79.0056818,36.6852273 76.89375,38.8227273 76.89375,41.45625 C76.89375,44.1357955 79.0772727,46.3193182 81.7568182,46.3193182 L95.5329545,46.3193182 C97.7778409,46.3193182 99.6136364,48.1602273 99.5829545,50.4 L99.5829545,50.7375 C99.7363636,52.9517045 97.9619318,54.8181818 95.7477273,54.8181818 L65.3267045,54.8181818 C62.6778409,54.8181818 60.3409091,56.7818182 60.1823864,59.4 C60.0596591,62.2022727 62.26875,64.5136364 65.0454545,64.5136364 L93.8863636,64.5136364 C96.13125,64.5136364 97.9670455,66.3545455 97.9670455,68.5943182 L97.9363636,68.8755682 L97.9363636,68.9369318 C97.9670455,71.3045455 96.0340909,73.2375 93.6664773,73.2375 L73.6721591,73.2375 C71.0232955,73.2375 68.6863636,75.2011364 68.5278409,77.85 C68.4051136,80.6215909 70.6142045,82.9636364 73.3909091,82.9636364 L94.5664773,82.9636364 C96.9034091,82.9636364 98.6471591,84.9272727 98.6164773,87.2642045 C98.6164773,87.2948864 98.6164773,87.2948864 98.6164773,87.3255682 C98.6164773,87.35625 98.6164773,87.35625 98.6164773,87.3869318 C98.6471591,89.7238636 96.9034091,91.6875 94.5664773,91.6875 L72.4090909,91.6875 C69.7909091,91.6875 67.4539773,93.6511364 67.2954545,96.2693182 C67.1727273,99.0767045 69.3818182,101.382955 72.1585227,101.382955 L78.0034091,101.382955 C97.3482955,97.3534091 111.917045,80.1869318 111.917045,59.68125 Z" id="Path" fill="#FFFFFF" fill-rule="nonzero" opacity="0.2"></path>
                        <path d="M99.05625,50.2465909 L78.3357955,50.2465909 L71.9284091,30.5386364 C71.1051136,28.0073864 67.5204545,28.0073864 66.6971591,30.5386364 L60.2948864,50.2465909 L39.5744318,50.2465909 C36.9102273,50.2465909 35.8005682,53.6573864 37.9585227,55.2221591 L54.7210227,67.4028409 L48.31875,87.1107955 C47.4954545,89.6420455 50.3948864,91.7488636 52.5528409,90.1840909 L69.3153409,78.0034091 L86.0778409,90.1840909 C88.2357955,91.7488636 91.1352273,89.6420455 90.3119318,87.1107955 L83.9096591,67.4028409 L100.672159,55.2221591 C102.825,53.6573864 101.720455,50.2465909 99.05625,50.2465909 Z" id="Path" fill="#EC9922" fill-rule="nonzero"></path>
                    </g>
                </g>
            </g>
        </g>
    </g>
</svg>