<?xml version="1.0" encoding="utf-8"?>
<!-- Generator: Adobe Illustrator 24.1.0, SVG Export Plug-In . SVG Version: 6.00 Build 0)  -->
<svg version="1.1" id="Layer_1" xmlns="http://www.w3.org/2000/svg" xmlns:xlink="http://www.w3.org/1999/xlink" x="0px" y="0px"
	 viewBox="0 0 30 39" style="enable-background:new 0 0 30 39;" xml:space="preserve">
<style type="text/css">
	.st0{clip-path:url(#SVGID_2_);}
	.st1{fill:#A22926;}
	.st2{fill:#912424;}
</style>
<g>
	<defs>
		<rect id="SVGID_1_" width="30" height="38"/>
	</defs>
	<clipPath id="SVGID_2_">
		<use xlink:href="#SVGID_1_"  style="overflow:visible;"/>
	</clipPath>
	<g class="st0">
		<path class="st1" d="M14.9,0c0,0.3,0.1,0.5,0.1,0.8c0.2,3.2,1.1,6.3,2.5,9.1c0.8,1.6,1.9,3.1,3.1,4.5c1.3,1.4,2.7,2.8,4.2,4
			c1.3,1.1,2.5,2.4,3.6,3.7c0.9,1.4,1.5,3,1.6,4.6c0.1,1.7-0.2,3.3-1,4.8c-1,1.7-2.4,3.1-4.1,4c-2,1.1-4.1,1.8-6.4,2.1
			c-1.7,0.3-3.4,0.4-5.2,0.3c-2.9-0.1-5.8-0.9-8.4-2.3c-1.6-0.9-3-2.2-3.9-3.8c-0.7-1.3-1.1-2.7-1.1-4.1c-0.1-1.4,0.2-2.9,0.8-4.2
			c0.6-1.2,1.4-2.4,2.4-3.3c1.4-1.3,2.8-2.6,4.1-3.9c2.6-2.3,4.6-5.2,5.9-8.5c0.8-2,1.3-4.2,1.5-6.4C14.7,1.1,14.7,0.6,14.9,0
			L14.9,0z M3.8,22.8c-0.1,0.1-0.3,0.1-0.4,0.2c-0.4,0.5-0.8,0.9-1.1,1.5c-0.8,1.2-1,2.7-0.7,4.1c0.4,1.7,1.3,3.1,2.7,4.2
			c1.3,1,2.8,1.8,4.4,2.3c1.8,0.6,3.6,0.9,5.5,1c1.5,0.1,3,0,4.5-0.3c1.5-0.3,3-0.7,4.5-1.4c1.6-0.7,3-1.8,4.1-3.2
			c0.8-1,1.3-2.3,1.3-3.6c0-1.2-0.3-2.4-1-3.5c-0.2-0.5-0.6-0.9-1.1-1.1c0-0.1-0.1-0.2-0.2-0.2c-0.7-0.8-1.5-1.5-2.5-1.9
			c-2.5-1.1-5.1-1.7-7.8-1.8c-2.4-0.1-4.9,0.2-7.2,0.8c-1.4,0.3-2.7,0.9-3.9,1.8C4.5,22,4.1,22.4,3.8,22.8z"/>
		<path class="st2" d="M26.4,23c0.5,0.2,0.8,0.6,1.1,1.1c0.7,1,1,2.2,1,3.5c0,1.3-0.5,2.6-1.3,3.6c-1.1,1.4-2.5,2.5-4.1,3.2
			c-1.4,0.7-2.9,1.1-4.5,1.4c-1.5,0.3-3,0.4-4.5,0.3c-1.9-0.1-3.7-0.4-5.5-1c-1.6-0.5-3.1-1.3-4.4-2.4c-1.4-1-2.3-2.5-2.7-4.1
			c-0.3-1.4,0-2.9,0.7-4.1c0.3-0.5,0.7-1,1.1-1.5c0.1-0.1,0.2-0.1,0.4-0.2c-0.1,0.3-0.1,0.7,0,1.1c0.1,0.3,0.3,0.7,0.6,0.9
			c0.6,0.5,1.2,1,1.9,1.3c2.8,1.3,5.9,1.9,9,1.8c0.8,0,1.5,0,2.2,0c0.9,0.1,1.2,0.6,1,1.5c-0.3,0.9-0.7,1.7-1.2,2.4
			c-0.5,0.7-0.9,1.3-1.5,2c0.2-0.1,0.4-0.1,0.5-0.2c1.5-0.6,2.8-1.5,3.9-2.7c1-0.9,1.7-2.1,1.9-3.4c0-0.1,0.1-0.2,0.1-0.2
			c0.1-0.1,0.2-0.1,0.2-0.1c0.9-0.2,1.7-0.5,2.5-1c0.5-0.3,1-0.7,1.3-1.3C26.4,24.3,26.5,23.6,26.4,23z"/>
	</g>
</g>
</svg>
