<?xml version="1.0" encoding="utf-8"?>
<!-- Generator: Adobe Illustrator 24.1.0, SVG Export Plug-In . SVG Version: 6.00 Build 0)  -->
<svg version="1.1" id="Layer_1" xmlns="http://www.w3.org/2000/svg" xmlns:xlink="http://www.w3.org/1999/xlink" x="0px" y="0px"
	 viewBox="0 0 30 29" style="enable-background:new 0 0 30 29;" xml:space="preserve">
<style type="text/css">
	.st0{fill:#A22926;}
</style>
<path class="st0" d="M15,0C6.7,0,0,6.6,0,14.8c0,6.5,4.3,12,10.3,14c0.8,0.1,1-0.3,1-0.7c0-0.4,0-1.3,0-2.5c-4.2,0.9-5.1-2-5.1-2
	c-0.7-1.7-1.7-2.2-1.7-2.2c-1.4-0.9,0.1-0.9,0.1-0.9C6.2,20.6,6.9,22,6.9,22c1.3,2.3,3.5,1.6,4.4,1.2c0.1-1,0.5-1.6,0.9-2
	c-3.3-0.4-6.8-1.6-6.8-7.3c0-1.6,0.6-2.9,1.5-4C6.8,9.7,6.3,8.2,7.1,6.2c0,0,1.3-0.4,4.1,1.5c1.2-0.3,2.5-0.5,3.8-0.5
	c1.3,0,2.6,0.2,3.8,0.5c2.9-1.9,4.1-1.5,4.1-1.5c0.8,2,0.3,3.5,0.1,3.9c1,1,1.5,2.3,1.5,4c0,5.7-3.5,6.9-6.8,7.3
	c0.5,0.4,1,1.3,1,2.7c0,2,0,3.6,0,4c0,0.4,0.3,0.8,1,0.7c6-1.9,10.3-7.5,10.3-14C30,6.6,23.3,0,15,0z"/>
</svg>
