<?xml version="1.0" encoding="utf-8"?>
<!-- Generator: Adobe Illustrator 24.1.0, SVG Export Plug-In . SVG Version: 6.00 Build 0)  -->
<svg version="1.1" id="Layer_1" xmlns="http://www.w3.org/2000/svg" xmlns:xlink="http://www.w3.org/1999/xlink" x="0px" y="0px"
	 viewBox="0 0 30 25" style="enable-background:new 0 0 30 25;" xml:space="preserve">
<style type="text/css">
	.st0{fill:#A22926;}
</style>
<path class="st0" d="M30,2.9c-1.1,0.5-2.3,0.8-3.5,1c1.3-0.8,2.2-2,2.7-3.4c-1.2,0.7-2.5,1.2-3.9,1.5C24.1,0.7,22.5,0,20.8,0
	c-3.4,0-6.1,2.8-6.1,6.2c0,0.5,0,1,0.1,1.4C9.7,7.3,5.1,4.9,2.1,1.1C1.6,2,1.2,3.1,1.2,4.2c0,2.1,1.1,4,2.7,5.1C3,9.3,2,9,1.2,8.6
	c0,0,0,0,0,0.1c0,3,2.1,5.5,4.9,6c-0.5,0.1-1,0.2-1.6,0.2c-0.4,0-0.8,0-1.2-0.1c0.8,2.4,3.1,4.2,5.7,4.3c-2.1,1.6-4.7,2.6-7.6,2.6
	c-0.5,0-1,0-1.5-0.1c2.7,1.8,6,2.8,9.4,2.8c11.3,0,17.5-9.4,17.5-17.5c0-0.3,0-0.5,0-0.8C28.1,5.2,29.2,4.1,30,2.9z"/>
</svg>
