<?xml version="1.0" encoding="utf-8"?>
<!-- Generator: Adobe Illustrator 24.1.0, SVG Export Plug-In . SVG Version: 6.00 Build 0)  -->
<svg version="1.1" id="Layer_1" xmlns="http://www.w3.org/2000/svg" xmlns:xlink="http://www.w3.org/1999/xlink" x="0px" y="0px"
	 viewBox="0 0 30 30" style="enable-background:new 0 0 30 30;" xml:space="preserve">
<style type="text/css">
	.st0{fill:#A22926;}
</style>
<path class="st0" d="M11,15.8c1.7,0,3.1,1.4,3.1,3.1v7.9c0,1.7-1.4,3.1-3.1,3.1s-3.1-1.4-3.1-3.1V19C7.9,17.2,9.3,15.8,11,15.8z
	 M18.9,23.7c1.7,0,3.1,1.4,3.1,3.1S20.7,30,18.9,30s-3.1-1.4-3.1-3.1v-3.1L18.9,23.7z M6.3,15.8V19c0,1.7-1.4,3.1-3.1,3.1
	C1.4,22.1,0,20.7,0,19s1.4-3.1,3.1-3.1H6.3z M26.8,15.8c1.7,0,3.1,1.4,3.1,3.1s-1.4,3.1-3.1,3.1h-7.9c-1.7,0-3.1-1.4-3.1-3.1
	s1.4-3.1,3.1-3.1H26.8z M11,7.9c1.7,0,3.1,1.4,3.1,3.1c0,1.7-1.4,3.1-3.1,3.1H3.2c-1.7,0-3.1-1.4-3.1-3.1c0-1.7,1.4-3.1,3.1-3.1
	L11,7.9z M26.8,7.9c1.7,0,3.1,1.4,3.1,3.1c0,1.7-1.4,3.1-3.1,3.1h-3.1v-3.2C23.6,9.4,25,7.9,26.8,7.9L26.8,7.9z M18.9,0.1
	c1.7,0,3.1,1.4,3.1,3.1v7.9c0,1.7-1.4,3.1-3.1,3.1s-3.1-1.4-3.1-3.1V3.2C15.8,1.5,17.2,0.1,18.9,0.1z M11,0.1c1.7,0,3.1,1.4,3.1,3.1
	v3.2H11c-1.7,0-3.1-1.4-3.1-3.1C7.9,1.5,9.3,0.1,11,0.1L11,0.1z"/>
</svg>
