<svg width="101" height="31" viewBox="0 0 101 31" fill="none" xmlns="http://www.w3.org/2000/svg">
<path d="M45.864 24.872L53.0991 4.92059H48.4061L43.6851 18.9626L38.9083 4.92059H34.0477L41.3107 24.872H45.864ZM60.7518 25.3384C64.4027 25.3384 66.8336 23.4035 68.0447 19.5338H63.8998C63.4266 20.881 62.3978 21.3277 60.8135 21.3277C59.8876 21.3277 59.0852 21.0427 58.4062 20.4727C57.7272 19.9027 57.3671 19.1928 57.326 18.343H68.0046C68.0663 18.1565 68.0972 17.6694 68.0972 16.8818C68.0972 14.3945 67.4131 12.4514 66.0448 11.0523C64.6765 9.65326 62.799 8.95373 60.4123 8.95373C58.3342 8.95373 56.539 9.71026 55.0267 11.2233C53.5144 12.7364 52.7582 14.6951 52.7582 17.0994C52.7582 19.6074 53.5349 21.6075 55.0884 23.0999C56.6418 24.5922 58.5296 25.3384 60.7518 25.3384ZM57.4186 15.2962C57.4803 14.6329 57.7786 14.0318 58.3136 13.4929C58.8486 12.954 59.5687 12.6846 60.474 12.6846C61.4822 12.6846 62.2383 12.9437 62.7424 13.4618C63.2465 13.98 63.5192 14.5915 63.5603 15.2962H57.4186ZM75.858 24.872V18.1254C75.858 16.6952 76.1924 15.6382 76.8611 14.9542C77.5298 14.2702 78.3888 13.9282 79.4382 13.9282C79.9937 13.9282 80.4875 13.98 80.9196 14.0836V9.42008C80.5698 9.31645 80.1583 9.26463 79.6851 9.26463C78.9238 9.26463 78.1625 9.44081 77.4012 9.79317C76.6399 10.1455 76.0741 10.7155 75.7037 11.5031V9.42008H71.1668V24.872H75.858ZM90.7669 30.8103L100.211 9.42008H95.2421L91.8471 17.6901L88.1127 9.42008H82.866L89.3164 22.789L85.8288 30.8103H90.7669Z" fill="white"/>
<path d="M16.4164 24.9779L14.184 28.944L11.9516 24.9779H16.4164ZM20.8811 17.0456L18.6049 21.0118H9.50041L7.22427 17.0456H20.8811ZM9.58795 13.0795L7.35559 17.0456L5.12323 13.0795H9.58795ZM25.6084 8.84895L23.3471 12.8151H9.58795L11.8811 8.84895H25.6084ZM14.0527 4.88282L11.7765 8.84895H2.67201L0.395874 4.88282H14.0527ZM30.0732 0.916687L27.78 4.88282H14.0527L16.3459 0.916687H30.0732Z" fill="#F5A800"/>
</svg>
