<?xml version="1.0" encoding="utf-8"?>
<!-- Generator: Adobe Illustrator 19.2.1, SVG Export Plug-In . SVG Version: 6.00 Build 0)  -->
<svg version="1.1" id="Layer_1" xmlns="http://www.w3.org/2000/svg" xmlns:xlink="http://www.w3.org/1999/xlink" x="0px" y="0px"
	 viewBox="0 0 548 301.3" enable-background="new 0 0 548 301.3" xml:space="preserve">
<line fill="none" stroke="#000000" stroke-width="9" stroke-miterlimit="10" x1="178.2" y1="172.4" x2="212.1" y2="267.6"/>
<line fill="none" stroke="#000000" stroke-width="9" stroke-miterlimit="10" x1="156.4" y1="164.5" x2="98.9" y2="220.6"/>
<line fill="none" stroke="#000000" stroke-width="9" stroke-miterlimit="10" x1="137.7" y1="61.9" x2="157.6" y2="126.2"/>
<line fill="none" stroke="#000000" stroke-width="9" stroke-miterlimit="10" x1="68.9" y1="139.5" x2="146.1" y2="148.8"/>
<g>
	<rect x="148.8" y="128.4" width="41.1" height="41.1"/>
	<rect x="155" y="124.4" width="28.1" height="52.1"/>
	<rect x="155.2" y="123.3" transform="matrix(4.489748e-11 -1 1 4.489748e-11 19.8641 318.5719)" width="28.1" height="52.1"/>
	<rect x="160.6" y="118.5" transform="matrix(9.678309e-11 -1 1 9.678309e-11 18.9741 317.6924)" width="15.4" height="61.8"/>
	<rect x="161.1" y="119.4" transform="matrix(-1 -1.417281e-10 1.417281e-10 -1 337.6935 300.636)" width="15.4" height="61.8"/>
</g>
<linearGradient id="SVGID_1_" gradientUnits="userSpaceOnUse" x1="93.9007" y1="190.1411" x2="157.656" y2="190.1411">
	<stop  offset="0" style="stop-color:#D7DF23"/>
	<stop  offset="1" style="stop-color:#EE2A7B"/>
</linearGradient>
<line fill="none" stroke="url(#SVGID_1_)" stroke-width="9" stroke-miterlimit="10" x1="154.5" y1="162.1" x2="97" y2="218.2"/>
<g>
	<rect x="76.3" y="216.9" width="23.7" height="23.7"/>
	<rect x="79.9" y="214.6" width="16.2" height="30"/>
	<rect x="80" y="214" transform="matrix(4.486906e-11 -1 1 4.486906e-11 -140.9273 317.0157)" width="16.2" height="30"/>
	<rect x="83.1" y="211.2" transform="matrix(9.682483e-11 -1 1 9.682483e-11 -141.4401 316.5091)" width="8.9" height="35.6"/>
	<rect x="83.4" y="211.7" transform="matrix(-1 -1.417103e-10 1.417103e-10 -1 175.6606 459.054)" width="8.9" height="35.6"/>
</g>
<g>
	<rect x="76.3" y="214.4" fill="#D7DF23" width="23.7" height="23.7"/>
	<rect x="79.9" y="212.1" fill="#D7DF23" width="16.2" height="30"/>
	
		<rect x="80" y="211.5" transform="matrix(4.492502e-11 -1 1 4.492502e-11 -138.4198 314.4984)" fill="#D7DF23" width="16.2" height="30"/>
	
		<rect x="83.1" y="208.7" transform="matrix(9.682483e-11 -1 1 9.682483e-11 -138.9326 313.9917)" fill="#D7DF23" width="8.9" height="35.6"/>
	
		<rect x="83.4" y="209.2" transform="matrix(-1 -1.419146e-10 1.419146e-10 -1 175.6508 454.0291)" fill="#D7DF23" width="8.9" height="35.6"/>
</g>
<g>
	<rect x="123.3" y="37.9" transform="matrix(0.4043 -0.9146 0.9146 0.4043 35.0595 153.2233)" width="23.7" height="23.7"/>
	<rect x="127.8" y="35.2" transform="matrix(0.4043 -0.9146 0.9146 0.4043 35.0456 154.1663)" width="16.2" height="30"/>
	<rect x="127.3" y="34.9" transform="matrix(-0.9146 -0.4043 0.4043 -0.9146 238.9848 150.1632)" width="16.2" height="30"/>
	<rect x="130.7" y="32.5" transform="matrix(-0.9146 -0.4043 0.4043 -0.9146 238.4066 150.976)" width="8.9" height="35.6"/>
	<rect x="131.3" y="32.5" transform="matrix(-0.4043 0.9146 -0.9146 -0.4043 236.6366 -53.584)" width="8.9" height="35.6"/>
</g>
<g>
	
		<rect x="124.5" y="35.1" transform="matrix(0.4043 -0.9146 0.9146 0.4043 38.3334 152.6956)" fill="#00AEEF" width="23.7" height="23.7"/>
	
		<rect x="129" y="32.4" transform="matrix(0.4043 -0.9146 0.9146 0.4043 38.3195 153.6386)" fill="#00AEEF" width="16.2" height="30"/>
	
		<rect x="128.5" y="32.1" transform="matrix(-0.9146 -0.4043 0.4043 -0.9146 242.4662 145.3439)" fill="#00AEEF" width="16.2" height="30"/>
	
		<rect x="131.9" y="29.7" transform="matrix(-0.9146 -0.4043 0.4043 -0.9146 241.888 146.1568)" fill="#00AEEF" width="8.9" height="35.6"/>
	
		<rect x="132.6" y="29.7" transform="matrix(-0.4043 0.9146 -0.9146 -0.4043 235.8264 -58.6107)" fill="#00AEEF" width="8.9" height="35.6"/>
</g>
<linearGradient id="SVGID_2_" gradientUnits="userSpaceOnUse" x1="265.5204" y1="470.2466" x2="333.7438" y2="470.2466" gradientTransform="matrix(0.951 -0.1205 -0.1442 0.6419 -23.6756 -56.5975)">
	<stop  offset="0" style="stop-color:#EE2A7B"/>
	<stop  offset="0.5774" style="stop-color:#EF4136"/>
</linearGradient>
<line fill="none" stroke="url(#SVGID_2_)" stroke-width="9" stroke-miterlimit="10" x1="176.5" y1="161.5" x2="210.4" y2="256.8"/>
<g>
	<rect x="198.5" y="248.9" transform="matrix(0.4043 -0.9146 0.9146 0.4043 -113.2007 347.6952)" width="23.7" height="23.7"/>
	<rect x="202.9" y="246.2" transform="matrix(0.4043 -0.9146 0.9146 0.4043 -113.2145 348.6382)" width="16.2" height="30"/>
	<rect x="202.4" y="245.9" transform="matrix(-0.9146 -0.4043 0.4043 -0.9146 297.5667 584.6392)" width="16.2" height="30"/>
	<rect x="205.9" y="243.6" transform="matrix(-0.9146 -0.4043 0.4043 -0.9146 296.9885 585.4521)" width="8.9" height="35.6"/>
	<rect x="206.5" y="243.5" transform="matrix(-0.4043 0.9146 -0.9146 -0.4043 535.2227 174.05)" width="8.9" height="35.6"/>
</g>
<g>
	
		<rect x="199.7" y="246.1" transform="matrix(0.4043 -0.9146 0.9146 0.4043 -109.9267 347.1675)" fill="#EF4136" width="23.7" height="23.7"/>
	
		<rect x="204.2" y="243.5" transform="matrix(0.4043 -0.9146 0.9146 0.4043 -109.9406 348.1105)" fill="#EF4136" width="16.2" height="30"/>
	
		<rect x="203.7" y="243.1" transform="matrix(-0.9146 -0.4043 0.4043 -0.9146 301.0481 579.8199)" fill="#EF4136" width="16.2" height="30"/>
	
		<rect x="207.1" y="240.8" transform="matrix(-0.9146 -0.4043 0.4043 -0.9146 300.4698 580.6328)" fill="#EF4136" width="8.9" height="35.6"/>
	
		<rect x="207.7" y="240.8" transform="matrix(-0.4043 0.9146 -0.9146 -0.4043 534.4124 169.0233)" fill="#EF4136" width="8.9" height="35.6"/>
</g>
<g>
	<rect x="42.7" y="124.4" transform="matrix(-0.6461 -0.7633 0.7633 -0.6461 -14.2061 265.8486)" width="23.7" height="23.7"/>
	<rect x="47.2" y="120.8" transform="matrix(-0.6461 -0.7633 0.7633 -0.6461 -12.6452 265.7038)" width="16.2" height="30"/>
	<rect x="46.7" y="121.1" transform="matrix(-0.7633 0.6461 -0.6461 -0.7633 184.483 204.6298)" width="16.2" height="30"/>
	<rect x="50.6" y="118.7" transform="matrix(-0.7633 0.6461 -0.6461 -0.7633 185.3179 205.098)" width="8.9" height="35.6"/>
	<rect x="50.9" y="118.1" transform="matrix(0.6461 0.7633 -0.7633 0.6461 123.3172 5.884)" width="8.9" height="35.6"/>
</g>
<g>
	
		<rect x="40.8" y="121.6" transform="matrix(-0.6461 -0.7633 0.7633 -0.6461 -15.2298 259.7984)" fill="#009444" width="23.7" height="23.7"/>
	
		<rect x="45.3" y="118" transform="matrix(-0.6461 -0.7633 0.7633 -0.6461 -13.6688 259.6536)" fill="#009444" width="16.2" height="30"/>
	
		<rect x="44.7" y="118.3" transform="matrix(-0.7633 0.6461 -0.6461 -0.7633 179.3061 200.9512)" fill="#009444" width="16.2" height="30"/>
	
		<rect x="48.7" y="115.9" transform="matrix(-0.7633 0.6461 -0.6461 -0.7633 180.141 201.4194)" fill="#009444" width="8.9" height="35.6"/>
	
		<rect x="49" y="115.3" transform="matrix(0.6461 0.7633 -0.7633 0.6461 120.5118 6.3587)" fill="#009444" width="8.9" height="35.6"/>
</g>
<linearGradient id="SVGID_3_" gradientUnits="userSpaceOnUse" x1="822.2223" y1="134.7161" x2="928.8824" y2="134.7161" gradientTransform="matrix(0.7333 1.836010e-03 -5.670953e-02 0.9967 -532.4764 4.6468)">
	<stop  offset="0" style="stop-color:#009444"/>
	<stop  offset="1" style="stop-color:#EE2A7B"/>
</linearGradient>
<line fill="none" stroke="url(#SVGID_3_)" stroke-width="9" stroke-miterlimit="10" x1="63.3" y1="135.9" x2="140.4" y2="145.2"/>
<g>
	<g>
		<path fill="#FFFFFF" d="M468.2,194.7c-4.5,0-9,0-13.5,0c0-0.3,0-0.6,0-1c0-6.1,0-12.1,0-18.2c0-0.3,0-0.6,0-0.9
			c1.4-0.2,12.8-0.1,13.4,0.1c0,2.1,0,4.3,0,6.5c2.2,0,4.4,0,6.6,0c0-2.2,0-4.4,0-6.6c-2.2,0-4.3,0-6.6,0c0-2.3,0-4.5,0-6.7
			c-4.5,0-8.9,0-13.4,0c-0.1,2.3,0,4.5-0.1,6.8c-2.3,0-4.5,0-6.6,0c-0.2,1.1-0.1,19.5,0,20c2.2,0,4.4,0,6.6,0c0,2.2,0,4.5,0,6.7
			c1.1,0.2,12.8,0.1,13.4-0.1C468.2,199.1,468.2,196.9,468.2,194.7c2.2,0,4.4,0,6.6,0c0-2.3,0-4.5,0-6.6c-2.2,0-4.3,0-6.6,0
			C468.2,190.3,468.2,192.5,468.2,194.7z M476.3,87.4c0.3,0,0.6,0,1,0c8.7,0,17.4,0,26.1,0c0.3,0,0.6,0,0.9,0c0-3.2,0-6.3,0-9.4
			c-1.3-0.2-27.4-0.1-28,0.1c0,0.1,0,0.2,0,0.3c0,2.9,0,5.7,0,8.6C476.2,87,476.3,87.2,476.3,87.4c-0.1,0-0.3,0-0.5,0
			c-2.9,0-5.8,0-8.7,0c-0.1,0-0.2,0-0.4,0.1c0,3.1,0,6.1,0,9.2c0.2,0,0.4,0,0.5,0c2.8,0,5.6,0,8.4,0c0.2,0,0.4-0.1,0.6-0.1
			c0,0.2-0.1,0.5-0.1,0.7c0,2.7,0,5.5,0,8.2c0,0.2,0,0.4,0,0.6c6.2,0,12.4,0,18.7,0c0,3.2,0,6.3,0,9.4c-0.2,0-0.3,0-0.5,0
			c-9,0-18.1,0-27.1,0c-0.2,0-0.4,0-0.6,0.1c0,3.2,0,6.3,0,9.4c9.4,0,18.8,0,28.2,0c0-1.5,0-2.9,0-4.3c0-1.7,0-3.4,0-5.1
			c3.1,0,6.2,0,9.2,0c0.2-0.8,0.2-8.7,0-9.3c-3,0-6.1,0-9.2,0c0-3.2,0-6.3,0-9.5c-0.4,0-0.7,0-1,0c-5.6,0-11.1,0-16.7,0
			c-0.3,0-0.6,0-0.9-0.1c0-0.2-0.1-0.3-0.1-0.5c0-2.8,0-5.5,0-8.3C476.2,87.7,476.3,87.5,476.3,87.4z M401.3,115.5
			c0.3,0,0.6-0.1,0.9-0.1c2.5,0,5,0,7.4,0c0.3,0,0.6,0,0.8,0c0.2-1.2,0.1-37,0-37.6c-3,0-6.1,0-9.1,0c0,0.3,0,0.6,0,0.8
			c0,12,0,24,0,36C401.2,115,401.2,115.3,401.3,115.5c-0.3,0-0.6-0.1-0.9-0.1c-5.8,0-11.5,0-17.3,0c-0.3,0-0.6,0.1-0.9,0.1
			c0-0.3,0.1-0.5,0.1-0.8c0-12.1,0-24.1,0-36.2c0-0.2,0-0.4,0-0.6c-3.2,0-6.3,0-9.3,0c-0.2,1.2-0.1,36.9,0.1,37.5c0.3,0,0.6,0,0.9,0
			c2.5,0,5,0,7.5,0c0.3,0,0.6,0.1,0.9,0.1c0,0.3,0.1,0.6,0.1,0.9c0,2.5,0,5.1,0,7.6c0,0.3,0,0.6,0,0.9c6.3,0,12.5,0,18.8,0
			c0-0.3,0-0.6,0-0.9c0-2.5,0-5.1,0-7.6C401.2,116.1,401.2,115.8,401.3,115.5z M354.3,194.7c0,2.2,0,4.4,0,6.6c0,0,0,0.1,0.1,0.1
			c1.1,0.2,12.7,0.1,13.4-0.1c0-2.2,0-4.4,0-6.6c2.2,0,4.4,0,6.5,0c0.2-1.3,0.1-19.4-0.1-20c-2.1-0.1-4.3,0-6.5-0.1
			c0-2.3,0-4.5,0-6.7c-4.5,0-8.9,0-13.4,0c0,2.3,0,4.5,0,6.8c-2.3,0-4.5,0-6.7,0c0,6.7,0,13.4,0,20.1
			C349.9,194.7,352.1,194.7,354.3,194.7z M494.9,194.7c0,0.3,0.1,0.5,0.1,0.8c0,1.7,0,3.4,0,5.1c0,0.3,0,0.5,0,0.8
			c2.3,0,4.5,0,6.7,0c0-2.3,0-4.4,0-6.7c-1.9,0-3.7,0-5.6,0C495.7,194.7,495.3,194.7,494.9,194.7c0-0.3,0.1-0.6,0.1-0.9
			c0-6.1,0-12.1,0-18.2c0-0.3,0-0.6,0-1c0.4,0,0.7,0,0.9,0c1.7,0,3.3,0,5,0c0.3,0,0.6,0,0.8,0c0-2.3,0-4.5,0-6.8c-2.3,0-4.5,0-6.7,0
			c0-4.5,0-8.9,0-13.3c-2.2,0-4.4,0-6.6,0c0,4.4,0,8.9,0,13.4c-2.3,0-4.5,0-6.7,0c0,2.3,0,4.5,0,6.8c2.2,0,4.4,0,6.7,0
			c0,6.7,0,13.4,0,20.1c0.9,0,1.8,0,2.6,0C492.2,194.7,493.6,194.7,494.9,194.7z M260.4,87.3c0,0.3-0.1,0.5-0.1,0.8
			c0,12,0,24,0,36.1c0,0.3,0,0.5,0,0.8c3.1,0,6.2,0,9.2,0c0.2-1.6,0.1-36.9-0.1-37.5c-2.2,0-4.5,0-6.7,0
			C262,87.3,261.2,87.3,260.4,87.3c0-0.3-0.1-0.6-0.1-0.8c0-2.5,0-5.1,0-7.6c0-0.3,0-0.6,0-0.8c-0.9-0.2-27.6-0.2-28.2,0
			c0,15.6,0,31.3,0,46.9c3.2,0,6.3,0,9.4,0c0-12.5,0-25,0-37.5c0.3,0,0.6,0,0.9,0c5.7,0,11.4,0,17,0
			C259.8,87.3,260.1,87.3,260.4,87.3z M354.1,87.4c0,0.3,0.1,0.6,0.1,0.9c0,2.5,0,5,0,7.5c0,0.3,0,0.6,0,0.8c3.1,0,6.2,0,9.2,0
			c0-3.1,0-6.2,0-9.2c-0.2,0-0.3,0-0.4,0c-2.8,0-5.6,0-8.4,0C354.4,87.3,354.3,87.4,354.1,87.4c0-0.2,0.1-0.4,0.1-0.6
			c0-2.8,0-5.5,0-8.3c0-0.2,0-0.4-0.1-0.5c-1.2-0.2-27.6-0.1-28.1,0.1c-0.2,1.3-0.1,46.3,0.1,46.9c1.6,0.1,8.7,0.1,9.4-0.1
			c0-12.4,0-24.9,0-37.5c0.3,0,0.5,0,0.8,0c5.8,0,11.5,0,17.3,0C353.7,87.3,353.9,87.4,354.1,87.4z M300.8,194.6c2.1,0,4.3,0,6.4,0
			c0,0,0,0,0.1-0.1c0.2-1,0.1-19.4-0.1-20c-2.1,0-4.3,0-6.5,0c0-2.3,0-4.5,0-6.7c-6.8,0-13.4,0-20.1,0c0,15.7,0,31.3,0,47
			c2.2,0,4.4,0,6.7,0c0-4.5,0-8.9,0-13.4c1.2,0,2.3,0,3.4,0c1.1,0,2.2,0,3.3,0c1.1,0,2.2,0,3.4,0c1.1,0,2.2,0,3.4,0
			c0-0.4,0-0.6,0-0.9c0-1.7,0-3.4,0-5C300.7,195.2,300.7,194.9,300.8,194.6L300.8,194.6z M307.3,87.3L307.3,87.3c0-3.1,0-6.2,0-9.4
			c-6.3,0-12.5,0-18.8,0c0,3.1,0,6.2,0,9.4c-3.2,0-6.3,0-9.4,0c0,9.4,0,18.7,0,28.1c3.1,0,6.3,0,9.4,0c0,3.2,0,6.3,0,9.4
			c9.4,0,18.7,0,28,0c0-3.2,0-6.3,0-9.4c-1.6,0-3.1,0-4.7,0c-1.6,0-3.1,0-4.7,0c-1.5,0-3.1,0-4.6,0c-1.5,0-3.1,0-4.6,0
			c-1.6,0-3.1,0-4.7,0c-1.5,0-3.1,0-4.6,0c-0.2-1.5-0.1-8.7,0.1-9.3c9.3,0,18.6,0,27.9,0c0.2-1.2,0.1-18.2-0.1-18.8
			C313.4,87.3,310.3,87.3,307.3,87.3z M448.1,87.3L448.1,87.3c0-3.1,0-6.2,0-9.4c-6.3,0-12.5,0-18.8,0c0,3.1,0,6.2,0,9.4
			c-3.2,0-6.3,0-9.4,0c0,9.4,0,18.7,0,28.1c3.1,0,6.3,0,9.4,0c0,3.2,0,6.3,0,9.4c9.4,0,18.7,0,28,0c0-3.2,0-6.3,0-9.4
			c-1.6,0-3.1,0-4.7,0c-1.6,0-3.1,0-4.7,0c-1.5,0-3.1,0-4.6,0s-3.1,0-4.6,0c-1.6,0-3.1,0-4.7,0c-1.5,0-3.1,0-4.6,0
			c-0.2-1.5-0.1-8.7,0.1-9.3c9.3,0,18.6,0,27.9,0c0.2-1.2,0.1-18.2-0.1-18.8C454.2,87.3,451.1,87.3,448.1,87.3z M434.7,174.6
			c0-2.3,0-4.5,0-6.7c-4.5,0-8.9,0-13.4,0c0,2.2,0,4.4,0,6.7c-2.3,0-4.5,0-6.7,0c-0.2,1-0.1,19.5,0,20.1c2.2,0,4.4,0,6.6,0
			c0,0.8,0,1.6,0,2.3c0,0.7,0,1.4,0,2.2c0,0.7-0.1,1.5,0.1,2.2c6.7,0,13.3,0,20,0c0-2.3,0-4.4,0-6.7c-6.7,0-13.4,0-20,0
			c0-2.2,0-4.4,0-6.7c6.7,0,13.3,0,20,0c0-4.5,0-8.9,0-13.4C439.1,174.6,436.9,174.6,434.7,174.6z M320.7,201.4c0-1.2,0-2.3,0-3.4
			c0-1.1,0-2.2,0-3.3c0-1.1,0-2.2,0-3.4s0-2.2,0-3.4s0-2.2,0-3.4c0-1.1,0-2.2,0-3.3c0-1.1,0-2.2,0-3.4c0-1.1,0-2.2,0-3.3
			c4.5,0,8.9,0,13.4,0c0,0.8,0,1.5,0,2.2c0,0.7,0,1.5,0,2.2c0,0.7,0,1.4,0,2.1c2.3,0,4.4,0,6.6,0c0-2.2,0-4.3,0-6.6
			c-2.2,0-4.4,0-6.6,0c0-2.3,0-4.5,0-6.8c-1.9-0.2-19.5-0.1-20.1,0.1c0,11.1,0,22.3,0,33.5C316.2,201.4,318.4,201.4,320.7,201.4z
			 M401.1,208.2c0-13.5,0-26.9,0-40.3c-4.5,0-8.9,0-13.3,0c0,2.2,0,4.4,0,6.8c0.8,0,1.5,0,2.2,0c0.7,0,1.4,0,2.2,0
			c0.7,0,1.5-0.1,2.2,0.1c0,11.2,0,22.3,0,33.5c-2.2,0-4.4,0-6.6,0c0,2.3,0,4.4,0,6.6c1.4,0.1,6,0.1,6.7-0.1c0.1-2.2,0-4.3,0.1-6.6
			C396.8,208.2,398.9,208.2,401.1,208.2z M401.1,161.1c0-2.2,0-4.4,0-6.7c-2.2,0-4.4,0-6.7,0c0,2.2,0,4.4,0,6.7
			C396.7,161.1,398.9,161.1,401.1,161.1z"/>
		<path d="M448.1,87.3c3.1,0,6.1,0,9.2,0c0.2,0.6,0.2,17.6,0.1,18.8c-9.3,0-18.6,0-27.9,0c-0.2,0.6-0.3,7.8-0.1,9.3c1.5,0,3,0,4.6,0
			c1.6,0,3.1,0,4.7,0c1.5,0,3.1,0,4.6,0s3.1,0,4.6,0c1.6,0,3.1,0,4.7,0c1.5,0,3.1,0,4.7,0c0,3.2,0,6.3,0,9.4c-9.3,0-18.6,0-28,0
			c0-3.1,0-6.2,0-9.4c-3.2,0-6.3,0-9.4,0c0-9.4,0-18.7,0-28.1c3.1,0,6.2,0,9.4,0c0-3.2,0-6.3,0-9.4c6.3,0,12.5,0,18.8,0
			C448.1,81.1,448.1,84.2,448.1,87.3c-6.1,0-12.2,0-18.3,0c-0.2,0-0.3,0-0.4,0.1c-0.1,1.1-0.1,8.6,0.1,9.2
			c1.3,0.2,18.1,0.1,18.7-0.1C448.1,93.4,448.1,90.4,448.1,87.3z"/>
		<path d="M307.3,87.3c3.1,0,6.1,0,9.2,0c0.2,0.6,0.2,17.6,0.1,18.8c-9.3,0-18.6,0-27.9,0c-0.2,0.6-0.3,7.8-0.1,9.3c1.5,0,3,0,4.6,0
			c1.6,0,3.1,0,4.7,0c1.5,0,3.1,0,4.6,0c1.5,0,3.1,0,4.6,0c1.6,0,3.1,0,4.7,0c1.5,0,3.1,0,4.7,0c0,3.2,0,6.3,0,9.4
			c-9.3,0-18.6,0-28,0c0-3.1,0-6.2,0-9.4c-3.2,0-6.3,0-9.4,0c0-9.4,0-18.7,0-28.1c3.1,0,6.2,0,9.4,0c0-3.2,0-6.3,0-9.4
			c6.3,0,12.5,0,18.8,0C307.3,81.1,307.3,84.2,307.3,87.3c-6.1,0-12.2,0-18.3,0c-0.2,0-0.3,0-0.4,0.1c-0.1,1.1-0.1,8.6,0.1,9.2
			c1.3,0.2,18.1,0.1,18.7-0.1C307.3,93.4,307.3,90.4,307.3,87.3z"/>
		<path d="M300.8,194.6c0,0.3-0.1,0.6-0.1,0.9c0,1.7,0,3.4,0,5c0,0.3,0,0.5,0,0.9c-1.2,0-2.3,0-3.4,0c-1.1,0-2.2,0-3.4,0
			c-1.1,0-2.2,0-3.3,0c-1.1,0-2.2,0-3.4,0c0,4.5,0,8.9,0,13.4c-2.3,0-4.5,0-6.7,0c0-15.7,0-31.3,0-47c6.7,0,13.4,0,20.1,0
			c0,2.2,0,4.4,0,6.7c2.2,0.1,4.4,0,6.5,0c0.2,0.6,0.2,19,0.1,20c0,0,0,0.1-0.1,0.1C305,194.6,302.9,194.6,300.8,194.6
			c0-0.3-0.1-0.6-0.1-0.8c0-6,0-12.1,0-18.1c0-0.3,0-0.6,0-0.9c-0.9-0.2-12.8-0.1-13.4,0c-0.2,1.2-0.1,19.4,0.1,19.9
			c0.1,0,0.3,0,0.4,0c4.1,0,8.3,0,12.4,0C300.4,194.7,300.6,194.6,300.8,194.6z"/>
		<path d="M354.1,87.4c-0.2,0-0.4,0-0.6,0c-5.8,0-11.5,0-17.3,0c-0.2,0-0.5,0-0.8,0c0,12.5,0,25,0,37.5c-0.7,0.2-7.7,0.2-9.4,0.1
			c-0.2-0.6-0.2-45.6-0.1-46.9c0.6-0.2,26.9-0.2,28.1-0.1c0,0.2,0.1,0.3,0.1,0.5c0,2.8,0,5.5,0,8.3C354.2,87,354.1,87.2,354.1,87.4
			L354.1,87.4z"/>
		<path d="M260.5,87.3c-0.3,0-0.6,0.1-1,0.1c-5.7,0-11.4,0-17,0c-0.3,0-0.6,0-0.9,0c0,12.6,0,25,0,37.5c-3.2,0-6.3,0-9.4,0
			c0-15.6,0-31.3,0-46.9c0.6-0.2,27.4-0.2,28.2,0c0,0.3,0,0.6,0,0.8c0,2.5,0,5.1,0,7.6C260.4,86.7,260.4,87,260.5,87.3L260.5,87.3z"
			/>
		<path d="M434.7,174.6c2.2,0,4.4,0,6.6,0c0,4.5,0,8.9,0,13.4c-6.7,0-13.3,0-20,0c0,2.3,0,4.4,0,6.7c6.6,0,13.3,0,20,0
			c0,2.3,0,4.5,0,6.7c-6.7,0-13.3,0-20,0c-0.2-0.7-0.1-1.4-0.1-2.2c0-0.7,0-1.4,0-2.2c0-0.7,0-1.5,0-2.3c-2.3,0-4.5,0-6.6,0
			c-0.2-0.6-0.2-19.1,0-20.1c2.2,0,4.4,0,6.7,0c0-2.3,0-4.5,0-6.7c4.5,0,8.9,0,13.4,0C434.7,170.1,434.7,172.3,434.7,174.6z
			 M434.7,181.2c0-2.2,0-4.4,0-6.5c-0.9-0.2-12.7-0.1-13.3,0c0,2.1,0,4.3,0,6.5C425.8,181.2,430.2,181.2,434.7,181.2z"/>
		<path d="M494.9,194.7c-1.3,0-2.7,0-4,0c-0.8,0-1.6,0-2.6,0c0-6.7,0-13.3,0-20.1c-2.3,0-4.5,0-6.7,0c0-2.3,0-4.5,0-6.8
			c2.2,0,4.4,0,6.7,0c0-4.5,0-8.9,0-13.4c2.3,0,4.4,0,6.6,0c0,4.4,0,8.9,0,13.3c2.3,0,4.5,0,6.7,0c0,2.3,0,4.5,0,6.8
			c-0.3,0-0.5,0-0.8,0c-1.7,0-3.3,0-5,0c-0.3,0-0.6,0-0.9,0c0,0.4,0,0.7,0,1c0,6.1,0,12.1,0,18.2C495,194.1,494.9,194.4,494.9,194.7
			L494.9,194.7z"/>
		<path d="M354.3,194.7c-2.2,0-4.5,0-6.8,0c0-6.7,0-13.3,0-20.1c2.2,0,4.4,0,6.7,0c0-2.3,0-4.5,0-6.8c4.5,0,8.9,0,13.4,0
			c0,2.2,0,4.4,0,6.7c2.2,0.1,4.4,0,6.5,0.1c0.2,0.6,0.2,18.8,0.1,20c-2.2,0-4.3,0-6.5,0l0,0c0-0.3,0-0.6,0-1c0-6.1,0-12.1,0-18.2
			c0-0.3,0-0.6,0-0.9c-4.5,0-8.9,0-13.4,0c0,0.3,0,0.6,0,0.9c0,4,0,8,0,12C354.3,190,354.3,192.3,354.3,194.7
			C354.3,194.7,354.3,194.7,354.3,194.7z"/>
		<path d="M320.7,201.4c-2.3,0-4.5,0-6.7,0c0-11.2,0-22.3,0-33.5c0.6-0.2,18.2-0.2,20.1-0.1c0,2.2,0,4.4,0,6.8c2.3,0,4.4,0,6.6,0
			c0,2.3,0,4.4,0,6.6c-2.2,0-4.3,0-6.6,0c0-0.7,0-1.4,0-2.1c0-0.7,0-1.5,0-2.2c0-0.7,0-1.4,0-2.2c-4.5,0-8.9,0-13.4,0
			c0,1.1,0,2.2,0,3.3c0,1.1,0,2.2,0,3.4c0,1.1,0,2.2,0,3.3c0,1.1,0,2.2,0,3.4s0,2.2,0,3.4s0,2.2,0,3.4c0,1.1,0,2.2,0,3.3
			C320.7,199.1,320.7,200.2,320.7,201.4z"/>
		<path d="M401.1,208.2c-2.2,0-4.4,0-6.6,0c-0.1,2.2,0,4.4-0.1,6.6c-0.6,0.2-5.3,0.2-6.7,0.1c0-2.2,0-4.3,0-6.6c2.2,0,4.4,0,6.6,0
			c0-11.2,0-22.3,0-33.5c-0.7-0.2-1.5-0.1-2.2-0.1c-0.7,0-1.4,0-2.2,0c-0.7,0-1.5,0-2.2,0c0-2.3,0-4.5,0-6.8c4.5,0,8.9,0,13.3,0
			C401.1,181.3,401.1,194.7,401.1,208.2z"/>
		<path d="M382.2,115.5c-0.3,0-0.6-0.1-0.9-0.1c-2.5,0-5,0-7.5,0c-0.3,0-0.6,0-0.9,0c-0.2-0.6-0.2-36.3-0.1-37.5c3.1,0,6.2,0,9.3,0
			c0,0.2,0,0.4,0,0.6c0,12.1,0,24.1,0,36.2C382.3,115,382.3,115.3,382.2,115.5C382.2,115.6,382.2,115.5,382.2,115.5z"/>
		<path d="M401.3,115.6c0-0.3-0.1-0.6-0.1-0.9c0-12,0-24,0-36c0-0.3,0-0.5,0-0.8c3.1,0,6.1,0,9.1,0c0.2,0.5,0.2,36.3,0,37.6
			c-0.3,0-0.5,0-0.8,0c-2.5,0-5,0-7.4,0C401.8,115.5,401.5,115.5,401.3,115.6C401.2,115.5,401.3,115.6,401.3,115.6z"/>
		<path d="M260.4,87.3c0.8,0,1.6,0,2.4,0c2.2,0,4.5,0,6.7,0c0.2,0.6,0.2,35.9,0.1,37.5c-3,0-6.1,0-9.2,0c0-0.3,0-0.5,0-0.8
			c0-12,0-24,0-36.1C260.4,87.8,260.4,87.5,260.4,87.3C260.5,87.3,260.4,87.3,260.4,87.3z"/>
		<path d="M454.8,194.7c-2.2,0-4.4,0-6.6,0c-0.2-0.6-0.2-19,0-20c2.2,0,4.3,0,6.6,0c0.1-2.3,0-4.5,0.1-6.8c4.5,0,8.9,0,13.4,0
			c0,2.2,0,4.4,0,6.7c2.3,0,4.4,0,6.6,0c0,2.3,0,4.4,0,6.6c-2.2,0-4.3,0-6.6,0c0-2.2,0-4.3,0-6.5c-0.7-0.2-12.1-0.2-13.4-0.1
			c0,0.3,0,0.6,0,0.9c0,6.1,0,12.1,0,18.2C454.8,194.1,454.8,194.4,454.8,194.7L454.8,194.7z"/>
		<path d="M476.3,96.6c0.3,0,0.6,0.1,0.9,0.1c5.6,0,11.1,0,16.7,0c0.3,0,0.6,0,1,0c0,3.2,0,6.3,0,9.5c3.1,0,6.2,0,9.2,0
			c0.2,0.7,0.2,8.6,0,9.3c-3.1,0-6.2,0-9.2,0l0,0c0-3.1,0-6.2,0-9.4c-6.3,0-12.5,0-18.7,0c0-0.3,0-0.5,0-0.6c0-2.7,0-5.5,0-8.2
			C476.2,97,476.3,96.8,476.3,96.6C476.3,96.5,476.3,96.6,476.3,96.6z"/>
		<path d="M494.9,115.5c0,1.7,0,3.4,0,5.1c0,1.4,0,2.8,0,4.3c-9.4,0-18.8,0-28.2,0c0-3.1,0-6.2,0-9.4c0.2,0,0.4-0.1,0.6-0.1
			c9,0,18.1,0,27.1,0C494.6,115.5,494.8,115.5,494.9,115.5C495,115.5,494.9,115.5,494.9,115.5z"/>
		<path d="M476.3,87.4c0-0.2-0.1-0.4-0.1-0.5c0-2.9,0-5.7,0-8.6c0-0.1,0-0.2,0-0.3c0.6-0.2,26.7-0.2,28-0.1c0,3.1,0,6.2,0,9.4
			c-0.3,0-0.6,0-0.9,0c-8.7,0-17.4,0-26.1,0C476.9,87.3,476.6,87.4,476.3,87.4L476.3,87.4z"/>
		<path d="M382.2,115.6c0.3,0,0.6-0.1,0.9-0.1c5.8,0,11.5,0,17.3,0c0.3,0,0.6,0.1,0.9,0.1c0,0,0,0,0,0c0,0.3-0.1,0.6-0.1,0.9
			c0,2.5,0,5.1,0,7.6c0,0.3,0,0.6,0,0.9c-6.3,0-12.5,0-18.8,0c0-0.3,0-0.6,0-0.9c0-2.5,0-5.1,0-7.6
			C382.3,116.1,382.3,115.8,382.2,115.6C382.2,115.5,382.2,115.6,382.2,115.6z"/>
		<path d="M367.7,194.7c0,2.2,0,4.4,0,6.6c-0.6,0.2-12.3,0.2-13.4,0.1c0,0-0.1-0.1-0.1-0.1c0-2.2,0-4.4,0-6.6c0,0,0,0,0,0
			C358.8,194.7,363.3,194.7,367.7,194.7L367.7,194.7z"/>
		<path d="M454.8,194.7c4.5,0,9,0,13.5,0l0,0c0,2.2,0,4.4,0,6.6c-0.6,0.2-12.3,0.2-13.4,0.1C454.8,199.1,454.8,196.9,454.8,194.7
			C454.8,194.7,454.8,194.7,454.8,194.7z"/>
		<path d="M476.3,87.4c0,0.2-0.1,0.3-0.1,0.5c0,2.8,0,5.5,0,8.3c0,0.2,0,0.3,0.1,0.5c0,0,0,0,0,0c-0.2,0-0.4,0.1-0.6,0.1
			c-2.8,0-5.6,0-8.4,0c-0.2,0-0.3,0-0.5,0c0-3.1,0-6.1,0-9.2c0.1,0,0.2-0.1,0.4-0.1c2.9,0,5.8,0,8.7,0
			C476,87.3,476.1,87.4,476.3,87.4C476.3,87.4,476.3,87.4,476.3,87.4z"/>
		<path d="M354.1,87.4c0.2,0,0.4-0.1,0.6-0.1c2.8,0,5.6,0,8.4,0c0.1,0,0.3,0,0.4,0c0,3.1,0,6.1,0,9.2c-3.1,0-6.1,0-9.2,0
			c0-0.3,0-0.6,0-0.8c0-2.5,0-5,0-7.5C354.2,87.9,354.1,87.7,354.1,87.4C354.1,87.4,354.1,87.4,354.1,87.4z"/>
		<path d="M494.9,194.7c0.4,0,0.8-0.1,1.3-0.1c1.8,0,3.7,0,5.6,0c0,2.2,0,4.4,0,6.7c-2.2,0-4.4,0-6.7,0c0-0.2,0-0.5,0-0.8
			c0-1.7,0-3.4,0-5.1C495,195.3,494.9,195,494.9,194.7C494.9,194.7,494.9,194.7,494.9,194.7z"/>
		<path d="M401.1,161.1c-2.2,0-4.4,0-6.7,0c0-2.2,0-4.4,0-6.7c2.2,0,4.4,0,6.7,0C401.1,156.7,401.1,158.9,401.1,161.1z"/>
		<path d="M468.2,194.7c0-2.2,0-4.4,0-6.7c2.2,0,4.4,0,6.6,0c0,2.2,0,4.4,0,6.6C472.6,194.7,470.4,194.7,468.2,194.7
			C468.2,194.7,468.2,194.7,468.2,194.7z"/>
		<path fill="#FFFFFF" d="M448.1,87.3c0,3.1,0,6.1,0,9.2c-0.6,0.2-17.4,0.2-18.7,0.1c-0.1-0.6-0.2-8-0.1-9.2c0.1,0,0.3-0.1,0.4-0.1
			C435.9,87.3,442,87.3,448.1,87.3C448.1,87.3,448.1,87.3,448.1,87.3z"/>
		<path fill="#FFFFFF" d="M307.3,87.3c0,3.1,0,6.1,0,9.2c-0.6,0.2-17.4,0.2-18.7,0.1c-0.1-0.6-0.2-8-0.1-9.2c0.1,0,0.3-0.1,0.4-0.1
			C295.1,87.3,301.2,87.3,307.3,87.3C307.3,87.3,307.3,87.3,307.3,87.3z"/>
		<path fill="#FFFFFF" d="M300.8,194.6c-0.2,0-0.4,0.1-0.6,0.1c-4.1,0-8.3,0-12.4,0c-0.1,0-0.3,0-0.4,0c-0.2-0.6-0.2-18.7-0.1-19.9
			c0.6-0.2,12.5-0.2,13.4,0c0,0.3,0,0.6,0,0.9c0,6,0,12.1,0,18.1C300.7,194.1,300.7,194.4,300.8,194.6
			C300.8,194.6,300.8,194.6,300.8,194.6z"/>
		<path fill="#FFFFFF" d="M434.7,181.2c-4.5,0-8.9,0-13.3,0c0-2.2,0-4.3,0-6.5c0.6-0.2,12.4-0.2,13.3,0
			C434.7,176.9,434.7,179,434.7,181.2z"/>
		<path fill="#FFFFFF" d="M367.8,194.7c-4.5,0-9,0-13.5,0c0-2.4,0-4.7,0-7.1c0-4,0-8,0-12c0-0.3,0-0.6,0-0.9c4.5,0,8.9,0,13.4,0
			c0,0.3,0,0.6,0,0.9c0,6.1,0,12.1,0,18.2C367.7,194.1,367.7,194.4,367.8,194.7z"/>
	</g>
</g>
<g>
	<rect x="148.8" y="124" fill="#EF4179" width="41.1" height="41.1"/>
	<rect x="155" y="120" fill="#EF4179" width="28.1" height="52.1"/>
	
		<rect x="155.2" y="119" transform="matrix(4.489748e-11 -1 1 4.489748e-11 24.2166 314.2025)" fill="#EF4179" width="28.1" height="52.1"/>
	
		<rect x="160.6" y="114.1" transform="matrix(9.690033e-11 -1 1 9.690033e-11 23.3265 313.323)" fill="#EF4179" width="15.4" height="61.8"/>
	
		<rect x="161.1" y="115.1" transform="matrix(-1 -1.417281e-10 1.417281e-10 -1 337.6765 291.9141)" fill="#EF4179" width="15.4" height="61.8"/>
</g>
<linearGradient id="SVGID_4_" gradientUnits="userSpaceOnUse" x1="321.4547" y1="566.2797" x2="389.6781" y2="566.2797" gradientTransform="matrix(0.935 -0.1461 -0.2258 0.4576 -55.1995 -114.3662)">
	<stop  offset="0" style="stop-color:#00AEEF"/>
	<stop  offset="1" style="stop-color:#EE2A7B"/>
</linearGradient>
<line fill="none" stroke="url(#SVGID_4_)" stroke-width="9" stroke-miterlimit="10" x1="139.5" y1="60.7" x2="159.3" y2="125"/>
</svg>
