<?xml version="1.0" encoding="UTF-8"?>
<svg width="1200pt" height="1200pt" version="1.1" viewBox="0 0 1200 1200" xmlns="http://www.w3.org/2000/svg">
 <path d="m996 120h-792c-46.801 0-84 37.199-84 84v230.4c0 13.199 10.801 24 24 24s24-10.801 24-24v-230.4c0-20.398 15.602-36 36-36h792c20.398 0 36 15.602 36 36v792c0 20.398-15.602 36-36 36h-792c-20.398 0-36-15.602-36-36v-336c0-20.398 15.602-36 36-36h560.4l-181.2 181.2c-9.6016 9.6016-9.6016 24 0 33.602 4.8008 4.8008 10.801 7.1992 16.801 7.1992s12-2.3984 16.801-7.1992l222-222c9.6016-9.6016 9.6016-24 0-33.602l-222-222c-9.6016-9.6016-24-9.6016-33.602 0-9.6016 9.6016-9.6016 24 0 33.602l181.2 181.2h-560.4c-46.801 0-84 37.199-84 84v336c0 46.801 37.199 84 84 84h792c46.801 0 84-37.199 84-84v-792c0-46.801-37.199-84-84-84z" fill="#fff"/>
</svg>
