<svg width="136px" height="127px" viewBox="0 0 136 127" version="1.1"
  xmlns="http://www.w3.org/2000/svg"
  xmlns:xlink="http://www.w3.org/1999/xlink">
  <g stroke="none" stroke-width="1" fill="none" fill-rule="evenodd">
    <g transform="translate(2.000000, 3.000000)" fill-rule="nonzero">
      <path d="M55,0 C24.6735156,0 0,24.6735156 0,55 C0,85.3264844 24.6735156,110 55,110 C85.3264844,110 110,85.3264844 110,55 C110,24.6735156 85.3264844,0 55,0 Z" id="Path" fill="#42A7C6"></path>
      <path d="M57.2917383,105.300508 L57.2917383,98.5415234 C57.2917383,97.2748047 56.2667187,96.2497852 55,96.2497852 C53.7332812,96.2497852 52.7082617,97.2748047 52.7082617,98.5415234 L52.7082617,105.300508 C26.7405273,104.124668 5.87511719,83.2594727 4.69927734,57.2915234 L11.4582617,57.2915234 C12.7249805,57.2917383 13.75,56.2667188 13.75,55 C13.75,53.7332813 12.7249805,52.7082617 11.4582617,52.7082617 L4.69927734,52.7082617 C5.87511719,26.7405273 26.7403125,5.87511719 52.7082617,4.69927734 L52.7082617,11.4582617 C52.7082617,12.7249805 53.7332812,13.75 55,13.75 C56.2667187,13.75 57.2917383,12.7249805 57.2917383,11.4582617 L57.2917383,4.69927734 C83.2594727,5.87511719 104.124883,26.7403125 105.300723,52.7082617 L98.5417383,52.7082617 C97.2750195,52.7082617 96.25,53.7332812 96.25,55 C96.25,56.2667188 97.2750195,57.2917383 98.5417383,57.2917383 L105.300723,57.2917383 C104.124883,83.2594727 83.2594727,104.124883 57.2917383,105.300508 Z" id="Path" fill="#E6E6E6"></path>
      <path d="M59.3572461,56.1167578 C59.4519922,55.7500195 59.5832617,55.395957 59.5832617,55 C59.5832617,54.0407227 59.218457,53.1991797 58.7125,52.4624805 L73.118418,21.5941602 C73.6533789,20.4483984 73.1588086,19.0830664 72.0106836,18.5483203 C70.8670703,18.022168 69.5019531,18.5124414 68.9648437,19.6560547 L54.5692383,50.5039648 C52.254082,50.7323437 50.4167383,52.6261914 50.4167383,55 C50.4167383,57.5265625 52.4734375,59.5832617 55,59.5832617 C55.3957422,59.5832617 55.7500195,59.4519922 56.1167578,59.3572461 L74.0046484,77.2451367 C74.452168,77.6926562 75.0386914,77.9165234 75.625,77.9165234 C76.2113086,77.9165234 76.7976172,77.6926562 77.2453516,77.2451367 C78.1406055,76.3498828 78.1406055,74.8996875 77.2453516,74.0046484 L59.3572461,56.1167578 Z" id="Path" fill="#328FAB"></path>
      <path d="M58.4375,8.02076172 C71.2688281,8.02076172 82.9591211,12.8794531 91.867832,20.8018164 C83.1554883,11.4150781 70.9474219,5.31759766 57.2917383,4.69949219 L57.2917383,8.07876953 C57.6763086,8.07017578 58.0505664,8.02076172 58.4375,8.02076172 Z" id="Path" fill="#000000" opacity="0.1"></path>
      <path d="M52.7082617,8.37052734 L52.7082617,4.69949219 C26.7405273,5.87533203 5.87511719,26.7405273 4.69927734,52.7084766 L8.3703125,52.7084766 C11.0128906,29.482793 29.482793,11.0128906 52.7082617,8.37052734 Z" id="Path" fill="#000000" opacity="0.1"></path>
      <path d="M8.02076172,58.4375 C8.02076172,58.0505664 8.06996094,57.6763086 8.07876953,57.2917383 L4.69949219,57.2917383 C5.3178125,70.9465625 11.4144336,83.1541992 20.8000977,91.8661133 C12.8788086,82.9576172 8.02076172,71.2679688 8.02076172,58.4375 Z" id="Path" fill="#000000" opacity="0.1"></path>
    </g>
    <g transform="translate(117.500000, 103.000000) scale(1, -1) translate(-117.500000, -103.000000) translate(100.000000, 81.000000)" fill="#42A7C6" fill-rule="nonzero">
      <polygon points="35 26.3073684 29.4568063 20.7031579 21.3939791 28.8547368 21.3939791 2.27373675e-13 13.6060209 2.27373675e-13 13.6060209 28.8547368 5.54319372 20.7031579 0 26.3073684 17.5 44"></polygon>
    </g>
  </g>
</svg>
