<?xml version="1.0" encoding="UTF-8"?>
<svg width="1200pt" height="1200pt" version="1.1" viewBox="0 0 1200 1200" xmlns="http://www.w3.org/2000/svg">
 <g fill="#5fa4c2">
  <path d="m635.16 228.4v-117.19-16.758c0-18.398-16.172-35.977-35.156-35.156-19.102 0.82031-35.156 15.469-35.156 35.156v117.19 16.758c0 18.398 16.172 35.977 35.156 35.156 19.102-0.82031 35.156-15.469 35.156-35.156z"/>
  <path d="m403.59 277.38c-24.492-30.469-48.984-60.82-73.477-91.289-3.5156-4.3359-7.0312-8.6719-10.547-13.008-5.2734-6.5625-16.758-10.312-24.844-10.312-8.6719 0-18.867 3.8672-24.844 10.312-6.0938 6.6797-10.664 15.469-10.312 24.844 0.46875 9.8438 4.1016 17.227 10.312 24.844 24.492 30.469 48.984 60.82 73.477 91.289 3.5156 4.3359 7.0312 8.6719 10.547 13.008 5.2734 6.5625 16.758 10.312 24.844 10.312 8.6719 0 18.867-3.8672 24.844-10.312 6.0938-6.6797 10.664-15.469 10.312-24.844-0.46875-9.8438-4.2188-17.227-10.312-24.844z"/>
  <path d="m846.21 327.07c24.492-30.469 48.984-60.82 73.477-91.289 3.5156-4.3359 7.0312-8.6719 10.547-13.008 6.0938-7.5 10.312-14.883 10.312-24.844 0-8.6719-3.8672-18.867-10.312-24.844-12.773-11.719-37.383-15.234-49.688 0-24.492 30.469-48.984 60.82-73.477 91.289-3.5156 4.3359-7.0312 8.6719-10.547 13.008-6.0938 7.5-10.312 14.883-10.312 24.844 0 8.6719 3.8672 18.867 10.312 24.844 12.773 11.719 37.383 15.234 49.688 0z"/>
  <path d="m931.29 915.23c-0.82031-19.102-15.469-35.156-35.156-35.156h-46.523v-299.88c0-18.047-1.1719-35.859-4.4531-53.555-6.3281-34.57-20.625-67.852-40.781-96.562-41.719-59.062-106.99-97.734-178.95-105.47-71.367-7.6172-143.67 17.578-195.82 66.562-49.922 46.875-78.75 113.32-78.867 181.64-0.11719 27.305-0.23438 54.727-0.23438 82.031v225c-15.234-0.11719-30.469-0.23438-45.703 0.11719h-0.9375c-18.398 0-35.977 16.172-35.156 35.156 0.82031 19.102 15.469 35.156 35.156 35.156h170.74v155.04c0 18.398 16.172 35.977 35.156 35.156 19.102-0.82031 35.156-15.469 35.156-35.156v-154.92h110.16v98.789c0 18.516-0.46875 37.031-0.11719 55.547v0.70313c0 18.398 16.172 35.977 35.273 35.156 19.102-0.82031 35.156-15.469 35.156-35.156v-155.04h170.74c18.398 0 36.094-16.172 35.156-35.156zm-398.09-70.312c0 13.125-10.781 22.852-23.438 23.438s-23.438-11.133-23.438-23.438v-127.27c0-13.125 10.781-22.852 23.438-23.438s23.438 11.133 23.438 23.438zm180.47 0c0 13.125-10.781 22.852-23.438 23.438s-23.438-11.133-23.438-23.438v-173.44h-67.852c-13.125 0-22.852-10.781-23.438-23.438-0.58594-12.656 11.133-23.438 23.438-23.438h91.172c12.656 0 23.555 10.898 23.555 23.555z"/>
 </g>
</svg>
