<?xml version="1.0" encoding="UTF-8"?>
<svg width="1200pt" height="1200pt" version="1.1" viewBox="0 0 1200 1200" xmlns="http://www.w3.org/2000/svg">
 <g fill="#5fa4c2" fill-rule="evenodd">
  <path d="m616.8 30c-114-4.8008-220.8 44.398-292.8 136.8-37.199 49.199-61.199 108-68.398 169.2-9.6016 93.602 15.602 182.4 72 254.4 42 52.801 69.602 103.2 87.602 156l6 19.199c3.6016 10.801 13.199 18 25.199 18h306c10.801 0 21.602-7.1992 25.199-18l6-19.199c16.801-50.398 44.398-100.8 84-151.2 31.199-39.602 55.199-85.199 67.199-134.4 55.199-219.6-109.2-421.2-318-430.8z"/>
  <path d="m444 925.2h312c9.6016 0 16.801-7.1992 16.801-16.801v-49.199c0-9.6016-7.1992-16.801-16.801-16.801h-312c-9.6016 0-16.801 7.1992-16.801 16.801v49.199c0 9.6016 7.1992 16.801 16.801 16.801z"/>
  <path d="m444 1068h36c9.6016 57.602 60 102 120 102s110.4-44.398 120-102h36c9.6016 0 16.801-7.1992 16.801-16.801v-49.199c0-9.6016-7.1992-16.801-16.801-16.801h-312c-9.6016 0-16.801 7.1992-16.801 16.801v49.199c0 9.6016 7.1992 16.801 16.801 16.801z"/>
 </g>
</svg>
