<?xml version="1.0" encoding="UTF-8"?>
<svg xmlns="http://www.w3.org/2000/svg" xmlns:xlink="http://www.w3.org/1999/xlink" viewBox="0 0 32 32" width="32px" height="32px">
<path style=" stroke:none;fill-rule:nonzero;fill:rgb(25.882354%,65.490198%,77.64706%);fill-opacity:1;" d="M 15.9375 4.03125 C 12.917969 4.042969 9.917969 4.425781 8.355469 5.144531 C 8.355469 5.144531 5 6.675781 5 11.878906 C 5 18.078125 4.996094 25.859375 10.5625 27.363281 C 12.695312 27.9375 14.527344 28.0625 16 27.976562 C 18.675781 27.824219 20 27.007812 20 27.007812 L 19.910156 25.03125 C 19.910156 25.03125 18.175781 25.640625 16.03125 25.570312 C 13.902344 25.496094 11.660156 25.335938 11.3125 22.679688 C 11.28125 22.433594 11.265625 22.183594 11.265625 21.933594 C 15.773438 23.050781 19.617188 22.421875 20.675781 22.292969 C 23.628906 21.933594 26.199219 20.082031 26.527344 18.390625 C 27.042969 15.71875 27 11.882812 27 11.882812 C 27 6.675781 23.648438 5.148438 23.648438 5.148438 C 22 4.378906 18.957031 4.019531 15.9375 4.03125 Z M 12.707031 8 C 13.738281 8.03125 14.761719 8.492188 15.394531 9.46875 L 16.003906 10.507812 L 16.609375 9.46875 C 17.875 7.503906 20.710938 7.625 22.058594 9.148438 C 23.300781 10.597656 23.027344 11.53125 23.027344 18 L 20.578125 18 L 20.578125 12.371094 C 20.578125 9.738281 17.21875 9.636719 17.21875 12.738281 L 17.21875 16 L 14.789062 16 L 14.789062 12.738281 C 14.789062 9.636719 11.429688 9.734375 11.429688 12.371094 L 11.429688 18 L 8.976562 18 C 8.976562 11.527344 8.703125 10.585938 9.945312 9.148438 C 10.621094 8.382812 11.671875 7.972656 12.707031 8 Z M 12.707031 8 "/>
</svg>
