<?xml version="1.0" encoding="UTF-8"?>
<svg width="1200pt" height="1200pt" version="1.1" viewBox="0 0 1200 1200" xmlns="http://www.w3.org/2000/svg">
 <path d="m925 475v-200h-425v200m425 0v-200h-425v200m575-375h-750v845.75c0.50391 25.461-8.4414 50.203-25.105 69.453-16.668 19.254-39.875 31.648-65.145 34.797-28.168 2.7578-56.184-6.543-77.102-25.605-20.922-19.062-32.785-46.094-32.648-74.395v-762.5c0-13.398 7.1484-25.777 18.75-32.477 11.602-6.6992 25.898-6.6992 37.5 0 11.602 6.6992 18.75 19.078 18.75 32.477v712.5c0 6.6289 2.6328 12.988 7.3242 17.676 4.6875 4.6914 11.047 7.3242 17.676 7.3242h26.75c6.168 0 12.078-2.4492 16.441-6.8086 4.3594-4.3633 6.8086-10.273 6.8086-16.441v-784c0-4.707-1.8711-9.2227-5.1992-12.551s-7.8438-5.1992-12.551-5.1992h-94.75c-23.207 0-45.461 9.2188-61.871 25.629s-25.629 38.664-25.629 61.871v762.5c0 39.781 15.805 77.938 43.934 106.07s66.285 43.934 106.07 43.934h725c39.781 0 77.938-15.805 106.07-43.934s43.934-66.285 43.934-106.07v-825c0-6.6289-2.6328-12.988-7.3242-17.676-4.6875-4.6914-11.047-7.3242-17.676-7.3242zm-348.5 825h-251.5c-8.9297 0-17.184-4.7656-21.652-12.5-4.4648-7.7344-4.4648-17.266 0-25 4.4688-7.7344 12.723-12.5 21.652-12.5h251.5c8.9297 0 17.184 4.7656 21.652 12.5 4.4648 7.7344 4.4648 17.266 0 25-4.4688 7.7344-12.723 12.5-21.652 12.5zm223.5-125h-475c-8.9297 0-17.184-4.7656-21.652-12.5-4.4648-7.7344-4.4648-17.266 0-25 4.4688-7.7344 12.723-12.5 21.652-12.5h475c8.9297 0 17.184 4.7656 21.652 12.5 4.4648 7.7344 4.4648 17.266 0 25-4.4688 7.7344-12.723 12.5-21.652 12.5zm0-125h-475c-8.9297 0-17.184-4.7656-21.652-12.5-4.4648-7.7344-4.4648-17.266 0-25 4.4688-7.7344 12.723-12.5 21.652-12.5h475c8.9297 0 17.184 4.7656 21.652 12.5 4.4648 7.7344 4.4648 17.266 0 25-4.4688 7.7344-12.723 12.5-21.652 12.5zm25-175c0 6.6289-2.6328 12.988-7.3242 17.676-4.6875 4.6914-11.047 7.3242-17.676 7.3242h-475c-6.6289 0-12.988-2.6328-17.676-7.3242-4.6914-4.6875-7.3242-11.047-7.3242-17.676v-250c0-6.6289 2.6328-12.988 7.3242-17.676 4.6875-4.6914 11.047-7.3242 17.676-7.3242h475c6.6289 0 12.988 2.6328 17.676 7.3242 4.6914 4.6875 7.3242 11.047 7.3242 17.676zm-50-25v-200h-425v200m425 0v-200h-425v200m425 0v-200h-425v200" fill="#5fa4c2"/>
</svg>
