<svg width="85" height="36" viewBox="0 0 85 36" fill="none" xmlns="http://www.w3.org/2000/svg">
<path d="M74.5365 18.3391V16.2198C74.5365 15.3155 74.5836 14.4772 74.6778 13.7049C74.772 12.9136 75.0075 12.1507 75.3842 11.416C75.761 10.6625 76.3544 9.90894 77.1644 9.15541C76.3544 8.42071 75.761 7.68602 75.3842 6.95133C75.0263 6.1978 74.7908 5.42543 74.6778 4.63422C74.5836 3.82417 74.5365 2.97645 74.5365 2.09105V0H77.6731V0.67818L77.6448 1.38461V1.92151L77.6166 2.4584C77.6166 3.32496 77.7202 4.14442 77.9274 4.91679C78.1346 5.67032 78.6432 6.3956 79.4533 7.09261C80.301 6.35792 80.8191 5.60439 81.0075 4.83202C81.2147 4.04081 81.3183 3.21193 81.3183 2.34537V1.86499L81.29 1.3281V0.649921L81.2618 0H84.4266V2.09105C84.4266 2.95761 84.3701 3.79591 84.2571 4.60596C84.1629 5.39717 83.9274 6.16954 83.5506 6.92307C83.1739 7.65776 82.5804 8.40187 81.7704 9.15541C82.5993 9.90894 83.1927 10.6625 83.5506 11.416C83.9274 12.1507 84.1629 12.9136 84.2571 13.7049C84.3701 14.4772 84.4266 15.3155 84.4266 16.2198V18.3391H81.2618L81.29 17.6326V16.9545L81.3183 16.4176V15.9372C81.3183 15.0518 81.2147 14.2417 81.0075 13.507C80.8002 12.7535 80.2822 12 79.4533 11.2465C78.6432 11.9623 78.1346 12.6876 77.9274 13.4223C77.7202 14.1381 77.6166 14.9482 77.6166 15.8524L77.6448 16.3893V16.9262L77.6731 17.6044V18.3391H74.5365Z" fill="black"/>
<path d="M68.1682 18.3391C66.3408 18.3391 65.0598 17.9906 64.3251 17.2935C63.5905 16.5777 63.2231 15.372 63.2231 13.6766V0.0282593H66.3879L66.4727 13.6766V13.8179C66.4727 13.9686 66.4727 14.1381 66.4727 14.3265C66.4916 14.5149 66.5292 14.675 66.5857 14.8069H66.5575C66.6517 14.9576 66.8589 15.08 67.1791 15.1742C67.4994 15.2684 67.8479 15.3155 68.2247 15.3155C68.6203 15.3155 68.9876 15.259 69.3267 15.146C69.6846 15.0141 69.8824 14.8446 69.9201 14.6373L69.9766 0.0282593H73.1132V12.7724C73.1132 13.6766 73.0661 14.4772 72.9719 15.1742C72.8777 15.8713 72.6705 16.4552 72.3503 16.9262C72.0488 17.3783 71.5591 17.7268 70.8809 17.9717C70.2215 18.2166 69.3173 18.3391 68.1682 18.3391Z" fill="black"/>
<path d="M54.4525 18.3391V0H57.6456V15.3438H62.2233V18.3391H54.4525Z" fill="black"/>
<path d="M47.8023 18.3391C45.975 18.3391 44.694 17.9811 43.9593 17.2653C43.2434 16.5306 42.8855 15.3344 42.8855 13.6766V4.66248C42.8855 2.98587 43.2434 1.78964 43.9593 1.07378C44.694 0.357928 45.975 0 47.8023 0C49.6108 0 50.8823 0.357928 51.617 1.07378C52.3706 1.7708 52.7473 2.96703 52.7473 4.66248V12.7724C52.7473 13.6766 52.7002 14.4772 52.606 15.1742C52.5119 15.8713 52.2952 16.4552 51.9561 16.9262C51.6359 17.3972 51.1461 17.7551 50.4867 18C49.8274 18.226 48.9326 18.3391 47.8023 18.3391ZM47.8588 15.2873C48.6877 15.2873 49.1775 15.0895 49.3282 14.6939C49.4977 14.2794 49.5825 13.6389 49.5825 12.7724V4.66248C49.5825 4.11617 49.5448 3.72998 49.4695 3.50392C49.413 3.25902 49.2623 3.11774 49.0174 3.08006C48.7725 3.02354 48.3674 2.99529 47.8023 2.99529C47.2371 2.99529 46.8227 3.04238 46.559 3.13657C46.3141 3.21193 46.1539 3.37205 46.0786 3.61695C46.0221 3.84301 45.9938 4.19152 45.9938 4.66248L46.0503 12.9136C46.0503 13.5541 46.088 14.0439 46.1634 14.383C46.2387 14.7221 46.4083 14.9576 46.672 15.0895C46.9357 15.2213 47.3313 15.2873 47.8588 15.2873Z" fill="black"/>
<path d="M36.3616 18.3391V2.96703H33.4228V0H42.4369V2.96703H39.4982V18.3391H36.3616Z" fill="black"/>
<path d="M28.0442 18.3391C26.2169 18.3391 24.9359 17.9811 24.2012 17.2653C23.4853 16.5306 23.1274 15.3344 23.1274 13.6766V4.66248C23.1274 2.98587 23.4853 1.78964 24.2012 1.07378C24.9359 0.357928 26.2169 0 28.0442 0C29.8526 0 31.1242 0.357928 31.8589 1.07378C32.6125 1.7708 32.9892 2.96703 32.9892 4.66248V12.7724C32.9892 13.6766 32.9421 14.4772 32.8479 15.1742C32.7537 15.8713 32.5371 16.4552 32.198 16.9262C31.8778 17.3972 31.388 17.7551 30.7286 18C30.0693 18.226 29.1745 18.3391 28.0442 18.3391ZM28.1007 15.2873C28.9296 15.2873 29.4194 15.0895 29.5701 14.6939C29.7396 14.2794 29.8244 13.6389 29.8244 12.7724V4.66248C29.8244 4.11617 29.7867 3.72998 29.7114 3.50392C29.6548 3.25902 29.5041 3.11774 29.2592 3.08006C29.0143 3.02354 28.6093 2.99529 28.0442 2.99529C27.479 2.99529 27.0646 3.04238 26.8008 3.13657C26.5559 3.21193 26.3958 3.37205 26.3205 3.61695C26.264 3.84301 26.2357 4.19152 26.2357 4.66248L26.2922 12.9136C26.2922 13.5541 26.3299 14.0439 26.4052 14.383C26.4806 14.7221 26.6501 14.9576 26.9139 15.0895C27.1776 15.2213 27.5732 15.2873 28.1007 15.2873Z" fill="black"/>
<path d="M11.707 18.3391V0H16.6803C18.0555 0 19.1198 0.207221 19.8734 0.621664C20.6269 1.01727 21.1261 1.65777 21.371 2.54317C21.484 2.91993 21.5594 3.38147 21.5971 3.92778C21.6347 4.47409 21.6536 4.99215 21.6536 5.48194C21.6536 5.97174 21.6536 6.32966 21.6536 6.55572C21.6536 7.30925 21.6159 8.03453 21.5406 8.73154C21.4652 9.42856 21.2486 10.0408 20.8906 10.5683C20.5327 11.0769 19.9299 11.4537 19.0822 11.6986L21.6818 18.3391H18.2909L15.8043 12.0094H14.8718V18.3391H11.707ZM14.8718 9.04238C15.7384 9.04238 16.4165 9.02354 16.9063 8.98586C17.415 8.94818 17.7823 8.85399 18.0084 8.70329C18.2344 8.53374 18.3757 8.27942 18.4322 7.94034C18.4888 7.58241 18.517 7.08319 18.517 6.44269C18.517 6.27315 18.517 5.99057 18.517 5.59497C18.517 5.19937 18.4888 4.79434 18.4322 4.3799C18.3757 3.94662 18.2533 3.62637 18.0649 3.41915C17.7635 3.11774 17.3019 2.96703 16.6803 2.96703H14.8718V9.04238Z" fill="black"/>
<path d="M0.141968 18.3391V0.0282593H5.11527C6.6035 0.0282593 7.70554 0.244899 8.42139 0.67818C9.13725 1.11146 9.6082 1.70486 9.83426 2.4584C10.0603 3.21193 10.1734 4.07849 10.1734 5.05808V5.67974L10.1451 6.30141V6.81004L10.1168 7.37519C10.1168 8.52432 9.95671 9.41914 9.63646 10.0596C9.33505 10.7001 8.88293 11.1617 8.2801 11.4443C7.69612 11.708 6.98026 11.8681 6.13254 11.9246C5.30366 11.9811 4.37116 12.0094 3.33506 12.0094V18.3391H0.141968ZM3.33506 9.04238C4.22046 9.04238 4.90805 9.03296 5.39785 9.01412C5.88764 8.99528 6.24557 8.93876 6.47163 8.84457C6.69769 8.73154 6.83898 8.562 6.89549 8.33594C6.95201 8.09104 6.98026 7.74253 6.98026 7.29042V4.74725C6.98026 4.12559 6.83898 3.6923 6.5564 3.44741C6.27383 3.20251 5.9159 3.07064 5.48262 3.0518C5.04934 3.01413 4.59722 2.99529 4.12626 2.99529H3.33506V9.04238Z" fill="black"/>
<path d="M80.8059 35.9999C79.9351 35.9999 79.2427 35.9071 78.7288 35.7216C78.2291 35.5217 77.858 35.2433 77.6153 34.8864C77.3726 34.5152 77.2155 34.0584 77.1442 33.5159C77.0871 32.9735 77.0585 32.3596 77.0585 31.6743H79.4354V32.0812L79.414 32.4667V32.8093C79.414 33.1662 79.4783 33.4089 79.6067 33.5373C79.7352 33.6658 80.0779 33.7301 80.6346 33.7301H80.9987C81.3555 33.7015 81.6125 33.673 81.7695 33.6444C81.9409 33.6016 82.0479 33.5159 82.0908 33.3875C82.1336 33.2447 82.155 33.0163 82.155 32.7022V32.4667L82.1764 32.1883V31.8885L82.1978 31.3317C82.1978 31.2318 82.1907 31.0819 82.1764 30.882C82.1764 30.6822 82.1479 30.4395 82.0908 30.154C82.0337 30.0255 81.8695 29.947 81.5982 29.9184C81.3413 29.8756 81.1057 29.8542 80.8916 29.8542H80.8059C79.9351 29.8542 79.2427 29.7614 78.7288 29.5758C78.2291 29.3902 77.858 29.119 77.6153 28.7621C77.3726 28.4052 77.2155 27.9698 77.1442 27.4558C77.0871 26.9276 77.0585 26.3209 77.0585 25.6356C77.0585 24.3651 77.3369 23.4657 77.8936 22.9375C78.4504 22.395 79.4212 22.1238 80.8059 22.1238C82.205 22.1238 83.1757 22.4093 83.7182 22.9803C84.275 23.5371 84.5533 24.4579 84.5533 25.7427H82.155C82.155 25.2859 82.1336 24.9647 82.0908 24.7791C82.0479 24.5792 81.9266 24.465 81.7267 24.4365C81.5411 24.3936 81.2342 24.3722 80.8059 24.3722C80.3776 24.3722 80.0636 24.3936 79.8637 24.4365C79.6781 24.4793 79.5568 24.5935 79.4997 24.7791C79.4569 24.9504 79.4354 25.2359 79.4354 25.6356V25.9783L79.414 26.4708C79.414 26.5422 79.414 26.6635 79.414 26.8348C79.4283 26.9919 79.4711 27.1703 79.5425 27.3702C79.5568 27.413 79.671 27.463 79.8851 27.5201C80.1135 27.5629 80.4205 27.5843 80.8059 27.5843C81.7481 27.5843 82.4762 27.6985 82.9901 27.9269C83.5041 28.1411 83.8681 28.448 84.0822 28.8477C84.3107 29.2332 84.4463 29.6971 84.4891 30.2396C84.5319 30.7678 84.5533 31.3531 84.5533 31.9956V32.4667C84.5533 33.7515 84.275 34.6651 83.7182 35.2076C83.1757 35.7358 82.205 35.9999 80.8059 35.9999Z" fill="black"/>
<path d="M72.1494 36C70.7646 36 69.7939 35.7359 69.2371 35.2077C68.6803 34.6652 68.4019 33.7515 68.4019 32.4667V25.6357C68.4019 24.3794 68.6732 23.48 69.2157 22.9376C69.7724 22.3808 70.7503 22.1024 72.1494 22.1024C73.5341 22.1024 74.5049 22.3808 75.0617 22.9376C75.6184 23.4943 75.8968 24.4294 75.8968 25.7428H73.5199C73.5199 25.3145 73.4984 25.0076 73.4556 24.822C73.4271 24.6221 73.3129 24.5008 73.113 24.4579C72.9274 24.4008 72.6062 24.3723 72.1494 24.3723C71.7068 24.3723 71.3856 24.3937 71.1857 24.4365C71.0002 24.4651 70.886 24.5721 70.8431 24.7577C70.8146 24.929 70.8003 25.2217 70.8003 25.6357V32.9378C70.8289 33.1805 71.0002 33.359 71.3142 33.4732C71.6283 33.5874 71.9638 33.6445 72.3207 33.6445C72.7918 33.6445 73.113 33.5945 73.2843 33.4946C73.4699 33.3804 73.5627 33.0806 73.5627 32.5952C73.5627 32.481 73.5555 32.3596 73.5413 32.2312C73.5413 32.0884 73.5341 31.9028 73.5199 31.6744H75.8968C75.8968 32.3596 75.8611 32.9735 75.7897 33.516C75.7326 34.0585 75.5827 34.5153 75.34 34.8865C75.0973 35.2434 74.7262 35.5217 74.2265 35.7216C73.7269 35.9072 73.0345 36 72.1494 36Z" fill="black"/>
<path d="M64.8056 35.9999V22.1452H67.2254V35.9999H64.8056Z" fill="black"/>
<path d="M55.2702 36V22.1024H57.6258L61.0734 29.9827V22.1024H63.4931V36H61.0948L57.6472 28.1197V36H55.2702Z" fill="black"/>
<path d="M50.2949 36C48.9102 36 47.9394 35.7287 47.3826 35.1863C46.8402 34.6295 46.5689 33.723 46.5689 32.4667V25.6357C46.5689 24.3651 46.8402 23.4586 47.3826 22.9161C47.9394 22.3737 48.9102 22.1024 50.2949 22.1024C51.6654 22.1024 52.629 22.3737 53.1858 22.9161C53.7568 23.4444 54.0423 24.3509 54.0423 25.6357V31.7815C54.0423 32.4667 54.0066 33.0734 53.9353 33.6016C53.8639 34.1299 53.6997 34.5724 53.4427 34.9293C53.2001 35.2862 52.8289 35.5574 52.3292 35.743C51.8296 35.9143 51.1515 36 50.2949 36ZM50.3377 33.6873C50.9659 33.6873 51.3371 33.5374 51.4513 33.2376C51.5797 32.9235 51.644 32.4382 51.644 31.7815V25.6357C51.644 25.2217 51.6154 24.929 51.5583 24.7577C51.5155 24.5721 51.4013 24.4651 51.2157 24.4365C51.0301 24.3937 50.7232 24.3723 50.2949 24.3723C49.8666 24.3723 49.5526 24.408 49.3527 24.4794C49.1671 24.5365 49.0458 24.6578 48.9887 24.8434C48.9458 25.0147 48.9244 25.2788 48.9244 25.6357L48.9673 31.8885C48.9673 32.3739 48.9958 32.7451 49.0529 33.0021C49.11 33.259 49.2385 33.4375 49.4384 33.5374C49.6382 33.6373 49.938 33.6873 50.3377 33.6873Z" fill="black"/>
<path d="M37.9144 36V22.1024H41.6832C42.7253 22.1024 43.5319 22.2595 44.103 22.5735C44.674 22.8733 45.0523 23.3587 45.2379 24.0297C45.3235 24.3152 45.3807 24.6649 45.4092 25.0789C45.4378 25.4929 45.452 25.8855 45.452 26.2567C45.452 26.6279 45.452 26.8991 45.452 27.0704C45.452 27.6415 45.4235 28.1911 45.3664 28.7193C45.3093 29.2475 45.1451 29.7115 44.8739 30.1112C44.6026 30.4966 44.1458 30.7822 43.5034 30.9677L45.4734 36H42.9038L41.0194 31.2033H40.3127V36H37.9144ZM40.3127 28.9548C40.9694 28.9548 41.4833 28.9406 41.8545 28.912C42.24 28.8835 42.5183 28.8121 42.6896 28.6979C42.861 28.5694 42.968 28.3767 43.0109 28.1197C43.0537 27.8485 43.0751 27.4701 43.0751 26.9848C43.0751 26.8563 43.0751 26.6421 43.0751 26.3424C43.0751 26.0426 43.0537 25.7356 43.0109 25.4216C42.968 25.0932 42.8752 24.8505 42.7325 24.6935C42.5041 24.4651 42.1543 24.3509 41.6832 24.3509H40.3127V28.9548Z" fill="black"/>
<path d="M32.842 36V24.3509H30.6149V22.1024H37.4459V24.3509H35.2189V36H32.842Z" fill="black"/>
<path d="M26.5195 36C25.1348 36 24.164 35.7359 23.6072 35.2077C23.0505 34.6652 22.7721 33.7515 22.7721 32.4667V25.6357C22.7721 24.3794 23.0433 23.48 23.5858 22.9376C24.1426 22.3808 25.1205 22.1024 26.5195 22.1024C27.9043 22.1024 28.875 22.3808 29.4318 22.9376C29.9886 23.4943 30.2669 24.4294 30.2669 25.7428H27.89C27.89 25.3145 27.8686 25.0076 27.8258 24.822C27.7972 24.6221 27.683 24.5008 27.4831 24.4579C27.2975 24.4008 26.9763 24.3723 26.5195 24.3723C26.077 24.3723 25.7558 24.3937 25.5559 24.4365C25.3703 24.4651 25.2561 24.5721 25.2133 24.7577C25.1847 24.929 25.1704 25.2217 25.1704 25.6357V32.9378C25.199 33.1805 25.3703 33.359 25.6844 33.4732C25.9984 33.5874 26.3339 33.6445 26.6908 33.6445C27.1619 33.6445 27.4831 33.5945 27.6544 33.4946C27.84 33.3804 27.9328 33.0806 27.9328 32.5952C27.9328 32.481 27.9257 32.3596 27.9114 32.2312C27.9114 32.0884 27.9043 31.9028 27.89 31.6744H30.2669C30.2669 32.3596 30.2312 32.9735 30.1599 33.516C30.1028 34.0585 29.9529 34.5153 29.7102 34.8865C29.4675 35.2434 29.0963 35.5217 28.5967 35.7216C28.097 35.9072 27.4046 36 26.5195 36Z" fill="black"/>
<path d="M14.8057 36V22.1024H21.5724V24.3509H17.204V27.5844H20.2876V29.8542H17.204V33.7301H21.5724V36H14.8057Z" fill="black"/>
<path d="M8.07352 36V22.1024H10.4933V33.7301H13.9623V36H8.07352Z" fill="black"/>
<path d="M0 36V22.1024H6.76677V24.3509H2.39835V27.5844H5.48194V29.8542H2.39835V33.7301H6.76677V36H0Z" fill="black"/>
</svg>
