<?xml version="1.0" encoding="UTF-8"?>
<svg width="1200pt" height="1200pt" version="1.1" viewBox="0 0 1200 1200" xmlns="http://www.w3.org/2000/svg">
 <g fill="#318eab">
  <path d="m470.22 1039.8c-14.699-11.188-16.684-33.789-4.6914-48.062l44.805-53.305c11.82-14.066 33.641-16.031 47.762-4.1992 14.211 11.828 16.703 33.812 4.7109 48.078l-44.801 53.301c-11.109 11.883-31.539 16.551-47.785 4.1875z"/>
  <path d="m351.15 939.42c-14.699-11.188-16.684-33.789-4.6914-48.062l44.805-53.305c11.82-14.066 33.641-16.031 47.762-4.1992 14.211 11.828 16.703 33.812 4.7109 48.078l-44.801 53.301c-11.109 11.883-31.539 16.551-47.785 4.1875z"/>
  <path d="m229.75 841.41c-14.699-11.188-16.684-33.789-4.6914-48.062l44.805-53.305c11.82-14.066 33.641-16.031 47.762-4.1992 14.211 11.828 16.703 33.812 4.7109 48.078l-44.801 53.301c-11.113 11.887-31.539 16.551-47.785 4.1875z"/>
  <path d="m113.01 738.73c-14.699-11.188-16.684-33.789-4.6914-48.062l44.805-53.305c11.82-14.066 33.641-16.031 47.762-4.1992 14.211 11.828 16.703 33.812 4.7109 48.078l-44.801 53.301c-11.113 11.883-31.543 16.551-47.785 4.1875z"/>
  <path d="m750.91 99.965c-53.348 27.543-90.266 81.199-105.94 155.61-0.64844 3.0859-1.6523 6.0938-2.9805 8.9258l-98.984 211.79c-9.8477 21.078-3.2656 46.227 15.586 59.758 23.695 16.602 58.605 8.6602 71.82-17.434l83.277-164.47c11.633-22.977 43-29.551 62.887-13.059l299.39 252.04c224.7-366.74-126.81-615.81-325.05-493.16z"/>
  <path d="m1095.9 707.13s-50.348-60.207-50.223-60.406l-282.52-234.31-69.836 137.92c-32.473 64.129-116.98 85.34-175.96 44.02-47.73-33.43-64.477-95.992-39.816-148.75l96.832-207.5c-0.51953-0.95312-17.316-87.703-86.758-133.04-38.355-25.043-82.164-41.781-131.3-41.781-100.66 0-199.39 58.715-251.52 149.58-72.109 125.66-70.684 285.18 2.3047 409.89l13.641-16.227c28.164-33.508 79.215-38.57 112.23-9.8203 31.992 27.859 35.879 76.289 8.4727 108.9 27.734-32.996 77.012-37.305 110.07-9.6133 33.055 27.691 37.367 76.887 9.6289 109.88 27.734-32.996 77.012-37.301 110.07-9.6133 33.055 27.688 37.363 76.887 9.6289 109.89 27.734-33 77.012-37.305 110.07-9.6133 33.055 27.688 37.363 76.887 9.6289 109.88l-44.258 52.656c8.9023 6.0273 17.938 12.066 27.109 18.121l46.953 40.531c31.012 26.77 77.477 25.051 106.42-3.9414 29.34-29.387 30.492-76.566 2.6211-107.35l4.1133 3.5938c26.977 32.098 74.855 36.418 107.16 9.6641 32.562-26.965 36.934-75.23 9.7383-107.59l0.21875 0.26172c23.516 27.98 63.984 35.812 95.477 17.254 41.184-24.266 49.129-78.031 19.832-112.89l-4.4844-5.3359c28.84 34.312 80.082 38.785 114.45 9.9961 34.371-28.797 38.855-79.953 10.016-114.27z"/>
 </g>
</svg>
