<svg width="30" height="30" viewBox="0 0 30 30" fill="none"
  xmlns="http://www.w3.org/2000/svg">
  <path fill="#42A7C6" d="M11.0322 15.8414C12.7676 15.8414 14.1761 17.2499 14.1773 18.9865V26.8536C14.1773 28.5902 12.7688 29.9987 11.0322 29.9987C9.2956 29.9987 7.8871 28.5902 7.8871 26.8536V18.9865C7.8871 17.2499 9.2956 15.8414 11.0322 15.8414ZM18.9143 23.706C20.6509 23.706 22.0594 25.1145 22.0594 26.8511C22.0594 28.5877 20.6509 29.9962 18.9143 29.9962C17.1777 29.9962 15.7705 28.589 15.7692 26.8536V23.706H18.9143ZM6.31892 15.8389V18.9865C6.31892 20.7244 4.90917 22.1341 3.17131 22.1341C1.43346 22.1341 0.023711 20.7244 0.023711 18.9865C0.023711 17.2486 1.43346 15.8389 3.17131 15.8389H6.31892ZM26.7964 15.8389C28.5343 15.8389 29.944 17.2486 29.944 18.9865C29.944 20.7244 28.5343 22.1341 26.7964 22.1341H18.9143C17.1765 22.1341 15.7667 20.7244 15.7667 18.9865C15.7667 17.2486 17.1765 15.8389 18.9143 15.8389H26.7964ZM11.0322 7.94806C12.7701 7.94806 14.1798 9.35781 14.1798 11.0957C14.1798 12.8335 12.7701 14.2433 11.0322 14.2433H3.1501C1.41225 14.2433 0.00250244 12.8335 0.00250244 11.0957C0.00250244 9.35781 1.41225 7.94806 3.1501 7.94806H11.0322ZM26.7727 7.94681C28.5106 7.94681 29.9203 9.35656 29.9203 11.0944C29.9203 12.8323 28.5106 14.242 26.7727 14.242H23.6276V11.0882C23.6276 9.35282 25.0336 7.94681 26.769 7.94681H26.7727ZM18.9156 0.0597156C20.6522 0.0597156 22.0607 1.46821 22.0607 3.20482V11.0957C22.0607 12.8323 20.6522 14.2408 18.9156 14.2408C17.179 14.2408 15.7705 12.8323 15.7705 11.0957V3.20482C15.7705 1.46821 17.179 0.0597156 18.9156 0.0597156ZM11.036 0.0572205C12.7701 0.0572205 14.1761 1.46322 14.1773 3.19859V6.35243H11.0322C9.29435 6.35243 7.88461 4.94268 7.88461 3.20482C7.88461 1.46697 9.29435 0.0572205 11.0322 0.0572205H11.036Z" />
</svg>
