<svg width="600px" height="427px" viewBox="0 0 600 427" version="1.1"
  xmlns="http://www.w3.org/2000/svg"
  xmlns:xlink="http://www.w3.org/1999/xlink">
  <g stroke="none" stroke-width="1" fill="none" fill-rule="evenodd">
    <g transform="translate(-720.000000, -190.000000)">
      <g id="Costumer-Ilustration" transform="translate(720.000000, 190.000000)">
        <path d="M123.090279,60.0472369 L75.1813987,87.6854424 C71.0763364,90.0534901 67.729639,95.8479999 67.7419694,100.560758 L67.8093222,124.397732 C67.8230607,129.111863 71.1931136,131.031011 75.2981759,128.661591 L90.3006125,120.007578 C91.7596407,119.16469 93.1183779,119.220974 93.9193322,120.162702 L99.2897099,126.408857 L104.596891,114.003032 C105.390976,112.140168 106.753834,110.514795 108.203246,109.678771 L123.207056,101.023385 C127.312118,98.6553377 130.658816,92.8622006 130.645119,88.1494425 L130.577759,64.3110955 C130.56402,59.5983374 127.195341,57.6791892 123.090279,60.0472369 M113.388154,89.7267682 C111.989575,90.5339636 110.84928,89.884638 110.843773,88.2771112 C110.839663,86.6709571 111.973089,84.7106254 113.371667,83.9020572 C114.77162,83.0962346 115.911915,83.7455602 115.916057,85.3517143 C115.921532,86.9592411 114.788106,88.9182 113.388154,89.7267682 M99.2086528,97.9071719 C97.8087001,98.7143673 96.668405,98.0650417 96.6642723,96.4575148 C96.6601619,94.8513607 97.7922139,92.8910291 99.1921666,92.0838337 C100.590745,91.2766383 101.73104,91.9259638 101.735182,93.5321179 C101.740657,95.1396448 100.608605,97.0999765 99.2086528,97.9071719 M85.019535,106.093067 C83.6209562,106.898889 82.4806611,106.249564 82.4751545,104.64341 C82.4710442,103.035883 83.60447,101.076924 85.0030488,100.268356 C86.4030015,99.4611603 87.5432966,100.110486 87.5474294,101.718013 C87.5515397,103.324167 86.4194877,105.284498 85.019535,106.093067" id="Fill-4" fill="#33647E"></path>
        <path d="M83.7018139,100.954242 C82.367636,101.67457 81.2864015,103.419743 81.2903226,104.851837 C81.2955756,106.282708 82.3833631,106.861171 83.7175409,106.14329 C85.0530294,105.422962 86.1329533,103.676566 86.1290323,102.245695 C86.1250898,100.813601 85.0373023,100.235138 83.7018139,100.954242" id="Fill-5" fill="#FFFFFE"></path>
        <path d="M98.2185921,91.2768766 C96.8827442,91.9960348 95.8025295,93.7425618 95.8064516,95.1735398 C95.8103951,96.6057409 96.8984754,97.1842474 98.2343234,96.4650892 C99.5701714,95.745931 100.650386,93.999404 100.645161,92.5672029 C100.641209,91.1362249 99.5531292,90.5577184 98.2185921,91.2768766" id="Fill-6" fill="#FFFFFE"></path>
        <path d="M112.734068,84.5018718 C111.399892,85.2221991 110.31866,86.9685953 110.322581,88.3994662 C110.327834,89.83156 111.415619,90.4100232 112.749795,89.6909188 C114.085281,88.9705915 115.166514,87.2254183 115.16129,85.7933244 C115.15734,84.3624536 114.069554,83.7839904 112.734068,84.5018718" id="Fill-7" fill="#FFFFFE"></path>
        <path d="M547.902146,143.8934 C545.184906,142.336203 542.957194,143.597462 542.94868,146.696356 L542.90325,162.371208 C542.894761,165.470102 545.109703,169.279248 547.825524,170.836446 L557.749484,176.528321 C558.710096,177.07792 559.609694,178.146115 560.136115,179.370735 L563.646535,187.527351 L567.199523,183.420859 C567.728782,182.800798 568.62838,182.765567 569.593249,183.319394 L579.518627,189.00986 C582.234449,190.567058 584.462161,189.305798 584.472094,186.205495 L584.516105,170.532052 C584.524594,167.433158 582.311071,163.624013 579.595249,162.066815 L547.902146,143.8934 M554.319943,163.408401 C553.394804,162.877121 552.644193,161.589086 552.647023,160.532165 C552.649869,159.475243 553.404737,159.048247 554.331294,159.579526 C555.256433,160.109396 556.005626,161.39884 556.002796,162.455762 C555.99995,163.511274 555.245082,163.93968 554.319943,163.408401 M563.700454,168.787427 C562.775315,168.256148 562.026123,166.966703 562.028953,165.909782 C562.031799,164.854269 562.786667,164.427273 563.711806,164.958552 C564.636945,165.488422 565.387556,166.777867 565.383317,167.834788 C565.380461,168.89171 564.627012,169.317297 563.700454,168.787427 M573.08806,174.169272 C572.161503,173.637992 571.41231,172.348548 571.41514,171.293036 C571.417986,170.236114 572.171435,169.809118 573.097993,170.340397 C574.024551,170.871676 574.772324,172.161121 574.769494,173.216633 C574.766648,174.273555 574.013199,174.700551 573.08806,174.169272" id="Fill-8" fill="#33647E"></path>
        <path d="M572.909776,170.528925 C573.979035,171.008782 574.841975,172.173421 574.83871,173.126771 C574.835425,174.081394 573.965936,174.467061 572.898313,173.987204 C571.829054,173.507347 570.964476,172.342708 570.967742,171.389358 C570.971026,170.434735 571.840516,170.049068 572.909776,170.528925" id="Fill-9" fill="#FFFFFE"></path>
        <path d="M565.167834,164.722533 C566.235453,165.201182 567.101666,166.36598 567.096774,167.320733 C567.093478,168.275486 566.223991,168.659933 565.154735,168.181283 C564.087116,167.701361 563.222541,166.536563 563.225806,165.58181 C563.229091,164.628331 564.100215,164.242611 565.167834,164.722533" id="Fill-10" fill="#FFFFFE"></path>
        <path d="M554.523494,158.916034 C555.590665,159.394646 556.454877,160.559355 556.451613,161.514034 C556.44833,162.467441 555.577571,162.854404 554.5104,162.374519 C553.44323,161.894633 552.577381,160.731197 552.580645,159.776518 C552.583928,158.821839 553.454687,158.436148 554.523494,158.916034" id="Fill-11" fill="#FFFFFE"></path>
        <path d="M242.53223,5.56080638 C249.158026,1.66602328 254.555189,4.73412989 254.676536,12.3973788 C255.998937,11.0359591 257.428896,9.85840128 258.92918,8.9769873 C259.625544,8.56715787 260.338455,8.22189061 261.061018,7.9510102 C266.374066,5.9650217 270.490195,8.81838893 270.931455,14.8619695 C270.946624,15.1314464 270.963171,15.4009232 270.96455,15.6718037 C271.114854,22.8129411 265.936942,31.6874325 259.766195,35.3141422 L243.744316,44.7289909 L243.707085,31.4011133 L249.277994,28.1266884 L239.954995,20.8044962 L230.709217,39.0390987 L236.281505,35.7646739 L236.318736,49.093955 L216.179349,60.927078 C212.339007,63.1839469 209.083334,61.5460327 209.032258,57.0786112 C209.015766,51.5066152 212.689257,44.8861857 217.314215,41.924747 C217.265952,41.48404 217.225962,41.0391225 217.224584,40.5619238 C217.209415,34.6488711 221.296587,27.441768 226.353152,24.4705046 C227.976162,23.5161073 229.492994,23.1203132 230.811258,23.2115423 C232.110218,16.2640914 236.853764,8.89698635 242.53223,5.56080638" id="Fill-12" fill="#33647E"></path>
        <path d="M31.9304579,153.512015 C38.2455798,149.878266 43.3887515,152.740713 43.5046893,159.892654 C44.7646407,158.621538 46.1279583,157.52306 47.5569275,156.700246 C48.2218242,156.318772 48.9006893,155.995772 49.5893324,155.743777 C54.6542808,153.889312 58.5766127,156.554061 58.9970621,162.192636 C59.0124274,162.444632 59.0277926,162.698019 59.0291895,162.948623 C59.1730642,169.614672 54.238022,177.898505 48.355921,181.283042 L33.0856461,190.070866 L33.0493282,177.629802 L38.358724,174.573834 L29.4734131,167.740716 L20.660738,184.758075 L25.9715306,181.703499 L26.0078485,194.14317 L6.812448,205.187817 C3.15272239,207.294277 0.0489398344,205.765597 0,201.595836 C-0.01531489,196.395816 3.48656759,190.215659 7.89360358,187.452061 C7.84890464,187.04135 7.81118991,186.62507 7.80979307,186.179553 C7.79442781,180.66071 11.6902197,173.934795 16.509324,171.161451 C18.0570248,170.271809 19.5027561,169.901473 20.7585169,169.9864 C21.9975156,163.502735 26.5176958,156.626457 31.9304579,153.512015" id="Fill-13" fill="#F3F9FA"></path>
        <path d="M450.832667,60.3732152 C441.617654,55.0519814 434.113824,59.2435909 433.944223,69.716408 C432.106184,67.8557692 430.116469,66.2461581 428.030234,65.0420531 C427.060885,64.4820684 426.072233,64.0089779 425.065655,63.6393328 C417.67765,60.9249243 411.952567,64.8268865 411.340347,73.0845918 C411.316906,73.4528576 411.294844,73.8225026 411.294844,74.1921477 C411.083876,83.9505015 418.284355,96.0812043 426.867843,101.036931 L449.147683,113.904165 L449.198702,95.6881116 L441.450811,91.2137512 L454.41636,81.2071283 L467.271599,106.126447 L459.525087,101.652086 L459.472689,119.86814 L487.478992,136.041491 C492.81937,139.125545 497.347591,136.886985 497.419355,130.779566 C497.439975,123.165981 492.331248,114.117953 485.901561,110.071167 C485.967747,109.468424 486.022902,108.860165 486.02428,108.207769 C486.047721,100.126611 480.362625,90.2772251 473.331748,86.2166465 C471.073153,84.9132338 468.963477,84.3711797 467.130954,84.4953142 C465.324629,75.0017807 458.728098,64.9330905 450.832667,60.3732152" id="Fill-14" fill="#33647E"></path>
        <path d="M350.345215,12.1972167 C345.209959,9.21163423 340.56284,8.96730794 337.246875,10.9981819 C336.652134,11.3569037 336.619872,12.4457798 337.143076,13.5148839 C337.47832,14.1984326 337.966457,14.7308661 338.458801,15.0161489 C338.900649,15.2731858 339.3439,15.3339143 339.684754,15.1291321 C342.383534,13.4866381 346.160984,13.6815342 350.333993,16.1064372 C354.5056,18.5327526 358.264815,22.7187821 360.952373,27.4923246 C361.289019,28.0897235 361.729464,28.5444811 362.168507,28.8001057 C362.660852,29.0853884 363.150392,29.122108 363.48844,28.8297638 C364.024269,28.3764185 363.997618,27.2451737 363.405681,26.1958417 C360.105147,20.327774 355.472055,15.1785623 350.345215,12.1972167" id="Fill-15" fill="#F3F9FA"></path>
        <path d="M350.81482,26.4905647 C349.475391,25.648486 348.390693,26.3291771 348.387097,27.9951133 C348.383518,29.6714616 349.459844,31.7005197 350.799273,32.5425984 C352.131526,33.379471 353.223399,32.711795 353.225806,31.0367483 C353.230574,29.3695106 352.148268,27.3274373 350.81482,26.4905647" id="Fill-16" fill="#F3F9FA"></path>
        <path d="M350.349482,3.52719918 C343.864658,-0.376322372 337.949763,-0.931718912 333.531788,1.32708454 C332.768221,1.72072899 332.691315,3.11065178 333.35051,4.49055452 C333.7474,5.32794363 334.335181,5.99356062 334.927083,6.34998778 C335.410492,6.64056896 335.896648,6.72359215 336.279804,6.52462277 C339.976785,4.64944373 344.916623,5.11465991 350.337122,8.37689886 C355.757622,11.6377064 360.683726,17.11008 364.351867,23.4169799 C364.735024,24.0783026 365.221179,24.5793046 365.704589,24.8713172 C366.29649,25.2277444 366.885645,25.2706874 367.290775,24.9156917 C367.947222,24.3273721 367.885423,22.8529947 367.117736,21.538938 C362.734094,13.9838273 356.837052,7.43072073 350.349482,3.52719918" id="Fill-17" fill="#F3F9FA"></path>
        <path d="M350.339555,18.0640368 C346.978592,15.9621057 343.971138,15.987618 341.971842,17.7196206 C341.484784,18.1490779 341.501805,19.2276818 341.971842,20.2623478 L342.046472,20.4225084 C342.369869,21.1311838 342.834669,21.6697771 343.300778,21.9617514 C343.778671,22.2608124 344.263111,22.3033329 344.606147,22.012776 C345.987454,20.8505484 348.037812,20.849131 350.327771,22.2792379 C352.617731,23.7107622 354.662852,26.2733323 356.027138,29.1505543 C356.368865,29.8691511 356.849376,30.4290047 357.32727,30.7280657 C357.795998,31.02004 358.259489,31.0625605 358.585503,30.7592474 L358.662752,30.6855452 C359.141954,30.2447491 359.164212,29.1902401 358.675845,28.1612435 C356.698807,23.9432077 353.701828,20.1645506 350.339555,18.0640368" id="Fill-18" fill="#F3F9FA"></path>
        <path d="M509.048555,169.308379 C505.379711,167.070414 502.062732,166.886613 499.691474,168.409958 C499.268681,168.677573 499.243647,169.495121 499.619154,170.297965 C499.858366,170.809668 500.207449,171.209619 500.557922,171.424299 C500.873626,171.616923 501.190721,171.661035 501.434105,171.508113 C503.361708,170.275909 506.061187,170.42295 509.04021,172.241847 C512.020624,174.060745 514.704804,177.200071 516.625453,180.78052 C516.864665,181.228995 517.180369,181.570131 517.493292,181.761284 C517.845156,181.975964 518.194239,182.002431 518.436232,181.78334 C518.818693,181.443675 518.800613,180.595249 518.37782,179.808579 C516.02047,175.406171 512.711835,171.544873 509.048555,169.308379" id="Fill-19" fill="#F3F9FA"></path>
        <path d="M509.038234,180.258319 C507.966588,179.656989 507.100772,180.142183 507.096774,181.33323 C507.092804,182.530729 507.953308,183.979857 509.026282,184.581188 C510.092617,185.178647 510.965072,184.702486 510.967742,183.504987 C510.971712,182.31523 510.104568,180.855778 509.038234,180.258319" id="Fill-20" fill="#F3F9FA"></path>
        <path d="M508.570557,164.054721 C503.703658,161.35277 499.269976,160.967563 495.955795,162.531778 C495.382461,162.804174 495.325271,163.765815 495.818538,164.720578 C496.117357,165.30114 496.557723,165.762012 497.002378,166.00827 C497.365537,166.210503 497.730125,166.268284 498.017507,166.129335 C500.78838,164.830637 504.494315,165.153936 508.560549,167.411523 C512.625354,169.670486 516.321281,173.457895 519.069277,177.825865 C519.359518,178.283986 519.721247,178.630672 520.084406,178.83153 C520.529061,179.077788 520.970857,179.108054 521.273965,178.863172 C521.765803,178.454578 521.72148,177.435155 521.146717,176.524416 C517.858271,171.293858 513.434597,166.756671 508.570557,164.054721" id="Fill-21" fill="#F3F9FA"></path>
        <path d="M508.559837,175.374873 C506.132983,173.83389 503.960758,173.854091 502.516983,175.123814 C502.165227,175.438359 502.178352,176.230493 502.516983,176.987999 L502.572109,177.104871 C502.804425,177.625746 503.139119,178.019649 503.47775,178.234637 C503.822943,178.453952 504.170762,178.485696 504.420141,178.272151 C505.418971,177.419416 506.899496,177.417974 508.551962,178.466938 C510.205741,179.517346 511.682329,181.395959 512.668033,183.505432 C512.914787,184.033521 513.261293,184.443296 513.606487,184.662612 C513.945118,184.877599 514.281124,184.907899 514.516065,184.685698 L514.571191,184.632311 C514.917697,184.309109 514.93476,183.535732 514.580379,182.781112 C513.152354,179.687604 510.988004,176.917298 508.559837,175.374873" id="Fill-22" fill="#F3F9FA"></path>
        <path d="M162.075772,65.1711252 C167.028043,62.484449 171.507856,62.2637912 174.705486,64.0919079 C175.278982,64.414202 175.31029,65.3944577 174.805101,66.3559909 C174.482065,66.9724955 174.01103,67.4512561 173.535726,67.7093589 C173.111652,67.939378 172.683309,67.9928708 172.354581,67.8096579 C169.751792,66.3319192 166.108742,66.5071081 162.085733,68.6896146 C158.062724,70.8721211 154.438174,74.6406894 151.845347,78.9374991 C151.522311,79.4737645 151.096814,79.8829845 150.67274,80.1130036 C150.198859,80.3711063 149.726401,80.403202 149.400519,80.13975 C148.885369,79.7318673 148.909561,78.7141666 149.480211,77.7713559 C152.66361,72.4876039 157.130616,67.8537895 162.075772,65.1711252" id="Fill-23" fill="#F3F9FA"></path>
        <path d="M162.089222,80.6324343 C163.429106,79.9107116 164.512337,80.4939574 164.516129,81.9233206 C164.521144,83.3585514 163.444204,85.0989008 162.104319,85.81945 C160.771983,86.5376522 159.682462,85.9649681 159.677419,84.5285637 C159.673655,83.1003741 160.756886,81.3506365 162.089222,80.6324343" id="Fill-24" fill="#F3F9FA"></path>
        <path d="M162.553636,56.4817474 C168.67943,52.878242 174.266197,52.365243 178.43785,54.4519951 C179.159736,54.8134579 179.232061,56.0980408 178.611157,57.3715019 C178.235886,58.1430858 177.67912,58.7589627 177.120989,59.0870596 C176.66384,59.3553762 176.205327,59.4332297 175.842337,59.2483276 C172.351631,57.5174772 167.68462,57.9470618 162.565918,60.9583244 C157.447216,63.9695871 152.793851,69.0203337 149.330438,74.8426642 C148.967448,75.4529802 148.510299,75.9145403 148.053151,76.1842471 C147.493655,76.512344 146.936889,76.552661 146.554794,76.2259543 C145.935255,75.68237 145.993934,74.3213237 146.717184,73.1090333 C150.857451,66.1341927 156.427843,60.0852529 162.553636,56.4817474" id="Fill-25" fill="#F3F9FA"></path>
        <path d="M162.563125,73.0097504 C165.925739,71.1887005 168.932944,71.210672 170.931777,72.7124889 C171.419432,73.0834196 171.400146,74.0191472 170.931777,74.9161015 L170.856012,75.0543927 C170.532286,75.6695949 170.069427,76.1348738 169.602436,76.3881923 C169.123046,76.6466806 168.640902,76.6841614 168.296513,76.4321353 C166.914824,75.4266159 164.865021,75.424031 162.575523,76.6647747 C160.284648,77.904226 158.240355,80.1246404 156.876575,82.6190523 C156.534941,83.242009 156.054174,83.7266746 155.576162,83.9851628 C155.107793,84.2384814 154.643557,84.2759622 154.317076,84.0135966 L154.239933,83.9502669 C153.761921,83.5664118 153.738502,82.6526558 154.227535,81.7608712 C156.204327,78.1045545 159.201889,74.8308004 162.563125,73.0097504" id="Fill-26" fill="#F3F9FA"></path>
        <polyline id="Fill-27" fill="#42A7C6" points="244.847518 86.1290323 241.106965 92.6865415 245.806452 90.0245133 238.437577 102.580645 240.767431 95.3973503 236.129032 98.0259289 240.770273 88.4384462 244.847518 86.1290323"></polyline>
        <path d="M246.536932,108.55717 C247.197649,108.160704 247.739127,108.481375 247.741935,109.269934 C247.743336,110.058492 247.206065,111.026335 246.545349,111.422801 L244.122723,112.876023 C243.541967,115.276682 242.164423,117.575308 240.516139,118.565015 C238.866453,119.553264 237.480492,118.91338 236.889916,117.215283 L234.429415,118.690368 C233.768699,119.088292 233.22722,118.767621 233.225806,117.979062 C233.223012,117.189046 233.760282,116.222661 234.420998,115.826195 L246.536932,108.55717" id="Fill-28" fill="#42A7C6"></path>
        <path d="M246.647947,97.9769047 L247.464777,96.3202857 C249.1237,93.2021882 250.027546,89.9110937 250.019183,87.0434959 C250.000879,80.4820666 245.272529,77.8331369 239.481739,81.1297673 C233.690948,84.4277816 228.994878,92.4410015 229.01307,99.0024308 C229.021544,101.870029 229.94925,104.128677 231.634839,105.359032 C231.756942,105.454526 234.213046,107.350573 235.654428,110.791137 L243.467644,106.343038 C244.402367,103.007657 245.777785,99.8342002 246.647947,97.9769047 M252.580568,85.5847854 C252.591718,89.3049123 251.393139,93.3945608 249.40159,97.1340634 C249.300539,97.3250521 247.396006,100.957989 246.09778,105.224786 C246.486546,105.227554 246.76163,105.527877 246.763033,106.053787 C246.764437,106.802518 246.226901,107.721478 245.565858,108.09792 L233.443934,114.999807 C232.782892,115.376248 232.241145,115.071774 232.239742,114.323043 C232.236935,113.745925 232.555527,113.073313 233.01166,112.615217 C231.693785,109.872177 229.794866,108.42869 229.695219,108.352571 C227.688231,106.891093 226.462986,104.181268 226.451685,100.461141 C226.427899,92.2887642 232.260794,82.3255224 239.474721,78.2192662 C246.694262,74.108858 252.556631,77.4124083 252.580568,85.5847854" id="Fill-29" fill="#42A7C6"></path>
        <polyline id="Fill-30" fill="#F3F9FA" points="527.410394 72.5806452 531.151434 78.7540613 526.451613 76.2471883 533.820191 88.0645161 531.490442 81.3050598 536.129032 83.7788388 531.487455 74.755199 527.410394 72.5806452"></polyline>
        <path d="M524.751563,92.0903705 C524.091003,91.7296414 523.549874,92.0207317 523.548387,92.7380116 C523.54545,93.4566843 524.08363,94.3355263 524.744191,94.6962554 L527.166738,96.0166075 C527.746203,98.1990883 529.124828,100.288253 530.773281,101.187987 C532.420259,102.086328 533.807731,101.50554 534.397517,99.9609506 L536.859875,101.302194 C537.520435,101.662923 538.061564,101.371833 538.064516,100.654553 C538.065988,99.9372734 537.527808,99.0584314 536.867247,98.6977023 L524.751563,92.0903705" id="Fill-31" fill="#F3F9FA"></path>
        <path d="M523.455888,81.9537004 C524.294068,83.7650144 525.618107,86.8599926 526.518795,90.1109962 L534.04252,94.4485046 C535.429068,91.0925384 537.795859,89.2443456 537.913773,89.1521487 C539.536147,87.9521709 540.429732,85.7507932 540.438312,82.9551003 C540.456724,76.5566371 535.933396,68.7440157 530.355952,65.5298907 C524.778507,62.3143474 520.226767,64.8958599 520.209657,71.2943231 C520.201195,74.0900161 521.072049,77.2998858 522.668852,80.3395458 L523.455888,81.9537004 M530.364476,62.6916454 C537.309999,66.6944082 542.927222,76.4077037 542.903149,84.3763506 C542.893127,88.0032338 541.712572,90.6457381 539.780498,92.0712437 C539.685315,92.1450012 537.855526,93.5520673 536.588313,96.2271951 C537.025871,96.6739954 537.331309,97.3293024 537.329888,97.8909941 C537.328468,98.6228955 536.807092,98.9193439 536.170644,98.5519748 L524.49722,91.8230213 C523.860772,91.4556522 523.343658,90.5592149 523.346499,89.8301504 C523.34792,89.3181031 523.610739,89.0244915 523.985788,89.0216547 C522.737043,84.861448 520.901572,81.3182511 520.804968,81.132439 C518.8871,77.4871163 517.732118,73.4999561 517.741998,69.8730728 C517.766213,61.9044259 523.411848,58.6832089 530.364476,62.6916454" id="Fill-32" fill="#F3F9FA"></path>
        <polyline id="Fill-36" fill="#CAD9D9" points="116.129032 334.033754 149.390166 353.225806 452.903226 176.935377 419.640702 157.741935 116.129032 334.033754"></polyline>
        <polyline id="Fill-37" fill="#CAD9D9" points="532.258065 324.256534 499.134945 343.548387 326.129032 242.781788 359.353522 223.548387 532.258065 324.256534"></polyline>
        <polyline id="Fill-38" fill="#CAD9D9" points="373.548387 196.343068 355.213366 207.096774 240 139.463384 258.335021 128.709677 373.548387 196.343068"></polyline>
        <polyline id="Fill-39" fill="#D8EFF5" points="462.652429 224.852473 498.387097 204.193548 498.313932 229.988989 462.580645 250.645161 462.652429 224.852473"></polyline>
        <polyline id="Fill-40" fill="#1E7D8A" points="467.452994 229.850451 479.032258 223.548387 478.998619 234.667037 467.419355 240.967742 467.452994 229.850451"></polyline>
        <polyline id="Fill-41" fill="#1E7D8A" points="483.906061 222.108515 495.483871 215.806452 495.448778 226.925102 483.870968 233.225806 483.906061 222.108515"></polyline>
        <polyline id="Fill-42" fill="#AFD5E4" points="497.419355 203.314147 461.662415 224.382716 461.589216 250.645161 448.402377 242.904828 444.699621 240.735572 434.864736 234.979401 431.16198 232.821362 426.774194 230.245458 426.847392 203.444555 462.593283 182.903226 497.419355 203.314147"></polyline>
        <polyline id="Fill-43" fill="#1E7D8A" points="426.774194 204.193548 464.777161 181.394294 480.967742 178.064516 443.084592 200.878073 426.774194 204.193548"></polyline>
        <polyline id="Fill-44" fill="#22ABBF" points="443.225806 200.256251 481.650256 178.064516 500.322581 203.292136 461.898131 225.483871 443.225806 200.256251"></polyline>
        <polyline id="Fill-45" fill="#1B505E" points="449.032258 242.903226 445.074387 240.767458 434.561893 235.10015 434.516129 215.806452 448.996828 223.96848 449.032258 242.903226"></polyline>
        <polyline id="Fill-46" fill="#D8EFF5" points="496.523397 244.207312 532.258065 223.548387 532.1849 249.341075 496.451613 270 496.523397 244.207312"></polyline>
        <polyline id="Fill-47" fill="#1E7D8A" points="501.323962 250.171672 512.903226 243.870968 512.869586 254.988259 501.290323 261.290323 501.323962 250.171672"></polyline>
        <polyline id="Fill-48" fill="#1E7D8A" points="518.743317 241.461503 530.322581 235.16129 530.288941 246.277714 518.709677 252.580645 518.743317 241.461503"></polyline>
        <polyline id="Fill-49" fill="#AFD5E4" points="532.258065 224.60545 496.502506 245.670778 496.427926 271.935484 483.239706 264.193909 479.538331 262.0261 469.702065 256.270047 466.002071 254.112054 461.612903 251.5348 461.687483 225.250464 497.431993 204.193548 532.258065 224.60545"></polyline>
        <polyline id="Fill-50" fill="#1E7D8A" points="461.612903 224.516129 497.324434 202.128251 515.806452 198.387097 477.946393 220.810123 461.612903 224.516129"></polyline>
        <polyline id="Fill-51" fill="#22ABBF" points="479.032258 221.545833 517.456708 199.354839 536.129032 224.581807 497.705979 246.774194 479.032258 221.545833"></polyline>
        <polyline id="Fill-52" fill="#1B505E" points="483.870968 263.225806 479.914171 261.091311 469.399131 255.423714 469.354839 236.129032 483.838487 244.291476 483.870968 263.225806"></polyline>
        <polyline id="Fill-53" fill="#D8EFF5" points="532.331226 265.496258 568.064516 244.83871 567.991354 270.632774 532.258065 291.290323 532.331226 265.496258"></polyline>
        <polyline id="Fill-54" fill="#1E7D8A" points="538.099614 270.495988 549.677419 264.193548 549.643784 275.311823 538.064516 281.612903 538.099614 270.495988"></polyline>
        <polyline id="Fill-55" fill="#1E7D8A" points="553.580564 261.784951 565.16129 255.483871 565.127651 266.600787 553.548387 272.903226 553.580564 261.784951"></polyline>
        <polyline id="Fill-56" fill="#AFD5E4" points="568.064516 243.960288 532.308974 265.025617 532.234397 291.290323 519.046693 283.547345 515.345463 281.379536 505.510962 275.624886 501.809732 273.466892 497.419355 270.889639 497.493932 244.087889 533.239806 223.548387 568.064516 243.960288"></polyline>
        <polyline id="Fill-57" fill="#1E7D8A" points="497.419355 245.806452 535.422734 223.00738 551.612903 219.677419 513.732094 242.492226 497.419355 245.806452"></polyline>
        <polyline id="Fill-58" fill="#22ABBF" points="512.903226 241.869154 551.327219 219.677419 570 244.905039 531.576007 267.096774 512.903226 241.869154"></polyline>
        <polyline id="Fill-59" fill="#1B505E" points="518.709677 283.548387 514.752881 281.413891 504.239317 275.747675 504.193548 256.451613 518.67572 264.614057 518.709677 283.548387"></polyline>
        <polyline id="Fill-60" fill="#AFD5E4" points="551.612903 222.473879 551.591469 239.032258 544.83871 227.867336 544.861272 217.741935 551.612903 222.473879"></polyline>
        <polyline id="Fill-61" fill="#D8EFF5" points="553.57018 222.437583 560.322581 217.741935 560.299641 234.335238 553.548387 239.032258 553.57018 222.437583"></polyline>
        <polyline id="Fill-62" fill="#D88B2F" points="544.83871 217.718009 552.996614 212.903226 561.290323 217.765862 553.132418 222.580645 544.83871 217.718009"></polyline>
        <polyline id="Fill-63" fill="#1E7D8A" points="561.290323 217.765155 553.131719 222.580645 544.83871 217.717309 552.994542 212.903226 561.290323 217.765155"></polyline>
        <polyline id="Fill-64" fill="#AFD5E4" points="514.83871 204.087087 514.816148 220.645161 508.064516 209.479521 508.08595 199.354839 514.83871 204.087087"></polyline>
        <polyline id="Fill-65" fill="#D8EFF5" points="514.86165 204.051859 521.612903 199.354839 521.592257 215.949513 514.83871 220.645161 514.86165 204.051859"></polyline>
        <polyline id="Fill-66" fill="#D88B2F" points="507.096774 198.363878 515.256065 193.548387 523.548387 198.410316 515.391868 203.225806 507.096774 198.363878"></polyline>
        <polyline id="Fill-67" fill="#1E7D8A" points="523.548387 198.411723 515.391169 203.225806 507.096774 198.363878 515.255377 193.548387 523.548387 198.411723"></polyline>
        <polyline id="Fill-68" fill="#AFD5E4" points="480 182.797829 479.978566 199.354839 473.225806 188.189917 473.248368 178.064516 480 182.797829"></polyline>
        <polyline id="Fill-69" fill="#D8EFF5" points="480.021789 182.761537 486.774194 178.064516 486.751257 194.659191 480 199.354839 480.021789 182.761537"></polyline>
        <polyline id="Fill-70" fill="#D88B2F" points="471.290323 179.007632 479.448926 174.193548 487.741935 179.055477 479.583332 183.870968 471.290323 179.007632"></polyline>
        <polyline id="Fill-71" fill="#1E7D8A" points="487.741935 179.055477 479.583332 183.870968 471.290323 179.007632 479.448926 174.193548 487.741935 179.055477"></polyline>
        <path d="M296.604505,119.623325 C299.827237,121.701737 299.843231,125.072457 296.641824,127.150868 C293.440417,129.22928 288.230467,129.22928 285.009069,127.150868 C281.786337,125.072457 281.76901,121.701737 284.970417,119.623325 C288.173157,117.544913 293.381774,117.544913 296.604505,119.623325" id="Fill-72" fill="#1D90A4"></path>
        <polygon id="Fill-73" fill="#1B505E" points="289.354839 125.806452 291.290323 125.806452 291.290323 114.193548 289.354839 114.193548"></polygon>
        <path d="M300,105.483871 C300,110.828097 295.66819,115.16129 290.322581,115.16129 C284.978355,115.16129 280.645161,110.828097 280.645161,105.483871 C280.645161,100.138262 284.978355,95.8064516 290.322581,95.8064516 C295.66819,95.8064516 300,100.138262 300,105.483871" id="Fill-74" fill="#1E7D8A"></path>
        <path d="M286.9361,104.516129 C285.599202,104.516129 284.516129,103.434013 284.516129,102.096774 C284.516129,100.760768 285.599202,99.6774194 286.9361,99.6774194 C288.271766,99.6774194 289.354839,100.760768 289.354839,102.096774 C289.354839,103.434013 288.271766,104.516129 286.9361,104.516129" id="Fill-75" fill="#1E8EA0"></path>
        <path d="M290.32202,100.645161 C289.787938,100.645161 289.354839,100.212062 289.354839,99.6779804 C289.354839,99.143899 289.787938,98.7096774 290.32202,98.7096774 C290.857223,98.7096774 291.290323,99.143899 291.290323,99.6779804 C291.290323,100.212062 290.857223,100.645161 290.32202,100.645161" id="Fill-76" fill="#1E8EA0"></path>
        <path d="M289.942383,95.8064516 C288.691829,95.8064516 287.49446,96.0277446 286.389085,96.4302212 C286.524203,96.4233058 286.657882,96.4108581 286.795875,96.4108581 C291.247559,96.4108581 294.856917,99.882392 294.856917,104.167178 C294.856917,108.45058 291.247559,111.923497 286.795875,111.923497 C284.329265,111.923497 282.122827,110.854375 280.645161,109.175315 C282.153013,112.688341 285.746559,115.16129 289.942383,115.16129 C295.498006,115.16129 300,110.828097 300,105.483871 C300,100.138262 295.498006,95.8064516 289.942383,95.8064516" id="Fill-77" fill="#1B505E"></path>
        <path d="M331.442787,198.010422 C334.665421,200.088834 334.682747,203.459553 331.480105,205.537965 C328.278796,207.616377 323.070338,207.616377 319.847704,205.537965 C316.625071,203.459553 316.607745,200.088834 319.809054,198.010422 C323.011696,195.93201 328.220154,195.93201 331.442787,198.010422" id="Fill-78" fill="#1D90A4"></path>
        <polygon id="Fill-79" fill="#1B505E" points="325.16129 202.258065 327.096774 202.258065 327.096774 190.645161 325.16129 190.645161"></polygon>
        <path d="M336.774194,183.871659 C336.774194,189.216267 332.441,193.548387 327.096774,193.548387 C321.752548,193.548387 317.419355,189.216267 317.419355,183.871659 C317.419355,178.525668 321.752548,174.193548 327.096774,174.193548 C332.441,174.193548 336.774194,178.525668 336.774194,183.871659" id="Fill-80" fill="#1E7D8A"></path>
        <path d="M321.774194,182.903226 C320.438867,182.903226 319.354839,181.820153 319.354839,180.484487 C319.354839,179.147589 320.438867,178.064516 321.774194,178.064516 C323.10952,178.064516 324.193548,179.147589 324.193548,180.484487 C324.193548,181.820153 323.10952,182.903226 321.774194,182.903226" id="Fill-81" fill="#1E8EA0"></path>
        <path d="M326.129032,179.032258 C325.593518,179.032258 325.16129,178.599158 325.16129,178.063955 C325.16129,177.529874 325.593518,177.096774 326.129032,177.096774 C326.663423,177.096774 327.096774,177.529874 327.096774,178.063955 C327.096774,178.599158 326.663423,179.032258 326.129032,179.032258" id="Fill-82" fill="#1E8EA0"></path>
        <path d="M326.717324,174.193548 C325.466863,174.193548 324.269582,174.414857 323.162852,174.815979 C323.299397,174.810447 323.433067,174.796615 323.571049,174.796615 C328.022403,174.796615 331.631492,178.26978 331.631492,182.554872 C331.631492,186.838581 328.022403,190.311746 323.571049,190.311746 C321.104622,190.311746 318.899786,189.242548 317.419355,187.563367 C318.928532,191.076644 322.521811,193.548387 326.717324,193.548387 C332.271096,193.548387 336.774194,189.216267 336.774194,183.871659 C336.774194,178.525668 332.271096,174.193548 326.717324,174.193548" id="Fill-83" fill="#1B505E"></path>
        <path d="M408.862969,228.978164 C412.084499,231.056576 412.101826,234.427295 408.900289,236.505707 C405.698753,238.584119 400.489925,238.584119 397.267063,236.505707 C394.0442,234.427295 394.026873,231.056576 397.229743,228.978164 C400.431279,226.899752 405.640107,226.899752 408.862969,228.978164" id="Fill-84" fill="#1D90A4"></path>
        <polygon id="Fill-85" fill="#1B505E" points="400.645161 234.193548 402.580645 234.193548 402.580645 222.580645 400.645161 222.580645"></polygon>
        <path d="M413.225806,214.839401 C413.225806,220.184009 408.893996,224.516129 403.548387,224.516129 C398.204161,224.516129 393.870968,220.184009 393.870968,214.839401 C393.870968,209.49341 398.204161,205.16129 403.548387,205.16129 C408.893996,205.16129 413.225806,209.49341 413.225806,214.839401" id="Fill-86" fill="#1E7D8A"></path>
        <path d="M398.226423,213.870968 C396.889524,213.870968 395.806452,212.787895 395.806452,211.450997 C395.806452,210.115331 396.889524,209.032258 398.226423,209.032258 C399.562089,209.032258 400.645161,210.115331 400.645161,211.450997 C400.645161,212.787895 399.562089,213.870968 398.226423,213.870968" id="Fill-87" fill="#1E8EA0"></path>
        <path d="M401.612903,210 C401.079635,210 400.645161,209.5669 400.645161,209.032819 C400.645161,208.497616 401.079635,208.064516 401.612903,208.064516 C402.148417,208.064516 402.580645,208.497616 402.580645,209.032819 C402.580645,209.5669 402.148417,210 401.612903,210" id="Fill-88" fill="#1E8EA0"></path>
        <path d="M403.168937,205.16129 C401.917038,205.16129 400.721195,205.382599 399.615902,205.785105 C399.75101,205.778189 399.88468,205.764357 400.022662,205.764357 C404.474016,205.764357 408.083105,209.237522 408.083105,213.522614 C408.083105,217.807706 404.474016,221.279488 400.022662,221.279488 C397.554798,221.279488 395.351399,220.210289 393.870968,218.531109 C395.380145,222.044386 398.973424,224.516129 403.168937,224.516129 C408.724146,224.516129 413.225806,220.184009 413.225806,214.839401 C413.225806,209.49341 408.724146,205.16129 403.168937,205.16129" id="Fill-89" fill="#1B505E"></path>
        <path d="M539.506963,306.39869 C542.729824,308.475685 542.747151,311.846523 539.545616,313.925008 C536.34408,316.003492 531.133921,316.003492 527.912392,313.925008 C524.689531,311.848012 524.672203,308.475685 527.873739,306.39869 C531.075275,304.318716 536.284101,304.318716 539.506963,306.39869" id="Fill-90" fill="#1D90A4"></path>
        <polygon id="Fill-91" fill="#1B505E" points="531.290323 310.645161 533.225806 310.645161 533.225806 299.032258 531.290323 299.032258"></polygon>
        <path d="M542.903226,290.323272 C542.903226,295.667116 538.571415,300 533.225806,300 C527.881581,300 523.548387,295.667116 523.548387,290.323272 C523.548387,284.978045 527.881581,280.645161 533.225806,280.645161 C538.571415,280.645161 542.903226,284.978045 542.903226,290.323272" id="Fill-92" fill="#1E7D8A"></path>
        <path d="M528.870968,291.290323 C527.534961,291.290323 526.451613,290.206974 526.451613,288.869735 C526.451613,287.533729 527.534961,286.451613 528.870968,286.451613 C530.206974,286.451613 531.290323,287.533729 531.290323,288.869735 C531.290323,290.206974 530.206974,291.290323 528.870968,291.290323" id="Fill-93" fill="#1E8EA0"></path>
        <path d="M533.225245,285.483871 C532.691164,285.483871 532.258065,285.051643 532.258065,284.516129 C532.258065,283.981738 532.691164,283.548387 533.225245,283.548387 C533.760449,283.548387 534.193548,283.981738 534.193548,284.516129 C534.193548,285.051643 533.760449,285.483871 533.225245,285.483871" id="Fill-94" fill="#1E8EA0"></path>
        <path d="M534.781093,280.645161 C533.529102,280.645161 532.331732,280.867821 531.227795,281.270269 C531.361475,281.263354 531.496592,281.249525 531.634584,281.249525 C536.086269,281.249525 539.695627,284.722193 539.695627,289.00529 C539.695627,293.289769 536.086269,296.762438 531.634584,296.762438 C529.166537,296.762438 526.961537,295.693393 525.483871,294.013069 C526.990285,297.527227 530.585269,300 534.781093,300 C540.336715,300 544.83871,295.667116 544.83871,290.323272 C544.83871,284.978045 540.336715,280.645161 534.781093,280.645161" id="Fill-95" fill="#1B505E"></path>
        <path d="M594.669971,270.591122 C597.891436,272.668117 597.90743,276.040444 594.707291,278.117439 C591.505818,280.197413 586.295762,280.197413 583.072964,278.117439 C579.850166,276.040444 579.834172,272.669606 583.035644,270.591122 C586.235784,268.512637 591.447173,268.512637 594.669971,270.591122" id="Fill-96" fill="#1D90A4"></path>
        <polygon id="Fill-97" fill="#1B505E" points="588.387097 275.806452 590.322581 275.806452 590.322581 264.193548 588.387097 264.193548"></polygon>
        <path d="M600,256.451613 C600,261.797222 595.666807,266.129032 590.322581,266.129032 C584.976972,266.129032 580.645161,261.797222 580.645161,256.451613 C580.645161,251.107387 584.976972,246.774194 590.322581,246.774194 C595.666807,246.774194 600,251.107387 600,256.451613" id="Fill-98" fill="#1E7D8A"></path>
        <path d="M585.000616,256.451613 C583.663718,256.451613 582.580645,255.36854 582.580645,254.031642 C582.580645,252.695976 583.663718,251.612903 585.000616,251.612903 C586.336282,251.612903 587.419355,252.695976 587.419355,254.031642 C587.419355,255.36854 586.336282,256.451613 585.000616,256.451613" id="Fill-99" fill="#1E8EA0"></path>
        <path d="M589.3554,250.645161 C588.820196,250.645161 588.387097,250.21181 588.387097,249.677419 C588.387097,249.143028 588.820196,248.709677 589.3554,248.709677 C589.889481,248.709677 590.322581,249.143028 590.322581,249.677419 C590.322581,250.21181 589.889481,250.645161 589.3554,250.645161" id="Fill-100" fill="#1E8EA0"></path>
        <path d="M589.94313,246.774194 C588.691232,246.774194 587.493951,246.995487 586.388659,247.397963 C586.525203,247.392431 586.658873,247.3786 586.795418,247.3786 C591.248209,247.3786 594.857299,250.851517 594.857299,255.13492 C594.857299,259.419705 591.248209,262.892622 586.795418,262.892622 C584.327554,262.892622 582.124155,261.8235 580.645161,260.143057 C582.154339,263.656083 585.747618,266.129032 589.94313,266.129032 C595.496903,266.129032 600,261.797222 600,256.451613 C600,251.107387 595.496903,246.774194 589.94313,246.774194" id="Fill-101" fill="#1B505E"></path>
        <path d="M483.379123,339.299791 C486.60062,341.378421 486.617947,344.749494 483.416443,346.828124 C480.214939,348.906754 475.006165,348.906754 471.783336,346.828124 C468.560506,344.749494 468.543179,341.37991 471.744683,339.299791 C474.947519,337.22265 480.156294,337.22265 483.379123,339.299791" id="Fill-102" fill="#1D90A4"></path>
        <polygon id="Fill-103" fill="#1B505E" points="477.096774 343.548387 479.032258 343.548387 479.032258 331.935484 477.096774 331.935484"></polygon>
        <path d="M487.741935,325.16129 C487.741935,330.505516 483.408742,334.83871 478.064516,334.83871 C472.72029,334.83871 468.387097,330.505516 468.387097,325.16129 C468.387097,319.817064 472.72029,315.483871 478.064516,315.483871 C483.408742,315.483871 487.741935,319.817064 487.741935,325.16129" id="Fill-104" fill="#1E7D8A"></path>
        <path d="M472.742552,323.225806 C471.405653,323.225806 470.322581,322.142734 470.322581,320.805836 C470.322581,319.470169 471.405653,318.387097 472.742552,318.387097 C474.078218,318.387097 475.16129,319.470169 475.16129,320.805836 C475.16129,322.142734 474.078218,323.225806 472.742552,323.225806" id="Fill-105" fill="#1E8EA0"></path>
        <path d="M478.064516,319.354839 C477.530125,319.354839 477.096774,318.921739 477.096774,318.386536 C477.096774,317.853576 477.530125,317.419355 478.064516,317.419355 C478.60003,317.419355 479.032258,317.853576 479.032258,318.386536 C479.032258,318.921739 478.60003,319.354839 478.064516,319.354839" id="Fill-106" fill="#1E8EA0"></path>
        <path d="M478.652808,315.483871 C477.400909,315.483871 476.205066,315.705164 475.098336,316.107641 C475.234881,316.100725 475.368551,316.086894 475.506533,316.086894 C479.957887,316.086894 483.566976,319.559811 483.566976,323.844597 C483.566976,328.128 479.957887,331.600917 475.506533,331.600917 C473.038668,331.600917 470.83527,330.533178 469.354839,328.852734 C470.864016,332.36576 474.457295,334.83871 478.652808,334.83871 C484.20658,334.83871 488.709677,330.505516 488.709677,325.16129 C488.709677,319.817064 484.20658,315.483871 478.652808,315.483871" id="Fill-107" fill="#1B505E"></path>
        <polyline id="Fill-108" fill="#42A7C6" points="383.225806 59.5168207 345.606795 81.2903226 307.741935 59.5168207 345.360947 37.7419355 383.225806 59.5168207"></polyline>
        <polyline id="Fill-109" fill="#D8EFF5" points="383.225806 59.0322581 383.135445 148.315087 345.483871 170.322581 345.574233 81.0397512 383.225806 59.0322581"></polyline>
        <polyline id="Fill-110" fill="#AFD5E4" points="344.516129 81.0397512 344.426353 170.322581 306.774194 148.315087 306.86397 59.0322581 344.516129 81.0397512"></polyline>
        <polyline id="Fill-111" fill="#42A7C6" points="375.483871 50.805755 344.615942 68.7096774 313.548387 50.8071483 344.41492 32.9032258 375.483871 50.805755"></polyline>
        <polyline id="Fill-112" fill="#33647E" points="368.709677 50.3218957 345.077063 63.8709677 321.290323 50.3232656 344.921549 36.7741935 368.709677 50.3218957"></polyline>
        <polyline id="Fill-113" fill="#33647E" points="344.921549 42.1052175 364.819044 53.2258065 368.709677 51.0361002 344.921549 37.7419355 321.290323 51.0374444 325.180956 53.2110202 344.921549 42.1052175"></polyline>
        <polyline id="Fill-114" fill="#D8EFF5" points="375.483871 51.2903226 375.409819 58.2088965 344.516129 76.4516129 344.588784 69.5344587 375.483871 51.2903226"></polyline>
        <polyline id="Fill-115" fill="#AFD5E4" points="345.483871 69.5340684 345.411685 76.4516129 314.516129 58.2078671 314.589703 51.2903226 345.483871 69.5340684"></polyline>
        <polyline id="Fill-116" fill="#1B505E" points="310.645161 140.952628 310.708484 70.6451613 314.516129 72.8819242 314.516129 143.225806 310.645161 140.952628"></polyline>
        <polyline id="Fill-117" fill="#1B505E" points="320.322581 144.823596 320.385926 74.516129 324.193548 76.7528919 324.193548 147.096774 320.322581 144.823596"></polyline>
        <polyline id="Fill-118" fill="#1B505E" points="328.064516 149.660905 328.127839 79.3548387 331.935484 81.5916016 331.935484 151.935484 328.064516 149.660905"></polyline>
        <polyline id="Fill-119" fill="#1B505E" points="335.806452 155.468757 335.869775 85.1612903 339.677419 87.3980532 339.677419 157.741935 335.806452 155.468757"></polyline>
        <polyline id="Fill-120" fill="#1E7D8A" points="379.354839 140.952628 379.29287 70.6451613 375.483871 72.8819242 375.483871 143.225806 379.354839 140.952628"></polyline>
        <polyline id="Fill-121" fill="#1E7D8A" points="371.612903 144.823596 371.54958 74.516129 367.741935 76.7528919 367.741935 147.096774 371.612903 144.823596"></polyline>
        <polyline id="Fill-122" fill="#1E7D8A" points="362.903226 149.660905 362.839903 79.3548387 359.032258 81.5916016 359.032258 151.935484 362.903226 149.660905"></polyline>
        <polyline id="Fill-123" fill="#1E7D8A" points="355.16129 155.468757 355.099322 85.1612903 351.290323 87.3980532 351.290323 157.741935 355.16129 155.468757"></polyline>
        <polyline id="Fill-124" fill="#42A7C6" points="309.677419 152.604988 239.29244 193.548387 201.290323 171.585769 271.675302 130.645161 309.677419 152.604988"></polyline>
        <polyline id="Fill-125" fill="#D8EFF5" points="307.741935 152.903226 307.666117 197.30301 238.064516 238.064516 238.138956 193.666121 307.741935 152.903226"></polyline>
        <polyline id="Fill-126" fill="#1E7D8A" points="304.83871 162.580645 304.777285 168.246393 247.741935 201.290323 247.80336 195.623183 304.83871 162.580645"></polyline>
        <polyline id="Fill-127" fill="#1E7D8A" points="304.83871 174.193548 304.777285 179.859092 247.741935 212.903226 247.80336 207.23629 304.83871 174.193548"></polyline>
        <polyline id="Fill-128" fill="#1E7D8A" points="304.83871 184.83871 304.777285 190.504253 247.741935 223.548387 247.80336 217.88006 304.83871 184.83871"></polyline>
        <polyline id="Fill-129" fill="#AFD5E4" points="239.032258 193.653479 238.957647 237.096774 201.290323 215.701359 201.366315 172.258065 239.032258 193.653479"></polyline>
        <polyline id="Fill-130" fill="#1B505E" points="205.16129 182.903226 205.16129 188.282309 233.225806 204.193548 233.225806 198.814465 205.16129 182.903226"></polyline>
        <polyline id="Fill-131" fill="#1B505E" points="205.16129 193.548387 205.16129 198.927471 233.225806 214.83871 233.225806 209.459626 205.16129 193.548387"></polyline>
        <polyline id="Fill-132" fill="#1B505E" points="205.16129 205.16129 205.16129 210.53938 233.225806 226.451613 233.225806 221.073523 205.16129 205.16129"></polyline>
        <polyline id="Fill-133" fill="#AFD5E4" points="233.225806 176.397518 233.174835 182.903226 217.741935 173.925063 217.791491 167.419355 233.225806 176.397518"></polyline>
        <polyline id="Fill-134" fill="#D8EFF5" points="233.277616 176.360139 248.709677 167.419355 248.657868 173.962442 233.225806 182.903226 233.277616 176.360139"></polyline>
        <polyline id="Fill-135" fill="#D88B2F" points="218.709677 167.376936 233.586204 158.709677 248.709677 167.463164 233.833151 176.129032 218.709677 167.376936"></polyline>
        <polyline id="Fill-136" fill="#33647E" points="248.709677 167.462465 233.833151 176.129032 218.709677 167.376245 233.586204 158.709677 248.709677 167.462465"></polyline>
        <polyline id="Fill-137" fill="#AFD5E4" points="272.903226 141.212445 272.852255 159.677419 257.419355 151.04562 257.46891 132.580645 272.903226 141.212445"></polyline>
        <polyline id="Fill-138" fill="#D8EFF5" points="272.955035 141.15432 288.387097 132.580645 288.335287 151.103745 272.903226 159.677419 272.955035 141.15432"></polyline>
        <polyline id="Fill-139" fill="#D88B2F" points="257.419355 133.504578 272.295881 124.83871 287.419355 133.590805 272.542829 142.258065 257.419355 133.504578"></polyline>
        <polyline id="Fill-140" fill="#33647E" points="287.419355 133.590805 272.543517 142.258065 257.419355 133.505969 272.29658 124.83871 287.419355 133.590805"></polyline>
        <polyline id="Fill-141" fill="#AFD5E4" points="179.032258 188.602954 178.894679 270 136.451613 245.913175 136.589192 164.516129 179.032258 188.602954"></polyline>
        <polyline id="Fill-142" fill="#1B505E" points="170.322581 194.47649 170.243732 201.290323 142.258065 184.878349 142.336913 178.064516 170.322581 194.47649"></polyline>
        <polyline id="Fill-143" fill="#1B505E" points="170.322581 211.896246 170.243732 218.709677 142.258065 202.297303 142.336913 195.483871 170.322581 211.896246"></polyline>
        <polyline id="Fill-144" fill="#1B505E" points="170.322581 231.250683 170.243732 238.064516 142.258065 221.651176 142.336913 214.83871 170.322581 231.250683"></polyline>
        <polyline id="Fill-145" fill="#1B505E" points="170.322581 249.638181 170.243732 256.451613 142.258065 240.040605 142.336913 233.225806 170.322581 249.638181"></polyline>
        <polyline id="Fill-146" fill="#D8EFF5" points="179.168932 190.354873 220.645161 166.451613 220.507093 248.030841 179.032258 271.935484 179.168932 190.354873"></polyline>
        <polyline id="Fill-147" fill="#D88B2F" points="136.451613 165.850347 178.202336 142.258065 220.645161 166.085137 178.894438 189.677419 136.451613 165.850347"></polyline>
        <polyline id="Fill-148" fill="#42A7C6" points="220.645161 166.08513 207.613804 173.446459 195.92587 180.054321 178.896526 189.677419 136.451613 165.851719 153.480957 156.227255 165.16889 149.627584 178.201652 142.258065 220.645161 166.08513"></polyline>
        <polyline id="Fill-149" fill="#1E7D8A" points="186.774194 193.509149 186.853046 200.322581 214.83871 183.910206 214.761217 177.096774 186.774194 193.509149"></polyline>
        <polyline id="Fill-150" fill="#1E7D8A" points="186.774194 211.896246 186.853046 218.709677 214.83871 202.297303 214.761217 195.483871 186.774194 211.896246"></polyline>
        <polyline id="Fill-151" fill="#1E7D8A" points="186.774194 230.282377 186.853046 237.096774 214.83871 220.685365 214.761217 213.870968 186.774194 230.282377"></polyline>
        <polyline id="Fill-152" fill="#1E7D8A" points="186.774194 249.636814 186.853046 256.451613 214.83871 240.039238 214.761217 233.225806 186.774194 249.636814"></polyline>
        <polyline id="Fill-153" fill="#AFD5E4" points="179.032258 140.294047 178.909408 183.870968 141.290323 162.609179 141.411761 119.032258 179.032258 140.294047"></polyline>
        <polyline id="Fill-154" fill="#1B505E" points="172.258065 143.071076 172.186246 149.032258 146.129032 134.670859 146.203724 128.709677 172.258065 143.071076"></polyline>
        <polyline id="Fill-155" fill="#1B505E" points="172.258065 160.489472 172.186246 166.451613 146.129032 152.091173 146.203724 146.129032 172.258065 160.489472"></polyline>
        <polyline id="Fill-156" fill="#D8EFF5" points="179.150732 139.838068 214.83871 119.032258 214.720235 162.098782 179.032258 182.903226 179.150732 139.838068"></polyline>
        <polyline id="Fill-157" fill="#D88B2F" points="142.258065 116.991752 178.72957 95.8064516 215.806452 117.201797 179.334946 138.387097 142.258065 116.991752"></polyline>
        <polyline id="Fill-158" fill="#42A7C6" points="215.806452 117.20179 204.421627 123.812896 179.336327 138.387097 142.258065 116.991759 157.133066 108.349889 167.344757 102.424513 178.72819 95.8064516 215.806452 117.20179"></polyline>
        <polyline id="Fill-159" fill="#AFD5E4" points="178.064516 123.537731 177.978856 134.516129 151.935484 119.365495 152.021144 108.387097 178.064516 123.537731"></polyline>
        <polyline id="Fill-160" fill="#D8EFF5" points="178.151594 123.474786 204.193548 108.387097 204.107875 119.42984 178.064516 134.516129 178.151594 123.474786"></polyline>
        <polyline id="Fill-161" fill="#D88B2F" points="151.935484 106.861381 177.84929 91.9354839 204.193548 107.009587 178.279742 121.935484 151.935484 106.861381"></polyline>
        <polyline id="Fill-162" fill="#33647E" points="204.193548 107.00958 178.279731 121.935484 151.935484 106.861388 177.847904 91.9354839 204.193548 107.00958"></polyline>
        <polyline id="Fill-163" fill="#1E7D8A" points="183.870968 143.070117 183.944227 149.032258 210 134.671818 209.926741 128.709677 183.870968 143.070117"></polyline>
        <polyline id="Fill-164" fill="#1E7D8A" points="183.870968 160.489472 183.944227 166.451613 210 152.089816 209.926741 146.129032 183.870968 160.489472"></polyline>
        <polyline id="Fill-165" fill="#AFD5E4" points="112.258065 218.045233 112.102678 310.645161 64.8387097 283.242303 64.9913218 190.645161 112.258065 218.045233"></polyline>
        <polyline id="Fill-166" fill="#D8EFF5" points="112.412793 217.836207 158.709677 190.645161 158.556331 283.45272 112.258065 310.645161 112.412793 217.836207"></polyline>
        <polyline id="Fill-167" fill="#D88B2F" points="64.8387097 190.512253 111.388742 163.548387 158.709677 190.780839 112.161034 217.741935 64.8387097 190.512253"></polyline>
        <polyline id="Fill-168" fill="#42A7C6" points="158.709677 190.778752 144.17963 199.191509 131.148285 206.744578 112.162412 217.741935 64.8387097 190.512955 83.8245827 179.514213 96.8573171 171.970834 111.385976 163.548387 158.709677 190.778752"></polyline>
        <polyline id="Fill-169" fill="#AFD5E4" points="112.258065 171.111665 112.158231 205.16129 81.2903226 186.952851 81.3901559 152.903226 112.258065 171.111665"></polyline>
        <polyline id="Fill-170" fill="#D8EFF5" points="111.391805 171.961774 142.258065 153.870968 142.156582 188.038226 111.290323 206.129032 111.391805 171.961774"></polyline>
        <polyline id="Fill-171" fill="#33647E" points="120.967742 200.322581 132.554857 193.446945 132.580645 170.322581 120.99353 177.199602 120.967742 200.322581"></polyline>
        <polyline id="Fill-172" fill="#1E7D8A" points="119.049084 223.956052 125.806452 219.677419 125.792215 227.978022 119.032258 232.258065 119.049084 223.956052"></polyline>
        <polyline id="Fill-173" fill="#1E7D8A" points="119.049084 239.441333 125.806452 235.16129 125.792215 243.463303 119.032258 247.741935 119.049084 239.441333"></polyline>
        <polyline id="Fill-174" fill="#1E7D8A" points="119.049084 254.923793 125.806452 250.645161 125.792215 258.947174 119.032258 263.225806 119.049084 254.923793"></polyline>
        <polyline id="Fill-175" fill="#1E7D8A" points="119.049084 270.409554 125.806452 266.129032 125.792215 274.430566 119.032258 278.709677 119.049084 270.409554"></polyline>
        <polyline id="Fill-176" fill="#1E7D8A" points="119.049084 285.892946 125.806452 281.612903 125.792215 289.914916 119.032258 294.193548 119.049084 285.892946"></polyline>
        <polyline id="Fill-177" fill="#1E7D8A" points="132.596176 215.247784 139.354839 210.967742 139.339308 219.268345 132.580645 223.548387 132.596176 215.247784"></polyline>
        <polyline id="Fill-178" fill="#1E7D8A" points="132.596176 230.730245 139.354839 226.451613 139.339308 234.752216 132.580645 239.032258 132.596176 230.730245"></polyline>
        <polyline id="Fill-179" fill="#1E7D8A" points="132.596176 246.214596 139.354839 241.935484 139.339308 250.237017 132.580645 254.516129 132.596176 246.214596"></polyline>
        <polyline id="Fill-180" fill="#1E7D8A" points="132.596176 261.699397 139.354839 257.419355 139.339308 265.719958 132.580645 270 132.596176 261.699397"></polyline>
        <polyline id="Fill-181" fill="#1E7D8A" points="132.596176 278.1496 139.354839 273.870968 139.339308 282.171571 132.580645 286.451613 132.596176 278.1496"></polyline>
        <polyline id="Fill-182" fill="#1E7D8A" points="146.144563 208.473591 152.903226 204.193548 152.887695 212.495561 146.129032 216.774194 146.144563 208.473591"></polyline>
        <polyline id="Fill-183" fill="#1E7D8A" points="146.144563 223.957462 152.903226 219.677419 152.887695 227.979432 146.129032 232.258065 146.144563 223.957462"></polyline>
        <polyline id="Fill-184" fill="#1E7D8A" points="146.144563 239.440402 152.903226 235.16129 152.887695 243.461413 146.129032 247.741935 146.144563 239.440402"></polyline>
        <polyline id="Fill-185" fill="#1E7D8A" points="146.144563 254.924273 152.903226 250.645161 152.887695 258.946695 146.129032 263.225806 146.144563 254.924273"></polyline>
        <polyline id="Fill-186" fill="#1E7D8A" points="146.144563 270.409075 152.903226 266.129032 152.887695 274.431045 146.129032 278.709677 146.144563 270.409075"></polyline>
        <polyline id="Fill-187" fill="#1B505E" points="104.500598 223.956052 97.7419355 219.677419 97.7574667 227.978022 104.516129 232.258065 104.500598 223.956052"></polyline>
        <polyline id="Fill-188" fill="#1B505E" points="104.500598 239.441333 97.7419355 235.16129 97.7574667 243.463303 104.516129 247.741935 104.500598 239.441333"></polyline>
        <polyline id="Fill-189" fill="#1B505E" points="104.500598 254.923793 97.7419355 250.645161 97.7574667 258.947174 104.516129 263.225806 104.500598 254.923793"></polyline>
        <polyline id="Fill-190" fill="#1B505E" points="104.500598 270.409554 97.7419355 266.129032 97.7574667 274.430566 104.516129 278.709677 104.500598 270.409554"></polyline>
        <polyline id="Fill-191" fill="#1B505E" points="104.500598 285.892946 97.7419355 281.612903 97.7574667 289.914916 104.516129 294.193548 104.500598 285.892946"></polyline>
        <polyline id="Fill-192" fill="#1B505E" points="90.9522107 215.247784 84.1935484 210.967742 84.2090796 219.268345 90.9677419 223.548387 90.9522107 215.247784"></polyline>
        <polyline id="Fill-193" fill="#1B505E" points="90.9522107 230.730245 84.1935484 226.451613 84.2090796 234.752216 90.9677419 239.032258 90.9522107 230.730245"></polyline>
        <polyline id="Fill-194" fill="#1B505E" points="90.9522107 246.214596 84.1935484 241.935484 84.2090796 250.237017 90.9677419 254.516129 90.9522107 246.214596"></polyline>
        <polyline id="Fill-195" fill="#1B505E" points="90.9522107 261.699397 84.1935484 257.419355 84.2090796 265.719958 90.9677419 270 90.9522107 261.699397"></polyline>
        <polyline id="Fill-196" fill="#1B505E" points="90.9522107 278.1496 84.1935484 273.870968 84.2090796 282.171571 90.9677419 286.451613 90.9522107 278.1496"></polyline>
        <polyline id="Fill-197" fill="#1B505E" points="76.4360817 208.473591 69.6774194 204.193548 69.6929506 212.495561 76.4516129 216.774194 76.4360817 208.473591"></polyline>
        <polyline id="Fill-198" fill="#1B505E" points="76.4360817 223.957462 69.6774194 219.677419 69.6929506 227.979432 76.4516129 232.258065 76.4360817 223.957462"></polyline>
        <polyline id="Fill-199" fill="#1B505E" points="76.4360817 239.440402 69.6774194 235.16129 69.6929506 243.461413 76.4516129 247.741935 76.4360817 239.440402"></polyline>
        <polyline id="Fill-200" fill="#1B505E" points="76.4360817 254.924273 69.6774194 250.645161 69.6929506 258.946695 76.4516129 263.225806 76.4360817 254.924273"></polyline>
        <polyline id="Fill-201" fill="#1B505E" points="76.4360817 270.409075 69.6774194 266.129032 69.6929506 274.431045 76.4516129 278.709677 76.4360817 270.409075"></polyline>
        <polyline id="Fill-202" fill="#33647E" points="100.645161 198.387097 89.0594005 191.511144 89.0322581 168.387097 100.619376 175.26305 100.645161 198.387097"></polyline>
        <polyline id="Fill-203" fill="#D88B2F" points="80.3225806 155.233691 111.03577 137.419355 142.258065 155.41147 111.544875 173.225806 80.3225806 155.233691"></polyline>
        <polyline id="Fill-204" fill="#33647E" points="142.258065 155.411463 132.671058 160.969785 111.546266 173.225806 80.3225806 155.235098 92.8490789 147.967708 101.447373 142.984675 111.034379 137.419355 142.258065 155.411463"></polyline>
        <polyline id="Fill-205" fill="#D6EDEF" points="368.709677 388.229393 301.977381 426.774194 174.193548 353.067852 240.925845 314.516129 368.709677 388.229393"></polyline>
        <polyline id="Fill-206" fill="#F3F9FA" points="315.483871 365.802382 269.985863 391.935484 191.612903 347.42482 237.110911 321.290323 315.483871 365.802382"></polyline>
        <polyline id="Fill-207" fill="#22ABBF" points="309.677419 366.156913 271.527564 388.064516 199.354839 347.067497 237.504694 325.16129 309.677419 366.156913"></polyline>
        <polyline id="Fill-208" fill="#1E7D8A" points="237.504694 330.426758 305.056702 368.709677 309.677419 366.062321 237.504694 325.16129 199.354839 347.016952 203.975556 349.635063 237.504694 330.426758"></polyline>
        <polyline id="Fill-209" fill="#D8EFF5" points="316.451613 364.83871 316.433475 371.073001 270.967742 396.774194 270.984485 390.537159 316.451613 364.83871"></polyline>
        <polyline id="Fill-210" fill="#AFD5E4" points="270.967742 391.465589 270.950988 397.741935 192.580645 353.695702 192.598795 347.419355 270.967742 391.465589"></polyline>
        <path d="M230.797457,255.107142 C234.020091,257.185481 234.037417,260.556083 230.836107,262.635911 C227.633466,264.712761 222.425008,264.712761 219.202374,262.635911 C215.979741,260.556083 215.962415,257.185481 219.165057,255.107142 C222.366366,253.028802 227.574824,253.028802 230.797457,255.107142" id="Fill-211" fill="#1D90A4"></path>
        <polygon id="Fill-212" fill="#1B505E" points="223.548387 260.322581 225.483871 260.322581 225.483871 248.709677 223.548387 248.709677"></polygon>
        <path d="M235.16129,240.96705 C235.16129,246.311658 230.82917,250.645161 225.483179,250.645161 C220.138572,250.645161 215.806452,246.311658 215.806452,240.96705 C215.806452,235.621059 220.138572,231.290323 225.483179,231.290323 C230.82917,231.290323 235.16129,235.621059 235.16129,240.96705" id="Fill-213" fill="#1E7D8A"></path>
        <path d="M220.161906,240 C218.825008,240 217.741935,238.916927 217.741935,237.581261 C217.741935,236.244363 218.825008,235.16129 220.161906,235.16129 C221.49634,235.16129 222.580645,236.244363 222.580645,237.581261 C222.580645,238.916927 221.49634,240 220.161906,240" id="Fill-214" fill="#1E8EA0"></path>
        <path d="M225.483871,236.129032 C224.948357,236.129032 224.516129,235.694811 224.516129,235.160729 C224.516129,234.626648 224.948357,234.193548 225.483871,234.193548 C226.018262,234.193548 226.451613,234.626648 226.451613,235.160729 C226.451613,235.694811 226.018262,236.129032 225.483871,236.129032" id="Fill-215" fill="#1E8EA0"></path>
        <path d="M226.070725,231.290323 C224.820264,231.290323 223.622984,231.511631 222.517691,231.912754 C222.654236,231.905838 222.787906,231.893389 222.92445,231.893389 C227.377242,231.893389 230.984894,235.366554 230.984894,239.651646 C230.984894,243.933972 227.377242,247.40852 222.92445,247.40852 C220.458023,247.40852 218.253187,246.337939 216.774194,244.660141 C218.281933,248.172035 221.875213,250.645161 226.070725,250.645161 C231.625935,250.645161 236.129032,246.311658 236.129032,240.96705 C236.129032,235.621059 231.625935,231.290323 226.070725,231.290323" id="Fill-216" fill="#1B505E"></path>
        <path d="M299.506963,407.041563 C302.729824,409.119975 302.747151,412.492184 299.545616,414.569107 C296.34408,416.649007 291.133921,416.649007 287.912392,414.569107 C284.689531,412.492184 284.672203,409.121464 287.873739,407.041563 C291.075275,404.96464 296.285434,404.96464 299.506963,407.041563" id="Fill-217" fill="#1D90A4"></path>
        <polygon id="Fill-218" fill="#1B505E" points="292.258065 412.258065 294.193548 412.258065 294.193548 400.645161 292.258065 400.645161"></polygon>
        <path d="M303.870968,392.903226 C303.870968,398.247452 299.537774,402.580645 294.193548,402.580645 C288.849323,402.580645 284.516129,398.247452 284.516129,392.903226 C284.516129,387.559 288.849323,383.225806 294.193548,383.225806 C299.537774,383.225806 303.870968,387.559 303.870968,392.903226" id="Fill-219" fill="#1E7D8A"></path>
        <path d="M288.870352,390.967742 C287.534685,390.967742 286.451613,389.884669 286.451613,388.547771 C286.451613,387.212105 287.534685,386.129032 288.870352,386.129032 C290.20725,386.129032 291.290323,387.212105 291.290323,388.547771 C291.290323,389.884669 290.20725,390.967742 288.870352,390.967742" id="Fill-220" fill="#1E8EA0"></path>
        <path d="M293.225245,387.096774 C292.691164,387.096774 292.258065,386.663675 292.258065,386.129593 C292.258065,385.595512 292.691164,385.16129 293.225245,385.16129 C293.759327,385.16129 294.193548,385.595512 294.193548,386.129593 C294.193548,386.663675 293.759327,387.096774 293.225245,387.096774" id="Fill-221" fill="#1E8EA0"></path>
        <path d="M293.814098,383.225806 C292.5622,383.225806 291.364919,383.447099 290.259626,383.849576 C290.396171,383.842661 290.529841,383.830213 290.666386,383.830213 C295.119177,383.830213 298.728267,387.301747 298.728267,391.586532 C298.728267,395.871318 295.119177,399.342852 290.666386,399.342852 C288.199959,399.342852 285.995123,398.275113 284.516129,396.59467 C286.023869,400.107696 289.618585,402.580645 293.814098,402.580645 C299.36787,402.580645 303.870968,398.247452 303.870968,392.903226 C303.870968,387.559 299.36787,383.225806 293.814098,383.225806" id="Fill-222" fill="#1B505E"></path>
        <path d="M339.185332,382.848015 C342.406927,384.926427 342.424254,388.298635 339.223986,390.375558 C336.021052,392.455459 330.812118,392.455459 327.589191,390.375558 C324.366263,388.298635 324.350268,384.926427 327.55187,382.848015 C330.752138,380.771092 335.963737,380.771092 339.185332,382.848015" id="Fill-223" fill="#1D90A4"></path>
        <polygon id="Fill-224" fill="#1B505E" points="332.903226 386.129032 334.83871 386.129032 334.83871 374.516129 332.903226 374.516129"></polygon>
        <path d="M342.580645,368.709677 C342.580645,374.053903 338.247452,378.387097 332.903226,378.387097 C327.557617,378.387097 323.225806,374.053903 323.225806,368.709677 C323.225806,363.365452 327.557617,359.032258 332.903226,359.032258 C338.247452,359.032258 342.580645,363.365452 342.580645,368.709677" id="Fill-225" fill="#1E7D8A"></path>
        <path d="M328.54962,367.741935 C327.212381,367.741935 326.129032,366.658863 326.129032,365.321965 C326.129032,363.986298 327.212381,362.903226 328.54962,362.903226 C329.885626,362.903226 330.967742,363.986298 330.967742,365.321965 C330.967742,366.658863 329.885626,367.741935 328.54962,367.741935" id="Fill-226" fill="#1E8EA0"></path>
        <path d="M333.870407,363.870968 C333.336325,363.870968 332.903226,363.437868 332.903226,362.903787 C332.903226,362.369705 333.336325,361.935484 333.870407,361.935484 C334.40561,361.935484 334.83871,362.369705 334.83871,362.903787 C334.83871,363.437868 334.40561,363.870968 333.870407,363.870968" id="Fill-227" fill="#1E8EA0"></path>
        <path d="M334.459259,359.032258 C333.207361,359.032258 332.01008,359.253551 330.904788,359.656028 C331.041332,359.649112 331.173565,359.636665 331.311547,359.636665 C335.764338,359.636665 339.373428,363.108198 339.373428,367.392984 C339.373428,371.67777 335.764338,375.149304 331.311547,375.149304 C328.843683,375.149304 326.638847,374.081565 325.16129,372.401121 C326.66903,375.914148 330.263747,378.387097 334.459259,378.387097 C340.013032,378.387097 344.516129,374.053903 344.516129,368.709677 C344.516129,363.365452 340.013032,359.032258 334.459259,359.032258" id="Fill-228" fill="#1B505E"></path>
        <path d="M319.831262,396.397682 C323.052727,398.476312 323.068721,401.845896 319.868581,403.926015 C316.667109,406.003156 311.457052,406.003156 308.234254,403.926015 C305.011456,401.847385 304.995462,398.476312 308.196935,396.397682 C311.398407,394.319052 316.608464,394.319052 319.831262,396.397682" id="Fill-229" fill="#1D90A4"></path>
        <polygon id="Fill-230" fill="#1B505E" points="312.580645 399.677419 314.516129 399.677419 314.516129 388.064516 312.580645 388.064516"></polygon>
        <path d="M324.193548,380.322581 C324.193548,385.666807 319.860355,390 314.516129,390 C309.17052,390 304.83871,385.666807 304.83871,380.322581 C304.83871,374.978355 309.17052,370.645161 314.516129,370.645161 C319.860355,370.645161 324.193548,374.978355 324.193548,380.322581" id="Fill-231" fill="#1E7D8A"></path>
        <path d="M309.192932,380.322581 C307.857266,380.322581 306.774194,379.239508 306.774194,377.90261 C306.774194,376.566943 307.857266,375.483871 309.192932,375.483871 C310.529831,375.483871 311.612903,376.566943 311.612903,377.90261 C311.612903,379.239508 310.529831,380.322581 309.192932,380.322581" id="Fill-232" fill="#1E8EA0"></path>
        <path d="M313.548948,375.483871 C313.013745,375.483871 312.580645,375.050771 312.580645,374.51669 C312.580645,373.981487 313.013745,373.548387 313.548948,373.548387 C314.083029,373.548387 314.516129,373.981487 314.516129,374.51669 C314.516129,375.050771 314.083029,375.483871 313.548948,375.483871" id="Fill-233" fill="#1E8EA0"></path>
        <path d="M314.136679,370.645161 C312.88478,370.645161 311.6875,370.866454 310.582207,371.268931 C310.717314,371.262016 310.852422,371.248185 310.988966,371.248185 C315.441758,371.248185 319.050847,374.721102 319.050847,379.005887 C319.050847,383.28929 315.441758,386.762207 310.988966,386.762207 C308.522539,386.762207 306.317703,385.693085 304.83871,384.014024 C306.34645,387.527051 309.941166,390 314.136679,390 C319.690451,390 324.193548,385.666807 324.193548,380.322581 C324.193548,374.978355 319.690451,370.645161 314.136679,370.645161" id="Fill-234" fill="#1B505E"></path>
        <path d="M182.410286,284.139509 C185.633018,286.216504 185.650345,289.588831 182.448938,291.665826 C179.246198,293.7458 174.037581,293.7458 170.81485,291.665826 C167.592118,289.588831 167.576124,286.217993 170.777531,284.139509 C173.978938,282.061024 179.187555,282.061024 182.410286,284.139509" id="Fill-235" fill="#1D90A4"></path>
        <polygon id="Fill-236" fill="#1B505E" points="174.193548 289.354839 176.129032 289.354839 176.129032 277.741935 174.193548 277.741935"></polygon>
        <path d="M185.806452,269.03295 C185.806452,274.376794 181.473568,278.709677 176.129724,278.709677 C170.784497,278.709677 166.451613,274.376794 166.451613,269.03295 C166.451613,263.687723 170.784497,259.354839 176.129724,259.354839 C181.473568,259.354839 185.806452,263.687723 185.806452,269.03295" id="Fill-237" fill="#1E7D8A"></path>
        <path d="M171.77481,268.064516 C170.437911,268.064516 169.354839,266.981168 169.354839,265.645161 C169.354839,264.307922 170.437911,263.225806 171.77481,263.225806 C173.110476,263.225806 174.193548,264.307922 174.193548,265.645161 C174.193548,266.981168 173.110476,268.064516 171.77481,268.064516" id="Fill-238" fill="#1E8EA0"></path>
        <path d="M175.16129,264.193548 C174.625777,264.193548 174.193548,263.76132 174.193548,263.225806 C174.193548,262.692538 174.625777,262.258065 175.16129,262.258065 C175.695681,262.258065 176.129032,262.692538 176.129032,263.225806 C176.129032,263.76132 175.695681,264.193548 175.16129,264.193548" id="Fill-239" fill="#1E8EA0"></path>
        <path d="M175.749582,259.354839 C174.497684,259.354839 173.300403,259.577499 172.19511,259.979947 C172.331655,259.973032 172.463888,259.959202 172.601869,259.959202 C177.054661,259.959202 180.662313,263.431871 180.662313,267.714967 C180.662313,271.999447 177.054661,275.472116 172.601869,275.472116 C170.135443,275.472116 167.930607,274.40307 166.451613,272.722747 C167.959353,276.236905 171.554069,278.709677 175.749582,278.709677 C181.303354,278.709677 185.806452,274.376794 185.806452,269.03295 C185.806452,263.687723 181.303354,259.354839 175.749582,259.354839" id="Fill-240" fill="#1B505E"></path>
        <path d="M44.023116,268.65463 C47.2459453,270.73326 47.2632723,274.104333 44.0617687,276.182963 C40.860265,278.261593 35.6501577,278.261593 32.4273285,276.182963 C29.2058321,274.104333 29.1885051,270.73326 32.3900087,268.65463 C35.5915124,266.577489 40.8002868,266.577489 44.023116,268.65463" id="Fill-241" fill="#1D90A4"></path>
        <polygon id="Fill-242" fill="#1B505E" points="36.7741935 272.903226 38.7096774 272.903226 38.7096774 261.290323 36.7741935 261.290323"></polygon>
        <path d="M47.4193548,253.548387 C47.4193548,258.892613 43.0861614,263.225806 37.7419355,263.225806 C32.3963265,263.225806 28.0645161,258.892613 28.0645161,253.548387 C28.0645161,248.204161 32.3963265,243.870968 37.7419355,243.870968 C43.0861614,243.870968 47.4193548,248.204161 47.4193548,253.548387" id="Fill-243" fill="#1E7D8A"></path>
        <path d="M33.3864807,252.580645 C32.0508145,252.580645 30.9677419,251.497573 30.9677419,250.160674 C30.9677419,248.825008 32.0508145,247.741935 33.3864807,247.741935 C34.7233791,247.741935 35.8064516,248.825008 35.8064516,250.160674 C35.8064516,251.497573 34.7233791,252.580645 33.3864807,252.580645" id="Fill-244" fill="#1E8EA0"></path>
        <path d="M38.7102384,248.709677 C38.1761571,248.709677 37.7419355,248.276578 37.7419355,247.741374 C37.7419355,247.208415 38.1761571,246.774194 38.7102384,246.774194 C39.2443198,246.774194 39.6774194,247.208415 39.6774194,247.741374 C39.6774194,248.276578 39.2443198,248.709677 38.7102384,248.709677" id="Fill-245" fill="#1E8EA0"></path>
        <path d="M38.3302271,243.870968 C37.0783287,243.870968 35.8810481,244.092261 34.7757554,244.494737 C34.9108627,244.487822 35.04597,244.473991 35.1825146,244.473991 C39.6338688,244.473991 43.2443957,247.946908 43.2443957,252.231694 C43.2443957,256.515096 39.6338688,259.988013 35.1825146,259.988013 C32.7160878,259.988013 30.5112518,258.920275 29.0322581,257.239831 C30.539998,260.752857 34.1347144,263.225806 38.3302271,263.225806 C43.8839994,263.225806 48.3870968,258.892613 48.3870968,253.548387 C48.3870968,248.204161 43.8839994,243.870968 38.3302271,243.870968" id="Fill-246" fill="#1B505E"></path>
        <polyline id="Fill-247" fill="#AFD5E4" points="373.548387 238.106583 373.541452 248.087371 373.541452 251.42539 373.531744 257.031266 373.531744 260.362355 373.523422 270.653656 373.523422 273.984744 373.513713 279.600324 373.513713 282.930026 373.504005 293.222714 373.504005 296.542712 373.495683 302.158292 373.495683 305.497698 373.485975 316.451613 334.83871 294.141778 334.848418 283.474811 334.848418 280.143723 334.85674 274.528143 334.85674 271.199827 334.866449 260.905753 334.866449 257.576051 334.87477 251.961858 334.87477 248.640473 334.883092 238.338081 334.883092 235.016697 334.892801 229.402503 334.892801 226.072801 334.901122 215.806452 373.548387 238.106583"></polyline>
        <path d="M397.741935,215.806452 L397.741935,294.189907 C397.741935,299.190745 394.379676,304.176324 387.625187,307.9814 L379.132485,312.788031 L372.652,316.451613 L372.580645,316.415546 L372.59777,311.966811 L372.652,238.051511 L387.625187,229.591009 C389.066563,228.778112 390.353812,227.911115 391.494069,227.001116 C395.665498,223.65104 397.741935,219.729439 397.741935,215.806452" id="Fill-248" fill="#D8EFF5"></path>
        <path d="M387.779255,200.23584 C401.00401,208.03465 401.070445,220.677854 387.931502,228.475251 L373.405724,237.096774 L334.83871,214.354839 L373.155208,191.612903 L387.779255,200.23584" id="Fill-249" fill="#42A7C6"></path>
        <polyline id="Fill-250" fill="#AFD5E4" points="371.612903 218.529559 371.564154 228.387097 341.612903 211.146472 341.661652 201.290323 371.612903 218.529559"></polyline>
        <path d="M386.155349,209.957173 C385.284765,210.661093 384.291845,211.334409 383.1837,211.964599 L371.664114,218.51134 L371.620016,224.918966 L371.612903,228.356492 L371.664114,228.387097 L383.1837,221.836182 C388.377329,218.886949 390.967742,215.029297 390.967742,211.160515 L390.967742,201.290323 C390.967742,204.327198 389.364559,207.364073 386.155349,209.957173" id="Fill-251" fill="#D8EFF5"></path>
        <path d="M381.368989,190.476447 C391.540979,196.449158 391.593405,206.132891 381.484878,212.107005 L370.312659,218.709677 L340.645161,201.291024 L370.119511,183.870968 L381.368989,190.476447" id="Fill-252" fill="#33647E"></path>
        <polyline id="Fill-253" fill="#1B505E" points="373.548387 248.172654 334.83871 225.483871 334.83871 228.915548 373.548387 251.612903 373.548387 248.172654"></polyline>
        <polyline id="Fill-254" fill="#1B505E" points="373.548387 256.89854 373.548387 256.888536 334.83871 234.193548 334.83871 237.617589 373.548387 260.322581 373.548387 256.89854"></polyline>
        <polyline id="Fill-255" fill="#1B505E" points="373.548387 270.436736 334.83871 247.741935 334.83871 251.166164 373.548387 273.870968 373.548387 270.436736"></polyline>
        <polyline id="Fill-256" fill="#1B505E" points="373.548387 279.149156 334.83871 256.451613 334.83871 259.883102 373.548387 282.580645 373.548387 279.149156"></polyline>
        <polyline id="Fill-257" fill="#1B505E" points="373.548387 292.706046 334.83871 270 334.83871 273.431561 373.548387 296.129032 373.548387 292.706046"></polyline>
        <polyline id="Fill-258" fill="#1B505E" points="334.83871 279.677419 334.83871 283.110337 373.548387 305.806452 373.548387 302.364962 334.83871 279.677419"></polyline>
        <polyline id="Fill-259" fill="#1E7D8A" points="397.741935 233.225806 397.741935 236.414473 372.580645 249.677419 372.580645 246.490077 397.741935 233.225806"></polyline>
        <polyline id="Fill-260" fill="#1E7D8A" points="397.741935 246.07668 372.580645 259.354839 372.580645 256.170784 397.741935 242.903226 397.741935 246.07668"></polyline>
        <polyline id="Fill-261" fill="#1E7D8A" points="397.741935 257.419355 397.741935 260.602085 372.580645 273.870968 372.580645 270.686913 397.741935 257.419355"></polyline>
        <polyline id="Fill-262" fill="#1E7D8A" points="397.741935 269.310437 372.580645 282.580645 372.580645 279.397915 397.741935 266.129032 397.741935 269.310437"></polyline>
        <polyline id="Fill-263" fill="#1E7D8A" points="397.741935 278.709677 397.741935 281.887785 372.580645 295.16129 372.580645 291.984509 397.741935 278.709677"></polyline>
        <polyline id="Fill-264" fill="#1E7D8A" points="397.741935 288.387097 397.741935 291.571365 372.580645 304.83871 372.580645 301.645161 397.741935 288.387097"></polyline>
        <polyline id="Fill-265" fill="#42A7C6" points="361.935484 245.896138 325.138981 267.096774 262.258065 231.202023 299.054567 210 361.935484 245.896138"></polyline>
        <polyline id="Fill-266" fill="#D8EFF5" points="359.032258 246.774194 358.926096 328.953878 323.225806 350.322581 323.331968 268.142897 359.032258 246.774194"></polyline>
        <polyline id="Fill-267" fill="#AFD5E4" points="324.193548 268.051542 324.085959 349.354839 262.258065 313.561361 262.365654 232.258065 324.193548 268.051542"></polyline>
        <polyline id="Fill-268" fill="#33647E" points="348.387097 235.337643 324.093808 249.677419 273.870968 221.437961 298.164256 207.096774 348.387097 235.337643"></polyline>
        <polyline id="Fill-269" fill="#D8EFF5" points="348.387097 236.129032 348.312319 243.563813 323.225806 257.419355 323.300584 249.984574 348.387097 236.129032"></polyline>
        <polyline id="Fill-270" fill="#AFD5E4" points="324.193548 249.95929 324.121096 257.419355 273.870968 230.04071 273.94342 222.580645 324.193548 249.95929"></polyline>
        <polyline id="Fill-271" fill="#1B505E" points="270 247.741935 280.645161 253.212233 280.645161 260.322581 270 254.841904 270 247.741935"></polyline>
        <polyline id="Fill-272" fill="#1B505E" points="285.483871 256.451613 296.129032 261.926307 296.129032 269.032258 285.483871 263.556267 285.483871 256.451613"></polyline>
        <polyline id="Fill-273" fill="#1B505E" points="303.870968 266.129032 314.516129 271.607114 314.516129 278.709677 303.870968 273.229 303.870968 266.129032"></polyline>
        <polyline id="Fill-274" fill="#1B505E" points="270 262.258065 280.645161 267.728362 280.645161 274.83871 270 269.358033 270 262.258065"></polyline>
        <polyline id="Fill-275" fill="#1B505E" points="285.483871 270.967742 296.129032 276.442436 296.129032 283.548387 285.483871 278.072396 285.483871 270.967742"></polyline>
        <polyline id="Fill-276" fill="#1B505E" points="303.870968 279.677419 314.516129 285.155501 314.516129 292.258065 303.870968 286.777387 303.870968 279.677419"></polyline>
        <polyline id="Fill-277" fill="#1B505E" points="270 276.774194 280.645161 282.242404 280.645161 289.354839 270 283.878848 270 276.774194"></polyline>
        <polyline id="Fill-278" fill="#1B505E" points="285.483871 284.516129 296.129032 289.990823 296.129032 297.096774 285.483871 291.620783 285.483871 284.516129"></polyline>
        <polyline id="Fill-279" fill="#1B505E" points="303.870968 294.193548 314.516129 299.67163 314.516129 306.774194 303.870968 301.302599 303.870968 294.193548"></polyline>
        <polyline id="Fill-280" fill="#1B505E" points="270 289.354839 280.645161 294.83083 280.645161 301.935484 270 296.459493 270 289.354839"></polyline>
        <polyline id="Fill-281" fill="#1B505E" points="285.483871 298.064516 296.129032 303.534813 296.129032 310.645161 285.483871 305.165782 285.483871 298.064516"></polyline>
        <polyline id="Fill-282" fill="#1B505E" points="303.870968 306.774194 314.516129 312.252276 314.516129 319.354839 303.870968 313.883244 303.870968 306.774194"></polyline>
        <polyline id="Fill-283" fill="#1B505E" points="270 303.870968 280.645161 309.341829 280.645161 316.451613 270 310.971668 270 303.870968"></polyline>
        <polyline id="Fill-284" fill="#1B505E" points="285.483871 311.612903 296.129032 317.08833 296.129032 324.193548 285.483871 318.716825 285.483871 311.612903"></polyline>
        <polyline id="Fill-285" fill="#1B505E" points="303.870968 321.290323 314.516129 326.769702 314.516129 333.870968 303.870968 328.391588 303.870968 321.290323"></polyline>
        <polyline id="Fill-286" fill="#33647E" points="353.225806 260.322581 332.903226 272.244521 332.903226 279.677419 353.225806 267.756836 353.225806 260.322581"></polyline>
        <polyline id="Fill-287" fill="#33647E" points="353.225806 273.870968 332.903226 285.793429 332.903226 293.225806 353.225806 281.304702 353.225806 273.870968"></polyline>
        <polyline id="Fill-288" fill="#33647E" points="353.225806 287.419355 332.903226 299.341295 332.903226 306.774194 353.225806 294.85361 353.225806 287.419355"></polyline>
        <polyline id="Fill-289" fill="#33647E" points="353.225806 301.935484 332.903226 313.856068 332.903226 321.290323 353.225806 309.369739 353.225806 301.935484"></polyline>
        <polyline id="Fill-290" fill="#33647E" points="353.225806 315.483871 332.903226 327.404976 332.903226 334.83871 353.225806 322.917605 353.225806 315.483871"></polyline>
        <polyline id="Fill-291" fill="#AFD5E4" points="430.645161 292.181864 430.522941 363.870968 392.903226 342.655457 393.025446 270.967742 430.645161 292.181864"></polyline>
        <polyline id="Fill-292" fill="#D8EFF5" points="430.763031 292.020835 466.451613 270.967742 466.333743 342.819266 430.645161 363.870968 430.763031 292.020835"></polyline>
        <polyline id="Fill-293" fill="#D88B2F" points="392.903226 271.829785 429.374878 250.645161 466.451613 272.039783 429.979961 293.225806 392.903226 271.829785"></polyline>
        <polyline id="Fill-294" fill="#42A7C6" points="466.451613 272.039776 455.067741 278.650086 444.85755 284.584247 429.982044 293.225806 392.903226 271.831192 407.778731 263.188232 417.990323 257.262471 429.374195 250.645161 466.451613 272.039776"></polyline>
        <polyline id="Fill-295" fill="#AFD5E4" points="429.677419 268.356123 429.614215 295.16129 410.322581 284.223112 410.385785 257.419355 429.677419 268.356123"></polyline>
        <polyline id="Fill-296" fill="#1B505E" points="424.83871 274.172316 424.812408 289.354839 414.193548 283.237374 414.21985 268.064516 424.83871 274.172316"></polyline>
        <polyline id="Fill-297" fill="#D8EFF5" points="429.735247 268.279763 447.096774 257.419355 447.038946 284.300882 429.677419 295.16129 429.735247 268.279763"></polyline>
        <polyline id="Fill-298" fill="#D88B2F" points="410.322581 258.334664 429.039124 247.741935 448.064516 258.439529 429.34939 269.032258 410.322581 258.334664"></polyline>
        <polyline id="Fill-299" fill="#33647E" points="448.064516 258.438836 429.349378 269.032258 410.322581 258.335358 417.956816 254.014102 423.195524 251.050483 429.037719 247.741935 448.064516 258.438836"></polyline>
        <polyline id="Fill-300" fill="#1E7D8A" points="432.580645 274.172712 432.606947 289.354839 443.225806 283.239739 443.198121 268.064516 432.580645 274.172712"></polyline>
        <polyline id="Fill-301" fill="#1B505E" points="391.935484 279.677419 391.935484 282.766969 427.741935 304.83871 427.741935 301.74916 391.935484 279.677419"></polyline>
        <polyline id="Fill-302" fill="#1E7D8A" points="463.540192 282.780115 463.548387 279.677419 427.983686 301.740388 427.741935 301.591668 427.741935 304.68999 427.983686 304.83871 463.540192 282.780115"></polyline>
        <polyline id="Fill-303" fill="#1B505E" points="391.935484 290.322581 391.935484 293.41213 427.741935 315.483871 427.741935 312.394322 391.935484 290.322581"></polyline>
        <polyline id="Fill-304" fill="#1E7D8A" points="463.540192 293.423998 463.548387 290.322581 427.983686 312.385369 427.741935 312.236641 427.741935 315.335143 427.983686 315.483871 463.540192 293.423998"></polyline>
        <polyline id="Fill-305" fill="#1E7D8A" points="427.983686 325.16129 463.540192 303.102876 463.548387 300 427.983686 322.064247 427.741935 321.915519 427.741935 325.01402 427.983686 325.16129"></polyline>
        <polyline id="Fill-306" fill="#1B505E" points="391.935484 303.089549 427.741935 325.16129 427.741935 322.071741 391.935484 300 391.935484 303.089549"></polyline>
        <polyline id="Fill-307" fill="#1E7D8A" points="427.983686 335.806452 463.540192 313.747857 463.548387 310.645161 427.983686 332.709588 427.741935 332.55941 427.741935 335.657732 427.983686 335.806452"></polyline>
        <polyline id="Fill-308" fill="#1B505E" points="391.935484 312.765515 427.741935 334.83871 427.741935 331.74916 391.935484 309.677419 391.935484 312.765515"></polyline>
        <polyline id="Fill-309" fill="#1E7D8A" points="427.983686 345.483871 463.540192 323.425277 463.548387 320.322581 427.983686 342.385549 427.741935 342.23683 427.741935 345.333693 427.983686 345.483871"></polyline>
        <polyline id="Fill-310" fill="#1B505E" points="391.935484 323.410855 427.741935 345.483871 427.741935 342.395597 391.935484 320.322581 391.935484 323.410855"></polyline>
        <polyline id="Fill-311" fill="#1B505E" points="391.935484 332.121986 427.741935 354.193548 427.741935 351.105274 391.935484 329.032258 391.935484 332.121986"></polyline>
        <polyline id="Fill-312" fill="#1E7D8A" points="427.983686 354.193548 463.540192 332.134954 463.548387 329.032258 427.983686 351.095226 427.741935 350.946507 427.741935 354.043371 427.983686 354.193548"></polyline>
        <polyline id="Fill-313" fill="#33647E" points="420 327.733066 390.729659 344.516129 359.032258 326.459114 388.301212 309.677419 420 327.733066"></polyline>
        <polyline id="Fill-314" fill="#42A7C6" points="365.806452 326.422807 387.343214 313.548387 411.290323 327.769318 389.752177 340.645161 365.806452 326.422807"></polyline>
        <polyline id="Fill-315" fill="#D8EFF5" points="420 327.096774 419.929098 369.152933 390 386.129032 390.07232 344.072874 420 327.096774"></polyline>
        <polyline id="Fill-316" fill="#22ABBF" points="413.225806 336.774194 413.184443 342.500375 395.806452 353.225806 395.846481 347.499625 413.225806 336.774194"></polyline>
        <polyline id="Fill-317" fill="#22ABBF" points="413.225806 359.032258 413.184443 364.758933 395.806452 375.483871 395.846481 369.757196 413.225806 359.032258"></polyline>
        <polyline id="Fill-318" fill="#22ABBF" points="413.225806 348.387097 413.184443 354.113772 395.806452 364.83871 395.846481 359.112035 413.225806 348.387097"></polyline>
        <polyline id="Fill-319" fill="#AFD5E4" points="390 344.589607 389.928896 387.096774 358.064516 368.636199 358.13562 326.129032 390 344.589607"></polyline>
        <polyline id="Fill-320" fill="#42A7C6" points="364.83871 325.281205 367.901288 327.096774 386.129032 316.221613 386.129032 312.580645 364.83871 325.281205"></polyline>
        <polyline id="Fill-321" fill="#42A7C6" points="386.129032 312.580645 386.129032 316.135916 408.033762 328.064516 411.290323 326.279339 386.129032 312.580645"></polyline>
        <polyline id="Fill-322" fill="#1B505E" points="378.387097 364.286151 378.360075 380.322581 365.806452 373.133204 365.839162 357.096774 378.387097 364.286151"></polyline>
        <path d="M252.087849,303.495464 C255.310614,305.57246 255.327941,308.943297 252.125169,311.021782 C248.925062,313.100266 243.715059,313.100266 240.492294,311.021782 C237.269529,308.943297 237.253535,305.57246 240.454975,303.495464 C243.656414,301.415491 248.865085,301.415491 252.087849,303.495464" id="Fill-323" fill="#1D90A4"></path>
        <polygon id="Fill-324" fill="#1B505E" points="245.806452 307.741935 247.741935 307.741935 247.741935 296.129032 245.806452 296.129032"></polygon>
        <path d="M256.451613,289.35553 C256.451613,294.701521 252.118419,299.032258 246.774194,299.032258 C241.428585,299.032258 237.096774,294.701521 237.096774,289.35553 C237.096774,284.010923 241.428585,279.677419 246.774194,279.677419 C252.118419,279.677419 256.451613,284.010923 256.451613,289.35553" id="Fill-325" fill="#1E7D8A"></path>
        <path d="M243.386481,288.387097 C242.050814,288.387097 240.967742,287.302792 240.967742,285.967126 C240.967742,284.63146 242.050814,283.548387 243.386481,283.548387 C244.723379,283.548387 245.806452,284.63146 245.806452,285.967126 C245.806452,287.302792 244.723379,288.387097 243.386481,288.387097" id="Fill-326" fill="#1E8EA0"></path>
        <path d="M246.774755,284.516129 C246.240673,284.516129 245.806452,284.082778 245.806452,283.548387 C245.806452,283.012873 246.240673,282.580645 246.774755,282.580645 C247.308836,282.580645 247.741935,283.012873 247.741935,283.548387 C247.741935,284.082778 247.308836,284.516129 246.774755,284.516129" id="Fill-327" fill="#1E8EA0"></path>
        <path d="M246.394743,279.677419 C245.142845,279.677419 243.945564,279.898728 242.840272,280.29985 C242.976816,280.295701 243.110486,280.281869 243.247031,280.281869 C247.698385,280.281869 251.308912,283.755034 251.308912,288.038743 C251.308912,292.323835 247.698385,295.797 243.247031,295.797 C240.780604,295.797 238.575768,294.726419 237.096774,293.047238 C238.604514,296.560515 242.199231,299.032258 246.394743,299.032258 C251.948515,299.032258 256.451613,294.701521 256.451613,289.35553 C256.451613,284.010923 251.948515,279.677419 246.394743,279.677419" id="Fill-328" fill="#1B505E"></path>
        <path d="M417.564589,175.131972 C419.78163,176.393769 421.583673,175.38186 421.590656,172.876115 C421.597599,170.366251 419.80809,167.314047 417.592442,166.053623 C415.380971,164.794572 413.578929,165.802362 413.570553,168.312226 C413.56361,170.816598 415.354511,173.874294 417.564589,175.131972 M427.741873,176.415737 C427.723707,182.774151 418.036685,188.411734 417.526989,188.709677 C417.020077,187.833696 407.402687,171.206534 407.419377,164.84812 C407.438895,158.488333 411.998312,155.920802 417.611938,159.115799 C423.225564,162.312168 427.761307,170.057323 427.741873,176.415737" id="Fill-329" fill="#1B505E"></path>
        <path d="M162.112818,320.294048 C164.322897,319.034943 166.113799,315.977115 166.106856,313.472635 C166.099873,310.962662 164.29783,309.954829 162.086358,311.213934 C159.870708,312.475786 158.079806,315.526748 158.088133,318.036721 C158.095125,320.542574 159.897168,321.554527 162.112818,320.294048 M162.066861,304.277183 C167.679097,301.082048 172.23991,303.64969 172.258039,310.008378 C172.276118,316.36844 162.658722,332.994949 162.151811,333.870968 C161.642114,333.574385 151.953696,327.935185 151.935538,321.577869 C151.917488,315.217807 156.453233,307.472317 162.066861,304.277183" id="Fill-330" fill="#1B505E"></path>
        <path d="M485.306537,297.0696 C487.523579,298.33008 489.325622,297.318126 489.332606,294.81227 C489.339549,292.302294 487.550039,289.249956 485.334389,287.988103 C483.122918,286.730369 481.320875,287.738204 481.312499,290.248179 C481.305556,292.752662 483.096458,295.810493 485.306537,297.0696 M495.483817,298.352049 C495.465659,304.712118 485.778633,310.348578 485.268937,310.645161 C484.762025,309.770515 475.143237,293.142614 475.161316,286.783919 C475.180838,280.42385 479.740257,277.856206 485.352493,281.051344 C490.967515,284.247855 495.501867,291.993353 495.483817,298.352049" id="Fill-331" fill="#1B505E"></path>
        <path d="M402.087583,157.365261 C405.310477,159.443672 405.327805,162.814392 402.126236,164.892804 C398.924668,166.971216 393.715788,166.971216 390.492893,164.892804 C387.269999,162.814392 387.252672,159.443672 390.455573,157.365261 C393.655809,155.286849 398.866021,155.286849 402.087583,157.365261" id="Fill-332" fill="#1D90A4"></path>
        <polygon id="Fill-333" fill="#1B505E" points="394.83871 162.580645 396.774194 162.580645 396.774194 150.967742 394.83871 150.967742"></polygon>
        <path d="M406.451613,142.258065 C406.451613,147.60229 402.119802,151.935484 396.774194,151.935484 C391.429968,151.935484 387.096774,147.60229 387.096774,142.258065 C387.096774,136.913839 391.429968,132.580645 396.774194,132.580645 C402.119802,132.580645 406.451613,136.913839 406.451613,142.258065" id="Fill-334" fill="#1E7D8A"></path>
        <path d="M391.450997,141.290323 C390.115331,141.290323 389.032258,140.206018 389.032258,138.871584 C389.032258,137.534685 390.115331,136.451613 391.450997,136.451613 C392.787895,136.451613 393.870968,137.534685 393.870968,138.871584 C393.870968,140.206018 392.787895,141.290323 391.450997,141.290323" id="Fill-335" fill="#1E8EA0"></path>
        <path d="M395.806452,137.419355 C395.27206,137.419355 394.83871,136.986255 394.83871,136.452174 C394.83871,135.918093 395.27206,135.483871 395.806452,135.483871 C396.341965,135.483871 396.774194,135.918093 396.774194,136.452174 C396.774194,136.986255 396.341965,137.419355 395.806452,137.419355" id="Fill-336" fill="#1E8EA0"></path>
        <path d="M396.394743,132.580645 C395.142845,132.580645 393.945564,132.801938 392.841709,133.204415 C392.976816,133.197499 393.110486,133.183669 393.248468,133.183669 C397.698385,133.183669 401.308912,136.657969 401.308912,140.941371 C401.308912,145.226157 397.698385,148.697691 393.248468,148.697691 C390.780604,148.697691 388.575768,147.628569 387.096774,145.949508 C388.604514,149.462535 392.199231,151.935484 396.394743,151.935484 C401.948515,151.935484 406.451613,147.60229 406.451613,142.258065 C406.451613,136.913839 401.948515,132.580645 396.394743,132.580645" id="Fill-337" fill="#1B505E"></path>
        <path d="M371.121059,175.752575 C374.342555,177.831278 374.359882,181.20098 371.158378,183.279683 C367.956875,185.358385 362.7481,185.358385 359.525271,183.279683 C356.302442,181.20098 356.285115,177.831278 359.486618,175.752575 C362.689455,173.673873 367.898229,173.673873 371.121059,175.752575" id="Fill-338" fill="#1D90A4"></path>
        <polygon id="Fill-339" fill="#1B505E" points="363.870968 179.032258 365.806452 179.032258 365.806452 167.419355 363.870968 167.419355"></polygon>
        <path d="M376.451613,159.677419 C376.451613,165.023028 372.118419,169.354839 366.774194,169.354839 C361.429968,169.354839 357.096774,165.023028 357.096774,159.677419 C357.096774,154.333193 361.429968,150 366.774194,150 C372.118419,150 376.451613,154.333193 376.451613,159.677419" id="Fill-340" fill="#1E7D8A"></path>
        <path d="M361.452229,159.677419 C360.115331,159.677419 359.032258,158.594347 359.032258,157.258681 C359.032258,155.921782 360.115331,154.83871 361.452229,154.83871 C362.787895,154.83871 363.870968,155.921782 363.870968,157.258681 C363.870968,158.594347 362.787895,159.677419 361.452229,159.677419" id="Fill-341" fill="#1E8EA0"></path>
        <path d="M364.83871,154.83871 C364.304319,154.83871 363.870968,154.40561 363.870968,153.870407 C363.870968,153.336325 364.304319,152.903226 364.83871,152.903226 C365.373101,152.903226 365.806452,153.336325 365.806452,153.870407 C365.806452,154.40561 365.373101,154.83871 364.83871,154.83871" id="Fill-342" fill="#1E8EA0"></path>
        <path d="M367.362485,150 C366.110587,150 364.914743,150.221293 363.808013,150.62377 C363.944558,150.618237 364.078228,150.604406 364.214773,150.604406 C368.667564,150.604406 372.276654,154.077323 372.276654,158.360726 C372.276654,162.645512 368.667564,166.118429 364.214773,166.118429 C361.748346,166.118429 359.54351,165.049307 358.064516,163.368863 C359.573693,166.881889 363.166972,169.354839 367.362485,169.354839 C372.916257,169.354839 377.419355,165.023028 377.419355,159.677419 C377.419355,154.333193 372.916257,150 367.362485,150" id="Fill-343" fill="#1B505E"></path>
      </g>
    </g>
  </g>
</svg>
