<?xml version="1.0" encoding="UTF-8"?>
<svg width="1200pt" height="1200pt" version="1.1" viewBox="0 0 1200 1200" xmlns="http://www.w3.org/2000/svg">
 <g fill="#5fa4c2">
  <path d="m1008.9 337.5h-816.8c-37.852 0-68.555 30.703-68.555 68.555v619.92c0 37.852 30.703 68.555 68.555 68.555h816.8c37.852 0 68.555-30.703 68.555-68.555v-619.92c0-37.852-30.703-68.555-68.555-68.555zm-246.8 410.62-268.71 168.4c-4.6875 3.0469-10.195 4.4531-15.586 4.4531-4.8047 0-9.6094-1.1719-14.062-3.6328-9.375-5.1562-15.117-15-15.117-25.664v-336.56c0-10.664 5.7422-20.391 15-25.547s20.625-4.9219 29.648 0.70313l268.71 168.28c8.5547 5.3906 13.711 14.648 13.711 24.844 0 10.195-5.0391 19.336-13.594 24.727z"/>
  <path d="m275.16 299.53h-46.875c0-52.734 42.773-95.625 95.391-95.625h553.83c52.5 0 95.273 42.773 95.273 95.391h-46.875c0-26.719-21.68-48.516-48.398-48.516h-553.83c-26.836 0-48.516 21.914-48.516 48.75z"/>
  <path d="m438.16 167.23h-46.875c0-34.102 27.656-61.758 61.758-61.758h294.96c33.984 0 61.641 27.656 61.641 61.641h-46.875c0-8.0859-6.6797-14.766-14.766-14.766h-294.96c-8.2031 0-14.883 6.6797-14.883 14.883z"/>
 </g>
</svg>
