<?xml version="1.0" encoding="UTF-8"?>
<svg width="1200pt" height="1200pt" version="1.1" viewBox="0 0 1200 1200" xmlns="http://www.w3.org/2000/svg">
 <path d="m857.53 745.56c-0.085938-0.37109-0.10938-0.74219-0.25391-1.0938-0.15625-0.37109-0.43359-0.68359-0.67188-1.0312-0.20312-0.28906-0.3125-0.625-0.57422-0.875-0.046875-0.046875-0.097656-0.085938-0.14453-0.13281 0-0.011719 0-0.011719-0.011719-0.023437-0.011719-0.011719-0.023438-0.011719-0.023438-0.011719-41.988-42.719-94.273-71.074-151.39-82.367-0.097657-0.035157-0.17969-0.10938-0.27734-0.13281l-81.227-17.281h-0.011719c-101.26-21.457-205.49 11.867-278.88 89.16-0.011718 0.011719-0.023437 0.011719-0.035156 0.023438s-0.011719 0.023437-0.023438 0.035156c-0.035156 0.046875-0.085937 0.085937-0.12109 0.13281-0.10938 0.12109-0.14453 0.26562-0.25391 0.39453-0.21484 0.26562-0.38281 0.55078-0.55078 0.85156-0.13281 0.23828-0.30078 0.43359-0.40625 0.68359-0.070312 0.17969-0.070312 0.35938-0.13281 0.53906-0.035157 0.15625-0.14453 0.25391-0.17969 0.40625-0.035156 0.20312 0.011719 0.37109 0 0.57422-0.023437 0.25391-0.10938 0.48047-0.097656 0.71875 0 0.21484 0.058594 0.39453 0.085937 0.61328 0.035157 0.34766 0.10938 0.67187 0.21484 1.0078 0.058594 0.21484 0.070313 0.42188 0.15625 0.625 0.070313 0.19141 0.21484 0.33594 0.30078 0.51562 0.17969 0.33594 0.39453 0.63672 0.63672 0.92578 0.12109 0.15625 0.16797 0.32422 0.30078 0.46875l0.15625 0.15625v0.011719l69.672 71.125c0.13281 0.13281 0.30078 0.17969 0.43359 0.28906 0.3125 0.26562 0.64844 0.49219 1.0195 0.70703 0.35937 0.19141 0.70703 0.34766 1.0938 0.46875 0.16797 0.046875 0.30078 0.17969 0.49219 0.21484l84.48 17.867c0.42188 0.085938 0.82812 0.13281 1.2344 0.13281 0.74219 0 1.4531-0.15625 2.1133-0.40625 0.046875-0.011718 0.10938-0.035156 0.15625-0.046874 0.16797-0.070313 0.28906-0.21484 0.45703-0.28906 0.44531-0.23828 0.86328-0.48047 1.2461-0.80469 0.070313-0.070313 0.15625-0.085938 0.22656-0.15625 0.023437-0.035157 0.035156-0.070313 0.070312-0.10938 0.023438-0.023437 0.058594-0.035156 0.085938-0.058593 35.566-37.586 82.871-58.957 133.34-60.406 20.09 9.5508 37.43 21.875 52.871 37.789 0.13281 0.14453 0.30078 0.19141 0.44531 0.30078 0.3125 0.26563 0.66016 0.49219 1.0312 0.70703 0.35938 0.19141 0.70703 0.34766 1.0781 0.45703 0.17969 0.058594 0.3125 0.19141 0.50391 0.22656l84.48 17.879c0.34766 0.070312 0.70703 0.097656 1.0547 0.10938 0.058594 0.011719 0.10938 0.023437 0.16797 0.023437h0.023438 0.011718c0.73047 0 1.4141-0.15625 2.0742-0.38281 0.070313-0.023438 0.13281-0.046875 0.19141-0.070313 0.17969-0.070312 0.30078-0.21484 0.46875-0.30078 0.44531-0.22656 0.86328-0.46875 1.2344-0.80469 0.070313-0.058593 0.15625-0.085937 0.22656-0.14453 0.023437-0.023437 0.035156-0.070312 0.070312-0.097656 0.023438-0.035156 0.070313-0.035156 0.097657-0.070313l69.84-73.68c0.27734-0.28906 0.40625-0.66016 0.61328-0.98438 0.20313-0.3125 0.45703-0.60156 0.58984-0.9375 0.16797-0.38281 0.17969-0.79297 0.25391-1.2109 0.058594-0.34766 0.17969-0.69531 0.17969-1.043-0.003906-0.42969-0.13281-0.80078-0.21875-1.1875zm-75.887 66.457c-38.148-36.672-87.695-56.27-139.84-55.164h-0.12109c-0.097656 0-0.20312-0.011718-0.28906-0.011718-52.164 1.1172-101.1 22.465-138.71 59.953l-61.512-62.773c68.258-69.336 163.93-100.43 257.23-83.074 54.434 9.9844 104.35 36.324 144.88 76.043zm355.03-357.77c0.15625-0.37109 0.16797-0.75781 0.23828-1.1523 0.070313-0.37109 0.19141-0.73047 0.19141-1.1172 0-0.33594-0.12109-0.66016-0.17969-0.99609-0.085937-0.43359-0.12109-0.85156-0.27734-1.2617-0.13281-0.30078-0.35938-0.53906-0.53906-0.82812-0.22656-0.35938-0.38281-0.74219-0.69531-1.0547-96.758-98.711-217.77-164.52-350.26-190.75-0.046875-0.011719-0.070312-0.035156-0.12109-0.046875l-76.859-16.32h-0.011719c-233.66-49.453-474.24 27.504-643.48 205.95-0.046875 0.046875-0.097656 0.097656-0.14453 0.15625-0.10938 0.12109-0.14453 0.26562-0.25391 0.39453-0.22656 0.26562-0.39453 0.55078-0.5625 0.85156-0.13281 0.23828-0.30078 0.43359-0.39453 0.68359-0.070312 0.17969-0.085937 0.35938-0.13281 0.53906-0.035157 0.14453-0.14453 0.25391-0.17969 0.40625-0.035156 0.20312 0.011719 0.38281 0 0.57422-0.023437 0.23828-0.10938 0.46875-0.097656 0.71875 0 0.20312 0.058594 0.39453 0.085937 0.58984 0.035157 0.35938 0.10938 0.68359 0.20313 1.0195 0.058593 0.21484 0.070312 0.43359 0.16797 0.63672 0.070313 0.17969 0.20312 0.32422 0.28906 0.49219 0.17969 0.33594 0.39453 0.63672 0.63672 0.9375 0.12109 0.15625 0.17969 0.33594 0.3125 0.48047l69.84 71.281c0.13281 0.13281 0.30078 0.17969 0.43359 0.28906 0.3125 0.27734 0.66016 0.49219 1.0312 0.69531 0.34766 0.19141 0.69531 0.34766 1.0664 0.46875 0.17969 0.058594 0.3125 0.17969 0.50391 0.21484l84.359 17.879c0.40625 0.085938 0.82813 0.13281 1.2344 0.13281 0.73047 0 1.4414-0.15625 2.1133-0.40625 0.046875-0.023437 0.10938-0.023437 0.15625-0.046874 0.17969-0.070313 0.3125-0.22656 0.49219-0.3125 0.43359-0.22656 0.85156-0.48047 1.2227-0.80469 0.058594-0.058594 0.15625-0.085938 0.22656-0.14453 0.023437-0.023438 0.035156-0.058594 0.058594-0.085938 0.023437-0.023437 0.058593-0.035156 0.097656-0.058593 129.91-137.02 315.95-204.61 498.08-180.94 0.12109 0.035157 0.21484 0.13281 0.32422 0.16797 93.406 27.504 178.7 78.828 246.66 148.44 0.12109 0.13281 0.28906 0.16797 0.42188 0.27734 0.32422 0.28906 0.67188 0.51562 1.0664 0.73047 0.33594 0.19141 0.68359 0.33594 1.043 0.45703 0.17969 0.046875 0.3125 0.17969 0.50391 0.21484l84.48 18c0.35938 0.070312 0.73047 0.097656 1.0938 0.10938 0.046875 0 0.097656 0.011719 0.13281 0.011719h0.023438 0.011719 0.011719c0.73047 0 1.4297-0.14453 2.0898-0.39453 0.058594-0.023437 0.12109-0.035156 0.16797-0.058594 0.17969-0.070312 0.3125-0.21484 0.48047-0.30078 0.44531-0.22656 0.86328-0.48047 1.2461-0.81641 0.058594-0.058594 0.15625-0.070313 0.21484-0.14453 0.023438-0.023438 0.035156-0.058594 0.058594-0.097656 0.035156-0.023438 0.070312-0.035157 0.10938-0.070313l69.828-73.68c0.28906-0.30078 0.43359-0.68359 0.64844-1.0312 0.15625-0.28125 0.39453-0.54688 0.52734-0.87109zm-913.54 77.355-61.5-62.773c162.05-168.25 391.6-243.43 615.21-201.21 130.6 24.59 250.02 88.414 345.85 184.57l-61.57 64.969c-91.547-91.633-206.45-148.92-332.79-165.62-184.3-24.371-372.57 42.996-505.21 180.07zm494.72 363.61c0.070313-0.38281 0.19141-0.75781 0.19141-1.1523 0-0.34766-0.12109-0.68359-0.19141-1.0195-0.070312-0.42187-0.10938-0.82812-0.26562-1.2227-0.15625-0.34766-0.40625-0.64844-0.625-0.96094-0.21484-0.3125-0.33594-0.66016-0.61328-0.9375-0.046875-0.046875-0.097656-0.097657-0.14453-0.14453-0.011719 0-0.011719-0.011719-0.023438-0.023438-0.011718-0.011719-0.023437-0.011719-0.023437-0.023438-15.527-15.793-34.906-25.754-56.062-28.957-0.44531-0.23828-0.875-0.50391-1.3906-0.61328l-78.359-16.559c-0.011719 0-0.011719-0.011718-0.023438-0.011718-35.062-7.1992-72 4.5859-96.527 30.707-0.023438 0.023437-0.046876 0.023437-0.070313 0.046875-0.011719 0.023437-0.023437 0.046875-0.035156 0.058594-0.046875 0.046874-0.097657 0.097656-0.14453 0.14453-0.10938 0.12109-0.13281 0.25391-0.23828 0.37109-0.21484 0.26563-0.37109 0.55078-0.53906 0.85156-0.13281 0.23828-0.30078 0.44531-0.39453 0.69531-0.070312 0.17969-0.085937 0.35937-0.14453 0.55078-0.035156 0.13281-0.13281 0.23828-0.16797 0.37109-0.035156 0.20313 0.011719 0.37109 0 0.57422-0.023437 0.25391-0.097656 0.49219-0.097656 0.74219 0 0.21484 0.058594 0.40625 0.085938 0.61328 0.035156 0.33594 0.10938 0.66016 0.20312 0.98438 0.058593 0.21484 0.085937 0.43359 0.16797 0.64844 0.070312 0.17969 0.20312 0.33594 0.30078 0.51563 0.17969 0.32422 0.39453 0.61328 0.625 0.89844 0.12109 0.15625 0.16797 0.32422 0.30078 0.46875l69.84 71.281c0.13281 0.13281 0.30078 0.17969 0.43359 0.28906 0.3125 0.26562 0.66016 0.49219 1.0195 0.70703 0.35938 0.19141 0.70703 0.34766 1.0938 0.46875 0.16797 0.058593 0.30078 0.17969 0.49219 0.21484l84.48 17.879c0.40625 0.085937 0.81641 0.13281 1.2344 0.13281h0.011719 0.011719c0.74219 0 1.4414-0.15625 2.1133-0.40625 0.046875-0.011719 0.10938-0.023437 0.15625-0.046875 0.17969-0.070312 0.30078-0.21484 0.46875-0.30078 0.44531-0.22656 0.85156-0.46875 1.2344-0.80469 0.070312-0.058594 0.15625-0.085938 0.22656-0.14453 0.023438-0.023437 0.035156-0.070312 0.070313-0.097656 0.023437-0.035156 0.070312-0.035156 0.097656-0.070312l69.84-73.691c0.26562-0.27734 0.39453-0.64844 0.60156-0.96094 0.21484-0.3125 0.46875-0.61328 0.60156-0.96094 0.085937-0.35938 0.10938-0.73047 0.17969-1.1055zm-75.695 63.949-61.188-62.461c20.605-19.211 48.406-28.379 75.719-24.336 17.438 2.3047 33.383 10.105 46.738 22.164zm355.07-358.67c0.070313-0.38281 0.19141-0.75781 0.19141-1.1406 0-0.34766-0.12109-0.68359-0.19141-1.0195-0.070313-0.42188-0.10938-0.83984-0.26562-1.2344-0.14453-0.33594-0.39453-0.60156-0.60156-0.91016-0.21484-0.32422-0.34766-0.69531-0.63672-0.98438-71.117-72.641-160.53-120.46-258.58-138.27-0.046876 0-0.097657-0.011719-0.14453-0.011719l-71.438-15.191c-167.44-35.52-339.83 19.633-461.21 147.5-0.046875 0.046875-0.097656 0.097657-0.14453 0.14453-0.10938 0.10938-0.13281 0.25391-0.22656 0.37109-0.23828 0.27734-0.42188 0.58984-0.60156 0.92578-0.12109 0.21484-0.28906 0.40625-0.37109 0.63672-0.070313 0.17969-0.085937 0.37109-0.13281 0.55078-0.035156 0.14453-0.14453 0.25391-0.17969 0.40625-0.035156 0.20312 0.011719 0.38281 0 0.57422-0.023437 0.25391-0.10938 0.48047-0.097656 0.71875 0 0.21484 0.058593 0.40625 0.085937 0.61328 0.035156 0.34766 0.10938 0.67187 0.20312 0.99609 0.058594 0.21484 0.070313 0.43359 0.15625 0.63672 0.070313 0.17969 0.21484 0.33594 0.3125 0.51562 0.17969 0.32422 0.38281 0.625 0.625 0.91016 0.12109 0.15625 0.16797 0.33594 0.3125 0.48047l69.84 71.281c0.13281 0.13281 0.30078 0.17969 0.43359 0.28906 0.3125 0.26563 0.64844 0.49219 1.0195 0.70703 0.35938 0.19141 0.70703 0.34766 1.0938 0.46875 0.16797 0.058594 0.30078 0.17969 0.49219 0.21484l84.48 17.867c0.42188 0.085937 0.82812 0.13281 1.2344 0.13281 0.74219 0 1.4531-0.15625 2.1133-0.40625 0.046876-0.023438 0.10938-0.023438 0.15625-0.046876 0.16797-0.070312 0.28906-0.21484 0.44531-0.28906 0.44531-0.22656 0.875-0.48047 1.2461-0.80469 0.070312-0.070312 0.15625-0.085937 0.22656-0.15625 0.035157-0.035156 0.035157-0.085937 0.070313-0.10937 0.023437-0.023438 0.046875-0.035157 0.070312-0.058594 83.387-87.973 198.46-132.25 315.83-121.57 58.934 19.836 106.54 49.766 149.75 94.152 0.13281 0.13281 0.30078 0.19141 0.44531 0.30078 0.3125 0.26562 0.67187 0.49219 1.043 0.70703 0.34766 0.19141 0.69531 0.34766 1.0664 0.45703 0.17969 0.058593 0.3125 0.19141 0.50391 0.22656l84.48 17.879c0.34766 0.070312 0.69531 0.097656 1.043 0.10937 0.070313 0 0.13281 0.023438 0.20312 0.023438h0.011719c0.73047 0 1.4141-0.14453 2.0742-0.38281 0.070312-0.023438 0.13281-0.046876 0.20312-0.070313 0.16797-0.070313 0.28906-0.21484 0.45703-0.30078 0.44531-0.22656 0.85156-0.46875 1.2344-0.80469 0.070312-0.058594 0.15625-0.070312 0.22656-0.14453 0.023438-0.023437 0.035157-0.070313 0.058594-0.097656 0.035156-0.035157 0.070313-0.035157 0.10938-0.070313l69.84-73.68c0.26562-0.28906 0.39453-0.63672 0.60156-0.96094 0.21484-0.32422 0.46875-0.61328 0.60156-0.96094 0.15234-0.375 0.16406-0.75781 0.23438-1.1289zm-634.3 73.668-61.441-62.699c114.29-117.91 275.81-171.29 433.34-142.74l7.3086 1.5469c0.30078 0.058594 0.60156 0.070313 0.89844 0.097657 90.562 18.121 173.26 62.617 239.99 129.19l-61.609 64.98c-65.027-64.355-146.52-102.8-236.16-111.18-119.61-11.188-236.52 32.863-322.33 120.8z" fill="#5fa4c2"/>
</svg>
